<svg xmlns="http://www.w3.org/2000/svg" viewBox="0 0 252.35 348.5"><defs><style>.cls-1{fill:#fff;stroke-width:0.5px;}.cls-1,.cls-71{stroke:#000;stroke-miterlimit:10;}.cls-2{font-size:26.36px;font-family:RageItalic, Rage Italic;}.cls-3{font-size:4.88px;font-family:Consolas, Consolas;}.cls-4{fill:#f9f9f9;}.cls-5{fill:#010101;}.cls-6{fill:#020202;}.cls-7{fill:#141414;}.cls-8{fill:#111;}.cls-9{fill:#fcfbfc;}.cls-10{fill:#1d1d1d;}.cls-11{fill:#ebebeb;}.cls-12{fill:#656565;}.cls-13{fill:#d5d4d5;}.cls-14{fill:#030303;}.cls-15{fill:#efeeef;}.cls-16{fill:#efefef;}.cls-17{fill:#fbfbfb;}.cls-18{fill:#1f1f1f;}.cls-19{fill:#f7f7f7;}.cls-20{fill:#f2f2f2;}.cls-21{fill:#232323;}.cls-22{fill:#1a1a1a;}.cls-23{fill:#090909;}.cls-24{fill:#060606;}.cls-25{fill:#070707;}.cls-26{fill:#181818;}.cls-27{fill:#0d0d0d;}.cls-28{fill:#242424;}.cls-29{fill:#080808;}.cls-30{fill:#f5f5f5;}.cls-31{fill:#f1f1f1;}.cls-32{fill:#1b1b1b;}.cls-33{fill:#161616;}.cls-34{fill:#050505;}.cls-35{fill:#171717;}.cls-36{fill:#5a5a5a;}.cls-37{fill:#3e3e3e;}.cls-38{fill:#5d5d5d;}.cls-39{fill:#313131;}.cls-40{fill:#e9e9e9;}.cls-41{fill:#4c4c4c;}.cls-42{fill:#393939;}.cls-43{fill:#767676;}.cls-44{fill:#686868;}.cls-45{fill:#a6a5a6;}.cls-46{fill:#545454;}.cls-47{fill:#b1b1b1;}.cls-48{fill:#cfcfcf;}.cls-49{fill:#797979;}.cls-50{fill:#f6f6f6;}.cls-51{fill:#fcfcfc;}.cls-52{fill:#222;}.cls-53{fill:#262626;}.cls-54{fill:#f8f8f8;}.cls-55{fill:#fbfafb;}.cls-56{fill:#101010;}.cls-57{fill:#0a0a0a;}.cls-58{fill:#0e0e0e;}.cls-59{fill:#ddd;}.cls-60{fill:#131313;}.cls-61{fill:#292929;}.cls-62{fill:#252525;}.cls-63{fill:#323232;}.cls-64{fill:#1e1e1e;}.cls-65{fill:#2c2c2c;}.cls-66{fill:#212121;}.cls-67{fill:#040404;}.cls-68{fill:#fefefe;}.cls-69{fill:#282828;}.cls-70{fill:#0f0f0f;}.cls-71{fill:none;}</style></defs><title>Asset 117recibo-encomenda-flores</title><g id="Layer_2" data-name="Layer 2"><g id="Layer_3" data-name="Layer 3"><rect class="cls-1" x="0.25" y="0.25" width="251.85" height="348"/><text class="cls-2" transform="translate(38.32 52.21)">Florista joaninha</text><text class="cls-3" transform="translate(58.03 70.03)">Rua João Mendonça, 529 4464-501 Senhora da Hora<tspan x="0" y="11.71">Registada CRC Porto sob nº 508887534 </tspan><tspan x="0" y="17.57">NIF: PT50 888 7534</tspan><tspan x="0" y="23.43">C.S.: 6.050.000,00 EUR SIRPEEE </tspan><tspan x="0" y="29.28">Fatura simplificada original</tspan><tspan x="0" y="35.14">Nro: FS BTW001/167737 10/12/2019 19:29</tspan><tspan x="0" y="46.86">NIF: PT 193837622</tspan><tspan x="0" y="58.57" xml:space="preserve">IVA DESCRIÇÃO                              Valor</tspan><tspan x="0" y="76.14" xml:space="preserve">(c) Boqué de rosas vermelhas               13,50</tspan><tspan x="0" y="93.71" xml:space="preserve">TOTAL A PAGAR                              13,50</tspan><tspan x="0" y="99.57" xml:space="preserve">CARTAO CRÉDITO                             13,50</tspan><tspan x="0" y="105.42" xml:space="preserve">TROCO                                       0,00</tspan><tspan x="0" y="123" xml:space="preserve">      %IVA    Total liq.   IVA             Total</tspan><tspan x="0" y="128.85" xml:space="preserve">(c) 23,00%    10.39        3.10            13,50</tspan><tspan x="38.72" y="175.71">20031200144942411905</tspan><tspan x="0" y="203.53">UDSB - Processado por programa certificado</tspan><tspan x="0" y="210.85">N.1356/AT</tspan><tspan x="0" y="218.17">1193 0001 449424 285505 - 100120395535411</tspan><tspan x="0" y="229.88" xml:space="preserve">  </tspan></text><path class="cls-4" d="M157.56,217.54l.63.31a.43.43,0,0,1,.27.59,2.44,2.44,0,0,0-.1.92c0,5.2,0,10.39,0,15.58l0,.06s0-.07,0-.08c0-5.23,0-10.45,0-15.67a10.23,10.23,0,0,1,.17-1.34.8.8,0,0,1,.27-.28c.61.14.27.43.27.64,0,5.61,0,11.23,0,16.84,0,.68-.32.95-1.55.88a13.75,13.75,0,0,0-3.51,0c-.44.09-.62-.11-.64-.34s0-.44,0-.67c0-5.25,0-10.49,0-15.74,0-.57-.71-1.21.32-1.73.52.36.37.8.37,1.21,0,5.15,0,10.31,0,15.46a1.84,1.84,0,0,0,.13,1.08,1.48,1.48,0,0,0,1.59,0,2.15,2.15,0,0,0,.11-1.09c0-5.15,0-10.29,0-15.44,0-.41-.15-.85.36-1.21.24,0,.49-.19.69,0,.42.33.25.71.25,1.06q0,7.83,0,15.67,0-7.89,0-15.76C157.35,218.19,157.23,217.85,157.56,217.54Z"/><path class="cls-5" d="M141,217.85l0-.16c1.89-.18,2.13-.1,2.13.94,0,5.27,0,10.53,0,15.79,0,.33.06.68-.35,1-1.54.26-1.7.2-1.7-.72,0-4.63,0-9.26,0-13.88.55-.51,1.16-1,.95-1.67a1.09,1.09,0,0,0-.77-.85c-.27-.45.35-.26.65-.33C141.62,217.89,141.24,218,141,217.85Z"/><path class="cls-6" d="M70.53,235.55c-1.82.48-2.41.32-2.41-.68V218.78c0-.31,0-.62.07-.93a.67.67,0,0,1,.35-.07c.54.08,1.09,0,1.63,0a.27.27,0,0,1,.19.36,1,1,0,0,0-.1.29c0,5.26,0,10.53,0,15.79,0,.36.13.73-.2,1.07a1.32,1.32,0,0,1-1.05.06c-.38-.33-.22-.71-.22-1.07,0-4.94,0-9.88,0-14.82,0,5.15,0,10.3,0,15.45-.07.43.28.6,1,.5l.33-.13C70.35,235.35,70.41,235.47,70.53,235.55Z"/><path class="cls-4" d="M86,217.52c.58.26.32.63.32.94,0,5.25,0,10.49,0,15.73,0,.3-.14.62.2.95.65-.24.36-.61.37-.89,0-5.27,0-10.55,0-15.82,0-.31-.39-.76.54-.92a1.49,1.49,0,0,1,.33.27A2.67,2.67,0,0,1,88,219c0,5.44,0,10.87,0,16.3a1.25,1.25,0,0,0,.17.57,2.17,2.17,0,0,1-2.08-.18c-.46-.32-.3-.7-.3-1.05q0-8.26,0-16.52A.69.69,0,0,1,86,217.52Z"/><path class="cls-4" d="M169.81,217.53c.63.25.35.62.35.93,0,5.34,0,10.67,0,16v.9h.26V217.86c.53.18.32.41.32.59,0,5.53,0,11.06,0,16.59a2.18,2.18,0,0,1,0,.51c-.1.38-.62.49-1.19.49s-.58-.32-.59-.57,0-.73,0-1.09q0-8,0-15.92c0-.31-.29-.69.37-.92.35.33.21.71.21,1.07q0,7.86,0,15.72,0-7.87,0-15.73C169.58,218.24,169.44,217.86,169.81,217.53Z"/><path class="cls-7" d="M75.38,217.53c1.15-.11,1.09.3,1.09.75q0,8.17,0,16.35c0,.31.06.62.08.92-.24.44-.77.24-1.23.18h0c-.21-.21-.12-.44-.12-.66q0-8.41,0-16.82C75.18,218,75,217.74,75.38,217.53Z"/><path class="cls-8" d="M164.78,235.72c-.9.11-1.29,0-1.28-.61.05-5.63,0-11.26,0-16.89,0-.58.17-.88,1.29-.54.51.3.41.68.41,1q0,8,0,16C165.21,235.05,165.28,235.42,164.78,235.72Z"/><path class="cls-5" d="M128.14,235.38c0-3.16-.06-6.32-.07-9.48,0-2.57,0-5.15,0-7.72,0-.54.33-.69,1.17-.65a1.2,1.2,0,0,1,.51,1.11q0,7.94,0,15.88c0,.32.07.68-.52.91a1,1,0,0,1-.56-.06,12.5,12.5,0,0,1-.07-2.52q0-6.71,0-13.4c0-.29-.12-.58,0-.71,0,5.4,0,10.95,0,16.51C128.5,235.38,128.36,235.43,128.14,235.38Z"/><path class="cls-9" d="M63.64,234.88l2.48.34c.64-.24.39-.61.39-.92,0-5.19,0-10.37,0-15.55,0-.33-.12-.67.15-1,.63,0,.88.16.81.45-.51,2.18-.15,4.36-.21,6.54-.07,2.91,0,5.83,0,8.74,0,.68-.34,1.33-.32,2,0,.29-.29.37-.74.42s-1,.09-.17.35c.16.05.09.14,0,.2a12.14,12.14,0,0,1-2.48-.21c.51-.56-.73-.25-.78-.52l.09-.08a1.5,1.5,0,0,1,.25-.15C63.42,235.33,63.31,235,63.64,234.88Z"/><path class="cls-4" d="M62.77,235.73a1.31,1.31,0,0,1-.57-1c.24-.2.14-.43.14-.65q0-7.6,0-15.22c0-.22.1-.45-.14-.65-.58.16-.28.46-.28.68q0,8.07,0,16.13a1.11,1.11,0,0,1-.86,1.28l-.08-.52a.75.75,0,0,1,.05-.16,2.46,2.46,0,0,0,.15-1.25q0-7.69,0-15.39a2.24,2.24,0,0,1,.13-1.17,1.63,1.63,0,0,1,.3-.28c.4.17.81,0,1.21,0,.47.31.39.68.39,1q0,8.07,0,16.13c0,.36.06.73-.42,1Z"/><path class="cls-10" d="M112.3,217.68c.57.24.25.57.25.85,0,5.72,0,11.45,0,17.17a.41.41,0,0,1-.35.06,11,11,0,0,0-2,0,.27.27,0,0,1-.29-.09l0-17.14c0-1.12.25-1.21,2.31-.85-.41.3-1.18.09-1.59.38a.55.55,0,0,0-.07.24c0,.09,0,.18,0,.27,0,5.43,0,10.86,0,16.28a.54.54,0,0,0,.19.21,1.35,1.35,0,0,0,.36.08c.73,0,.65-.25.67-.51,0-5.46,0-10.91,0-16.36a.71.71,0,0,1,.1-.31A1.63,1.63,0,0,1,112.3,217.68Z"/><path class="cls-11" d="M118.88,217.51c.55.27.3.63.3,1,0,5.36,0,10.72,0,16.08,0,1.45-.69,1.7-3.32,1.2l.3-.17.33-.15a.6.6,0,0,0,.14-.26c0-5.47,0-10.93,0-16.4,0-.41-.15-.85.33-1.22l.39,0c.58.39.41.86.41,1.3,0,5.42,0,10.84,0,16.26a.38.38,0,0,0,.21.31.28.28,0,0,0,.42-.26c0-5.37,0-10.72,0-16.08a2.72,2.72,0,0,1,.12-1.26A1.71,1.71,0,0,1,118.88,217.51Z"/><path class="cls-10" d="M183,235.68c-.36-.18-.19-.42-.19-.63q0-8.38,0-16.77c0-.31-.34-.75.81-.76.94,0,1.13.17,1.13.68,0,4.88,0,9.77,0,14.66,0,.87,0,1.74,0,2.61,0,.12,0,.22-.28.23a2.19,2.19,0,0,1-.42-1.55c0-5.24,0-10.47,0-15.7,0-.08,0-.17,0-.26s-.07-.23-.3-.23-.3.11-.33.22,0,.18,0,.27c0,5.47,0,10.94,0,16.41a.6.6,0,0,0,.2.23l.36.14a.81.81,0,0,1,.27.19C184.05,235.82,183.4,235.53,183,235.68Z"/><path class="cls-12" d="M154.06,235.72c-.55-.11-.31-.38-.31-.57,0-5.79,0-11.58,0-17.37a1,1,0,0,1,.07-.25h2.58q0,8.92.05,17.86c0,.13,0,.29-.3.33a1.3,1.3,0,0,1-.29-.28.75.75,0,0,1-.1-.31c-.05-5.34,0-10.68,0-16,0-.38.41-1.05-.57-1.06s-.64.66-.64,1c0,5.11,0,10.22,0,15.34C154.47,234.87,154.65,235.33,154.06,235.72Z"/><path class="cls-13" d="M149.8,217.55c.55.14.37.42.37.66q0,8.46,0,16.93c0,.24.2.57-.3.68s-1.32.25-1.46-.33a1.93,1.93,0,0,1,0-.34V218.31c0-.22-.1-.46.25-.63.42.09.51.29.48.51q0,8.46,0,16.92a.26.26,0,0,0,.15.16c.11-.05.16-.1.18-.18,0-3,0-5.9,0-8.85,0-2.52,0-5,0-7.56C149.47,218.3,149.32,217.89,149.8,217.55Z"/><path class="cls-14" d="M105.15,235.7c-.58-.1-.29-.38-.29-.56q0-8.47,0-16.94c0-.08,0-.17,0-.25,0-.26.06-.41.64-.41s.6.2.6.43v3.63c0,4.43,0,8.87,0,13.31,0,.26.35.61-.32.8-.37-.23-.3-.52-.3-.8,0-5.13,0-10.27,0-15.4,0-.07,0-.12.1-.14-.21,2.11-.07,4.2-.09,6.29,0,3,0,6.05,0,9.08C105.43,235.06,105.58,235.41,105.15,235.7Z"/><path class="cls-15" d="M151,217.85c.07-.18.17-.34.56-.31s.39.15.41.3,0,.39,0,.59V235a.49.49,0,0,1,0,.17c-.08.24.24.67-.49.66s-.45-.43-.45-.69q0-8.23,0-16.48c0-.14,0-.28,0-.42A.26.26,0,0,1,151,217.85Z"/><path class="cls-16" d="M166,217.52h1c.06,0,.08.08.07.12s0,.06-.05.06a.37.37,0,0,1-.31,0c-.58.26-.32.63-.32.94,0,5.5,0,11,0,16.5,0,.3.18.65-.4.84a.71.71,0,0,1-.8-.25c-.24-.23-.13-.49-.13-.74q0-8.08,0-16.18c0-.27-.36-.63.38-.81.41.19.34.46.34.7,0,5.36,0,10.72,0,16.08a.68.68,0,0,1-.09.33,2.14,2.14,0,0,0,.09-1c0-5.43,0-10.86,0-16.3A.84.84,0,0,1,166,217.52Z"/><path class="cls-17" d="M129.05,235.39c.43-.11.26-.34.26-.51q0-8.43,0-16.85a2.37,2.37,0,0,0-.11-.5l.64.32c.55.3.34.69.34,1q0,7.73,0,15.47a5.68,5.68,0,0,0,0,1.09.77.77,0,0,0,.26.28c-.42.69-.8-.06-1.2,0C129.16,235.63,128.8,235.59,129.05,235.39Z"/><path class="cls-18" d="M186.91,217.55c1.3-.17,1,.36,1,.75v16.42a5.7,5.7,0,0,0,.1.83c-.06.06.09.16-.17.18s-.18-.1-.26-.15q0-8.46,0-16.93c.05.5,0,1,0,1.5,0,4.86,0,9.72,0,14.57,0,.28.45.69-.43.85a2,2,0,0,1-.41-1.55c0-5,0-10,0-15,0-.4.13-.78.12-1.18A.46.46,0,0,1,186.91,217.55Z"/><path class="cls-19" d="M139.45,217.52a1.26,1.26,0,0,1,.59,1.25V235c0,.27.06.56-.24.81s-.74.36-1-.08a.63.63,0,0,0,.24-.28c-.15-3,0-6.05-.06-9.07,0-2.58,0-5.16,0-7.73C139,218.25,139,217.85,139.45,217.52Z"/><path class="cls-20" d="M88.15,235.9a.87.87,0,0,1-.61-.17.68.68,0,0,0,.26-.28c.1-5.59,0-11.18,0-16.76,0-.39-.15-.79.23-1.16h.74a.65.65,0,0,1,.3.43c0,.1,0,.21.07.31,0,5.62.07,11.23,0,16.85a1.66,1.66,0,0,1-.12.31,1.35,1.35,0,0,1-.3.28Z"/><path class="cls-14" d="M175.26,217.68c.73-.25,1.1-.22,1.1.35,0,5.74,0,11.48,0,17.23,0,.19.19.49-.5.45-.48-.35-.29-.75-.3-1.14,0-5.48,0-11,0-16.44A.87.87,0,0,0,175.26,217.68Z"/><path class="cls-21" d="M94.72,235.67c-.32-.15-.18-.36-.18-.55V218.19c0-.44-.1-.93,1.12-.53-.14,3.12,0,6.23-.06,9.34,0,2.58,0,5.16,0,7.74,0,.33.13.68-.28,1H95c-.23-.21-.14-.44-.14-.66q0-8.25,0-16.5c0-.19-.22-.44.2-.59-.42.13-.21.37-.21.55q0,8.13,0,16.25C94.84,235.07,95,235.38,94.72,235.67Z"/><path class="cls-6" d="M166.87,217.67s0-.1,0-.15c.64,0,1.05,0,1.05.56,0,5.72,0,11.44,0,17.16,0,.19.23.49-.46.47-.6-.38-.42-.85-.42-1.29q0-7.57,0-15.16A4.82,4.82,0,0,0,166.87,217.67Z"/><path class="cls-18" d="M180.31,235.71H180c-.27-.29-.14-.61-.14-.91,0-5.4,0-10.8,0-16.21,0-.3.13-.61-.14-.9,1.12-.19,1.14-.19,1.14.45q0,4.83,0,9.66c0,2.38,0,4.76,0,7.14,0,.25.29.55-.25.75-.26-.29-.13-.61-.13-.91q0-8.06,0-16.1c0-.26.08-.53-.14-.77s-.22.09-.07,0,.1,0,.14,0,.06.38.06.57v16.52C180.45,235.27,180.54,235.5,180.31,235.71Z"/><path class="cls-22" d="M121.53,217.85v.34c-.25.3-.13.61-.13.91,0,5.23,0,10.47,0,15.7,0,.3.13.61-.13.9h-.61c-.27-.29-.13-.6-.13-.91q0-7.85,0-15.7c0-.3.12-.61-.12-.91v-.34A1.29,1.29,0,0,1,121.53,217.85Z"/><path class="cls-5" d="M137.54,217.57v18.15h-.25V217.58Z"/><path class="cls-23" d="M169.81,217.53c0,1.4.08,2.8.08,4.2q0,6.6,0,13.21c0,.26.12.54-.13.78-.53,0-.48-.19-.48-.35q0-8.84,0-17.67a.49.49,0,0,1,0-.16Z"/><path class="cls-6" d="M173,217.57v18.15h-.31V217.57Z"/><path class="cls-14" d="M178.76,217.56v18.12h-.26V217.57Z"/><path class="cls-24" d="M186,235.72c-1,.07-.52-.37-.52-.56,0-4.51,0-9,0-13.52,0-1.14,0-2.29,0-3.44,0-.24-.3-.59.49-.67a3.35,3.35,0,0,1,.49,1.8q0,7.2,0,14.41A6.66,6.66,0,0,1,186,235.72Z"/><path d="M125,235.72V217.57h.32v18.15Z"/><path class="cls-5" d="M114.32,217.56v18.12h-.27V217.57Z"/><path class="cls-6" d="M80.88,217.57v18.16h-.32V217.58Z"/><path class="cls-5" d="M63.64,234.88c-.39.24.44.72-.54.84-.25-.2-.15-.44-.15-.65q0-8.44,0-16.89c0-.22-.12-.46.18-.65.8.14.4.51.4.77,0,5.22,0,10.44,0,15.66C63.55,234.27,63.61,234.57,63.64,234.88Z"/><path d="M157.56,217.54c0,.36.1.72.1,1.09q0,8.13,0,16.26c0,.28.15.6-.17.84-.48,0-.47-.17-.47-.3l.06-17.87Z"/><path class="cls-14" d="M73.82,235.71c-.65,0-.52-.24-.52-.45q0-8.65,0-17.33c0-.2,0-.41.49-.4.33.18.2.42.2.64v17C74,235.33,74.05,235.54,73.82,235.71Z"/><path d="M93.11,217.58v18.14H92.8V217.58Z"/><ellipse class="cls-25" cx="101.94" cy="226.64" rx="0.19" ry="12.83"/><path class="cls-26" d="M83.71,217.69c1.1-.16,1.15-.16,1.15.29,0,5.73,0,11.45,0,17.17,0,.12-.07.21-.29.26-.3-.29-.15-.61-.15-.91q0-7.74,0-15.48a2,2,0,0,0,0-.83c.09.1,0,.3,0,.49V235a.81.81,0,0,1-.1.58h0c-1-.12-.46-.56-.46-.82,0-5.36,0-10.73,0-16.09C83.81,218.35,84,218,83.71,217.69Z"/><path d="M144.83,235.38c-.07.13,0,.31-.27.35s-.35-.07-.36-.2,0-.39,0-.59c0-5.56,0-11.11,0-16.66,0-.26-.27-.57.31-.76.65.15.61.48.61.79v16.34A.9.9,0,0,1,144.83,235.38Z"/><path class="cls-27" d="M71.49,235.85c0-6.19,0-12.23,0-18.26C72.08,218,72.21,235,71.49,235.85Z"/><path class="cls-28" d="M166.87,217.67c.69.26.62.66.62,1.05q0,8.5,0,17h-.31c-.23-.21-.14-.44-.14-.66q0-8.09,0-16.18c0-.2-.17-.43.11-.57-.34.11-.12.35-.12.54q0,8,0,15.92c0,.3.13.62-.12.91-.44-.23-.2-.52-.2-.78q0-8.35,0-16.71a4.26,4.26,0,0,0-.06-.5A1,1,0,0,1,166.87,217.67Z"/><path class="cls-29" d="M95.31,235.71q0-8.6,0-17.19c0-.29-.21-.63.35-.86.34.38.12.78.12,1.16,0,5.36,0,10.73,0,16.1C95.77,235.17,96.33,235.62,95.31,235.71Z"/><path class="cls-30" d="M144.83,235.38q0-5.46-.07-10.93c0-2.07,0-4.15,0-6.22,0-.24.15-.51-.26-.71.45-.13.79-.1.87.21a2.57,2.57,0,0,1,0,.68q0,8,0,15.93C145.4,234.71,145.65,235.15,144.83,235.38Z"/><path d="M97.09,235.71c-1.06.06-.59-.41-.59-.63,0-2.05,0-4.09,0-6.14L96.53,218c1.12-.08.84.41.84.71,0,1.93,0,3.86,0,5.79v1.76c0,2.79,0,5.59,0,8.38C97.38,235,97.54,235.39,97.09,235.71Z"/><path class="cls-14" d="M134.35,235.05c.28.59-.09.82-1.15.67a.34.34,0,0,1-.16-.31c.05-5.59,0-11.19,0-16.78A1.9,1.9,0,0,0,133,218c0-.17,0-.33.32-.42.46.08,1.43-.19,1.06.48a.76.76,0,0,0-.24.27c-.08,5.53,0,11.06,0,16.59Z"/><path class="cls-8" d="M141.25,220.55c0,4.66,0,9.33,0,14,0,.66.3,1,1.49.84l.11.1c0,.08-.1.13-.23.15a5.4,5.4,0,0,0-1.34.08c-.36,0-.32-.18-.32-.31q0-8.78.05-17.55h1.2c-.2.27-.78.1-.92.34A1.62,1.62,0,0,1,141.25,220.55Z"/><path class="cls-31" d="M133.23,235.56l0,.16h-.62a.48.48,0,0,1-.21-.61,8.7,8.7,0,0,0,.09-2.1c0-4.49,0-9,0-13.47a3.59,3.59,0,0,0-.1-1.26.44.44,0,0,1,.26-.6l.67-.14-.06.31a.86.86,0,0,1,.09.58q0,8.28,0,16.54A.87.87,0,0,1,133.23,235.56Z"/><path class="cls-32" d="M142.7,235.38c0-5.63,0-11.27.06-16.9,0-.85-.78-.81-1.75-.79a4.6,4.6,0,0,1,2.36,0l0,.17c0,5.45,0,10.91,0,16.37a2.11,2.11,0,0,1-.11,1.08.46.46,0,0,1-.47.11Z"/><path class="cls-7" d="M162.09,235.21c0,.11.11.24-.12.29a.61.61,0,0,1-.36,0,2.84,2.84,0,0,1-.05-.58V218.27c0-.11,0-.22,0-.34s0-.4.38-.34.2.28.14.44-.12.38-.12.57v16C162,234.83,161.9,235,162.09,235.21Z"/><path class="cls-33" d="M99.21,217.69c1.1-.17,1.12-.17,1.12.5,0,4,0,7.92,0,11.88,0,1.71,0,3.42,0,5.14,0,.16.29.4-.24.49-.6-.38-.41-.85-.41-1.29,0-5.33,0-10.66,0-16A.7.7,0,0,0,99.21,217.69Z"/><path class="cls-34" d="M99.21,217.69c.33,0,.91-.08.57.32a.23.23,0,0,1,0,.31c-.09,2.71,0,5.42,0,8.13,0,3,0,6,0,9a.29.29,0,0,1,0,.31c-1.18.07-.66-.45-.66-.69,0-3.56-.05-7.13,0-10.69A61.26,61.26,0,0,1,99.21,217.69Z"/><path class="cls-30" d="M61,235.76l-.58,0a.57.57,0,0,1-.21-.29.85.85,0,0,1,.06-.31c.09-5.52,0-11,0-16.55a1.07,1.07,0,0,0-.1-.42.45.45,0,0,1,.16-.61l.63.14c.4.19.33.46.33.71,0,5.67.06,11.34,0,17a.58.58,0,0,1-.23.3Z"/><path class="cls-35" d="M86,217.52v.5c-.26.3-.13.61-.13.91,0,5.29,0,10.57,0,15.85,0,.3.13.62-.14.91-.5-.13-.24-.39-.24-.58q0-8.38,0-16.76C85.53,218.07,85.1,217.65,86,217.52Z"/><path class="cls-18" d="M117,217.54c0,1.71.08,3.42.08,5.13,0,4.07,0,8.15,0,12.22,0,.26.31.6-.29.82-.59-.39-.4-.85-.41-1.29,0-5.15,0-10.3,0-15.45,0-.44.19-.91-.43-1.28C116.17,217.38,116.66,217.64,117,217.54Z"/><path class="cls-36" d="M118,235.71c-.23,0-.31-.07-.36-.16a1,1,0,0,1-.1-.67c0-5.54,0-11.09,0-16.63,0-.24-.19-.51.21-.72l1.13,0v.17a.86.86,0,0,0-.43.38c-.14,3.83,0,7.66-.06,11.49,0,1.71,0,3.41,0,5.12C118.38,235,118.47,235.41,118,235.71Z"/><path class="cls-34" d="M147.54,217.52c.34.16.39.4.51.62-.2.3-.1.61-.1.92,0,5.28,0,10.56,0,15.84,0,.27.5.69-.44.83-.19-.21-.11-.44-.11-.66q0-8.41,0-16.82C147.36,218,147.22,217.74,147.54,217.52Z"/><path class="cls-5" d="M83.71,217.69c.2,0,.69,0,.55.15-.62.61-.26,1.26-.27,1.88,0,5,0,9.94,0,14.92,0,.32-.22.68.33.94a.43.43,0,0,1-.64,0c-.11-.14-.06-.33-.06-.5q0-8.55,0-17.09A1,1,0,0,1,83.71,217.69Z"/><path class="cls-37" d="M60.46,235.38l-.1.18c-.94-.22-.65-.7-.66-1.08,0-3.11,0-6.22,0-9.33,0-2.33,0-4.66,0-7a.54.54,0,0,0-.14-.27,2,2,0,0,0-.32-.22c.26-.33.77-.07,1.13-.14l.12.48a.69.69,0,0,1,.1.5v16.37A.72.72,0,0,1,60.46,235.38Z"/><path class="cls-29" d="M66.68,217.76c0,.44.09.89.09,1.33v16.6c-.83,0-.41-.34-.65-.47a8.73,8.73,0,0,0,.11-1c0-5.2,0-10.39,0-15.58C66.26,218.35,65.85,217.94,66.68,217.76Z"/><path class="cls-19" d="M165.35,218c-.44.29-.24.65-.24,1q0,8.37,0,16.73h-.31q0-9,0-18l.68-.14C165.65,217.72,165.65,217.88,165.35,218Z"/><path class="cls-30" d="M147.54,217.52a1.67,1.67,0,0,0-.11.41v17.46a1.94,1.94,0,0,0,.07.33c.08,0,.1.08.07.12s0,0-.08,0c-.49-.24-.3-.57-.3-.87q0-8.33,0-16.65C147.2,218.08,147,217.74,147.54,217.52Z"/><path class="cls-5" d="M115.92,217.69c1.17,0,.85.49.85.84,0,5.73,0,11.45,0,17.18h-.29c-.48-.35-.29-.76-.29-1.14,0-5.39,0-10.78,0-16.17a.54.54,0,0,0-.29-.55Z"/><path class="cls-38" d="M88.08,217.53c0,3.46,0,6.91.06,10.36q0,3.54,0,7.08c0,.25.29.56-.3.74-.25-.29-.12-.61-.12-.91q0-8.12,0-16.22c0-.3.17-.62-.16-.9l0-.17Z"/><path class="cls-39" d="M142.74,235.39H143c.28-.28.14-.6.14-.9,0-5.58,0-11.17.05-16.75a.42.42,0,0,1,.15-.07c.24.18.15.38.15.57q0,8.34,0,16.68c0,.26.16.55-.22.78-.16-.08-.44,0-.57-.14A.86.86,0,0,1,142.74,235.39Z"/><path d="M183,235.68c.3-.22.92,0,1.17-.29a.86.86,0,0,1-.41-.87c0-5.36-.05-10.71,0-16.06a.65.65,0,0,1,.16-.32.47.47,0,0,1,.46-.09l.06,17.65A4.53,4.53,0,0,1,183,235.68Z"/><path class="cls-40" d="M73.82,235.71q0-9.09,0-18.18c.46.13.37.37.37.59v17.27a1.32,1.32,0,0,1-.07.32s-.07,0-.11,0A.7.7,0,0,1,73.82,235.71Z"/><path class="cls-41" d="M132.62,217.68v.52a.68.68,0,0,1,.1.49v16a.74.74,0,0,1-.09.5l-.06.51h-.3c-.26-.29-.13-.61-.13-.91,0-5.4,0-10.8,0-16.21,0-.3.13-.61-.14-.9C132.2,217.34,132.41,217.59,132.62,217.68Z"/><path class="cls-42" d="M165.35,218l.13-.48.48,0v.17c-.23.3-.12.61-.12.91q0,8.1,0,16.2c0,.3.13.61-.13.91-.65-.21-.28-.55-.28-.82C165.37,229.27,165.37,223.64,165.35,218Z"/><path class="cls-43" d="M158.55,235.71a.35.35,0,0,1-.37-.16.74.74,0,0,1-.09-.5V218.86a.72.72,0,0,1,.09-.49v-.52c0-.31.35-.23.66-.22v.22c-.3.29-.15.6-.15.9q0,8,0,16.05C158.67,235.11,158.8,235.42,158.55,235.71Z"/><path class="cls-44" d="M130.21,235.72c-.64-.22-.29-.56-.29-.83,0-5.68,0-11.36-.07-17l.21-.28c.17.09.45.11.43.29-.27.29-.14.6-.14.91,0,5.34,0,10.69,0,16C130.34,235.11,130.47,235.43,130.21,235.72Z"/><path class="cls-45" d="M139.17,235.71h-.32l0-.32a.59.59,0,0,1-.24-.47c0-5.28,0-10.55,0-15.82a5,5,0,0,1,.26-1.42l.37-.16a.77.77,0,0,1,.11.58v17C139.29,235.33,139.35,235.53,139.17,235.71Z"/><path d="M139.17,235.71q0-9.09,0-18.18h.27c0,1.23.08,2.46.08,3.69q0,6.85,0,13.71C139.51,235.18,139.9,235.54,139.17,235.71Z"/><path d="M79.51,217.57V235.7h-.24V217.56Z"/><path class="cls-29" d="M108.77,217.85a.29.29,0,0,1,.53,0c.11.17,0,.39,0,.58q0,8.29,0,16.58c0,.24.36.56-.31.72-.27-.29-.13-.6-.14-.9q0-8,0-16C108.87,218.46,109,218.15,108.77,217.85Z"/><path class="cls-46" d="M61.06,235.57,61,222.72c0-1.68,0-3.36,0-5a.88.88,0,0,1,.65-.17l0,.18c-.28.29-.14.6-.14.91,0,5.36,0,10.72,0,16.08C61.42,235,61.81,235.36,61.06,235.57Z"/><path class="cls-47" d="M63.13,217.53l0,18.19h-.31l0-18.2Z"/><path class="cls-40" d="M75.38,217.53c0,.08-.11.16-.11.24l0,18c-.52-.24-.29-.58-.3-.87q0-8.25,0-16.5C75,218.08,74.74,217.73,75.38,217.53Z"/><path class="cls-48" d="M186,235.72q0-9.09-.05-18.19c.55.14.29.43.38.66.47.3.4.68.4,1q0,7.31,0,14.61c0,.36.08.74-.39,1C186.18,235.16,186.5,235.5,186,235.72Z"/><path d="M59.85,217.71c.48.26.24.59.25.88,0,5.33,0,10.66,0,16,0,.32-.21.68.24,1a.16.16,0,0,1,0,.16h-.58c-.42-.29-.29-.64-.29-1q0-8,0-16.07C59.52,218.34,59.37,218,59.85,217.71Z"/><path d="M123.34,217.55v18.17h-.26V217.56Z"/><path class="cls-49" d="M186.91,217.55l0,.15a4.31,4.31,0,0,1,.07,1.43c0,5.49,0,11,0,16.48-.06.13-.21.17-.43.12l0-.85a.74.74,0,0,1-.09-.5v-15.7a.72.72,0,0,1,.09-.49C186.69,218,186.34,217.68,186.91,217.55Z"/><path class="cls-50" d="M119.72,217.74V235.5h-.15V217.71Z"/><path d="M115.89,217.85a.76.76,0,0,1,.58.18c-.28.29-.14.61-.14.91,0,5.29,0,10.58,0,15.87,0,.3.14.61-.14.9l-.31,0Q115.89,226.8,115.89,217.85Z"/><path class="cls-51" d="M117.75,217.53c0,2.36-.06,4.71-.08,7.07q0,5.47,0,11c-.46-.3-.24-.65-.25-1,0-5.69,0-11.38,0-17.07Z"/><path class="cls-4" d="M127.18,218.08v17.59H127V218Z"/><path class="cls-34" d="M59.2,217.68l.29,0c.25.17.16.37.16.56q0,8.44,0,16.88c0,.19.08.39-.14.57-.47,0-.37-.22-.37-.37Z"/><path class="cls-52" d="M59.51,235.71q0-9,0-18h.36q0,9,0,18Z"/><path d="M94.72,235.67q0-8.41,0-16.84a1.49,1.49,0,0,1,.23-1v17.84Z"/><path class="cls-13" d="M147.49,235.89v-.17c.83-.18.41-.58.41-.86,0-5.27,0-10.54,0-15.81a7.28,7.28,0,0,1,.11-.91,6.46,6.46,0,0,1,.11.75c0,5.41,0,10.81,0,16.22C148.15,235.39,148.54,235.86,147.49,235.89Z"/><path d="M132,217.69c.45.22.28.52.28.79,0,5.74,0,11.49,0,17.23-.46,0-.33-.24-.33-.39Q132,226.5,132,217.69Z"/><path d="M175.26,217.68l.27.16c.24.21.15.44.15.66v16.56c0,.22.09.45-.15.65-.56,0-.36-.29-.36-.45q0-8.72,0-17.42C175.17,217.79,175.23,217.74,175.26,217.68Z"/><path class="cls-6" d="M179.72,217.69c.5.28.28.63.28.95q0,8.54,0,17.07c-.58,0-.36-.29-.36-.45q0-8.72,0-17.41C179.65,217.79,179.7,217.74,179.72,217.69Z"/><path d="M180.31,235.71V217.86h.29v17.83Z"/><path class="cls-6" d="M130.21,235.72q0-8.62,0-17.26c0-.2-.16-.45.29-.6q0,6.84,0,13.68c0,1.4,0,2.8,0,4.19Z"/><path class="cls-32" d="M108.77,217.85c.44.26.25.59.25.89q0,8.49,0,17c-.44,0-.3-.25-.3-.39Q108.74,226.58,108.77,217.85Z"/><path d="M105.15,235.7c0-5.63,0-11.25,0-16.88,0-.2-.58-.71.57-.62-.29.29-.14.6-.14.9q0,7.86,0,15.71c0,.3.14.61-.14.9Z"/><ellipse cx="107.09" cy="226.78" rx="0.18" ry="12.64"/><path class="cls-21" d="M175.53,235.71V217.84c.53.28.29.64.29,1q0,8.44,0,16.91Z"/><path class="cls-19" d="M138.8,235v.36l-.55.44V218.53c.9.15.42.57.42.84,0,4.92,0,9.83,0,14.75C138.7,234.42,138.6,234.74,138.8,235Z"/><path class="cls-25" d="M166.9,235.68V218.21h.28v17.51Z"/><path class="cls-50" d="M82.82,235.5V218.25H83v17.29Z"/><path d="M99.77,218.19V218c.47.28.26.64.26,1,0,5.57,0,11.14,0,16.72h-.29v-.16a3.44,3.44,0,0,1-.14-1.74c0-2.45,0-4.9,0-7.35s0-5,0-7.44C99.64,218.74,99.52,218.46,99.77,218.19Z"/><path class="cls-6" d="M85.76,235.69c0-5.57,0-11.13,0-16.7,0-.32-.21-.68.25-1,0,4.73,0,9.46.06,14.18,0,1.18,0,2.35,0,3.52Z"/><path d="M121.26,235.7q0-8.35,0-16.71c0-.27-.17-.57.27-.8q0,8.56,0,17.13C121.57,235.46,121.71,235.67,121.26,235.7Z"/><path d="M120.38,218.19c.46.26.27.59.27.88,0,5.55,0,11.09,0,16.64-.45,0-.31-.24-.31-.39Q120.35,226.76,120.38,218.19Z"/><path class="cls-51" d="M138.8,235c-.45-.3-.24-.65-.24-1,0-4.86,0-9.72,0-14.58,0-.33.23-.68-.29-1l.56-.84Q138.81,226.36,138.8,235Z"/><path class="cls-24" d="M84.31,235.59V218.2h.27v17.21Z"/><path d="M70.53,235.55l-.27-.15c-.24-.17-.15-.38-.15-.57q0-8,0-16.07c0-.19-.08-.39.14-.57V218a.21.21,0,0,1,.3,0c0,1.4.07,2.79.08,4.19,0,4.14,0,8.28,0,12.43C70.63,234.94,70.56,235.25,70.53,235.55Z"/><path class="cls-53" d="M105.44,235.71q0-8.28,0-16.56c0-.32-.25-.68.28-1q0,8.76,0,17.51Z"/><path d="M162.09,235.21c-.41-.23-.25-.53-.25-.8q0-7.78,0-15.58c0-.27-.15-.57.24-.8,0,3.23.07,6.46.07,9.69C162.15,230.21,162.11,232.71,162.09,235.21Z"/><path d="M134.35,235.05h-.26c-.24-.18-.15-.38-.15-.57q0-8,0-16c0-.17,0-.34.13-.49h.29c0,3.47.06,6.94.06,10.4C134.42,230.63,134.38,232.84,134.35,235.05Z"/><path class="cls-54" d="M186.52,218.19v16.69h-.22q0-8.34,0-16.69Z"/><path class="cls-30" d="M62.2,218.19c.45.22.29.52.29.79q0,7.47,0,14.94c0,.27.16.57-.29.79Z"/><path class="cls-20" d="M91.08,217.53c.48.12.37.37.37.58q0,7.86,0,15.73a1.11,1.11,0,0,1-.05.25.63.63,0,0,1-.47-.16,1.55,1.55,0,0,1-.2-1.08c0-4.86,0-9.72,0-14.57a1.73,1.73,0,0,1,0-.32A.73.73,0,0,1,91.08,217.53Z"/><path class="cls-55" d="M181.76,221.11v13h-.15V221.08Z"/><path class="cls-24" d="M149,218l-.32-.33c.32-.23.78-.07,1.15-.13l0,8.73a.47.47,0,0,1-.45-.1c-.29-.34-.2-.71-.21-1.07,0-2.23,0-4.45,0-6.68a.59.59,0,0,0-.1-.28A.91.91,0,0,0,149,218Z"/><path class="cls-14" d="M97.66,225.94l.06,9.47c0,.13,0,.28-.33.3-.3-.44-.13-.89-.13-1.33,0-2.62,0-5.25,0-7.87a3.69,3.69,0,0,1,0-.47C97.33,225.92,97.46,225.89,97.66,225.94Z"/><path class="cls-16" d="M150.78,226.28v9.23h-.3v-9.24A.24.24,0,0,1,150.78,226.28Z"/><path class="cls-56" d="M97.39,226.28v9.43h-.3v-9.43A.23.23,0,0,1,97.39,226.28Z"/><path class="cls-30" d="M98.58,226.28v9.07h-.29v-9.07A.23.23,0,0,1,98.58,226.28Z"/><path class="cls-7" d="M97.39,226.28H97.1c0-2.48,0-4.95,0-7.43,0-.29.34-.7-.55-.83v-.17a1.27,1.27,0,0,1,1.14,0V218a55.57,55.57,0,0,0-.14,5.77,5.85,5.85,0,0,1-.14,2.16Z"/><path class="cls-20" d="M150.78,226.28h-.3v-7.45c0-.36-.15-.75.54-1v.39c-.43.23-.23.53-.23.79C150.77,221.45,150.78,223.87,150.78,226.28Z"/><path class="cls-54" d="M98.58,226.28h-.29v-8.22h.29Z"/><path class="cls-57" d="M97.39,226c0-2.35,0-4.7,0-7,0-.29-.19-.62.27-.88,0,2.64,0,5.28,0,7.92Z"/><path class="cls-23" d="M70.55,218h-.3l-.29-.18a2.93,2.93,0,0,1-1.5,0h-.27c.46-.62,1.41-.19,2.11-.27C70.77,217.52,70.59,217.84,70.55,218Z"/><path d="M91.08,217.53l.07.32a3,3,0,0,1-2.36,0l0-.31Z"/><path class="cls-58" d="M91.18,234l.2.11c0,.41-.08.83-.08,1.24s-.16.49-.77.38c-.1-.06-.13-.14-.09-.22a4,4,0,0,1,.23-.34C90.87,234.76,90.5,234.3,91.18,234Z"/><path class="cls-30" d="M186.57,235.73h.31a.47.47,0,0,1,.32-.08,1.5,1.5,0,0,1,.56,0l.29-.13c.27,0,.67,0,.72.16s-.31.18-.54.17C187.67,235.86,187.05,236,186.57,235.73Z"/><path class="cls-59" d="M110,235.67h.27a8.87,8.87,0,0,1,2.06,0h.3A3.47,3.47,0,0,1,110,235.67Z"/><path class="cls-57" d="M97.67,217.85H96.53c-.13-.3.23-.28.59-.3S97.81,217.56,97.67,217.85Z"/><path class="cls-34" d="M121.53,217.85h-1.15c-.14-.3.2-.29.57-.29S121.66,217.55,121.53,217.85Z"/><path class="cls-6" d="M142.73,235.55a.85.85,0,0,1,.57.14l-2.06,0C141.67,235.45,142.23,235.6,142.73,235.55Z"/><path class="cls-40" d="M75.31,235.73c.43,0,.93.12,1.23-.18C76.52,236,76.29,236,75.31,235.73Z"/><path d="M90.53,235.56v.15H88.76a.12.12,0,0,1,0-.16A1.91,1.91,0,0,1,90.53,235.56Z"/><path class="cls-23" d="M129.05,235.39l.25.33c-.39-.11-1.28.34-1.16-.34h.25a.92.92,0,0,0,.33,0Z"/><path class="cls-19" d="M161.66,236.33a1.09,1.09,0,0,1,1-.23C162.46,236.33,162.1,236.32,161.66,236.33Z"/><path class="cls-24" d="M156.12,235.56a.15.15,0,0,1,0,.16h-2.08c0-5.81,0-11.61,0-17.42,0-.45.2-.64,1.08-.64s1.07.18,1.06.64q0,8.53,0,17.08c-.22,0-.36,0-.42-.13,0-5.75,0-11.51,0-17.11a2.58,2.58,0,0,1,0,.43c0,5.42,0,10.83,0,16.24a.58.58,0,0,1-.09.25c-.59.14-.82,0-.9-.34a2.14,2.14,0,0,1,0-.67V219.69c0-.27-.08-.56.13-.82-.24.32-.13.67-.13,1,0,4.82,0,9.64,0,14.46,0,.26-.06.53.1.79S155.74,235.34,156.12,235.56Z"/><path class="cls-23" d="M158.55,235.71q0-8.58,0-17.17c0-.24-.2-.52.3-.69,0,3.28,0,6.56.06,9.83q0,3.66,0,7.32C158.88,235.23,159.24,235.57,158.55,235.71Z"/><path class="cls-4" d="M158.18,218.37v17.18c-.39-.24-.24-.54-.24-.81V219.17C157.94,218.9,157.79,218.6,158.18,218.37Z"/><path class="cls-34" d="M141.25,220.55v-2.36c.86-.06,1.27.13,1.19.64a3.26,3.26,0,0,0,0,1.08C142.52,220.43,142.11,220.61,141.25,220.55Z"/><path class="cls-8" d="M68.47,235.39V218.31h.59v17.07A.65.65,0,0,1,68.47,235.39Z"/><path class="cls-52" d="M70.25,218.19q0,8.61,0,17.21l-.32,0h0q0-8.16,0-16.33C70,218.77,69.75,218.44,70.25,218.19Z"/><path class="cls-60" d="M68.46,217.85H70A1.59,1.59,0,0,1,68.46,217.85Z"/><path class="cls-61" d="M68.47,235.39h1.47A1.59,1.59,0,0,1,68.47,235.39Z"/><path d="M87.53,217.68c.5.17.3.45.31.68q0,8.69,0,17.35l-.14,0h-.15Q87.54,226.7,87.53,217.68Z"/><path class="cls-62" d="M75.87,218.41v16.92h-.14v-17Z"/><path class="cls-10" d="M164,235.33V218.41h.14v17Z"/><path class="cls-63" d="M128.72,235.38a.19.19,0,0,1-.33,0v-17h.33Z"/><path d="M61.06,235.57c.45-.3.23-.65.23-1,0-5.32,0-10.64,0-16,0-.31-.26-.67.28-.94,0,5.82,0,11.64,0,17.46,0,.22.33.62-.59.56A.17.17,0,0,1,61.06,235.57Z"/><path class="cls-34" d="M112.24,235c0,.49-.69.29-1.13.34-.59-.38-.41-.85-.41-1.29,0-5.13,0-10.26,0-15.38a.71.71,0,0,0-.09-.28,2,2,0,0,0-.27-.23.78.78,0,0,1,0-.16,2.42,2.42,0,0,1,1.64-.1c.15.07.2.16.15.26a2,2,0,0,0-.19.28c-.14,4.88,0,9.75-.07,14.62a3.73,3.73,0,0,1-.12,1.59.9.9,0,0,0,.23.19Z"/><path class="cls-27" d="M110.51,218.19h.3c.23.21.14.44.14.66q0,7.93,0,15.87c0,.22.09.45-.13.66h-.31c-.23-.21-.14-.44-.14-.66V218.85C110.37,218.63,110.28,218.4,110.51,218.19Z"/><path d="M110.82,235.38q0-8.59,0-17.19c.52.28.29.64.29,1q0,8.11,0,16.23h-.29Z"/><path d="M110.51,218.19v17.19a.4.4,0,0,1-.26-.46l.06-16.72Z"/><path d="M112.24,235H112c-.42-.3-.3-.64-.3-1v-14.9c0-.34-.12-.68.29-1V218a.18.18,0,0,1,.25,0Z"/><path class="cls-25" d="M112.29,235.7a10.91,10.91,0,0,1-2.06,0A3.45,3.45,0,0,1,112.29,235.7Z"/><path class="cls-6" d="M112.3,217.68a.4.4,0,0,0,0,.15,4.19,4.19,0,0,1-2,0,8,8,0,0,1,2-.15Z"/><path class="cls-60" d="M110.28,217.83h2a1.48,1.48,0,0,1,0,.21l-.25,0-1.72,0A1.48,1.48,0,0,1,110.28,217.83Z"/><path class="cls-24" d="M118.27,217.7l.61,0c0,3.7.05,7.39.06,11.09,0,2.08,0,4.15,0,6.22,0,.24.37.58-.35.71-.48-.34-.29-.75-.29-1.13,0-5.37,0-10.74,0-16.11C118.35,218.21,118,218,118.27,217.7Z"/><path class="cls-14" d="M118.27,217.7l.29.5c-.28.29-.14.6-.14.91,0,5.23,0,10.46,0,15.69,0,.3.14.62-.15.91l-.14,0-.13,0q0-8.67,0-17.33C118,218.15,117.76,217.87,118.27,217.7Z"/><path class="cls-64" d="M116.18,235.71q0-8.36,0-16.72c0-.32-.23-.68.28-1q0,8.83,0,17.68Z"/><path class="cls-65" d="M118.26,235.71q0-8.28,0-16.56c0-.32-.25-.68.28-1q0,8.75,0,17.5Z"/><path class="cls-6" d="M184.19,218v.17c-.28.29-.14.6-.14.91q0,7.68,0,15.38c0,.3.14.61-.14.9h-.29a.44.44,0,0,1-.15-.4V218.25c0,5.41,0,10.82,0,16.22,0,.31.14.62-.15.91a.42.42,0,0,1-.24-.46q0-8.44,0-16.87A1.08,1.08,0,0,1,184.19,218Z"/><path class="cls-27" d="M183.88,235.38c0-5.41,0-10.82,0-16.23,0-.32-.23-.68.28-1v17.2Z"/><path class="cls-60" d="M183.28,235.38v-17h.31v17Z"/><path class="cls-6" d="M183.08,217.82a1.69,1.69,0,0,1,1.36,0A1.88,1.88,0,0,1,183.08,217.82Z"/><path class="cls-7" d="M183.08,217.82h1.36a1.8,1.8,0,0,1,0,.22.85.85,0,0,0-.23,0l-1.11,0Z"/><path class="cls-64" d="M156.12,235.56c-.58-.07-1.24.13-1.76-.17a1.72,1.72,0,0,1,1.09-.14,2.09,2.09,0,0,1,.4.13h.26Z"/><path class="cls-14" d="M149,235.7c-.56-.12-.28-.39-.28-.58q0-8.25,0-16.51c0-.2-.23-.46.26-.6l0,0c.4.3.27.64.27,1,0,2.43,0,4.85,0,7.28.22,2.93.06,5.87.08,8.8A.68.68,0,0,1,149,235.7Z"/><path class="cls-7" d="M149,235.7v-9.42a.39.39,0,0,1,.44.08.65.65,0,0,1,.15.46c0,2.64,0,5.27,0,7.91,0,.33.14.68-.3,1Z"/><path class="cls-6" d="M149.6,226.28h.23c0,3,0,6.07,0,9.1,0,.13.07.29-.29.32-.32-.43-.13-.88-.14-1.32,0-2.55,0-5.09,0-7.63C149.45,226.59,149.39,226.42,149.6,226.28Z"/><path class="cls-66" d="M149.58,226.62c0,3,0,6,0,9.08h-.31c0-3,0-6,0-9.08A.21.21,0,0,1,149.58,226.62Z"/><path class="cls-14" d="M151.71,226.28q0,4.62.07,9.24c0,.06-.13.13-.41.41v-9.65A.25.25,0,0,1,151.71,226.28Z"/><path d="M151.71,226.28h-.34v-8.43h.34Z"/><path class="cls-5" d="M165.7,235.71c0-5.74,0-11.48,0-17.22,0-.27-.17-.57.26-.8q0,8.82,0,17.62C166,235.46,166.15,235.66,165.7,235.71Z"/><path class="cls-67" d="M187.17,235.71h-.29q0-8.55,0-17.09c0-.31,0-.62.07-.93.42.27.22.59.22.89q0,8.47,0,17c.1,0,.14.07.1.1A.14.14,0,0,1,187.17,235.71Z"/><path class="cls-57" d="M187.17,235.71v-.16c.53-.27.29-.63.29-1q0-7.66,0-15.33v-.91h.29v17.31Z"/><path class="cls-34" d="M91.18,234c-.26.45.24,1-.35,1.4l-.13-.14c0-5.57,0-11.13-.06-16.69-.07-.11-.34,0-.17,0s.1,0,.11.05c.2,5.58.06,11.15.07,16.73a3,3,0,0,1-1.86.07V218a7.25,7.25,0,0,1,2.37,0c0,1.17.1,2.35.1,3.52Q91.23,227.77,91.18,234Z"/><path class="cls-58" d="M91.16,218H88.79v-.17h2.36Z"/><path class="cls-22" d="M88.79,235.38h1.74a.19.19,0,0,1,.29,0h0l-.3.18H88.79Z"/><path class="cls-62" d="M133.23,235.56V217.85c.35.21.25.48.25.72v16.35C133.48,235.14,133.57,235.38,133.23,235.56Z"/><path class="cls-28" d="M134.06,218l0,17c0,.11,0,.21-.07.32-.36,0-.24-.15-.24-.23q0-8.16,0-16.32C133.79,218.55,133.62,218.25,134.06,218Z"/><path class="cls-68" d="M132.64,235.21q0-8.51,0-17c.4.23.25.53.25.8q0,7.69,0,15.4C132.88,234.68,133,235,132.64,235.21Z"/><path class="cls-24" d="M143.22,217.73q0,8.6.05,17.19c0,.17,0,.34-.24.46,0-5.58,0-11.16,0-16.75C143,218.33,142.86,218,143.22,217.73Z"/><path class="cls-69" d="M99.76,226.45q0,4.56,0,9.1c-.44-.19-.29-.46-.29-.7,0-2.8,0-5.6,0-8.4A.19.19,0,0,1,99.76,226.45Z"/><path class="cls-21" d="M99.76,226.45h-.27c0-2.52,0-5,0-7.55,0-.25-.14-.52.29-.71C99.77,221,99.76,223.7,99.76,226.45Z"/><path class="cls-11" d="M60.46,235.38V218c.4.24.25.54.25.81q0,7.88,0,15.75C60.7,234.85,60.85,235.14,60.46,235.38Z"/><path class="cls-10" d="M149.58,226.62h-.29v-.34a22.74,22.74,0,0,1-.13-4.59,14.12,14.12,0,0,1,.13-3.67c.49.25.28.58.29.87,0,2.47,0,4.93,0,7.39C149.59,226.4,149.58,226.51,149.58,226.62Z"/><path class="cls-56" d="M149.29,218v8.26H149c0-2.75,0-5.5,0-8.25Z"/><path class="cls-25" d="M155.55,235.38h-1.19v-.85c.29-.29.14-.6.15-.91,0-4.84,0-9.69,0-14.53,0-.3-.13-.62.13-.91.52.28.29.64.29,1,0,5,0,10,0,15,0,.32-.4.77.58.91C155.72,235.16,155.74,235.27,155.55,235.38Z"/><path class="cls-7" d="M155.55,235.38V218.9c0-.4.26-.9-1.15-.94,1.55-.26,1.45.23,1.45.69v16.73Z"/><path class="cls-70" d="M154.65,218.19q0,7.74,0,15.48c0,.29.2.62-.29.87q0-7.69,0-15.39C154.37,218.83,154.14,218.47,154.65,218.19Z"/><path d="M111.71,235.05c-.57,0-.29-.29-.29-.43q0-7.86,0-15.73c0-.24-.12-.51.3-.7.23.21.14.44.14.66v15.54C111.85,234.61,111.94,234.84,111.71,235.05Z"/><path class="cls-8" d="M111.71,235.05V218.19H112q0,8.43,0,16.86Z"/><path class="cls-35" d="M90.82,235.39h-.29v-17h.29Z"/><line class="cls-71" x1="58.33" y1="132.52" x2="184.74" y2="132.52"/></g></g></svg>