<svg xmlns="http://www.w3.org/2000/svg" viewBox="0 0 46.47 41.33"><defs><style>.cls-1{fill:#fdfdfd;}</style></defs><title>back</title><g id="Layer_2" data-name="Layer 2"><g id="akype"><path class="cls-1" d="M8.83,15.74c8.4,0,15.4-.2,22.38.06,6,.23,10.17,4.67,10.12,10.24s-4.2,9.74-10.28,10.12c-3,.19-6,0-9,.07-1.84,0-3.59.49-3.47,2.74.1,1.8,1.61,2.32,3.25,2.32,2.56,0,5.12.06,7.68,0C39.48,41.2,46.43,34.91,46.47,26S39.56,10.71,29.68,10.61c-6.52-.06-13,0-20.74,0,2.5-2.73,4.19-4.51,5.8-6.36.9-1,1.33-2.25.21-3.39A2.4,2.4,0,0,0,11.47.66Q5.94,5.94.65,11.5A2.56,2.56,0,0,0,.78,15c3.37,3.55,6.81,7.05,10.36,10.43a2.58,2.58,0,0,0,4-.19c1-1.19.37-2.41-.55-3.41C13,20.16,11.42,18.49,8.83,15.74Z"/></g></g></svg>