<svg xmlns="http://www.w3.org/2000/svg" viewBox="0 0 15.64 31.59"><defs><style>.cls-1{fill:#fdfdfd;}</style></defs><title>Asset 9</title><g id="Layer_2" data-name="Layer 2"><g id="Layer_1-2" data-name="Layer 1"><path class="cls-1" d="M15.49,22.21c-2-2.1-4-4.22-6-6.32-.27-.28-.22-.41,0-.67,2-2.24,4-4.5,6-6.74.19-.21.25-.33,0-.56-2.54-2.52-5.06-5-7.59-7.58L7.53,0V13.54l-.37-.32L1.85,8.43c-.28-.25-.57-.7-.86-.7s-.52.54-.82.79S0,8.86.2,9.07l6.66,6c.25.22.26.33,0,.56Q3.7,18.45.55,21.27c-.69.62-.69.62-.09,1.29a2.09,2.09,0,0,1,.2.22c.17.27.3.26.54,0q3-2.71,6.06-5.41c.07-.07.12-.2.28-.16V31.53l.09.06a1.49,1.49,0,0,1,.15-.2q3.85-4.37,7.74-8.71C15.71,22.48,15.66,22.38,15.49,22.21ZM9.12,3.91c.1-.05.14,0,.2.1l4,4c.11.12.27.2.09.41C12,10,10.61,11.58,9.12,13.26Zm4.27,18.78c-1.37,1.53-2.73,3.07-4.09,4.6,0,.05-.08.12-.17.11V17.82l1.41,1.47,2.8,3C13.48,22.39,13.58,22.49,13.39,22.69Z"/></g></g></svg>