<svg xmlns="http://www.w3.org/2000/svg" viewBox="0 0 126.32 134.74"><defs><style>.cls-1{fill:#d5b145;}</style></defs><title>Asset 1</title><g id="Layer_2" data-name="Layer 2"><g id="Layer_1-2" data-name="Layer 1"><path class="cls-1" d="M18.7,101.13,9.09,112.9,1,122.81c-1.43,1.76-1.33,2.88.41,4.32q4.06,3.35,8.15,6.64c1.75,1.41,2.85,1.3,4.31-.47,5.62-6.86,11.25-13.71,16.81-20.62.8-1,1.13-.86,1.86,0,3.33,4.06,6.74,8.06,10.09,12.11a2.74,2.74,0,0,0,2.81,1.28c1.33-.29,1.73-1.32,2-2.52q5.69-27.36,11.42-54.7a2.59,2.59,0,0,0-.69-2.71,2.63,2.63,0,0,0-3-.23C46,69.88,36.83,73.78,27.7,77.71Q16,82.72,4.4,87.77l-.91.38a2.42,2.42,0,0,0-1.72,2.18A2.52,2.52,0,0,0,3.33,92.8Q10,96.4,16.75,100C17.37,100.37,18,100.72,18.7,101.13Z"/><path class="cls-1" d="M12,78.8c.37,1.08.75,1.38,1.82.8s2.94-.82,3.59-1.78-.59-2.37-.94-3.6A59.08,59.08,0,0,1,14.4,63c-.08-.94.12-1.23,1.09-1.22q8.39.06,16.77,0c.88,0,1.1.3,1.16,1.09a53.58,53.58,0,0,0,.93,7.8c.08,0,.15,0,.19,0,1.61-.68,3.68-1,4.7-2.15s-.05-3.24-.21-4.9.3-1.87,1.77-1.85q11.1.11,22.2,0c1.42,0,1.71.39,1.65,1.72-.11,2.57-.09,5.15,0,7.72,0,1-.29,1.43-1.27,1.24-1.24-.24-1.62.41-1.77,1.49a29.3,29.3,0,0,1-.66,3.2c-.22.86,0,1.16.93,1.13,2.75-.09,2.75-.06,2.75,2.7s0,5.26,0,7.89c0,.93-.27,1.22-1.2,1.25-1.42,0-2.83.29-4.25.38a1.17,1.17,0,0,0-1.26,1.17C57.7,93,57.34,94.46,57,96c2.26-.17,4.38-.76,6.57-.75.54,0,1.06-.19,1,.73,0,4.68,0,9.37,0,14.31a78.29,78.29,0,0,1-8.8-8.46c-.32,1.45-.49,2.67-.86,3.84-.62,2-.66,3.75,1.37,4.73.12.35.07.41-.09.39-2.27-.24-2.27-.24-2.75,2-.67,3.17-.67,3.17,2.55,3.82A58.86,58.86,0,0,0,85.81,3c-31.05-10.33-65,7.27-74.57,38.6A59.16,59.16,0,0,0,12,78.8ZM70.25,81c0-3,0-3,3-2.82.38,0,.76,0,1.15,0a123.92,123.92,0,0,1,17.78,2.14A67.27,67.27,0,0,1,86.45,92c-.44.72-.84.76-1.6.52a49.59,49.59,0,0,0-13.33-2.48c-1.17,0-1.32-.53-1.3-1.5C70.28,86,70.25,83.52,70.25,81Zm0-17.93c0-1.14.37-1.36,1.4-1.34,3.84.05,7.67,0,11.51,0s7.78,0,11.66,0c.59,0,1.33-.28,1.22.91a83.42,83.42,0,0,1-1.7,11c-.25,1-.58,1.25-1.63,1a137.63,137.63,0,0,0-21.34-2.31c-.86,0-1.11-.28-1.1-1.13C70.28,68.55,70.31,65.8,70.21,63.07Zm0-16.7c0-.82.31-1,1.06-1a131.5,131.5,0,0,0,21.5-2.3c.89-.17,1.21,0,1.45.93A74.39,74.39,0,0,1,96,55c.12,1.13-.42,1.12-1.21,1.11-3.84,0-7.67,0-11.5,0s-7.89,0-11.83,0c-.74,0-1.24,0-1.22-1C70.28,52.17,70.26,49.27,70.23,46.37Zm1.2-18.55a56.54,56.54,0,0,0,13.8-2.66c.94-.32,1,.35,1.3.8a63,63,0,0,1,5.65,11.46,138.34,138.34,0,0,1-20.77,2.36c-1,0-1.21-.29-1.19-1.21q.07-4.68,0-9.36C70.2,28.27,70.39,27.91,71.43,27.82Zm10.86-8c.59.78-.06.76-.51.89a62,62,0,0,1-10.47,1.9c-.92.11-1.09-.24-1.08-1.07,0-4.59,0-9.18,0-14.22A79.16,79.16,0,0,1,82.29,19.81ZM96,14a50.29,50.29,0,0,1-7.19,4.09c-.56.27-.78,0-1.06-.37a87.14,87.14,0,0,0-9.6-11A53.27,53.27,0,0,1,96,14Zm16,18c-3.09,1.11-6.2,2.12-9.36,3-1.47.41-3,.79-4.43,1.18-.64.09-.67-.43-.82-.82a69.76,69.76,0,0,0-5.65-11.63c-.39-.63-.45-1,.32-1.32a43.24,43.24,0,0,0,7.76-4.58,1,1,0,0,1,1.54.06,56.67,56.67,0,0,1,11.13,12.65C113,31.33,113,31.64,112,32Zm7.43,24.1c-2.79,0-5.58,0-8.37,0s-5.37-.06-8,0c-1.17,0-1.47-.36-1.51-1.45a58.23,58.23,0,0,0-1.82-12c-.21-.85-.11-1.1.75-1.3a100.2,100.2,0,0,0,14.19-4.45c1-.39,1.26-.13,1.64.73a53.76,53.76,0,0,1,4.31,17.23C120.67,55.93,120.36,56.11,119.45,56.09Zm-4.51,24.85a115.62,115.62,0,0,0-14.68-4.6c-.81-.2-.73-.46-.58-1.08a65.68,65.68,0,0,0,1.88-12.47c0-.91.39-1.07,1.18-1,2.8,0,5.59,0,8.39,0s5.58,0,8.38,0c.54,0,1.21-.25,1.12.83a55.58,55.58,0,0,1-4.48,17.88C115.85,81.16,115.57,81.18,114.94,80.94ZM99.85,100A46.4,46.4,0,0,0,92,95.34c-.53-.25-.71-.49-.35-1.07a65.89,65.89,0,0,0,5.82-11.9c.24-.62.46-.82,1.19-.64a121.56,121.56,0,0,1,14.5,4.5,53.83,53.83,0,0,1-11.73,13.65C100.87,100.31,100.5,100.49,99.85,100ZM78.6,110.61a81.66,81.66,0,0,0,9.05-10.4,1,1,0,0,1,1.49-.38,53,53,0,0,1,6.8,3.88C91.81,106.83,81.49,110.94,78.6,110.61Zm-8.48-.11,1.31-15.13c5.59-.66,11.18,2,11.18,2v2.31A68,68,0,0,1,70.12,110.5ZM56.4,7a98.3,98.3,0,0,0-9.21,10.7c-.26.34-.44.69-1,.41A46.78,46.78,0,0,1,38.94,14,48.87,48.87,0,0,1,56.4,7Zm8.22,14.89c0,.57-.21.77-.78.71a54.75,54.75,0,0,1-11.59-2.24A75.59,75.59,0,0,1,64.62,7.44C64.62,12.46,64.61,17.19,64.62,21.91Zm0,16.63c0,1.05-.3,1.33-1.29,1.24-2.94-.24-5.9-.37-8.83-.64A108.06,108.06,0,0,1,42.8,37.42a63.75,63.75,0,0,1,5.84-11.79c.3-.5.52-.65,1.15-.45a58.92,58.92,0,0,0,13.79,2.66c.89.07,1.06.38,1,1.18C64.6,32.2,64.57,35.37,64.65,38.54ZM39,55.09a69.85,69.85,0,0,1,1.8-11.32c.21-.83.56-.87,1.26-.73a131.62,131.62,0,0,0,21.5,2.3c.9,0,1.09.32,1.08,1.13,0,2.79-.07,5.59,0,8.38,0,1.06-.33,1.26-1.3,1.24-3.83-.05-7.66,0-11.5,0H40.19C39.49,56.08,38.9,56.13,39,55.09Zm-2.48-19a137.45,137.45,0,0,1-13.93-4.28c-.25-.09-.51-.17-.55-.52a4.25,4.25,0,0,1,.21-.43A54.88,54.88,0,0,1,33.78,17.75c.5-.42.83-.28,1.27,0A48.15,48.15,0,0,0,43,22.44c.61.28.73.56.33,1.22a66,66,0,0,0-5.73,11.77C37.36,36,37.17,36.3,36.51,36.13Zm-22.13,19a53.63,53.63,0,0,1,4.41-17.69c.31-.7.64-.83,1.35-.54a108.31,108.31,0,0,0,14.5,4.55c.65.16.86.32.68,1.07a64.72,64.72,0,0,0-1.9,12.45c0,.89-.35,1.18-1.26,1.16-2.74-.06-5.47,0-8.21,0v0c-2.84,0-5.69,0-8.53,0C14.68,56.08,14.31,56,14.38,55.1Z"/></g></g></svg>