<svg xmlns="http://www.w3.org/2000/svg" viewBox="0 0 325.23 339.26"><defs><style>.cls-1{fill:#fe7db8;}.cls-2{fill:#d7e0ec;}.cls-3{fill:#2b95c2;}.cls-4{fill:#ededed;}.cls-5{fill:#fff;}</style></defs><title>calendario</title><g id="Layer_2" data-name="Layer 2"><g id="Layer_3" data-name="Layer 3"><path class="cls-1" d="M321.15,34c4.25,8.87,4.21,18.34,4,27.86-.18,8.77-.13,17.54-.18,26.3q-29,0-57.89,0H.54C.11,74.49-.49,60.7.67,47.06,1.76,34.38,8.83,24.75,20.28,18.55c7.61-4.11,15.71-4.66,24-4.16,0,.94.09,1.88.09,2.82,0,11.53-.08,23,.08,34.58.06,4.26,2.91,6.81,6.93,6.93S58.79,56.3,59,52.28c.34-6.65.18-13.32.18-20,0-5.95-.51-11.91.2-17.85,8-.07,16.09-.3,24.13-.15,11.51.22,23,.3,34.5,0,.06,2,.16,4,.16,6,0,10.15,0,20.3,0,30.46,0,4.48,2.32,7.45,6,8,5.17.78,8.78-2.42,8.83-8,.09-12.14.11-24.28.16-36.42l59.19.18c0,1.37.11,2.73.11,4.09,0,10.8,0,21.59,0,32.39,0,3.81,1.93,6.6,4.94,7.57a7.22,7.22,0,0,0,8.4-2.57c1.37-1.66,1.46-3.63,1.47-5.64q.06-17.92.13-35.84l58.67,0c.12,11.76.22,23.51.38,35.27,0,1.51-.4,3.15.82,4.46,1.35,3.63,3.86,5.36,7.19,5a7.58,7.58,0,0,0,6.58-6.88c.16-2.9-.09-5.82-.16-8.73q.13-14.61.26-29.23a18.61,18.61,0,0,0,6.23,0c4.13.41,8.32.33,12.33,1.62a1.9,1.9,0,0,0,2.16,1.1l1.13.29a1.31,1.31,0,0,0,1.27.62,13.89,13.89,0,0,0,4.43,2.43,1.34,1.34,0,0,0,1.22.79,1.58,1.58,0,0,0,1.26,1,6,6,0,0,0,2.59,2.57,5.11,5.11,0,0,0,2.51,2.43,1.38,1.38,0,0,0,1.17,1,.78.78,0,0,0,.47,1,16.43,16.43,0,0,0,3.27,4.72Z"/><path class="cls-2" d="M325.11,110.18c0-7.33-.08-14.66-.12-22q-29,0-57.89,0H.54c-.06.72-.19,1.45-.19,2.17q0,105.68,0,211.36A32.82,32.82,0,0,0,.81,308a39.79,39.79,0,0,0,14.66,24.13c.43.29.86.58,1.28.88V333c7.66,4.59,16,6.38,24.88,6.3,21-.17,42-.05,62.92-.06q91.24,0,182.49,0c21.86,0,38.07-16.49,38.07-38.31Q325.12,205.52,325.11,110.18Zm-7.53,192.27c0,10-4.38,17.74-12.42,23.65-5.64,4.14-11.87,5.75-18.75,5.7-11.43-.09-22.86,0-34.29,0l-1.9,0q-106.47,0-213-.06c-14.14,0-24.16-8.37-28.38-21.39a25.12,25.12,0,0,1-1-7.72q0-101.46,0-202.9c0-1.27-.76-3.15.75-3.69a6,6,0,0,1,3.53-.32,2.83,2.83,0,0,1,1-.08,21.85,21.85,0,0,0,2.56.15,4.18,4.18,0,0,1,3.1-.38c2.09.37,2.91.24,2.6-2.19-.44-3.42,2.32-2.23,4-2.5-.12-.79-1.62-.27-1.32-1.27a.92.92,0,0,1,1.52-.34c.53.48,1.42,1.27-.19,1.62.09,2.3-2.46,3.15-3,5.08a17.14,17.14,0,0,1,3.36,0c.48,0,1-.06,1.45-.06q143.15,0,286.28,0c4,0,4,0,4,4.14Q317.6,201.16,317.58,302.45Z"/><path class="cls-2" d="M28,89.27l.26-.14c-.07-.06-.14-.17-.22-.17s-.17.08-.26.13Z"/><path class="cls-2" d="M207.43,14.45q-.06,17.93-.13,35.84c0,2-.1,4-1.47,5.64a7.22,7.22,0,0,1-8.4,2.57c-3-1-4.92-3.76-4.94-7.57-.05-10.8,0-21.59,0-32.39,0-1.36-.07-2.72-.11-4.09,0-2.3,0-4.6.1-6.9.23-4.44,3.47-7.57,7.64-7.47s7,3,7.23,7.47C207.44,9.85,207.4,12.15,207.43,14.45Z"/><path class="cls-2" d="M133.16,14.27c0,12.14-.07,24.28-.16,36.42-.05,5.56-3.66,8.76-8.83,8-3.67-.54-6-3.51-6-8,0-10.16,0-20.31,0-30.46,0-2-.1-4-.16-6,0-2.19,0-4.39.12-6.58.18-4.54,3.19-7.61,7.44-7.64,4,0,7.16,3,7.47,7.33C133.19,9.66,133.12,12,133.16,14.27Z"/><path class="cls-2" d="M59.37,14.44c-.71,5.94-.2,11.9-.2,17.85,0,6.67.16,13.34-.18,20-.2,4-3.6,6.56-7.56,6.44s-6.87-2.67-6.93-6.93c-.16-11.53-.06-23-.08-34.58,0-.94-.06-1.88-.09-2.82,0-2.09,0-4.18.07-6.27.08-4.91,2.6-7.85,6.88-8s7.77,3,8.06,7.78C59.47,10,59.36,12.24,59.37,14.44Z"/><path class="cls-2" d="M281.17,14.27q-.14,14.61-.26,29.23c-7.9.61-10.15,2.51-12,10-.19.78-1,.56-1.57.6-1.22-1.31-.8-2.95-.82-4.46-.16-11.76-.26-23.51-.38-35.27,0-1.87,0-3.75,0-5.62.14-4.75,2.22-7.82,5.75-8.61,3.85-.85,7.21,1.16,9.22,5.54Q281.13,10,281.17,14.27Z"/><path class="cls-3" d="M281.17,14.27q0-4.26-.07-8.54c1.12,1.14.67,2.59.56,3.85-.25,2.88.86,4.07,3.73,3.7.82-.1,1.72-.12,2,1A18.61,18.61,0,0,1,281.17,14.27Z"/><path class="cls-3" d="M321.21,33.83a16.43,16.43,0,0,1-3.27-4.72C321.05,29.28,320.93,31.7,321.21,33.83Z"/><path class="cls-3" d="M313.79,24.68a6,6,0,0,1-2.59-2.57C313.11,21.91,314,22.76,313.79,24.68Z"/><path class="cls-3" d="M301.89,17a1.9,1.9,0,0,1-2.16-1.1C300.69,15.76,301.67,15.61,301.89,17Z"/><path class="cls-3" d="M309.94,21.1a1.34,1.34,0,0,1-1.22-.79C310.12,19,309.86,20.33,309.94,21.1Z"/><path class="cls-3" d="M304.29,17.88a1.31,1.31,0,0,1-1.27-.62c.2-.39.53-.79.93-.5S304.19,17.49,304.29,17.88Z"/><path class="cls-3" d="M15.48,332.13l1.27.88C16.13,333,15.61,332.85,15.48,332.13Z"/><path class="cls-3" d="M317.47,28.15a1.38,1.38,0,0,1-1.17-1C317,27.14,317.46,27.37,317.47,28.15Z"/><path class="cls-2" d="M267.3,54.15c.59,0,1.38.18,1.57-.6,1.89-7.54,4.14-9.44,12-10,.07,2.91.32,5.83.16,8.73a7.58,7.58,0,0,1-6.58,6.88C271.16,59.51,268.65,57.78,267.3,54.15Z"/><path class="cls-2" d="M22.51,95.67c.63-1.87,3.1-2.72,3-5h0c-1.71.27-4.47-.92-4,2.5.31,2.43-.51,2.56-2.6,2.19a4.26,4.26,0,0,0-3,.34C18.08,95.66,20.3,95.61,22.51,95.67Z"/><path class="cls-2" d="M25.51,90.68c-.12-.79-1.62-.27-1.32-1.27a.92.92,0,0,1,1.52-.34c.53.48,1.42,1.27-.19,1.62Z"/><path class="cls-4" d="M28,89.27l-.22-.18C27.87,89,28,89,28,89s.15.11.22.17Z"/><path class="cls-2" d="M221.79,250.26c0-3.57.05-7.13,0-10.69-.05-2.64,1.18-3.91,3.76-3.92,7.34,0,14.67-.05,22,0,2.47,0,3.87,1.28,3.86,3.93,0,7.34-.06,14.67,0,22q0,3.54-3.37,3.59c-7.55.1-15.1.2-22.64.16-2.48,0-3.73-1.43-3.64-4.08C221.88,257.6,221.78,253.93,221.79,250.26Z"/><path class="cls-2" d="M162.75,199c3.55,0,7.12.11,10.67,0,2.39-.09,3.54.58,3.91,3.19,1,7.51.25,15,.46,22.54a3.27,3.27,0,0,1-3.22,3.59,200.09,200.09,0,0,1-23.49.07,3.18,3.18,0,0,1-3.21-3.23c-.24-7.82-.62-15.64.22-23.46.23-2.18,1.36-2.74,3.36-2.68C155.21,199,159,199,162.75,199Z"/><path class="cls-2" d="M163,191.4c-3.57,0-7.13,0-10.7,0-3.27,0-4.63-1.29-4.66-4.48,0-6.36-.07-12.73,0-19.09.07-5.11,1.06-6,6.15-6,6.29,0,12.58,0,18.87,0,3.84,0,5.12,1.27,5.13,5.06q0,10,0,20c0,3.55-.95,4.48-4.42,4.5S166.48,191.41,163,191.4Z"/><path class="cls-2" d="M162.64,265.07c-3.67,0-7.33,0-11,0-2.13,0-3.14-.87-3.46-3.1-1.06-7.4-.3-14.82-.53-22.22-.09-3,1.9-4.16,4.41-4.21,7.11-.13,14.23-.09,21.34,0,2.68,0,4.4,1.55,4.36,4.27-.13,7.41.58,14.82-.46,22.22-.34,2.43-1.4,3.17-3.69,3.09C170,265,166.3,265.07,162.64,265.07Z"/><path class="cls-2" d="M162.75,272.6h9.42c4.56,0,6,1.35,5.62,5.92-.51,6.52.2,13.06-.44,19.59-.29,3.05-1.49,4.08-4.23,4.07q-10.69,0-21.37,0c-2.35,0-4.07-1.06-4-3.4.13-7.72-.67-15.47.47-23.18.34-2.26,1.46-3,3.56-3C155.41,272.63,159.08,272.61,162.75,272.6Z"/><path class="cls-2" d="M251.39,213.4c0,3.67,0,7.33,0,11,0,2.77-1.34,4-4,4-7.22,0-14.44,0-21.66,0-2.67,0-4-1.22-3.95-4.05.1-7.22.08-14.45,0-21.67,0-2.63,1.15-3.81,3.79-3.79q11,.06,22,0c2.68,0,3.82,1.32,3.82,3.85C251.39,206.29,251.38,209.85,251.39,213.4Z"/><path class="cls-2" d="M283,265.36l-21.48-.09-.61-.08c-1.81-.7-2.43-2-2.41-3.95.06-7,0-14,0-21.05,0-3.37,1-4.48,4.23-4.52,7.13-.08,14.25,0,21.37,0,2.17,0,3.64.79,4.09,3-.06,7.32-.16,14.64-.16,22a5.72,5.72,0,0,1-1.36,4.33l-2.56.38Z"/><path class="cls-2" d="M288.09,213.74c0,3.67,0,7.34,0,11,0,2.51-1.21,3.65-3.64,3.65-7.34,0-14.67,0-22,0-2.56,0-3.86-1.41-3.87-3.94q0-10.84,0-21.69c0-2.67,1.26-4,4.1-3.91,7.12.11,14.25.1,21.38,0,3,0,4.17,1.28,4.09,4.17-.09,3.56,0,7.13,0,10.69Z"/><path class="cls-2" d="M288.13,176.7c0,3.57-.07,7.14,0,10.7.08,2.78-1.07,4.07-3.89,4q-10.86-.09-21.72,0c-2.77,0-4-1.27-4-4,0-7,0-14.06,0-21.09,0-3.48,1.07-4.41,4.61-4.42q10.23,0,20.45,0c3.69,0,4.46.81,4.49,4.41s0,6.92,0,10.38Z"/><path class="cls-2" d="M221.8,176.74c0-3.66.07-7.33,0-11-.07-2.5,1.07-3.79,3.48-3.81,7.54-.06,15.07,0,22.61,0,2.33,0,3.46,1.44,3.48,3.6.06,7.54,0,15.08,0,22.61,0,2.16-1.29,3.27-3.4,3.28q-11.46,0-22.92,0c-2.13,0-3.25-1.13-3.23-3.35C221.83,184.28,221.81,180.51,221.8,176.74Z"/><path class="cls-2" d="M111.12,176.43c0-3.56.08-7.13,0-10.69-.08-2.72,1.37-3.86,3.79-3.88,7.33-.07,14.67-.06,22,0,2.43,0,3.88,1.09,3.85,3.83-.08,7.12,0,14.25,0,21.37,0,3.14-1.23,4.33-4.39,4.35-7.12,0-14.25-.06-21.38,0-2.89,0-3.91-1.24-3.83-4C111.2,183.77,111.12,180.1,111.12,176.43Z"/><path class="cls-2" d="M288.12,139.78c0,3.67,0,7.34,0,11,0,2.48-1.1,3.77-3.54,3.79q-11.18.06-22.34,0c-2.34,0-3.71-1.2-3.71-3.7,0-7.24,0-14.47,0-21.71,0-2.61,1-4.08,3.95-4q11,.13,22,0c2.58,0,3.6,1.2,3.6,3.62C288.11,132.44,288.12,136.11,288.12,139.78Z"/><path class="cls-2" d="M89.09,191.4c-3.66,0-7.33,0-11,0-2.7,0-4.08-1.31-4.09-4,0-7,0-14,0-21,0-3.29,1.36-4.49,4.63-4.49,7,0,14,.06,21.06,0,2.84,0,3.94,1.13,3.91,3.93-.09,7.23-.11,14.46,0,21.69,0,3-1.24,4.13-4.16,4C96,191.3,92.55,191.4,89.09,191.4Z"/><path class="cls-2" d="M111.12,213.63c0-3.67,0-7.34,0-11,0-2.46.93-3.7,3.5-3.68,7.55,0,15.09.06,22.64,0,2.52,0,3.4,1.41,3.42,3.51.08,7.34.11,14.67,0,22,0,2.64-1.4,4.17-4.38,4.12-6.92-.11-13.84,0-20.75,0-3.45,0-4.39-1-4.4-4.52S111.12,217.08,111.12,213.63Z"/><path class="cls-2" d="M199.39,265.07c-3.67,0-7.33-.05-11,0-2.48,0-3.65-1-3.63-3.55.05-7.12,0-14.24,0-21.36,0-3.46,1.33-4.69,4.75-4.69q9.89,0,19.78,0c3.87,0,5,1.23,5,5q0,10.05,0,20.1c0,3.89-.51,4.41-4.29,4.43Z"/><path class="cls-2" d="M37.46,176.6c0-3.66.11-7.33,0-11-.1-2.58,1.16-3.73,3.51-3.75q11-.09,22,0c2.63,0,4.08,1.54,4.1,4.16,0,7.22.07,14.44,0,21.66,0,2.41-1.21,3.79-3.91,3.75-7.23-.09-14.45-.11-21.67,0-3,.05-4.11-1.25-4-4.16C37.56,183.72,37.46,180.16,37.46,176.6Z"/><path class="cls-2" d="M214.36,213.81c0,3.55-.1,7.12,0,10.67.1,2.67-1.21,4-3.65,4-7.43.09-14.86.07-22.29,0-2.38,0-3.64-1.43-3.66-3.79q0-11,0-22c0-2.36,1.3-3.74,3.68-3.75,7.53-.06,15.07,0,22.61,0,2.41,0,3.33,1.25,3.3,3.55C214.32,206.27,214.36,210,214.36,213.81Z"/><path class="cls-2" d="M163,125.29c3.56,0,7.14.18,10.69-.06,3-.21,4.09,1.41,4.1,3.85,0,7.63.51,15.29-.58,22.89-.42,2.89-3,3-4.84,2.78-6.8-.95-13.6-.21-20.39-.45-3.8-.14-4.3-.55-4.31-4.44q0-9.92,0-19.82c0-3.61,1.1-4.72,4.63-4.74S159.41,125.29,163,125.29Z"/><path class="cls-2" d="M111.12,287.34c0-3.57.1-7.14,0-10.7-.1-2.69,1.26-4,3.67-4q11.17-.13,22.34,0c2.22,0,3.66,1.14,3.63,3.72-.08,7.24,0,14.48,0,21.72,0,2.69-1.31,4.09-4,4.09H115.28c-2.75,0-4.31-1.1-4.19-4.14C111.22,294.47,111.12,290.9,111.12,287.34Z"/><path class="cls-2" d="M236.77,125.17c3.46,0,6.92.1,10.38,0,2.95-.11,4.26,1.15,4.25,4.07,0,7.24-.05,14.48,0,21.71,0,2.23-1,3.42-3.13,3.51-7.85.35-15.72.33-23.58,0-2-.08-2.92-1.33-2.91-3.34q0-11.17,0-22.35c0-2.46,1.09-3.63,3.65-3.57,3.77.09,7.55,0,11.33,0Z"/><path class="cls-2" d="M125.8,265.06c-3.67,0-7.34,0-11,0-2.45,0-3.71-.91-3.69-3.5q.08-11,0-22c0-2.89,1.73-4,4.16-4,7.12-.12,14.25-.05,21.38,0,2.64,0,3.9,1.74,4,4,.17,7.65.13,15.31.07,23,0,1.95-1.41,2.63-3.23,2.62Z"/><path class="cls-2" d="M89,199c3.67,0,7.34.05,11,0,2.5-.05,3.63,1,3.61,3.58-.06,7.33,0,14.66,0,22,0,2.72-1.4,4-4.09,4-7.12,0-14.25-.05-21.37,0-2.7,0-4-1.52-4-3.8-.16-7.44-.13-14.88,0-22.31,0-2.36,1.59-3.5,4-3.49C81.66,199,85.33,199,89,199Z"/><path class="cls-2" d="M214.37,176.45c0,3.56,0,7.13,0,10.69,0,2.83-1.31,4.27-4.18,4.27-7.13,0-14.26,0-21.39,0-2.72,0-4-1.42-4-4.1,0-6.92,0-13.84,0-20.76,0-3.48,1.31-4.7,4.74-4.71,6.71,0,13.42,0,20.13,0,3.9,0,4.69.85,4.69,4.86Q214.38,171.58,214.37,176.45Z"/><path class="cls-2" d="M52.41,199c3.46,0,6.93.18,10.37,0,3-.2,4.13,1.48,4.19,3.85.17,7.22.14,14.45,0,21.67,0,2.82-2.08,4-4.63,4.07-6.7.1-13.4.13-20.1,0-3.76-.08-4.8-1.32-4.81-5q0-10,0-20.1c0-4,.44-4.44,4.59-4.45Z"/><path class="cls-2" d="M199.45,154.28c-3.68,0-7.35-.05-11,0-2.47,0-3.69-.94-3.67-3.52.05-7.13,0-14.26,0-21.39,0-2.76,1-4.22,4.13-4.15,7.23.15,14.47.1,21.7,0,2.66,0,3.82,1,3.79,3.74q-.1,10.86,0,21.71c0,2.54-1.1,3.63-3.61,3.59C207,154.23,203.22,154.28,199.45,154.28Z"/><path class="cls-2" d="M125.85,154.27c-3.78,0-7.55,0-11.33,0-2.36,0-3.43-1.07-3.41-3.44q.06-11,0-22c0-2.56,1.16-3.56,3.65-3.55,7.44.06,14.89.09,22.33,0,2.48,0,3.55,1.22,3.58,3.37.09,7.55,0,15.1,0,22.65,0,2.1-1.19,3-3.2,3Z"/><path class="cls-2" d="M88.8,154.28c-3.67,0-7.34-.07-11,0-2.63.06-3.85-1-3.82-3.7.08-6.82,0-13.63,0-20.45,0-3.68,1.27-4.86,4.91-4.87,6.93,0,13.85.06,20.77,0,2.82,0,4,1.1,3.92,3.93q-.14,10.69,0,21.39c0,2.71-1.15,3.79-3.8,3.72C96.15,154.22,92.47,154.28,88.8,154.28Z"/><path class="cls-4" d="M66.43,304.08l.67-.48.16.25-.83.23Z"/><path class="cls-2" d="M89.09,265.68h-11c-2.7,0-4.08-1.31-4.09-4,0-7,0-14,0-21.05,0-3.29,1.36-4.49,4.63-4.49,7,0,14,.06,21.06,0,2.84,0,3.94,1.13,3.91,3.93-.09,7.23-.11,14.46,0,21.69,0,3-1.24,4.13-4.16,4C96,265.58,92.55,265.68,89.09,265.68Z"/><path class="cls-2" d="M37.46,250.88c0-3.66.11-7.33,0-11-.1-2.58,1.16-3.73,3.51-3.75q11-.09,22,0c2.63,0,4.08,1.55,4.1,4.17,0,7.22.07,14.44,0,21.66,0,2.41-1.21,3.79-3.91,3.75-7.23-.09-14.45-.11-21.67,0-3,0-4.11-1.25-4-4.16C37.56,258,37.46,254.44,37.46,250.88Z"/><path class="cls-2" d="M89,273.23c3.67,0,7.34,0,11,0,2.5-.05,3.63,1,3.61,3.58-.06,7.33,0,14.66,0,22,0,2.72-1.4,4-4.09,4-7.12,0-14.25-.05-21.37,0-2.7,0-4-1.52-4-3.81-.16-7.43-.13-14.87,0-22.3,0-2.36,1.59-3.5,4-3.49Z"/><path class="cls-2" d="M52.41,273.23c3.46,0,6.93.18,10.37-.05,3-.2,4.13,1.48,4.19,3.85.17,7.22.14,14.45,0,21.67,0,2.82-2.08,4-4.63,4.07-6.7.09-13.4.13-20.1,0-3.76-.08-4.8-1.32-4.81-5q0-10,0-20.1c0-4,.44-4.44,4.59-4.45Z"/><path class="cls-5" d="M39,115.64l-.46-.1a3.47,3.47,0,0,1-1.6-.78l.62-.76a2.8,2.8,0,0,0,.89.53,3.06,3.06,0,0,0,1.06.17,2.13,2.13,0,0,0,1.2-.28.92.92,0,0,0,.42-.81h0A.84.84,0,0,0,41,113a1.1,1.1,0,0,0-.5-.33,5.42,5.42,0,0,0-.79-.19h-.13a7.62,7.62,0,0,1-1.16-.28,1.67,1.67,0,0,1-.77-.56,1.86,1.86,0,0,1-.31-1.16h0a2,2,0,0,1,.29-1.13,1.89,1.89,0,0,1,.86-.71,3.5,3.5,0,0,1,1.37-.24,3.05,3.05,0,0,1,.74.08,3.9,3.9,0,0,1,.73.24,4,4,0,0,1,.71.42l-.57.79a3.29,3.29,0,0,0-.81-.45,2.22,2.22,0,0,0-.8-.15,1.9,1.9,0,0,0-1.13.29,1,1,0,0,0-.41.83h0a.78.78,0,0,0,.21.58,1.29,1.29,0,0,0,.52.31c.2.06.49.13.86.2h.18a6.21,6.21,0,0,1,1.08.31,1.75,1.75,0,0,1,.72.58,1.9,1.9,0,0,1,.29,1.11h0A1.84,1.84,0,0,1,41,115.4a3.71,3.71,0,0,1-1.41.24Z"/><path class="cls-5" d="M44.84,115.64l-.5-.26a1.85,1.85,0,0,1-.76-.78,2.72,2.72,0,0,1-.26-1.23v-.57a3.07,3.07,0,0,1,.25-1.28,1.83,1.83,0,0,1,.73-.82,2.34,2.34,0,0,1,1.16-.27,1.83,1.83,0,0,1,1.08.31,2,2,0,0,1,.69.92,4.1,4.1,0,0,1,.23,1.44v.33H44v-.8h2.47a1.66,1.66,0,0,0-.31-1,.91.91,0,0,0-.74-.34,1.08,1.08,0,0,0-.88.37,1.55,1.55,0,0,0-.31,1v.64a1.34,1.34,0,0,0,.33,1,1.28,1.28,0,0,0,.94.33,1.53,1.53,0,0,0,.6-.12,1.7,1.7,0,0,0,.54-.34l.65.65a2.58,2.58,0,0,1-.84.56,2.32,2.32,0,0,1-1,.2Z"/><path class="cls-5" d="M49.49,115.41a1.43,1.43,0,0,1-.6-.7,2.68,2.68,0,0,1-.21-1.11v-1.12a2.88,2.88,0,0,1,.2-1.12,1.54,1.54,0,0,1,.59-.71,1.68,1.68,0,0,1,.92-.24,1.48,1.48,0,0,1,.82.24,1.61,1.61,0,0,1,.6.66l-.1,1a1.18,1.18,0,0,0-.12-.55.82.82,0,0,0-.34-.35,1.08,1.08,0,0,0-.54-.12,1,1,0,0,0-.76.31,1.25,1.25,0,0,0-.27.86v1.11a1.24,1.24,0,0,0,.27.85,1.14,1.14,0,0,0,1.3.17.79.79,0,0,0,.34-.36,1.19,1.19,0,0,0,.12-.56l.07,1.07a1.45,1.45,0,0,1-.5.63,1.38,1.38,0,0,1-.84.26A1.68,1.68,0,0,1,49.49,115.41Zm.47,2.22-.45-.21a1.68,1.68,0,0,1-.71-.6l.68-.61a1.23,1.23,0,0,0,.47.41,1.15,1.15,0,0,0,.56.15,1.21,1.21,0,0,0,.89-.32,1.19,1.19,0,0,0,.31-.89V110.5h1v4.92a2.58,2.58,0,0,1-.26,1.19,1.7,1.7,0,0,1-.74.76,2.54,2.54,0,0,1-1.18.26Z"/><path class="cls-5" d="M74.83,108.47h5v1h-5Zm2,.58h1v6.52h-1Z"/><path class="cls-5" d="M81.35,115.64l-.49-.26a1.74,1.74,0,0,1-.76-.78,2.6,2.6,0,0,1-.26-1.23v-.57a2.92,2.92,0,0,1,.25-1.28,1.77,1.77,0,0,1,.73-.82,2.3,2.3,0,0,1,1.15-.27,1.83,1.83,0,0,1,1.08.31,2,2,0,0,1,.69.92A3.88,3.88,0,0,1,84,113.1v.33H80.56v-.8H83a1.74,1.74,0,0,0-.32-1,.9.9,0,0,0-.74-.34,1.08,1.08,0,0,0-.88.37,1.6,1.6,0,0,0-.31,1v.64a1.34,1.34,0,0,0,.33,1,1.31,1.31,0,0,0,1,.33,1.61,1.61,0,0,0,.6-.12,1.66,1.66,0,0,0,.53-.34l.65.65a2.58,2.58,0,0,1-.84.56,2.27,2.27,0,0,1-.94.2Z"/><path class="cls-5" d="M85.34,110.5h1v5.07h-1Zm2.46,1a1.11,1.11,0,0,0-.46-.09.92.92,0,0,0-1,1l-.1-1a1.79,1.79,0,0,1,.6-.7,1.42,1.42,0,0,1,.82-.25,1.81,1.81,0,0,1,.63.1,1.28,1.28,0,0,1,.49.29l-.65.88A.78.78,0,0,0,87.8,111.46Z"/><path class="cls-5" d="M112.23,115.32a2.27,2.27,0,0,1-.87-.92,2.9,2.9,0,0,1-.31-1.38v-2a2.86,2.86,0,0,1,.31-1.37,2.21,2.21,0,0,1,.87-.92,2.84,2.84,0,0,1,2.62,0,2.23,2.23,0,0,1,.88.92A3,3,0,0,1,116,111v2a3,3,0,0,1-.31,1.38,2.29,2.29,0,0,1-.88.92,2.65,2.65,0,0,1-1.31.32A2.67,2.67,0,0,1,112.23,115.32Zm2.09-.86a1.32,1.32,0,0,0,.51-.56,1.86,1.86,0,0,0,.19-.84V111a1.86,1.86,0,0,0-.19-.84,1.35,1.35,0,0,0-.51-.57,1.55,1.55,0,0,0-.78-.19,1.49,1.49,0,0,0-.77.19,1.31,1.31,0,0,0-.52.57,1.86,1.86,0,0,0-.18.84v2.08a1.86,1.86,0,0,0,.18.84,1.28,1.28,0,0,0,.52.56,1.5,1.5,0,0,0,.77.2A1.56,1.56,0,0,0,114.32,114.46Zm-.79-.86.51-.66,2.65,2.08-.52.67Z"/><path class="cls-5" d="M118.61,113.58a1.1,1.1,0,0,0,.28.82,1,1,0,0,0,.76.29,1.06,1.06,0,0,0,.76-.25,1,1,0,0,0,.27-.74l.06,1.06a1.4,1.4,0,0,1-1.37.88,1.62,1.62,0,0,1-1.3-.54,2.3,2.3,0,0,1-.45-1.52V110.5h1Zm2.07-3.08h1v5.07h-1Z"/><path class="cls-5" d="M123.4,115.25a1.45,1.45,0,0,1-.46-1.18,1.42,1.42,0,0,1,.42-1.12,1.88,1.88,0,0,1,1.28-.38h1.45l.06.8h-1.5a.85.85,0,0,0-.58.17.69.69,0,0,0-.2.53.68.68,0,0,0,.26.58,1.36,1.36,0,0,0,.78.18,2.29,2.29,0,0,0,.85-.12.4.4,0,0,0,.28-.38l.1.71a1,1,0,0,1-.32.34,1.54,1.54,0,0,1-.45.2,2.49,2.49,0,0,1-.57.06A2.14,2.14,0,0,1,123.4,115.25Zm2.64-2.89a1.11,1.11,0,0,0-.26-.78,1,1,0,0,0-.76-.27,2,2,0,0,0-.59.09,1.69,1.69,0,0,0-.52.26l-.73-.5a2,2,0,0,1,.76-.54,2.76,2.76,0,0,1,1-.19,2.39,2.39,0,0,1,1.08.22,1.51,1.51,0,0,1,.68.64,2,2,0,0,1,.24,1v3.26H126Z"/><path class="cls-5" d="M148.44,115.32a2.29,2.29,0,0,1-.88-.92,3,3,0,0,1-.31-1.38v-2a3,3,0,0,1,.31-1.37,2.23,2.23,0,0,1,.88-.92,2.84,2.84,0,0,1,2.62,0,2.21,2.21,0,0,1,.87.92,2.86,2.86,0,0,1,.31,1.37v2a2.9,2.9,0,0,1-.31,1.38,2.27,2.27,0,0,1-.87.92,2.67,2.67,0,0,1-1.31.32A2.65,2.65,0,0,1,148.44,115.32Zm2.08-.86a1.34,1.34,0,0,0,.52-.56,1.86,1.86,0,0,0,.18-.84V111a1.86,1.86,0,0,0-.18-.84,1.37,1.37,0,0,0-.52-.57,1.49,1.49,0,0,0-.77-.19,1.53,1.53,0,0,0-.78.19,1.35,1.35,0,0,0-.51.57,1.74,1.74,0,0,0-.19.84v2.08a1.74,1.74,0,0,0,.19.84,1.32,1.32,0,0,0,.51.56,1.53,1.53,0,0,0,.78.2A1.5,1.5,0,0,0,150.52,114.46Zm-.79-.86.52-.66L152.9,115l-.52.67Z"/><path class="cls-5" d="M154.82,113.58a1.14,1.14,0,0,0,.27.82,1,1,0,0,0,.77.29,1,1,0,0,0,.75-.25,1,1,0,0,0,.27-.74l.07,1.06a1.43,1.43,0,0,1-1.37.88,1.62,1.62,0,0,1-1.3-.54,2.3,2.3,0,0,1-.46-1.52V110.5h1Zm2.06-3.08h1v5.07h-1Z"/><path class="cls-5" d="M159.39,108.47h1v1h-1Zm0,2h1v5.07h-1Z"/><path class="cls-5" d="M187.78,115.64l-.45-.1a3.35,3.35,0,0,1-.86-.29,3.58,3.58,0,0,1-.75-.49l.62-.76a2.74,2.74,0,0,0,.9.53,3,3,0,0,0,1.06.17,2.12,2.12,0,0,0,1.19-.28.91.91,0,0,0,.43-.81h0a.89.89,0,0,0-.19-.59,1.16,1.16,0,0,0-.5-.33,6.16,6.16,0,0,0-.79-.19h-.14a7.93,7.93,0,0,1-1.16-.28,1.6,1.6,0,0,1-.76-.56,1.86,1.86,0,0,1-.32-1.16h0a2,2,0,0,1,.3-1.13,1.79,1.79,0,0,1,.86-.71,3.48,3.48,0,0,1,1.36-.24,3.19,3.19,0,0,1,.75.08,3.56,3.56,0,0,1,1.43.66l-.56.79a3.29,3.29,0,0,0-.81-.45,2.32,2.32,0,0,0-.81-.15,2,2,0,0,0-1.13.29,1,1,0,0,0-.4.83h0a.82.82,0,0,0,.2.58,1.36,1.36,0,0,0,.52.31c.21.06.5.13.86.2h.18a6.21,6.21,0,0,1,1.08.31,1.69,1.69,0,0,1,.72.58,1.83,1.83,0,0,1,.29,1.11h0a2,2,0,0,1-.3,1.11,2,2,0,0,1-.89.7,3.71,3.71,0,0,1-1.41.24Z"/><path class="cls-5" d="M193.6,115.64l-.5-.26a1.74,1.74,0,0,1-.76-.78,2.6,2.6,0,0,1-.26-1.23v-.57a2.92,2.92,0,0,1,.25-1.28,1.83,1.83,0,0,1,.73-.82,2.3,2.3,0,0,1,1.15-.27,1.83,1.83,0,0,1,1.08.31,2,2,0,0,1,.69.92,3.88,3.88,0,0,1,.24,1.44v.33H192.8v-.8h2.47a1.74,1.74,0,0,0-.32-1,.89.89,0,0,0-.74-.34,1.08,1.08,0,0,0-.88.37,1.6,1.6,0,0,0-.31,1v.64a1.3,1.3,0,0,0,.34,1,1.27,1.27,0,0,0,.94.33,1.61,1.61,0,0,0,.6-.12,1.66,1.66,0,0,0,.53-.34l.66.65a2.73,2.73,0,0,1-.85.56,2.27,2.27,0,0,1-.94.2Z"/><path class="cls-5" d="M198.86,112.77l.48.92-1.29,1.88H197Zm0,.49L197,110.5h1.11l1.45,2.27,1.92,2.8h-1.1Zm.33-1,1.1-1.8h1.11l-1.79,2.73Z"/><path class="cls-5" d="M225.81,115.64l-.46-.1a3.41,3.41,0,0,1-.85-.29,3.34,3.34,0,0,1-.75-.49l.62-.76a2.8,2.8,0,0,0,.89.53,3.06,3.06,0,0,0,1.06.17,2.13,2.13,0,0,0,1.2-.28.93.93,0,0,0,.43-.81h0a.84.84,0,0,0-.2-.59,1.1,1.1,0,0,0-.5-.33,5.58,5.58,0,0,0-.78-.19h-.14a7.62,7.62,0,0,1-1.16-.28,1.6,1.6,0,0,1-.76-.56,1.8,1.8,0,0,1-.32-1.16h0a2.13,2.13,0,0,1,.29-1.13,1.87,1.87,0,0,1,.87-.71,3.45,3.45,0,0,1,1.36-.24,3.19,3.19,0,0,1,.75.08,3.8,3.8,0,0,1,.72.24,4,4,0,0,1,.71.42l-.57.79a3.42,3.42,0,0,0-.8-.45,2.32,2.32,0,0,0-.81-.15,1.92,1.92,0,0,0-1.13.29,1,1,0,0,0-.41.83h0a.78.78,0,0,0,.21.58,1.29,1.29,0,0,0,.52.31c.21.06.49.13.86.2h.18a6.21,6.21,0,0,1,1.08.31,1.69,1.69,0,0,1,.72.58,1.83,1.83,0,0,1,.29,1.11h0a1.84,1.84,0,0,1-1.2,1.81,3.71,3.71,0,0,1-1.41.24Z"/><path class="cls-5" d="M230.47,115.25a1.45,1.45,0,0,1-.46-1.18,1.42,1.42,0,0,1,.42-1.12,1.89,1.89,0,0,1,1.29-.38h1.44l.06.8h-1.5a.87.87,0,0,0-.58.17.69.69,0,0,0-.2.53.68.68,0,0,0,.26.58,1.36,1.36,0,0,0,.78.18,2.29,2.29,0,0,0,.85-.12.4.4,0,0,0,.28-.38l.1.71a1,1,0,0,1-.32.34,1.54,1.54,0,0,1-.45.2,2.49,2.49,0,0,1-.57.06A2.14,2.14,0,0,1,230.47,115.25Zm2.64-2.89a1.11,1.11,0,0,0-.26-.78,1,1,0,0,0-.76-.27,2,2,0,0,0-.59.09,1.69,1.69,0,0,0-.52.26l-.72-.5a1.91,1.91,0,0,1,.75-.54,2.76,2.76,0,0,1,1.05-.19,2.39,2.39,0,0,1,1.08.22,1.51,1.51,0,0,1,.68.64,2,2,0,0,1,.24,1v3.26h-.95Z"/><path class="cls-5" d="M235.57,108.47h1v7.1h-1Zm1.45,6.94a1.27,1.27,0,0,1-.52-.64l.07-1.06a1.19,1.19,0,0,0,.12.56.77.77,0,0,0,.34.35,1.07,1.07,0,0,0,.53.12,1,1,0,0,0,.77-.3,1.21,1.21,0,0,0,.27-.84v-1.1a1.29,1.29,0,0,0-.27-.87,1,1,0,0,0-.77-.3,1.07,1.07,0,0,0-.53.11.77.77,0,0,0-.34.35,1.13,1.13,0,0,0-.12.54l-.1-1a1.73,1.73,0,0,1,.6-.68,1.46,1.46,0,0,1,.82-.24,1.68,1.68,0,0,1,.92.24,1.52,1.52,0,0,1,.59.7,2.91,2.91,0,0,1,.2,1.12v1.11a2.63,2.63,0,0,1-.21,1.1,1.54,1.54,0,0,1-.6.7,1.79,1.79,0,0,1-.95.24A1.41,1.41,0,0,1,237,115.41Z"/><path class="cls-5" d="M259.91,108.47h1v7.1h-1Zm.67,6.15h1.61a1.73,1.73,0,0,0,1.22-.41,1.49,1.49,0,0,0,.43-1.15V111a1.52,1.52,0,0,0-.43-1.15,1.73,1.73,0,0,0-1.22-.4h-1.61v-1h1.58a3.25,3.25,0,0,1,1.46.3,2,2,0,0,1,.92.87,2.8,2.8,0,0,1,.32,1.37v2a2.82,2.82,0,0,1-.32,1.38,2.09,2.09,0,0,1-.92.87,3.32,3.32,0,0,1-1.47.3h-1.57Z"/><path class="cls-5" d="M267.19,115.38a1.74,1.74,0,0,1-.72-.75,2.73,2.73,0,0,1-.24-1.2v-.82a2.67,2.67,0,0,1,.24-1.18,1.74,1.74,0,0,1,.72-.75,2.33,2.33,0,0,1,1.13-.25,2.29,2.29,0,0,1,1.12.25,1.64,1.64,0,0,1,.72.75,2.67,2.67,0,0,1,.25,1.18v.84a2.64,2.64,0,0,1-.25,1.18,1.64,1.64,0,0,1-.72.75,2.18,2.18,0,0,1-1.12.26A2.22,2.22,0,0,1,267.19,115.38Zm1.93-1a1.32,1.32,0,0,0,.29-.92v-.84a1.28,1.28,0,0,0-.29-.91,1,1,0,0,0-.8-.33,1,1,0,0,0-.81.33,1.32,1.32,0,0,0-.29.91v.84a1.37,1.37,0,0,0,.29.92,1,1,0,0,0,.81.32A1,1,0,0,0,269.12,114.37Z"/><path class="cls-5" d="M271.82,110.5h1v5.07h-1Zm3,2a1.21,1.21,0,0,0-.26-.83,1,1,0,0,0-.75-.3,1.06,1.06,0,0,0-.76.26,1,1,0,0,0-.26.73l-.1-1a1.75,1.75,0,0,1,.61-.7,1.46,1.46,0,0,1,.84-.25,1.63,1.63,0,0,1,.9.24,1.44,1.44,0,0,1,.58.7,2.91,2.91,0,0,1,.2,1.12v3.08h-1Zm3,0a1.17,1.17,0,0,0-.28-.83,1,1,0,0,0-.78-.3.92.92,0,0,0-.72.29,1.15,1.15,0,0,0-.25.8l-.2-1a2.05,2.05,0,0,1,.63-.78,1.49,1.49,0,0,1,.86-.27,1.75,1.75,0,0,1,.94.24,1.46,1.46,0,0,1,.59.7,2.73,2.73,0,0,1,.2,1.12v3.08h-1Z"/><path class="cls-1" d="M232.8,140.41l-1.86-1.83-4.5-4.5a2.66,2.66,0,0,1,1.44-4.55,2.49,2.49,0,0,1,2.26.77q2.46,2.43,4.9,4.88l1.51,1.55c.53-.55,1-1.07,1.49-1.56,1.65-1.66,3.3-3.32,5-5a2.64,2.64,0,0,1,3.7,3.76c-2.07,2.09-4.15,4.16-6.23,6.24l-.18.21a3.2,3.2,0,0,0,.25.27c2,2,3.92,3.94,5.9,5.89a2.86,2.86,0,0,1,1,2.23,2.58,2.58,0,0,1-1.45,2.24,2.37,2.37,0,0,1-2.59-.13,14.78,14.78,0,0,1-1.75-1.61l-4.76-4.77-.43-.41c-.41.44-.79.87-1.19,1.27q-2.57,2.59-5.16,5.17a2.6,2.6,0,0,1-2.93.55,2.69,2.69,0,0,1-1.59-2.48,2.46,2.46,0,0,1,.7-1.72c1.64-1.66,3.3-3.31,4.95-5C231.75,141.46,232.25,141,232.8,140.41Z"/><path class="cls-1" d="M269.8,140.41l-1.86-1.83-4.5-4.5a2.66,2.66,0,0,1,1.44-4.55,2.49,2.49,0,0,1,2.26.77q2.46,2.43,4.9,4.88l1.51,1.55c.53-.55,1-1.07,1.49-1.56,1.65-1.66,3.3-3.32,5-5a2.64,2.64,0,0,1,3.7,3.76c-2.07,2.09-4.15,4.16-6.23,6.24l-.18.21a3.2,3.2,0,0,0,.25.27c2,2,3.92,3.94,5.9,5.89a2.86,2.86,0,0,1,1,2.23,2.58,2.58,0,0,1-1.45,2.24,2.37,2.37,0,0,1-2.59-.13,14.78,14.78,0,0,1-1.75-1.61l-4.76-4.77-.43-.41c-.41.44-.79.87-1.19,1.27q-2.56,2.59-5.16,5.17a2.6,2.6,0,0,1-2.93.55,2.69,2.69,0,0,1-1.59-2.48,2.46,2.46,0,0,1,.7-1.72c1.64-1.66,3.3-3.31,4.95-5C268.75,141.46,269.25,141,269.8,140.41Z"/><path class="cls-1" d="M232.8,213.41l-1.86-1.83-4.5-4.5a2.66,2.66,0,0,1,1.44-4.55,2.49,2.49,0,0,1,2.26.77q2.46,2.43,4.9,4.88l1.51,1.55c.53-.55,1-1.07,1.49-1.56,1.65-1.66,3.3-3.32,5-5a2.64,2.64,0,0,1,3.7,3.76c-2.07,2.09-4.15,4.16-6.23,6.24l-.18.21a3.2,3.2,0,0,0,.25.27c2,2,3.92,3.94,5.9,5.89a2.86,2.86,0,0,1,1,2.23,2.58,2.58,0,0,1-1.45,2.24,2.37,2.37,0,0,1-2.59-.13,14.78,14.78,0,0,1-1.75-1.61l-4.76-4.77-.43-.41c-.41.44-.79.87-1.19,1.27q-2.57,2.59-5.16,5.17a2.6,2.6,0,0,1-2.93.55,2.69,2.69,0,0,1-1.59-2.48,2.46,2.46,0,0,1,.7-1.72c1.64-1.66,3.3-3.31,4.95-5C231.75,214.46,232.25,214,232.8,213.41Z"/><path class="cls-1" d="M269.8,213.41l-1.86-1.83-4.5-4.5a2.66,2.66,0,0,1,1.44-4.55,2.49,2.49,0,0,1,2.26.77q2.46,2.43,4.9,4.88l1.51,1.55c.53-.55,1-1.07,1.49-1.56,1.65-1.66,3.3-3.32,5-5a2.64,2.64,0,0,1,3.7,3.76c-2.07,2.09-4.15,4.16-6.23,6.24l-.18.21a3.2,3.2,0,0,0,.25.27c2,2,3.92,3.94,5.9,5.89a2.86,2.86,0,0,1,1,2.23,2.58,2.58,0,0,1-1.45,2.24,2.37,2.37,0,0,1-2.59-.13,14.78,14.78,0,0,1-1.75-1.61l-4.76-4.77-.43-.41c-.41.44-.79.87-1.19,1.27q-2.56,2.59-5.16,5.17a2.6,2.6,0,0,1-2.93.55,2.69,2.69,0,0,1-1.59-2.48,2.46,2.46,0,0,1,.7-1.72c1.64-1.66,3.3-3.31,4.95-5C268.75,214.46,269.25,214,269.8,213.41Z"/></g></g></svg>