<svg xmlns="http://www.w3.org/2000/svg" viewBox="0 0 150.81 147.24"><defs><style>.cls-1{fill:#9a9ea0;}.cls-2{fill:#f0f8fd;}</style></defs><title>chamadas-off</title><g id="Layer_2" data-name="Layer 2"><g id="Layer_1-2" data-name="Layer 1"><path class="cls-1" d="M6.5,61.73s-17-25,4-49.32c0,0,18-20.66,50.66-8.66,0,0,87.65-11,83,82,0,0,16.66,23.66-2.67,48.32,0,0-14,21-50.66,10C90.81,144.05,5.16,160.05,6.5,61.73Z"/><path class="cls-2" d="M52.64,63.73c-.43.23-.61.53-.31,1-.68-.48-.85.24-1.07.54a12.87,12.87,0,0,0-2.26,11A27,27,0,0,0,54.71,87c4.24,5.17,8.88,9.89,15.07,12.77a13.27,13.27,0,0,0,16-3.31h0c.62.13.82-.46,1.2-.73,2.19-1.52,4-1.35,5.84.6l.91.93q6.06,6.47,12.53,12.52c.43.43.86.86,1.3,1.28,2.12,2,2.3,4.11.32,6.2a24.06,24.06,0,0,1-5.2,4.33c-6.85,4-14.09,4.22-21.56,2.26-7-1.83-13.16-5.26-19.06-9.29-2.12-1.46-4-3.25-6.27-4.49h0a17.88,17.88,0,0,0-4.33-3.66h0a23.59,23.59,0,0,0-4.35-4.12l-3.85-3.85a19.49,19.49,0,0,0-3.79-4h0a2.76,2.76,0,0,0-2-2l0,0c.37-.53-.13-.77-.37-1.07a77.27,77.27,0,0,1-6.69-9.39C27,76,24.36,69.91,23.77,63.07a28.32,28.32,0,0,1,2.66-14.36,26.67,26.67,0,0,1,5.55-7c2.22-2,4.54-1.88,6.56.27a6.66,6.66,0,0,0,1.93,1.77h0a.31.31,0,0,0,.35.35v0c0,.24.11.35.34.35v0a.3.3,0,0,0,.35.35h0a.3.3,0,0,0,.35.34h0c0,.24.11.35.34.35v0a.3.3,0,0,0,.35.35h0a.3.3,0,0,0,.35.34h0a.3.3,0,0,0,.34.35v0a.3.3,0,0,0,.35.35h0a.3.3,0,0,0,.35.34h0a127,127,0,0,0,9.84,9.85c1.89,1.71,2,3.18.37,5.13C53.55,62.61,53.09,63.17,52.64,63.73Z"/><path class="cls-2" d="M104.56,79.68c-1.17,0-2.56.4-3.43-.1s-.31-2-.45-3.11a31.47,31.47,0,0,0-10.31-20,30.31,30.31,0,0,0-19.24-7.91c-1.37-.07-1.81-.43-1.69-1.8a30.08,30.08,0,0,0,0-4.65c-.07-1.13.32-1.41,1.39-1.35C81.18,41.24,90.1,45,97.38,52.39a38.94,38.94,0,0,1,11.13,25.4c.11,1.62-.34,2.22-2,2a12,12,0,0,0-2,0Z"/><path class="cls-2" d="M76.44,33.16,75.14,33c-.59-1-1.29-.74-2-.19l-3-.14a.54.54,0,0,0-.58-.59V26.4a42.71,42.71,0,0,1,11.65,1.2,54.94,54.94,0,0,1,41,42c.15.69-.23,1.76.88,2.11.05.32.09.63.14,1-.54.64-.82,1.25.19,1.72l.12,1.62c-.85,1.14-.21,2.44-.41,3.65H116.8l-.27-.26c0-1.33-.09-2.65-.14-4,.57-.46.59-.81-.18-1l-.12-1.64c.54-.42.28-.59-.21-.69l-.1-1.22-.19-.42A46.2,46.2,0,0,0,105.2,49.35a32.9,32.9,0,0,0-6.7-6.58,45.5,45.5,0,0,0-18-8.77c-.12-.54-.32-.74-.71-.17l-.63-.16c-.11-.55-.31-.75-.7-.18l-1-.15C77.25,32.55,76.89,32.6,76.44,33.16Z"/><path class="cls-2" d="M69.47,60a10.2,10.2,0,0,0,0-1.66c-.3-1.67.4-2,2-1.89A23.19,23.19,0,0,1,92,73.36a27.25,27.25,0,0,1,.88,5.22c.06.78-.09,1.22-1.06,1.17-1.77-.08-3.54,0-5.32,0-.67,0-1-.12-1-.9A15.49,15.49,0,0,0,70.38,63.77c-.75,0-.95-.29-.92-1C69.5,61.84,69.47,60.9,69.47,60Z"/><path class="cls-2" d="M69.8,75.45V73.79c0-2.39,0-2.39,2.4-1.75a7.55,7.55,0,0,1,5.29,6.14c.1.91-.15,1.28-1.14,1.24-1.83-.08-3.66-.07-5.48,0-.92,0-1.13-.32-1.08-1.15S69.8,76.39,69.8,75.45Z"/></g></g></svg>