<svg xmlns="http://www.w3.org/2000/svg" viewBox="0 0 111.39 92.86"><defs><style>.cls-1{fill:#fefefe;}</style></defs><title>doc</title><g id="Layer_2" data-name="Layer 2"><g id="Layer_1-2" data-name="Layer 1"><path class="cls-1" d="M108.38.39a4.23,4.23,0,0,1,3,4.62c-.16,2.54-1.36,3.8-3.94,3.82-5.26,0-10.52,0-15.78,0q-42.34,0-84.68,0c-2.11,0-4.11-.1-4.73-2.62-.75-3,.15-4.65,3.1-5.87C6.1-.2,7,.07,7.78.07q49.1,0,98.19,0C106.78.07,107.65-.22,108.38.39Z"/><path class="cls-1" d="M108.38,21.39a4.23,4.23,0,0,1,3,4.62c-.16,2.54-1.36,3.8-3.94,3.82-5.26,0-10.52,0-15.78,0q-42.34,0-84.68,0c-2.11,0-4.11-.1-4.73-2.62-.75-3,.15-4.65,3.1-5.87.75-.57,1.62-.3,2.43-.3q49.1,0,98.19,0C106.78,21.07,107.65,20.78,108.38,21.39Z"/><path class="cls-1" d="M108.38,42.39a4.23,4.23,0,0,1,3,4.62c-.16,2.54-1.36,3.8-3.94,3.82-5.26,0-10.52,0-15.78,0q-42.34,0-84.68,0c-2.11,0-4.11-.1-4.73-2.62-.75-3,.15-4.65,3.1-5.87.75-.57,1.62-.3,2.43-.3q49.1,0,98.19,0C106.78,42.07,107.65,41.78,108.38,42.39Z"/><path class="cls-1" d="M106.38,63.39a4.23,4.23,0,0,1,3,4.62c-.16,2.54-1.36,3.8-3.94,3.82-5.26,0-10.52,0-15.78,0q-42.34,0-84.68,0c-2.11,0-4.11-.1-4.73-2.62-.75-3,.15-4.65,3.1-5.87.75-.57,1.62-.3,2.43-.3q49.1,0,98.19,0C104.78,63.07,105.65,62.78,106.38,63.39Z"/><path class="cls-1" d="M106.38,84.39a4.23,4.23,0,0,1,3,4.62c-.16,2.54-1.36,3.8-3.94,3.82-5.26,0-10.52,0-15.78,0q-42.34,0-84.68,0c-2.11,0-4.11-.1-4.73-2.62-.75-3,.15-4.65,3.1-5.87.75-.57,1.62-.3,2.43-.3q49.1,0,98.19,0C104.78,84.07,105.65,83.78,106.38,84.39Z"/></g></g></svg>