<svg xmlns="http://www.w3.org/2000/svg" viewBox="0 0 146.11 108.25"><defs><style>.cls-1{fill:#ceb12d;}.cls-2{fill:#ceb02d;}</style></defs><title>Asset 5</title><g id="Layer_2" data-name="Layer 2"><g id="Layer_1-2" data-name="Layer 1"><path class="cls-1" d="M73.14,105.23h53.5c9.54,0,16.48-6.86,16.49-16.39,0-23.16,0-46.32,0-69.48a16.11,16.11,0,0,0-4-10.94c-.52-.61-1.15-1.25-.47-2s1.64-.48,2.42,0a4.07,4.07,0,0,1,1.06,1,18.55,18.55,0,0,1,4,11.54q0,35.07,0,70.15a18.9,18.9,0,0,1-19,19.1q-54.07.08-108.17,0A18.9,18.9,0,0,1,0,89V19.17A18.93,18.93,0,0,1,19.07,0Q71.3,0,123.54,0c1.08,0,2.34-.06,2.36,1.45S124.63,3,123.47,3c-34.6,0-69.2.07-103.79,0A16.51,16.51,0,0,0,2.91,19.7C3.1,42.64,3,65.57,3,88.51c0,10,6.81,16.72,16.84,16.72Z"/><path class="cls-2" d="M13.43,19.32,23.59,27Q47.92,45.39,72.22,63.83a2,2,0,0,0,2.84,0q28.32-20.2,56.69-40.33a6.59,6.59,0,0,1,.57-.34c.61.36.35.92.35,1.37q0,32,0,64.07c0,4.09-2.14,6.17-6.27,6.17H19.78c-4.21,0-6.35-2.11-6.35-6.26V19.32Z"/><path class="cls-1" d="M23.53,13.5H127.31c.16.45-.18.53-.38.68L75,51.06c-.74.53-1.24.81-2.16.11Q48.55,32.72,24.19,14.34C23.94,14.15,23.58,14,23.53,13.5Z"/></g></g></svg>