<svg xmlns="http://www.w3.org/2000/svg" viewBox="0 0 50.55 51"><defs><style>.cls-1{fill:#fdfdfd;}</style></defs><title>expand</title><g id="Layer_2" data-name="Layer 2"><g id="akype"><path class="cls-1" d="M6.15,40.6c.58-.59,1.15-1.2,1.74-1.79C10.5,36.2,13.1,33.58,15.72,31a3.19,3.19,0,0,1,5.18,1.11,2.85,2.85,0,0,1-.81,3.29l-9,9a4,4,0,0,1-.62.42l.17.22.66,0c1.81,0,3.62,0,5.43,0A2.9,2.9,0,0,1,19.62,48a2.85,2.85,0,0,1-2.8,3C12.23,51,7.63,51,3,51A3.4,3.4,0,0,1,0,47.8c.08-4.43,0-8.86,0-13.3A2.91,2.91,0,0,1,2.5,31.57a2.94,2.94,0,0,1,3.33,2.1A4.56,4.56,0,0,1,6,34.84c0,1.65,0,3.3,0,4.95v.74Z"/><path class="cls-1" d="M40.08,6H34.33a5.1,5.1,0,0,1-1-.1,2.93,2.93,0,0,1-2.17-3.28A2.88,2.88,0,0,1,34,0c2.2,0,4.41,0,6.61,0s4.51.05,6.76,0a3.6,3.6,0,0,1,3.19,3.17c0,4.5,0,9,0,13.51a2.9,2.9,0,0,1-2.48,2.91,3,3,0,0,1-3.3-2.06,4,4,0,0,1-.13-1.1c0-1.71,0-3.43,0-5.15q0-.33,0-.66l-.28-.23a2.6,2.6,0,0,1-.36.68q-4.53,4.56-9.1,9.11a2.72,2.72,0,0,1-3.48.54,3.22,3.22,0,0,1-1.59-3.8,4.38,4.38,0,0,1,1-1.4c2.94-3,5.9-5.92,8.86-8.87a6.86,6.86,0,0,1,.59-.48Z"/></g></g></svg>