<svg xmlns="http://www.w3.org/2000/svg" viewBox="0 0 100 81.93"><defs><style>.cls-1{fill:#fff;}</style></defs><title>image</title><g id="Layer_2" data-name="Layer 2"><g id="Layer_1-2" data-name="Layer 1"><path class="cls-1" d="M69.68,42.41c-1-1.45-1-1.42-2.36-.37-3.52,2.65-7.06,5.28-10.57,8-.37.27-.55.31-.84-.08-.52-.71-1.1-1.36-1.64-2L39.44,29.34,31.25,19.11c-6.26,16.72-12.48,33.3-18.73,50h75l-5.64-8.45Q75.76,51.52,69.68,42.41Z"/><path class="cls-1" d="M78.17,31.54a9.33,9.33,0,0,0,9.3-9.3,9.33,9.33,0,1,0-18.66,0A9.28,9.28,0,0,0,78.17,31.54Z"/><path class="cls-1" d="M98,0H1A1.46,1.46,0,0,0,0,.34V81.59a2.91,2.91,0,0,0,2,.31H99a1.46,1.46,0,0,0,1-.31V.34A2.91,2.91,0,0,0,98,0ZM92.77,75.38q-21.39,0-42.77,0t-42.77,0c-.8,0-1-.17-1-1q0-33.43,0-66.89c0-.79.24-.93,1-.93q42.83,0,85.64,0c.74,0,1,.15,1,.94q0,33.44,0,66.89C93.79,75.22,93.56,75.38,92.77,75.38Z"/></g></g></svg>