<svg xmlns="http://www.w3.org/2000/svg" viewBox="0 0 199.17 227.5"><defs><style>.cls-1{fill:#ceb02d;}.cls-2{fill:#fed45b;}.cls-3{fill:#feb94b;}.cls-4{fill:#5d5f5b;}.cls-5{fill:#2c485e;}.cls-6{fill:#cd9b51;}.cls-7{fill:#1b425f;}.cls-8{fill:#28475e;}.cls-9{fill:#2b475e;}.cls-10{fill:#133d5e;}.cls-11{fill:#22445e;}.cls-12{fill:#173f5e;}.cls-13{fill:#143e5e;}.cls-14{fill:#fefefe;}.cls-15{fill:#e6e8eb;}.cls-16{fill:#f8b348;}.cls-17{fill:#f8b141;}.cls-18{fill:#f9f9f9;}</style></defs><title>Asset 13</title><g id="Layer_2" data-name="Layer 2"><g id="Layer_1-2" data-name="Layer 1"><path class="cls-1" d="M181,146q-4.94,24.66-9.87,49.31c-1.41,7.06-3,14.09-4.06,21.2-.72,4.94-2.86,8.57-7.17,11-1.14-1.65-2.86-1.48-4.53-1.48q-68.37,0-136.72,0a6,6,0,0,0-1.63.35c-5,0-6-3.48-6.78-7.38-2.81-14.25-5.69-28.49-8.55-42.74a7.52,7.52,0,0,1,0-7.68A7.2,7.2,0,0,1,4.7,165.4c1.68-1.69,3.93-.19,5.77-1a13.18,13.18,0,0,1,1.6-.67c.58-.11,1.15-.19,1.74-.25a10.61,10.61,0,0,1,5.28-.07c.61,0,1.22,0,1.83,0s1.26-.15,1.88-.25c14.12-.71,28.24-.3,42.36-.24,5.2,0,8.67-1.67,11.45-6.14,3.73-6,7.24-12.11,11.47-17.78,2.71-3.62,6-6.15,10.67-6.17,19.51-.09,39-.52,58.52.21,2.61-.11,5.26-.66,7.77.58.58.28,1.18.55,1.78.8,2.85.37,5.77-.39,8.61.47a6.34,6.34,0,0,1,4.71,3.55C182.59,140.72,181.83,143.36,181,146Z"/><path class="cls-1" d="M165.43,135l-7.9,0c-1.8-1.57-2-3.66-1.92-5.86-.23-4.71-2.93-6.23-7.37-6.23Q88.4,123,28.59,123c-1.86,0-3.73,0-5.29,1.27-2.05,2.6-2.51,5.59-2.49,8.82.08,8.64.05,17.28,0,25.91,0,2.2.21,4.47-1.65,6.18h-5.6c-2.14-2.08-1.63-4.78-1.65-7.32-.07-16.25.06-32.5-.07-48.75a3.56,3.56,0,0,1,.57-2,4.18,4.18,0,0,1,3.47-3,45,45,0,0,1,9.35-.84c21.17.09,42.34-.09,63.52.1a3.54,3.54,0,0,0,1.94-.59c4.42-2.42,5.14-7.42,7.76-11.1,1.08-1.08,2.36-.62,3.6-.45,9.6.71,19.2.22,28.81.26l1-.12c3.36.72,5.43,2.56,5.75,6.17.2,2.22.92,4.23,3.32,5.08a1.21,1.21,0,0,1,1.31-.2l1.36.64c5.76.69,11.63-.46,17.33,1,2.45.39,3,2.7,4.39,4.23A115.62,115.62,0,0,1,165.43,135Z"/><path class="cls-2" d="M17,226.39c1.83-1.32,3.94-.91,6-.91q65.3,0,130.59,0c2.21,0,5-1.14,6.34,2-2.23-1.19-4.65-.89-7-.89q-64.59,0-129.18,0C21.42,226.59,19.19,226.46,17,226.39Z"/><path class="cls-3" d="M90.51,103.46c-1.17,1.6-2.91,1.41-4.57,1.41q-33.15,0-66.31,0A17.66,17.66,0,0,1,15.9,104a3.93,3.93,0,0,1,1-.42c1.65-1.16,3.54-1,5.38-1q31.11,0,62.23,0A16.32,16.32,0,0,1,90.51,103.46Z"/><path class="cls-4" d="M90.51,103.46l-73.62.15a6.4,6.4,0,0,0,.05-.88c.93-.83,2.08-.63,3.17-.63H87.18a6.13,6.13,0,0,1,2.17.35l1.36.26A5,5,0,0,0,90.51,103.46Z"/><path class="cls-5" d="M89.35,102.44l-72.41.29c1.14-1.19,2.64-1.19,4.13-1.19H85.65A5.55,5.55,0,0,1,89.35,102.44Z"/><path class="cls-6" d="M12.43,107.06l.2,1.27c.49,18.93,1,37.86-.23,56.78l-1.16,0A4,4,0,0,1,10.8,163c0-16.9,0-33.79,0-50.69,0-1.72-.9-3.71.88-5.17A2.74,2.74,0,0,0,12.43,107.06Z"/><path class="cls-7" d="M11.73,107.15q-.2,24.87-.38,49.74c0,2.39-.12,4.78-.18,7.17-.33.48-.65.47-1,0q0-25.33,0-50.69C10.27,111.21,9.58,108.82,11.73,107.15Z"/><path class="cls-8" d="M101.83,91.68l-3.36-.08c1.83-1.83,4.19-1.3,6.33-1.19,9,.45,18.08-1.18,27,.88l.14.37A248.43,248.43,0,0,1,101.83,91.68Z"/><path class="cls-7" d="M165.43,135q-.06-13.38-.14-26.75c2.51,4.1.92,8.61,1.2,12.92s.07,8.47.08,12.71c.75.34.74.67,0,1Z"/><path class="cls-3" d="M160.9,104c-6.31,1.1-12.62,1.87-18.89-.28a33.11,33.11,0,0,1,17.88-.14A4.49,4.49,0,0,1,160.9,104Z"/><path class="cls-9" d="M141.63,102.89a.86.86,0,0,1-.73-.35c6.32-1.53,12.64-1.88,18.92.2A86.4,86.4,0,0,1,141.63,102.89Z"/><path class="cls-4" d="M141.63,102.89l18.19-.15c0,.29,0,.58.07.87l-17.88.14A7.45,7.45,0,0,1,141.63,102.89Z"/><path class="cls-10" d="M181,146c0-2.56.45-5.18-.81-7.61C183.2,140.65,182.82,143.26,181,146Z"/><path class="cls-11" d="M166.54,134.87l0-1c3,.36,6.06-.78,8.86,1Z"/><path class="cls-12" d="M1.62,168.59q0,3.84,0,7.68Q-1.63,172.45,1.62,168.59Z"/><path class="cls-13" d="M10.21,164l1,0a1.59,1.59,0,0,1,.07,1l-6.54.31C6.18,163.52,8.31,164.22,10.21,164Z"/><path class="cls-14" d="M157.45,129.45c0,1.85.05,3.7.08,5.54-19.1,0-38.21.16-57.31,0-4.83-.05-8,1.57-10.49,5.69-4.2,7-8.8,13.74-13.18,20.62-1.48,2.33-3.23,4-6.21,3.95q-24.47-.22-48.93-.38c-1.16-1.19-1.1-2.7-1.11-4.18,0-9.1.08-18.19-.05-27.28-.06-4.27,1.92-6.12,6-6.24,1.48-.05,3-.12,4.45-.12q58.74,0,117.47,0C151.38,127.07,155,126.33,157.45,129.45Z"/><path class="cls-15" d="M157.45,129.45c-43.14,0-86.28.05-129.42-.12-5,0-6.92,1.22-6.71,6.52.4,9.65.1,19.33.09,29l-.83.22c-.89-.61-.85-1.54-.85-2.46q0-19.86,0-39.72c0-.91-.11-1.86,1-2.33l115.45-.19c5,0,10.07.32,15.05-.09s7.3,1.19,6.41,6.39A21.39,21.39,0,0,0,157.45,129.45Z"/><path class="cls-16" d="M12.4,165.11q.12-28.4.23-56.78c1.47,2,.93,4.27.93,6.44q.06,25.19,0,50.37Z"/><path class="cls-17" d="M20.69,120.56q-.06,22.26-.11,44.51l-1.4.07c0-12.8,0-25.6,0-38.4C19.21,124.61,18.49,122.21,20.69,120.56Z"/><path class="cls-16" d="M22.11,118.49H155.69V119H22.21Z"/><path class="cls-3" d="M101.83,91.68l30.14,0A100.83,100.83,0,0,1,101.83,91.68Z"/><path class="cls-18" d="M172.13,114.36c-1.41-1.85-3.45-3.13-5.69-2.65s-3.48-.45-4.5-2.18a9,9,0,0,0-1.31-1.76c-1.2-1.21-1.16-2,.24-3.23,18.73-16.64,25.48-42.25,17.26-65.06-10.8-30-44.24-46.43-74.68-36.66C74.86,12,57.17,42.66,63.47,72.09a57.87,57.87,0,0,0,5.66,15.39c16.05,29.86,54.08,40.74,82.72,23.67,1.55-.92,3.24-2.75,4.61-2.53,1.6.25,2.34,2.74,3.57,4.18a2,2,0,0,1,.32,2.66,6.45,6.45,0,0,0,.63,7.4c8.51,11.23,17,22.48,25.56,33.67A7,7,0,1,0,197.67,148Q185,131.15,172.13,114.36ZM133,111.12C104,117.35,76.54,99.57,70.34,70.6A52.1,52.1,0,0,1,110.77,8.08c29-6.24,56.46,11.54,62.66,40.51A52.14,52.14,0,0,1,133,111.12Z"/><path class="cls-18" d="M128.12,16c.3,0,.73.09,1.16.17a44.48,44.48,0,0,1,24.9,13.25c.67.69,1.4,1.34,1,2.46-.58,1.49-2,1.51-3.47,0a40.34,40.34,0,0,0-18.1-11.1c-1.88-.55-3.83-.89-5.76-1.3a1.71,1.71,0,0,1-1.51-2C126.39,16.4,127.11,16.07,128.12,16Z"/></g></g></svg>