<svg xmlns="http://www.w3.org/2000/svg" viewBox="0 0 137.23 91.33"><defs><style>.cls-1{fill:#fefefe;}.cls-2{fill:#fdfdfd;}.cls-3{fill:#f9d478;}.cls-4{fill:#d5b145;}</style></defs><title>Asset 2</title><g id="Layer_2" data-name="Layer 2"><g id="Layer_1-2" data-name="Layer 1"><path class="cls-1" d="M78.71,0H134c3.13,0,3.23.1,3.23,3.18V88.13c0,3-.23,3.2-3.26,3.2q-55.29,0-110.58,0c-3,0-3.26-.26-3.26-3.23V3.15c0-3,.15-3.15,3.29-3.15Z"/><path class="cls-2" d="M18.72,91c-1.08-.54-1-1.38-1-2.15Q14.83,59.72,12,30.59c-.71-7.22-1.47-14.45-2.22-21.68-.32-3.11-.12-3.36,3-3.56C19,5,19,5,19,11.22q0,38.42,0,76.84A6.37,6.37,0,0,1,18.72,91Z"/><path class="cls-1" d="M16.61,91c-1.38-.22-1.48-1.15-1.65-2Q8,53,1.12,17c-.36-1.86-.67-3.73-1-5.58-.3-1.5.25-2.29,1.8-2.32,1.9,0,3.8,0,5.69-.13C9,8.85,8.64,9.82,8.71,10.5q.93,9,1.81,17.9,1.82,18.38,3.61,36.76C15,73.71,15.78,82.26,16.61,91Z"/><path class="cls-3" d="M106.09,41.82c-6.25,0-12.5-.06-18.75,0-2,0-2.82-.64-2.8-2.73q.1-12.81,0-25.62c0-2.12.8-2.74,2.8-2.73q19,.08,38,0c1.94,0,2.65.66,2.63,2.63q-.11,12.92,0,25.85c0,2-.68,2.63-2.63,2.6C118.9,41.76,112.49,41.82,106.09,41.82Z"/><path class="cls-4" d="M79.06,58.86c15.5,0,31,.06,46.51-.06,2.27,0,2.34.93,2.28,2.63-.06,1.55.2,2.72-2.19,2.72q-46.77-.15-93.52,0c-2.74,0-2-1.56-2.14-3-.23-1.85.42-2.35,2.3-2.34C47.88,58.9,63.47,58.86,79.06,58.86Z"/><path class="cls-4" d="M78.68,72.63q-23.27,0-46.52,0c-.7,0-1.86.51-2-.53a8,8,0,0,1,.15-4.41c.27-.62,1.32-.25,2-.25q15.54,0,31.09,0,30.74,0,61.47,0c1.91,0,3-.06,3.11,2.57.08,2.89-1.3,2.7-3.22,2.7C109.38,72.61,94,72.63,78.68,72.63Z"/><path class="cls-4" d="M78.67,55.54c-15.49,0-31,0-46.47.06-2.06,0-2.21-.8-2.22-2.45s.24-2.41,2.25-2.41q46.7.1,93.4,0c2.07,0,2.21.79,2.23,2.44s-.24,2.43-2.25,2.41C110,55.5,94.31,55.54,78.67,55.54Z"/><path class="cls-4" d="M78.89,76.43c15.56,0,31.13,0,46.7-.06,2,0,2.32.65,2.27,2.4s-.11,2.46-2.21,2.46q-46.7-.12-93.4,0c-2,0-2.32-.65-2.27-2.39s.1-2.48,2.2-2.46C47.75,76.47,63.32,76.43,78.89,76.43Z"/><path class="cls-4" d="M54,30.86c7.18,0,14.36.06,21.55-.05,1.81,0,2,.69,2,2.19s-.23,2.18-2,2.17q-21.8-.12-43.58,0c-1.81,0-2-.69-2-2.19s.23-2.2,2-2.17C39.32,30.92,46.67,30.86,54,30.86Z"/><path class="cls-4" d="M53.84,38c7.27,0,14.53.07,21.79-.06,2,0,1.9.9,1.9,2.28s-.06,2.1-1.83,2.09q-21.91-.12-43.81,0c-2,0-1.9-.89-1.9-2.27s.05-2.13,1.83-2.1C39.16,38,46.5,38,53.84,38Z"/><path class="cls-4" d="M37.16,18H35.74c-6.15,0-6.12,0-5.74-6.22.06-1,.23-1.41,1.32-1.4,3.87.06,7.75.06,11.62,0,1.06,0,1.46.36,1.33,1.37,0,.08,0,.16,0,.24-.16,2,.88,4.91-.4,5.6-1.75,1-4.42.24-6.7.24Z"/></g></g></svg>