<svg xmlns="http://www.w3.org/2000/svg" viewBox="0 0 146.2 164.51"><defs><style>.cls-1{fill:#c6cbce;}.cls-2{fill:#e1e3e4;}.cls-3{fill:#eee;}.cls-4{fill:#cbccce;}.cls-5{fill:#d6d6d6;}.cls-6{fill:#dedede;}.cls-7{fill:#a2a2a2;}.cls-8{fill:#848484;}.cls-9{fill:#a5a5a5;}.cls-10{fill:#adadad;}.cls-11{fill:#a9a9a9;}.cls-12{fill:#888;}.cls-13{fill:#8c8c8d;}.cls-14{fill:#f3f4f4;}.cls-15{fill:#f5f6f7;}.cls-16{fill:#e9ebec;}.cls-17{fill:#adb1b5;}.cls-18{fill:#f8f9f9;}.cls-19{fill:#f4f5f5;}.cls-20{fill:#f7f7f7;}.cls-21{fill:#e5e7e9;}.cls-22{fill:#d5b145;}.cls-23{fill:#ad8b38;}.cls-24{fill:#f2f2f2;}.cls-25{fill:#f2f2f3;}.cls-26{fill:#969696;}</style></defs><title>Asset 4</title><g id="Layer_2" data-name="Layer 2"><g id="Layer_1-2" data-name="Layer 1"><path class="cls-1" d="M144.81,30c2.08,2,1.32,4.59.95,6.81-5.42,32.8-11,65.58-16.43,98.37a52.1,52.1,0,0,0-.24,7.19c1.29,2,1.69,4-.06,6l-1,.16c-1.49-1-1.67-2.64-2-4.19-1.17-2.5-3.64-3-5.88-3.76-10-3.46-20.15-6.77-30.24-10.09-5.54-1.83-6.14-1.35-6.24,4.64-.09,5.42.07,10.83-.07,16.24-.07,2.79,0,5.73-3,7.38-2,.41-3.56.09-4.09-2.19,0-8,0-16,0-24,0-2.81.07-5.63,1.85-8,2.22-3,1.67-6.53,1.68-9.88.07-19.28,0-38.55.07-57.82,0-3.83-.13-7.89,4.87-9.12a12.48,12.48,0,0,1,2.84-.95,70.3,70.3,0,0,0,9.37-3c.54-.22,1.09-.4,1.65-.57,3.31-.93,6.57-2.07,9.8-3.25q7.11-2.25,14.14-4.74c2-.58,4-1.3,6-2C134.17,32.32,138.84,28,144.81,30Z"/><path class="cls-2" d="M15.71,135.22c-1.63-11.41-3.28-22.82-4.88-34.24Q6.72,71.74,2.67,42.51C1.71,35.61.89,28.7,0,21.8c1.92-1.63,3.7-.4,5.51.24.84,1.33,2.2.33,3.27.7,2.45,1.72,5.33,2.26,8.14,3a39.28,39.28,0,0,0,8.42,2.93,13.39,13.39,0,0,1,2.33.64c2.83,1.24,5.55,2.87,8.85,2.4a4.63,4.63,0,0,1,2.31.49c2.39,2.29,5.39,3,8.55,3.38a4.73,4.73,0,0,1,1.55.52c2.51,2.06,5.88,2,8.62,3.48a7.18,7.18,0,0,1,2,2.16c2.49,11.31,1.44,22.69.7,34.06-1.3,2.76-3.17,1.74-3.74-.08C54.08,68,47.28,66.64,40.94,64.53c-1.53-.41-3-1.17-4.6-1.21-3.16-.1-5,2.14-5.59,4.55-1.09,4.21,3.51,4.61,5.53,6.72,1.73,1.81,3.18.52,4.34-1.12.8-1.13,1.61-2.3,3.13-2.6,3,1.48,3.27,4.6,4.22,7.3-1.39,2.47-1.34,4.11,1.68,5.69a77.39,77.39,0,0,1,9.9,6.36c1.52,2.65,4.73,2.15,6.86,3.67a1.9,1.9,0,0,1,.14,1.58A3.38,3.38,0,0,1,64,96.62c-5.4-.35-6.66,2.54-5.8,7.2-1.69,1.44-3.61,1.24-4.72-.34-2.7-3.81-4.73-1-6.83.46-2.93,2-1.18,4.11.26,6.06,2.45,3.32,4.21,7.34,9.94,5.69,1.84-.53,4.68.12,6.93,1-.17,1.94,4.17,2,2,4.79-14.91,2.69-28.67,9.1-43.14,13.2C20.32,135.29,18.15,136.86,15.71,135.22Z"/><path class="cls-3" d="M123.15,36.33a47.06,47.06,0,0,1-14.52,4.74c-3.26,1.12-7,.92-9.71,3.58a8.78,8.78,0,0,1-1.15.11c-3.45.33-6.56,1.76-9.77,2.93-9,2.07-16.54-2.24-24.38-5.35a4.85,4.85,0,0,1-.49-2.08c.29-10.76,0-21.53.19-32.29,0-2.95-.19-6.11,3-7.92,24.4,7.29,48.18,16.38,72.06,25.19,1.7.62,3.29,1.51,5.18,1.35.39,3.25-2.5,3.2-4.28,4-3.1,1.38-6.6,1.67-9.64,3.27C127.51,34.77,125.06,34.84,123.15,36.33Z"/><path class="cls-4" d="M15.71,135.22l37.18-12.59a33.78,33.78,0,0,1,13.44-1.95c5.08-.15,10,.26,13.33,4.81-2.82,7.71-.48,15.7-1.29,23.51-.27,2.67,1.11,5.62-1.28,7.95-6.63,1.64-12.35-1.43-18.27-3.5-4.5-2.75-9.88-2.91-14.64-4.9-4.81-1.69-10-2.35-14.5-4.9s-9.87-2.62-13.91-6Z"/><path class="cls-5" d="M38.62,32.65l-2.41-.06c-3-.17-5.64-1.76-8.52-2.41H25.31c-2-2.15-5-2.21-7.44-3.37-3-1.71-6.82-1.26-9.44-3.84-.8,0-1.58,1.27-2.4,0-1.11-1.29-4.37-.48-3.57-3.64,12.46-3,24.21-8.16,36.33-12.2,5.11-1.71,10-4,15.43-4.76,3.53-1.41,6.14-.57,6.42,3.46a229.37,229.37,0,0,1,0,29.43,4.2,4.2,0,0,1-2.38,3.9,14.92,14.92,0,0,1-10-3c-.4,0-.8,0-1.2,0C44.21,35.12,40.69,35.59,38.62,32.65Z"/><path class="cls-6" d="M56.67,38.64c3-.42,2.4-2.72,2.41-4.62,0-9-.14-18,.09-26.94.09-3.83-1.48-5-5-4.67C57.84-.48,62.12,0,66.31.05c-2.5,8.06-.49,16.35-1.22,24.49C64.6,30,66.5,35.7,63.9,41c-2,2.07-4,.25-6,0l-1.19-1.17c-.43-.27-.57-.54-.44-.82S56.53,38.64,56.67,38.64Z"/><path class="cls-7" d="M59.11,152.06c5.77,2.46,12,3.36,18,4.89.94,1.33,2.37,1.1,3.71,1.14a3.17,3.17,0,0,1,3.08-.63c1.79.94.57,3.48,2.37,4.42a3.13,3.13,0,0,1,.83,1.2c-3.12,2-6.71,1.57-9.77.72-7-2-13.79-4.65-20.66-7.05-1.58-.88-2.54-2.15-1.64-3.92S57.54,151.25,59.11,152.06Z"/><path class="cls-8" d="M127.8,143.71c.09,1.62.18,3.23.26,4.85-7,4.92-15.5,5.81-23.36,8.4-1.11.36-2.21.79-3.31,1.18-3.17-.4-2.32-2.62-2.08-4.56,5.15-5.33,12.45-6,18.87-8.49C121.15,143.94,124.24,141.56,127.8,143.71Z"/><path class="cls-9" d="M59.11,152.06c-4.11-.16-4.07,1.85-2.46,4.69l-13.33-4.34c-.72-1.39-3.89-1.21-2.59-3.84.78-1.58,2.06-2.45,3.89-1.33C49.33,149.19,54.8,148.88,59.11,152.06Z"/><path class="cls-10" d="M15.77,137.66a42,42,0,0,1,14.37,4.75,5.42,5.42,0,0,1-2.41,4.68,66.11,66.11,0,0,0-6.79-1.93C16.55,144.39,14.86,142,15.77,137.66Z"/><path class="cls-11" d="M27.73,147.09a6.53,6.53,0,0,1,2.41-4.68l14.48,4.83c-4.93.59-3,2.91-1.3,5.16C38,151,32.67,149.61,27.73,147.09Z"/><path class="cls-12" d="M100.12,153.27c.16,1.69-.55,3.61,1.27,4.87-2.64,1.53-5.4,2.61-8.54,2.2-2.38-1.06-2.51-2.82-1.53-4.93C93.94,153.43,96.47,151,100.12,153.27Z"/><path class="cls-13" d="M91.68,155.73a7.16,7.16,0,0,0,1.17,4.61l-5.77,2.74-1.39-.24c-1.43-1.34-1-2.93-.57-4.51C86.6,155.68,88.78,154.79,91.68,155.73Z"/><path class="cls-14" d="M129.08,33.82c2.18-2.89,5.81-2.21,8.66-3.47,2.17-1,4.62-1.34,5.81-3.76,1.4.79,1.17,2.18,1.26,3.45l-15.74,4.87c-.42-.25-.56-.49-.41-.74S128.94,33.82,129.08,33.82Z"/><path class="cls-15" d="M2.46,19.37c.42,2,2.75,2.06,3.57,3.64L0,21.8A2.15,2.15,0,0,1,2.46,19.37Z"/><path class="cls-16" d="M79.66,125.49l-13.33-4.81c-.91-1.31-3.93-1.26-2.62-4-1.33-4.24,2.83-6.44,3.66-9.88,2.17-4.07-2.83-7.52-1-11.56a10.15,10.15,0,0,0-.07-1.1c-1.6-1.76-1.82-4-1.81-6.16.06-14.54-.27-29.08.06-43.61.71-1.93,2.08-1.4,3.43-.88a73.44,73.44,0,0,0,19,4.89c-4.07,1-5.07,3.61-5,7.75.23,21.17.14,42.34,0,63.51C82,121.72,83.31,124.69,79.66,125.49Z"/><path class="cls-17" d="M91.68,155.73l-6,2.39c-.41.58-.82.55-1.22,0l-3.63,0c2.57-8,.81-16.25,1.15-24.37.32-7.6.08-7.62,7.18-5.24l34.05,11.39c2,.68,4.48.88,4.63,3.84-9.48,2.46-18.56,6.11-27.69,9.56C96.94,152.82,94.65,155.44,91.68,155.73Z"/><path class="cls-18" d="M86.93,48.36c-7.77.62-14.65-2.75-21.8-4.87-1.11.28-1.45-.2-1.22-1.24,3.28-.3,6.2,1,9.15,2.12,5.23,2,10.55,3.32,16.2,2.72.36.25.47.49.35.73s-.24.36-.36.36Z"/><path class="cls-14" d="M98.92,44.65c2.17-4.09,6-3.56,9.71-3.58C105.71,43.12,102.26,43.75,98.92,44.65Z"/><path class="cls-19" d="M89.25,48.18c0-.36,0-.72,0-1.09a8.42,8.42,0,0,1,8.51-2.33Z"/><path class="cls-20" d="M129.08,33.82c0,.36,0,.72,0,1.09l-5.92,1.42C124.47,34,126.78,33.89,129.08,33.82Z"/><path class="cls-21" d="M63.91,42.25l1.22,1.24c1.2,2,1.22,4.14,1.22,6.35q-.06,22.14,0,44.28c-2.74-.64-7.22,2.09-7.27-3.75-1.27-1.55-.37-3.2-.26-4.81a7.8,7.8,0,0,1,1.14-3.9c1.51-1.91,1.43-3.26-.85-4.3,0-10,0-20,0-29.95,0-2.22,0-4.39-1.23-6.36,2-2.16,4,.84,6,0C63.91,41.44,63.91,41.85,63.91,42.25Z"/><path class="cls-22" d="M68.57,107.44l-4.86,9.22a5.29,5.29,0,0,1-5.62.5c-1.08-.5-2.41-.48-3.41-1.07-2.43-1.43-.66,5.26-3.56,1.89a123.78,123.78,0,0,1-8.55-11.54c-.86-1.27.66-2.09,1.61-2.73,2.63-1.78,5.3-3.51,8.5-5.62.26,3.57,1,6.46,5.08,5.57A23.66,23.66,0,0,1,68.57,107.44Z"/><path class="cls-22" d="M32.54,82.08c.89,3.36,1.79,6.71,2.77,10.42-3.63-1.73-5.23-.61-5.32,2.88-1.19,3.07-2.62,5.93-5.93,7.26-1.89-4.11-3.58-8.34-5.74-12.3s2.75-6.91.92-10.61c1.79-3.92,5-1.5,7.42-1.36S30.85,80.4,32.54,82.08Z"/><path class="cls-22" d="M59.06,77.36c1.93,1,6.19.84,2.22,4.56-1.2,1.13-.28,2.65-1.1,3.76-5.42-.41-9.51-3.23-13-7.18l-3.67-6.93C41,69.32,39.63,66.67,41,63.2,49.58,64.62,56.33,68.42,59.06,77.36Z"/><path class="cls-23" d="M41,63.2l2.58,8.37c-1.89,2-3,6.81-4.77,6.15-3.72-1.38-7.1-4.46-9.83-7.54-1.91-2.14,1.35-4,2.16-6.1,1-2.45,2.85-3.25,5.34-2.48C38,62.07,39.47,62.66,41,63.2Z"/><path class="cls-23" d="M24.06,102.64C26,100.2,27,97,30,95.38c2.64,1.5,7.59.1,7.4,5.06-.12,3,2,8.58-1.33,8.74C31.88,109.37,25.92,108.65,24.06,102.64Z"/><path class="cls-23" d="M68.57,107.44c-4-.08-7.77-.91-10.81-3.78-3.53-8-3.18-8.35,8.61-8.44C66.63,99.38,72,102.63,68.57,107.44Z"/><path class="cls-22" d="M47.22,78.5l13,7.18c-.38,1.56-.77,3.12-1.15,4.69-5.37-.82-8.85-5-13.14-7.63C42.4,80.56,48.87,80.62,47.22,78.5Z"/><path class="cls-22" d="M32.54,82.08c-2.14.23-3.68-.8-5.27-2.13a5.94,5.94,0,0,0-8-.22c-.55-.54-1.64-1.47-1.57-1.57,1.8-2.55,13.55-.8,14.77,2.18A5.26,5.26,0,0,1,32.54,82.08Z"/><path class="cls-24" d="M27.69,30.18c3.28-.76,5.86.95,8.52,2.41C32.67,34.26,30.23,32.06,27.69,30.18Z"/><path class="cls-24" d="M8.43,23c3.32.95,6.77,1.53,9.68,3.58a.74.74,0,0,1-1.26,0C13.64,26.33,10,27,8.43,23Z"/><path class="cls-24" d="M56.67,38.64c0,.42,0,.83,0,1.24-3.2-.31-6.86.45-8.43-3.63Z"/><path class="cls-25" d="M38.62,32.65c2.65,1.56,6,1.44,8.44,3.56C43.69,36.35,40.12,36.94,38.62,32.65Z"/><path class="cls-25" d="M16.85,26.58l1.26,0c2.76.49,6,0,7.2,3.63C22.35,29.32,19.12,29.06,16.85,26.58Z"/><path class="cls-26" d="M84.43,158.11h1.22c0,1.58,0,3.15,0,4.72C81.55,162.25,83.85,160,84.43,158.11Z"/></g></g></svg>