<svg xmlns="http://www.w3.org/2000/svg" viewBox="0 0 146.89 147.38"><defs><style>.cls-1{fill:#221f20;}.cls-2{fill:#050000;}.cls-3{fill:#050101;}.cls-4{fill:#ceb02d;}.cls-5{fill:#e6e6e7;}.cls-6{fill:#bdbdc1;}.cls-7{fill:#e7e7e8;}.cls-8{fill:#0e090a;}.cls-9{fill:#060303;}.cls-10{fill:#040202;}.cls-11{fill:#010120;}.cls-12{fill:#000020;}</style></defs><title>Asset 7</title><g id="Layer_2" data-name="Layer 2"><g id="Layer_1-2" data-name="Layer 1"><path class="cls-1" d="M114.56,56.35a91,91,0,0,0-24.8,18.84c-1.45,1.55-1.49,2.27,0,3.78,13.82,13.77,27.55,27.64,41.31,41.47a2.81,2.81,0,0,0,1,.76c6.43,2,8.21,8.32,11.79,12.94,1,1.29.73,2.64-.45,3.8-2,2-4,4-6,6a2.9,2.9,0,0,1-4.1.37c-3.15-2.14-6.46-4.07-9.47-6.38-2.31-1.77-2.91-4.78-4.13-7.29a14.86,14.86,0,0,0-3-4.18c-12.29-12.24-24.61-24.43-36.73-36.83-2.15-2.2-3-1.7-4.94.1A94.38,94.38,0,0,0,55.67,115.3c-.78,2.58-.4,5.2-.21,7.81a30,30,0,0,1-23.12,23.78c-.13,0-.21.32-.32.49H23.51a9,9,0,0,0-3.13-.79c-4.88-1.12-5.82-4-2.4-7.59s7.16-7,10.57-10.7c3-3.24,2.52-7.56-1-9.84-2.37-1.52-4.77-1.24-7.1.16-2.56,1.54-4.45,3.83-6.56,5.88-1.72,1.67-3.36,3.42-5.1,5.07-3.58,3.38-6.41,2.82-7.56-2-1.84-7.6-2-15.34,2.87-22,4.28-5.81,9.4-10.93,16.68-13.12a8.58,8.58,0,0,1,3.5-.66c2.57.34,5.13.64,7.67-.16C41.11,86.76,49.53,80.8,56.51,73c.51-.57,1.1-1.06,1.57-1.67A1.68,1.68,0,0,0,55.67,69c-1,.84-1.86,1.85-2.82,2.73-1.59,1.46-3.16,3.65-5.55,2.59-2.59-1.15-5.1-3.13-5.36-6.14S41,63.18,38,62.2c-1-.33-1.67-1.38-2.44-2.15Q20.54,45,5.5,30A18.19,18.19,0,0,1,6.33,3.25c2.34-2.1,5.19-2.54,8-3.25h5.89c5.39,1.24,9.24,4.69,13,8.52,9,9.2,18.14,18.24,27.28,27.31a8.87,8.87,0,0,1,3,4.9c.27,1.68.93,2,2.65,1.45,2.9-1,7.27,1.61,8.37,4.55.46,1.24-.16,2.1-1,2.91-1.44,1.48-2.86,3-4.4,4.38s-2.29,2.2-.34,4c1.7,1.59,2.44,1.41,4-.1A88.93,88.93,0,0,0,91.4,33.36c1.13-2.55.5-5.18.33-7.79,2.16-12,11.9-22,23.52-24.13a25.42,25.42,0,0,0,7.13,0,18.42,18.42,0,0,1,6.22,1.81c2.57,1.22,2.87,2.72.86,4.8-3.48,3.61-7.09,7.1-10.62,10.66-4.79,4.85-3.53,11.67,2.92,13.63,2.19.66,4.94-.82,6.87-2.79,3.5-3.59,7.07-7.12,10.65-10.64,2.8-2.76,4.18-2.49,5.65,1.12,2.56,6.27,2.77,12.72-.32,18.68-4.83,9.27-12,15.91-22.89,17.5A18.56,18.56,0,0,0,114.56,56.35Z"/><path class="cls-2" d="M91.73,25.57c.73,2.63,1.24,5.25-.33,7.79Z"/><path class="cls-3" d="M55.46,123.11c-.72-2.63-1-5.24.21-7.81A37.78,37.78,0,0,1,55.46,123.11Z"/><path d="M122.38,1.44a10.46,10.46,0,0,1-7.13,0A26.19,26.19,0,0,1,122.38,1.44Z"/><path d="M114.56,56.35a9.09,9.09,0,0,1,7.16-.14Z"/><path class="cls-4" d="M68,46.6c1,1.14,0,1.72-.66,2.37q-8.9,8.91-17.81,17.8c-.63.63-1.2,1.7-2.34.67-.87-2.13-.42-4.32-.24-6.49-.18-1.45-1.22-2-2.47-2.17-2.73-.46-4.6-2.18-6.48-4.08C28.67,45.24,19.22,35.86,9.82,26.44c-5.58-5.6-5.89-12.9-.8-18s12.36-4.81,18,.8c9.66,9.63,19.27,19.3,29,28.91,1.58,1.57,2.93,3.17,3.32,5.44.22,1.33.61,2.57,2.24,2.78C63.71,46.21,65.89,45.81,68,46.6Z"/><path class="cls-5" d="M22.75,141.58C26.52,138,30,135.19,33,131.9a12,12,0,0,0-3.86-19c-4.32-2-10.16-1-13.88,2.55-1.5,1.42-2.94,2.91-4.4,4.38s-2.9,2.93-4.4,4.44c-3.41-7.78.9-16.39,9.58-23.1a21.9,21.9,0,0,1,27,.42c7.86,6.34,10.6,17.54,5.91,26.54S34.45,145.07,22.75,141.58Z"/><path class="cls-5" d="M122.4,6c.93.5,1.55.87.38,2-2.64,2.45-5.14,5-7.66,7.62-5.13,5.24-5.41,12.69-.69,17.57s12.39,4.88,17.8-.34c2.89-2.8,5.69-5.69,8.58-8.58,2.36,5.31.75,12.36-3.74,17.5-4.18,4.79-9.07,8.41-15.32,10a14.66,14.66,0,0,1-7.12,0c-4.52-1.32-8.81-3-12.21-6.51a22.05,22.05,0,0,1-.71-30C105.45,11,109.64,7.48,115.23,6A13.23,13.23,0,0,1,122.4,6Z"/><path class="cls-6" d="M54.13,108.29c-5.28-8.64-6.78-10.14-14.48-14.41l6-3.91c6.09-4,11.14-9.1,16.07-14.34,1.74-1.84,2.71-1.75,4.29.07a83.42,83.42,0,0,0,6.7,6.73c1.26,1.16,1.24,1.88,0,3.07C65.6,92.28,58.83,99.36,54.13,108.29Z"/><path class="cls-6" d="M93.21,40a28.71,28.71,0,0,0,14.64,14.67C99.18,59.29,92.34,65.51,86,72.26c-1.09,1.15-1.75,1.18-2.84,0-2.38-2.55-4.86-5-7.4-7.4-1.19-1.12-1.39-1.86-.08-3.09C82.41,55.42,88.64,48.6,93.21,40Z"/><path class="cls-7" d="M125.51,121.61,122.07,125c-3.26-3.3-6.38-6.48-9.53-9.63Q87.34,90.18,62.09,65c-1.3-1.29-2-2-.27-3.74s2.42-1.08,3.74.24q29.1,29.2,58.27,58.34C124.37,120.36,124.86,120.92,125.51,121.61Z"/><path class="cls-5" d="M129.26,125.22c1.22.61,2.92,1,3.83,2a51.81,51.81,0,0,1,5.44,7.63c.81,1.35-1,2-1.72,2.72s-1.23,2.38-2.44,1.49c-3.15-2.31-7.32-3.45-8.91-7.64C124.76,129.62,127.14,125.35,129.26,125.22Z"/><path class="cls-8" d="M24.19,92.48c2.78-.66,5.62-.34,8.43-.49C29.91,94,27,93,24.19,92.48Z"/><path class="cls-9" d="M114.63,51.7h7.12c-2.28,1.36-4.73.57-7.12.56,0,0-.12-.16-.12-.25A.76.76,0,0,1,114.63,51.7Z"/><path class="cls-10" d="M122.4,6h-7.17A7.48,7.48,0,0,1,122.4,6Z"/><path class="cls-11" d="M68,46.6l-6.49-.22C63.73,45.65,65.91,45.32,68,46.6Z"/><path class="cls-12" d="M47,61l.24,6.49C45.87,65.33,46.23,63.15,47,61Z"/></g></g></svg>