<svg xmlns="http://www.w3.org/2000/svg" viewBox="0 0 107.98 109.39"><defs><style>.cls-1{fill:#fefefe;}</style></defs><title>Asset 50</title><g id="Layer_2" data-name="Layer 2"><g id="Layer_1-2" data-name="Layer 1"><path class="cls-1" d="M33.44,106.38a4.22,4.22,0,0,1-4.62,3c-2.54-.16-3.8-1.36-3.82-3.94,0-5.26,0-10.52,0-15.78Q25,47.32,25,5c0-2.11.1-4.11,2.62-4.73,3-.75,4.66.15,5.88,3.1.56.75.29,1.62.29,2.43q0,49.1,0,98.19C33.76,104.78,34.06,105.65,33.44,106.38Z"/><path class="cls-1" d="M95.61,99.89c-1.54,2.43-3.38,3.29-5.85,2.51s-2.62-2.65-2.62-4.82q.06-42.93,0-85.87c0-2.05.21-3.87,2.5-4.62C92.1,6.28,94,7,95.56,9.42c.64.63.35,1.43.35,2.14q0,43.08,0,86.16C95.91,98.44,96.16,99.23,95.61,99.89Z"/><path class="cls-1" d="M58.13,54.8q0,21.54,0,43.08c0,3.67-1.27,4.86-4.81,4.61a3.27,3.27,0,0,1-3.4-3.28c0-.17,0-.33,0-.5q0-43.95,0-87.91c0-2.7,1.37-3.9,4.08-3.91S58.11,8.1,58.12,11c0,7.76,0,15.53,0,23.29Z"/><path class="cls-1" d="M37.47,54.62q0-13.63,0-27.28c0-3.26,1.07-4.47,3.93-4.52,3.08-.05,4.3,1.14,4.3,4.44q0,27.41,0,54.81c0,3.79-2.36,5.48-6,4.31-1.89-.61-2.29-2.13-2.29-4C37.5,73.14,37.47,63.88,37.47,54.62Z"/><path class="cls-1" d="M12.49,54.88q0-11.64,0-23.29c0-3.49,1.19-4.8,4.27-4.77s4.13,1.33,4.13,4.67q0,23.16,0,46.33c0,3.55-1.09,4.73-4.29,4.71-3,0-4.11-1.22-4.11-4.61Q12.48,66.4,12.49,54.88Z"/><path class="cls-1" d="M70.61,54.62q0,11.77,0,23.54c0,3.21-1.08,4.35-4,4.37-3.16,0-4.26-1.09-4.26-4.45q0-23.41,0-46.82c0-3.15,1.22-4.42,4.08-4.44,3,0,4.23,1.26,4.24,4.51Z"/><path class="cls-1" d="M99.66,54.53q0-10.65,0-21.29c0-3.16,1.17-4.4,4.06-4.42S108,30,108,33.1q0,21.66,0,43.32c0,3.09-1.22,4.15-4.35,4.11-2.87,0-3.94-1.14-3.94-4.22C99.65,69.05,99.66,61.79,99.66,54.53Z"/><path class="cls-1" d="M8.42,54.88c0,4.41,0,8.83,0,13.24,0,2.85-1.32,4.1-4.14,4.11S.05,71,0,68.19Q0,54.69,0,41.2c0-2.81,1.36-3.93,4.29-3.91s4.07,1.18,4.09,4.09C8.45,45.88,8.43,50.38,8.42,54.88Z"/><path class="cls-1" d="M83.09,54.69c0,4.42,0,8.83,0,13.25,0,3-1.3,4.3-4.22,4.29s-4.15-1.3-4.16-4.36q0-13.11,0-26.23c0-3.23,1.21-4.39,4.35-4.35,2.93,0,4,1.2,4,4.41C83.11,46,83.09,50.36,83.09,54.69Z"/></g></g></svg>