<svg xmlns="http://www.w3.org/2000/svg" viewBox="0 0 240.14 347"><defs><style>.cls-1{fill:#fff;stroke:#15304e;}.cls-1,.cls-9{stroke-miterlimit:10;}.cls-2,.cls-41{font-size:5.6px;}.cls-2,.cls-28,.cls-5{font-family:MyriadPro-Regular, Myriad Pro;}.cls-3{letter-spacing:-0.01em;}.cls-4{letter-spacing:-0.08em;}.cls-5{font-size:4.31px;}.cls-22,.cls-28,.cls-5{fill:#fabd2d;}.cls-6{font-size:6.03px;font-family:Arial-BoldMT, Arial;font-weight:700;}.cls-23,.cls-35,.cls-36,.cls-37,.cls-38,.cls-39,.cls-40,.cls-6{fill:#15304e;}.cls-7{letter-spacing:-0.02em;}.cls-8{font-size:3.88px;}.cls-16,.cls-8{font-family:ArialMT, Arial;}.cls-9{fill:none;stroke:#000;stroke-width:0.75px;}.cls-10{letter-spacing:-0.07em;}.cls-11{letter-spacing:-0.04em;}.cls-12{letter-spacing:-0.02em;}.cls-13{letter-spacing:-0.06em;}.cls-14{letter-spacing:-0.06em;}.cls-15{letter-spacing:-0.02em;}.cls-16{font-size:3.45px;}.cls-17{letter-spacing:-0.07em;}.cls-18{letter-spacing:-0.02em;}.cls-19{letter-spacing:-0.06em;}.cls-20{letter-spacing:-0.07em;}.cls-21{letter-spacing:-0.07em;}.cls-24{fill:#152f4e;}.cls-25{fill:#152f4d;}.cls-26{fill:#152e4c;}.cls-27{fill:#152e4d;}.cls-28{font-size:4.74px;}.cls-29{letter-spacing:-0.03em;}.cls-30{letter-spacing:0em;}.cls-31{letter-spacing:0em;}.cls-32{letter-spacing:-0.01em;}.cls-33{letter-spacing:0em;}.cls-34{letter-spacing:0em;}.cls-35{font-size:8.62px;}.cls-35,.cls-36,.cls-37,.cls-38,.cls-39,.cls-40{font-family:RageItalic, Rage Italic;}.cls-36{font-size:6.46px;}.cls-37{font-size:7.33px;}.cls-38{font-size:8.19px;}.cls-39{font-size:6.89px;}.cls-40{font-size:5.17px;}.cls-42{letter-spacing:-0.03em;}.cls-43{letter-spacing:-0.01em;}.cls-44{letter-spacing:0.01em;}</style></defs><title>Asset 124obtuario-filipe</title><g id="Layer_2" data-name="Layer 2"><g id="Layer_1-2" data-name="Layer 1"><rect class="cls-1" x="0.5" y="0.5" width="239.14" height="346"/><text class="cls-2" transform="translate(110.96 66.93)">Nome:</text><text class="cls-2" transform="translate(103.6 82.16)"><tspan class="cls-3">M</tspan><tspan class="cls-4" x="4.45" y="0">A</tspan><tspan x="7.44" y="0">TRÍCULA:</tspan></text><text class="cls-5" transform="translate(78.01 87.79)"><tspan xml:space="preserve">9826317283764890 0 23345 823  2374819 99</tspan></text><text class="cls-6" transform="translate(87.22 102.63)">CERTIDÃO DE ÓBI<tspan class="cls-7" x="53.96" y="0">T</tspan><tspan x="57.53" y="0">O</tspan></text><text class="cls-8" transform="translate(24.95 113.77)">SEXO</text><rect class="cls-9" x="24.63" y="115.98" width="46.1" height="8.19"/><rect class="cls-9" x="73.97" y="116.19" width="55.58" height="8.19"/><text class="cls-8" transform="translate(74.71 113.84)">NACIONALIDADE</text><rect class="cls-9" x="133.43" y="116.19" width="74.97" height="8.19"/><text class="cls-8" transform="translate(134.17 114.02)">ES<tspan class="cls-10" x="5.17" y="0">T</tspan><tspan x="7.25" y="0">ADO CIVI</tspan><tspan class="cls-11" x="24.28" y="0">L</tspan><tspan x="26.29" y="0"> </tspan></text><text class="cls-8" transform="translate(24.94 132.87)">N<tspan class="cls-10" x="2.8" y="0">A</tspan><tspan x="5.1" y="0">TURA</tspan><tspan class="cls-11" x="15.66" y="0">L</tspan><tspan x="17.67" y="0" xml:space="preserve"> DE</tspan></text><rect class="cls-9" x="24.84" y="135.15" width="49.12" height="6.89"/><text class="cls-8" transform="translate(76.65 133.22)">DOCUMEN<tspan class="cls-12" x="20.04" y="0">T</tspan><tspan x="22.34" y="0">O DE IDENTIFICAÇÃO</tspan></text><rect class="cls-9" x="76.55" y="134.72" width="80.58" height="7.33"/><text class="cls-8" transform="translate(160.67 132.34)">TITULO DE ELEI<tspan class="cls-12" x="29.74" y="0">T</tspan><tspan x="32.04" y="0">OR</tspan></text><rect class="cls-9" x="160.57" y="134.72" width="47.83" height="6.89"/><text class="cls-8" transform="translate(24.94 150.8)">FILIAÇÃO E RESIDÊNCI<tspan class="cls-13" x="43.53" y="0">A</tspan></text><rect class="cls-9" x="24.84" y="152.82" width="183.56" height="27.15"/><text class="cls-8" transform="translate(24.94 187.72)">D<tspan class="cls-10" x="2.8" y="0">AT</tspan><tspan class="cls-14" x="7.18" y="0">A</tspan><tspan x="9.55" y="0" xml:space="preserve"> E HOR</tspan><tspan class="cls-13" x="22.91" y="0">A</tspan><tspan x="25.29" y="0" xml:space="preserve"> DE </tspan><tspan class="cls-13" x="32.83" y="0">F</tspan><tspan x="34.98" y="0">ALECIMEN</tspan><tspan class="cls-15" x="54.81" y="0">T</tspan><tspan x="57.11" y="0">O</tspan></text><rect class="cls-9" x="24.84" y="189.44" width="134" height="8.19"/><text class="cls-8" transform="translate(162.29 187.67)">DI<tspan class="cls-13" x="3.88" y="0">A</tspan></text><rect class="cls-9" x="161.44" y="189.01" width="13.36" height="8.62"/><rect class="cls-9" x="176.95" y="189.01" width="12.5" height="8.62"/><rect class="cls-9" x="192.03" y="189.01" width="15.51" height="8.62"/><text class="cls-8" transform="translate(177.16 187.67)">MÊS</text><text class="cls-8" transform="translate(193.53 187.67)">ANO</text><text class="cls-8" transform="translate(24.08 204.96)">LOCA<tspan class="cls-11" x="10.56" y="0">L</tspan><tspan x="12.57" y="0" xml:space="preserve"> DE </tspan><tspan class="cls-13" x="20.12" y="0">F</tspan><tspan x="22.27" y="0">ALECIMEN</tspan><tspan class="cls-12" x="42.1" y="0">T</tspan><tspan x="44.4" y="0">O</tspan></text><rect class="cls-9" x="23.98" y="206.68" width="183.56" height="8.19"/><text class="cls-8" transform="translate(24.08 222.62)">CAUS<tspan class="cls-13" x="10.78" y="0">A</tspan><tspan x="13.15" y="0" xml:space="preserve"> DE MO</tspan><tspan class="cls-12" x="26.94" y="0">R</tspan><tspan x="29.67" y="0">TE</tspan></text><rect class="cls-9" x="23.98" y="224.34" width="183.56" height="8.19"/><text class="cls-16" transform="translate(24.08 240.41)">SEPU<tspan class="cls-17" x="9.39" y="0">LT</tspan><tspan x="12.9" y="0">AMEN</tspan><tspan class="cls-18" x="22.85" y="0">T</tspan><tspan x="24.9" y="0">O/CREMAÇÃO (MUNICÍPIO E CEMITÉRIO, SE CONHECIDO)</tspan></text><rect class="cls-9" x="23.98" y="242.44" width="122.37" height="8.19"/><text class="cls-8" transform="translate(155.07 240.72)">DECLARANTE</text><rect class="cls-9" x="154.97" y="242.44" width="52.57" height="8.19"/><text class="cls-16" transform="translate(24.08 258.08)">NOME E NÚMERO DE DOCUMEN<tspan class="cls-18" x="54.39" y="0">T</tspan><tspan x="56.43" y="0">O DO MÉDICO QUE</tspan><tspan class="cls-19" x="88.42" y="0"> </tspan><tspan class="cls-20" x="89.18" y="0">A</tspan><tspan x="91.23" y="0">TES</tspan><tspan class="cls-18" x="97.93" y="0">T</tspan><tspan x="99.97" y="0">OU O ÓBI</tspan><tspan class="cls-18" x="115.68" y="0">T</tspan><tspan x="117.72" y="0">O</tspan></text><rect class="cls-9" x="23.98" y="260.11" width="183.56" height="8.19"/><text class="cls-8" transform="translate(24.08 275.62)">OBSE<tspan class="cls-12" x="10.78" y="0">R</tspan><tspan class="cls-21" x="13.51" y="0">V</tspan><tspan x="15.81" y="0">AÇÕES/</tspan><tspan class="cls-10" x="30.46" y="0">A</tspan><tspan x="32.76" y="0">VERBAÇÕES</tspan></text><rect class="cls-9" x="23.98" y="277.34" width="183.56" height="17.67"/><text class="cls-8" transform="translate(24.08 303.2)">NOME DO OFICIAL:<tspan x="0" y="4.65">OFICIA</tspan><tspan class="cls-11" x="12.93" y="4.65">L</tspan><tspan x="14.94" y="4.65" xml:space="preserve"> REGIS</tspan><tspan class="cls-10" x="28.09" y="4.65">T</tspan><tspan x="30.17" y="4.65">ADOR:</tspan><tspan x="0" y="9.31">MUNICÍPIO:</tspan><tspan x="0" y="13.96">ENDEREÇO:</tspan></text><text class="cls-8" transform="translate(125.77 307.08)">Data e local:</text><text class="cls-16" transform="translate(143.98 319.69)">Assinatura do Oficial</text><line class="cls-9" x1="125.89" y1="315.05" x2="196.55" y2="315.05"/><path class="cls-22" d="M122.5,33.24V37.6a1.8,1.8,0,0,1-3.44.79c-1.1-2.36-2.19-4.72-3.29-7.09a1.11,1.11,0,0,0-.07-.16.09.09,0,0,0-.11-.05.11.11,0,0,0-.09.09v5.65a2.64,2.64,0,0,1-.35,1.46,2.37,2.37,0,0,1-2.06,1.18h-1.45a2.39,2.39,0,0,1-2.23-1.4c-.43-.85-.83-1.71-1.25-2.57a2.43,2.43,0,0,1,.65-2.92,2.42,2.42,0,0,0,0-3.68,2.23,2.23,0,0,0-1.38-.48c-1.07,0-2.14,0-3.22,0a.54.54,0,0,0-.56.55V36.5a3,3,0,0,1-2.73,3,3,3,0,0,1-2.38-.74,2.84,2.84,0,0,1-1-2.18c0-1.46,0-2.93,0-4.39,0-.11,0-.15.13-.15.57,0,1.13,0,1.7,0,.1,0,.12,0,.12.13v4.23a1.31,1.31,0,0,0,0,.34,1,1,0,0,0,1.24.82,1,1,0,0,0,.92-1V28.93a2.51,2.51,0,0,1,2.47-2.47c1.15,0,2.29,0,3.43,0a4.08,4.08,0,0,1,3.92,3.29,4.41,4.41,0,0,1-.89,3.81,5.78,5.78,0,0,1-.49.5.53.53,0,0,0-.14.67c.4.83.81,1.67,1.2,2.5a.58.58,0,0,0,.56.36H113a.55.55,0,0,0,.58-.61V30.31a1.79,1.79,0,0,1,1.79-1.84,1.67,1.67,0,0,1,1.64,1c1.11,2.36,2.2,4.74,3.3,7.11l.07.15a.09.09,0,0,0,.11.05s.08,0,.09-.09a.49.49,0,0,0,0-.12q0-3.93,0-7.86c0-.13,0-.16.16-.16q.8,0,1.59,0c.11,0,.13,0,.13.14Z"/><path class="cls-22" d="M98.52,28.58c.29,0,.58,0,.87,0,.08,0,.1,0,.1.11v1.73c0,.09,0,.12-.11.12H97.65c-.1,0-.11,0-.11-.12V28.69c0-.09,0-.11.11-.11C97.94,28.59,98.23,28.58,98.52,28.58Z"/><path class="cls-23" d="M137,34.1v.44a.33.33,0,0,0,.44.34l.14,0c.17-.07.17-.07.24.11l0,.12c.09.22.09.23-.13.31a1.39,1.39,0,0,1-.73.08.79.79,0,0,1-.65-.78c0-.34,0-.69,0-1,0-.11,0-.16-.15-.16s-.25,0-.25-.25,0-.28.28-.28c.11,0,.14,0,.14-.14s0-.4,0-.6,0-.15.15-.14.24,0,.35,0,.16,0,.15.15,0,.37,0,.56,0,.18.16.17h.53c.08,0,.12,0,.11.12v.27c0,.12,0,.15-.14.15h-.55c-.08,0-.11,0-.11.11v.49Z"/><path class="cls-23" d="M142,32.88a1.2,1.2,0,0,1,.78.25c.07.06.1.1,0,.18a2.35,2.35,0,0,0-.19.25c0,.06-.08.07-.14,0a.74.74,0,0,0-.51-.18.24.24,0,0,0-.25.15.21.21,0,0,0,.16.25c.2.09.41.15.6.24a.69.69,0,0,1,.32,1.07.85.85,0,0,1-.6.35,1.33,1.33,0,0,1-1.12-.29c-.15-.13-.16-.17,0-.31s.13-.19.21-.22.15.1.23.15a.78.78,0,0,0,.59.13.23.23,0,0,0,.21-.2c0-.11-.07-.17-.16-.21l-.58-.23a.71.71,0,0,1-.14-1.26A1,1,0,0,1,142,32.88Z"/><path class="cls-23" d="M134.74,35.48a1.33,1.33,0,0,1-.91-.35c-.09-.08-.1-.15,0-.24l.18-.22c.05-.06.09-.06.15,0a.85.85,0,0,0,.54.27.53.53,0,0,0,.25,0,.2.2,0,0,0,.14-.19.18.18,0,0,0-.12-.19l-.6-.24A.75.75,0,0,1,134,34a.68.68,0,0,1,.25-1,1.22,1.22,0,0,1,1.32.14c.07.06.09.11,0,.17l0,0c-.07.08-.12.2-.2.24s-.17-.09-.27-.12a.87.87,0,0,0-.35-.07c-.11,0-.21,0-.24.16a.2.2,0,0,0,.15.24c.2.08.41.15.6.24a.67.67,0,0,1,.46.68.73.73,0,0,1-.35.6A1.22,1.22,0,0,1,134.74,35.48Z"/><path class="cls-23" d="M125.62,33.21a.87.87,0,0,1,.69-.33c.25,0,.28,0,.27.28a.13.13,0,0,1,0,.06c0,.1,0,.23,0,.29s-.17,0-.26,0a.6.6,0,0,0-.62.67c0,.37,0,.73,0,1.1,0,.11,0,.15-.14.15a2.67,2.67,0,0,0-.4,0c-.08,0-.11,0-.11-.11V33.06c0-.07,0-.11.11-.1h.36c.11,0,.17,0,.15.15Z"/><path class="cls-23" d="M133.35,34.2c0,.36,0,.72,0,1.08,0,.11,0,.14-.14.14a2.67,2.67,0,0,0-.4,0c-.07,0-.11,0-.11-.11V33.09c0-.1,0-.14.15-.14h.38c.09,0,.12,0,.12.13C133.35,33.45,133.35,33.83,133.35,34.2Z"/><path class="cls-24" d="M126.06,29.37a.61.61,0,0,1,.51-.19.59.59,0,0,1,.58.57c0,.32,0,.63,0,.95,0,.13-.08.11-.16.11s-.13,0-.13-.11c0-.28,0-.55,0-.82a.4.4,0,0,0-.22-.39.39.39,0,0,0-.44.05.44.44,0,0,0-.17.35c0,.27,0,.53,0,.8s-.07.12-.16.12-.16,0-.16-.12c0-.44,0-.89,0-1.33,0-.06,0-.15.09-.15s.2,0,.21.11v0Z"/><path class="cls-25" d="M132.45,29.76c0,.15,0,.29,0,.43a.39.39,0,0,0,.78,0v-.82c0-.16,0-.17.18-.17s.11,0,.11.1a5.35,5.35,0,0,1,0,1.06.69.69,0,0,1-1.34-.16c0-.28,0-.56,0-.84a.18.18,0,0,1,.27-.15s0,.07,0,.1v.44Z"/><path class="cls-24" d="M131,29.91c0-.1,0-.2,0-.3s0-.15-.14-.14-.15,0-.15-.1,0-.18.16-.16.13,0,.13-.14,0-.19,0-.28,0-.15.15-.15.17,0,.16.15,0,.2,0,.31,0,.11.11.11h.31c.12,0,.14.06.15.16s-.07.1-.14.1h-.3c-.1,0-.14,0-.13.13v.64c0,.32.14.42.43.3.08,0,.12,0,.16.05s.06.14-.08.2a.76.76,0,0,1-.47,0,.43.43,0,0,1-.32-.41,1.5,1.5,0,0,1,0-.2c0-.11,0-.21,0-.31Z"/><path class="cls-24" d="M134,30c0-.14,0-.24,0-.34s0-.15-.13-.14-.16,0-.16-.1,0-.18.16-.16.14,0,.13-.14v-.28c0-.11,0-.15.14-.15s.18,0,.17.15,0,.2,0,.31,0,.11.11.11h.31c.13,0,.15.06.15.16s-.06.1-.14.1h-.29c-.1,0-.14,0-.14.13s0,.43,0,.64.15.42.44.3c.08,0,.11,0,.15.05s.06.14-.08.2a.76.76,0,0,1-.47,0,.45.45,0,0,1-.32-.41A4,4,0,0,1,134,30Z"/><path class="cls-24" d="M129,30V29.6c0-.1,0-.14-.13-.13s-.16,0-.15-.11,0-.17.15-.15.14,0,.13-.13v-.31c0-.11.07-.13.16-.13s.16,0,.15.13,0,.21,0,.31,0,.14.13.13h.31c.12,0,.12.08.12.15s0,.11-.12.11h-.32c-.1,0-.13,0-.12.12v.68c0,.28.15.38.42.28.06,0,.11-.07.16,0s.07.17-.08.23a.84.84,0,0,1-.47,0,.46.46,0,0,1-.32-.41A4,4,0,0,1,129,30Z"/><path class="cls-25" d="M142.42,30.84a.64.64,0,0,1-.53-.23c-.06-.08,0-.12,0-.18s.11-.11.19,0a.4.4,0,0,0,.41.15.21.21,0,0,0,.19-.17.17.17,0,0,0-.11-.21c-.12-.07-.25-.12-.37-.18a.44.44,0,0,1-.27-.55.51.51,0,0,1,.53-.31.61.61,0,0,1,.42.19c.07.08,0,.11,0,.16s-.08.11-.15,0a.39.39,0,0,0-.3-.13.22.22,0,0,0-.21.15.18.18,0,0,0,.11.21c.1.06.22.09.32.14s.28.14.33.31a.48.48,0,0,1-.43.62Z"/><path class="cls-24" d="M128,30.84a.61.61,0,0,1-.53-.24c-.08-.08,0-.12,0-.17s.1-.11.17,0a.39.39,0,0,0,.42.16.22.22,0,0,0,.19-.18.18.18,0,0,0-.11-.2l-.4-.19a.45.45,0,0,1-.26-.35c0-.34.24-.5.54-.5a.57.57,0,0,1,.42.19c.07.07,0,.11,0,.15s-.08.12-.16,0a.39.39,0,0,0-.3-.12.21.21,0,0,0-.2.14.18.18,0,0,0,.1.22l.32.14a.59.59,0,0,1,.34.3.48.48,0,0,1-.42.63Z"/><path class="cls-26" d="M131.16,37.72a.55.55,0,0,1,.52-.2.52.52,0,0,1,.48.55c0,.26,0,.52,0,.78,0,.1,0,.11-.13.11s-.13,0-.13-.11,0-.48,0-.71a.34.34,0,0,0-.31-.38.37.37,0,0,0-.42.35,1.69,1.69,0,0,0,0,.23c0,.17,0,.34,0,.5s-.06.12-.14.12-.12,0-.12-.12V37.72c0-.08,0-.17.11-.18S131.18,37.57,131.16,37.72Z"/><path class="cls-24" d="M134.15,38.21c0-.1,0-.21,0-.32s0-.13-.13-.12-.13,0-.13-.1,0-.14.13-.13.13,0,.13-.14a1.47,1.47,0,0,1,0-.21c0-.14.07-.18.2-.14s0,.05,0,.09a2.62,2.62,0,0,1,0,.28c0,.09,0,.12.12.12h.26c.09,0,.12.05.12.13s0,.1-.12.1h-.24c-.1,0-.14,0-.14.13s0,.38,0,.58.14.34.37.24.14,0,.17.08,0,.13-.09.15c-.39.12-.7,0-.71-.46Z"/><path class="cls-25" d="M137,37.71a.49.49,0,0,1,.48-.19c.06,0,.1,0,.09.1s0,.14-.1.15c-.36,0-.45.13-.46.51a5.23,5.23,0,0,0,0,.56c0,.11-.06.12-.14.12s-.12,0-.12-.12V37.7c0-.07,0-.15.1-.16S137,37.56,137,37.71Z"/><path class="cls-27" d="M130.48,30v.67c0,.12-.06.12-.15.12s-.16,0-.16-.12c0-.44,0-.87,0-1.31,0-.16.1-.22.25-.17s0,.08,0,.12Z"/><path class="cls-27" d="M125.31,30c0,.23,0,.46,0,.69s-.08.11-.16.11-.15,0-.15-.12c0-.43,0-.87,0-1.31a.17.17,0,0,1,.26-.16s0,.07,0,.11Z"/><path class="cls-23" d="M133.43,32.29a.39.39,0,0,1-.78,0,.39.39,0,0,1,.78,0Z"/><path class="cls-26" d="M138,38.26c0,.19,0,.39,0,.58s-.06.12-.15.12-.13,0-.13-.12V37.66c0-.1,0-.12.13-.12s.15,0,.15.12S138,38.06,138,38.26Z"/><path class="cls-25" d="M125.36,28.8a.19.19,0,0,1-.21.2.21.21,0,0,1-.2-.22.2.2,0,0,1,.22-.19A.19.19,0,0,1,125.36,28.8Z"/><path class="cls-25" d="M130.33,28.59a.18.18,0,0,1,.2.2.2.2,0,0,1-.19.21.21.21,0,0,1-.22-.21A.2.2,0,0,1,130.33,28.59Z"/><path class="cls-27" d="M138,37.18a.15.15,0,0,1-.17.17.19.19,0,0,1-.19-.17.2.2,0,0,1,.19-.19A.17.17,0,0,1,138,37.18Z"/><path class="cls-23" d="M132.14,33.05c0-.07,0-.1-.1-.09h-.34c-.11,0-.18,0-.16.15s0,.06,0,.06-.05,0-.07,0a1,1,0,0,0-.28-.17,1.25,1.25,0,0,0-1.38.39,1.31,1.31,0,0,0,.3,1.88,1.17,1.17,0,0,0,1.41-.08.13.13,0,0,1,0,.06.68.68,0,0,1-.67.7,1.46,1.46,0,0,1-.84-.23c-.1-.06-.14,0-.19.06a.9.9,0,0,1-.12.24c-.07.1,0,.15.06.2a2,2,0,0,0,1.15.27,1.22,1.22,0,0,0,1.23-1.16C132.16,34.55,132.13,33.8,132.14,33.05Zm-1.29,1.8a.66.66,0,0,1-.68-.69.68.68,0,0,1,.69-.68.69.69,0,0,1,0,1.37Z"/><path class="cls-23" d="M129.05,33.42a1.31,1.31,0,0,0-1.76-.34,1.24,1.24,0,0,0-.57,1.27,1.14,1.14,0,0,0,.85,1,1.8,1.8,0,0,0,1.43-.18c.11-.06.13-.12.06-.23a1.59,1.59,0,0,1-.13-.22c0-.07-.07-.08-.15,0a1.31,1.31,0,0,1-.8.19.64.64,0,0,1-.57-.38c0-.09,0-.14.08-.13h1.61c.05,0,.1,0,.12-.07A1.35,1.35,0,0,0,129.05,33.42Zm-.57.51h-1c-.13,0-.15,0-.09-.16a.63.63,0,0,1,.62-.35.58.58,0,0,1,.52.36C128.61,33.88,128.58,33.93,128.48,33.93Z"/><path class="cls-23" d="M139.36,32.88A1.29,1.29,0,0,0,138,34.14a1.28,1.28,0,0,0,1.32,1.34,1.26,1.26,0,0,0,1.32-1.28A1.27,1.27,0,0,0,139.36,32.88Zm0,2a.68.68,0,0,1-.67-.71.68.68,0,1,1,1.35,0A.67.67,0,0,1,139.35,34.88Z"/><path class="cls-24" d="M139.64,30.09v-1.4s0-.09,0-.12a.16.16,0,0,0-.25.15v.69a.79.79,0,0,0-1.12,0,.9.9,0,0,0-.08,1.1.71.71,0,0,0,.44.32.74.74,0,0,0,.75-.22.23.23,0,0,1,0,.07c0,.14.07.13.17.13s.12,0,.12-.14Zm-.82.49a.53.53,0,0,1-.53-.57.54.54,0,1,1,1.08,0A.53.53,0,0,1,138.82,30.58Z"/><path class="cls-24" d="M135.93,29.18a.84.84,0,1,0,.81.84A.79.79,0,0,0,135.93,29.18Zm0,1.4a.55.55,0,0,1-.55-.57.55.55,0,1,1,1.09,0A.55.55,0,0,1,135.92,30.58Z"/><path class="cls-24" d="M140.83,29.18a.84.84,0,1,0,0,1.67.84.84,0,1,0,0-1.67Zm0,1.4a.55.55,0,0,1-.55-.57.59.59,0,0,1,.54-.57.57.57,0,0,1,.55.57A.55.55,0,0,1,140.83,30.58Z"/><path class="cls-24" d="M128.44,37.07c0-.07,0-.1-.09-.1s-.17,0-.17.15v.58c-.45-.26-.79-.23-1,.09a.81.81,0,0,0,0,1,.73.73,0,0,0,1,0c0,.16.07.15.17.15s.09,0,.09-.11Zm-.71,1.68a.48.48,0,0,1-.48-.51.47.47,0,0,1,.49-.48.48.48,0,0,1,.47.51A.47.47,0,0,1,127.73,38.75Z"/><path class="cls-24" d="M141.2,37c-.15,0-.16,0-.17.15v.58c-.45-.26-.79-.23-1,.09a.8.8,0,0,0,0,1,.73.73,0,0,0,1,0c0,.16.07.15.17.15s.09,0,.09-.11V37.07C141.29,37,141.27,37,141.2,37Zm-.62,1.78a.5.5,0,1,1,.48-.48A.48.48,0,0,1,140.58,38.75Z"/><path class="cls-25" d="M125.49,37.52a.73.73,0,0,0-.55,1,.84.84,0,0,0,1.28.32c.06-.07,0-.1,0-.15s0-.09-.11,0a.77.77,0,0,1-.3.11.48.48,0,0,1-.58-.26c0-.08,0-.12.07-.12h.91s.09,0,.1-.08A.67.67,0,0,0,125.49,37.52Zm.43.61h-.66c-.06,0-.08,0-.06-.09a.46.46,0,0,1,.41-.3A.4.4,0,0,1,126,38C126,38.1,126,38.14,125.92,38.13Z"/><path class="cls-24" d="M136.45,38.81c0-.38,0-.75,0-1.13,0-.14,0-.16-.18-.14s-.08.09-.09.16a.75.75,0,0,0-1,0,.81.81,0,0,0-.08,1,.63.63,0,0,0,.35.29.74.74,0,0,0,.73-.17c0,.2.07.16.16.17S136.45,38.87,136.45,38.81Zm-.72-.06a.5.5,0,0,1,0-1,.47.47,0,0,1,.47.51A.46.46,0,0,1,135.73,38.75Z"/><path class="cls-24" d="M139.61,38.81V37.68c0-.14,0-.16-.18-.13s-.06.1-.09.14a.75.75,0,0,0-1,0,.81.81,0,0,0,0,1c.23.28.57.3,1,.05,0,.16.08.15.17.15S139.61,38.87,139.61,38.81Zm-.72-.06a.5.5,0,1,1,.49-.49A.47.47,0,0,1,138.89,38.75Z"/><path class="cls-24" d="M129.38,37.51a.73.73,0,0,0-.73.75.71.71,0,0,0,.74.73.7.7,0,0,0,.73-.74A.71.71,0,0,0,129.38,37.51Zm0,1.24a.49.49,0,0,1-.48-.5.46.46,0,0,1,.48-.49.46.46,0,0,1,.47.5A.47.47,0,0,1,129.39,38.75Z"/><path class="cls-24" d="M133.1,37.51a.73.73,0,0,0-.73.76.71.71,0,0,0,.75.72.7.7,0,0,0,.73-.76A.72.72,0,0,0,133.1,37.51Zm0,1.24a.5.5,0,0,1-.49-.5.48.48,0,0,1,.48-.49.46.46,0,0,1,.48.48A.47.47,0,0,1,133.12,38.75Z"/><path class="cls-24" d="M142.23,37.51a.73.73,0,0,0-.73.76.71.71,0,0,0,.75.72.69.69,0,0,0,.72-.76A.71.71,0,0,0,142.23,37.51Zm0,1.24a.5.5,0,0,1-.48-.5.48.48,0,0,1,.49-.49.47.47,0,0,1,.47.51A.47.47,0,0,1,142.24,38.75Z"/><text class="cls-28" transform="translate(94.28 72.58)"><tspan class="cls-29">F</tspan><tspan x="2.19" y="0">ilipe dos </tspan><tspan class="cls-30" x="19.76" y="0">S</tspan><tspan x="22.11" y="0">a</tspan><tspan class="cls-31" x="24.39" y="0">n</tspan><tspan class="cls-32" x="27" y="0">t</tspan><tspan x="28.54" y="0">os </tspan><tspan class="cls-33" x="34.03" y="0">A</tspan><tspan x="36.91" y="0">ma</tspan><tspan class="cls-34" x="43.15" y="0">r</tspan><tspan x="44.68" y="0">al</tspan></text><text class="cls-35" transform="translate(27.32 122.78)">Masculino</text><text class="cls-35" transform="translate(76.44 122.78)">Portuguesa</text><text class="cls-35" transform="translate(135.9 123.22)">Solteiro </text><text class="cls-36" transform="translate(27.32 141.23)">Aveiro</text><text class="cls-36" transform="translate(80.18 140.8)">15278349</text><text class="cls-36" transform="translate(165.53 140.8)">2653</text><text class="cls-37" transform="translate(27.32 161.6)">Manuela gertrudes dos Santos<tspan x="0" y="6.89">José Martim Amaral</tspan><tspan x="0" y="13.79">Rua das Pombas, lote 30, 3750-098</tspan></text><text class="cls-37" transform="translate(27.32 195.64)">17:13h</text><text class="cls-38" transform="translate(162.18 196.19)"><tspan xml:space="preserve"> 13    12    2019</tspan></text><text class="cls-39" transform="translate(27.32 213.03)">Rua José Estèvão, lote 3, 3800-201</text><text class="cls-39" transform="translate(26.02 230.7)">Dois ferimentos de bala no peito, um perto da clavícula e outro no fígado</text><text class="cls-39" transform="translate(26.02 248.79)">Cemitério de Esgueira, em Esgueira.</text><text class="cls-37" transform="translate(157.88 249.07)">Dr. José Ricardo</text><text class="cls-39" transform="translate(26.02 266.89)">Dr. José Manuel Ricardo Fernandes, 18273601</text><text class="cls-39" transform="translate(25.59 289.29)">O corpo encontra-se na custódia da policia judiciária de Aveiro.</text><text class="cls-40" transform="translate(46.6 303.7)"><tspan xml:space="preserve">            Manuel Rodrigues</tspan><tspan x="0" y="4.74" xml:space="preserve">                 Luís Pereira</tspan><tspan x="0" y="9.48" xml:space="preserve"> Esgueira, Aveiro</tspan><tspan x="0" y="14.22" xml:space="preserve">  Rua da Ribeira, 10, 3810-064</tspan><tspan class="cls-41" x="58.82" y="14.22"> </tspan></text><text class="cls-40" transform="translate(135.37 307.58)"><tspan xml:space="preserve">          14/12/2019, Esgueira</tspan><tspan x="0" y="6.46">Manuel Conceição Rodrigues</tspan></text></g><g id="Layer_3" data-name="Layer 3"><text class="cls-2" transform="translate(72.75 57.04)">REGIS<tspan class="cls-42" x="13.49" y="0">T</tspan><tspan x="16.12" y="0">O CIVIL </tspan><tspan class="cls-43" x="34.05" y="0">D</tspan><tspan x="37.7" y="0">AS PESS</tspan><tspan class="cls-43" x="56.34" y="0">O</tspan><tspan x="60.12" y="0">AS N</tspan><tspan class="cls-4" x="71.18" y="0">A</tspan><tspan x="74.18" y="0">TU</tspan><tspan class="cls-44" x="80.59" y="0">R</tspan><tspan x="83.63" y="0">AIS</tspan></text></g></g></svg>