<svg xmlns="http://www.w3.org/2000/svg" xmlns:xlink="http://www.w3.org/1999/xlink" viewBox="0 0 318 211.95"><defs><style>.cls-1{fill:none;}.cls-2{clip-path:url(#clip-path);}.cls-3{opacity:0.22;}.cls-4{font-size:11px;fill:#f7ffff;font-family:MonotypeCorsiva, Monotype Corsiva;}.cls-5{opacity:0.31;}.cls-6{fill:#f7a226;}.cls-7{fill:#fff;}</style><clipPath id="clip-path"><rect class="cls-1" x="20" y="7" width="285" height="197" rx="15.64" ry="15.64"/></clipPath></defs><title>Asset 126cao-cartao-bonito</title><g id="Layer_2" data-name="Layer 2"><g id="Layer_3" data-name="Layer 3"><g class="cls-2"><image width="2048" height="1365" transform="scale(0.16)" xlink:href="../../../18676379_900431363431164_1440543768_o.jpg"/></g><path class="cls-3" d="M288.33,7H36.67A16.68,16.68,0,0,0,20,23.67V187.33A16.68,16.68,0,0,0,36.67,204H288.33A16.68,16.68,0,0,0,305,187.33V23.67A16.68,16.68,0,0,0,288.33,7ZM203,192a91,91,0,1,1,91-91A91,91,0,0,1,203,192Z"/><text class="cls-4" transform="translate(32 68.57)">Descansa em paz, Patusco<tspan x="0" y="24">que nos encontremos de novo </tspan><tspan x="0" y="36">e possamos jogar ao busca </tspan><tspan x="0" y="48">uma vez mais.</tspan></text><g class="cls-5"><path class="cls-6" d="M202.75,10a90.75,90.75,0,0,0-63.87,155.22l9.62-20.72-3-5,18-19s5-8,0-14l-6-4,2-4-3-3,2-2-4-4,2-4-4-3,4-3-6,1,2-7-1-4h-3l3-4-3-2,1-2-7-5s1-5-1-7c0,0-3,0-7-4,0,0,14-2,31-14,0,0,17-4,28,7l3-1,3-4,4,5s13-2,23,1c0,0,42-4,23,23,0,0,7-1,15,4,0,0,8,6,3,9,0,0-2,25-16,17a22.28,22.28,0,0,0-2,9s11,11,14,17c0,0,8,4,9,6,0,0,9,6-4,4,0,0-7-1-11-6a27.67,27.67,0,0,1-7-4s0,7-1,9l2,3-2,2,2,3-2,6,2,6-2,5,3,5,2,7-3,7,.09,5.75A90.76,90.76,0,0,0,202.75,10Z"/></g><path class="cls-7" d="M51,144.48a8.8,8.8,0,0,1-1.22,4,2.57,2.57,0,0,1-4.74-1,6,6,0,0,1,1.29-4.62,2.69,2.69,0,0,1,3.29-1.09C50.86,142.2,50.87,143.42,51,144.48Z"/><path class="cls-7" d="M85,139a7.46,7.46,0,0,1-1.33,3.91,2.42,2.42,0,0,1-2.58,1,2.5,2.5,0,0,1-2-2.15,5.92,5.92,0,0,1,1.76-5.18A2.41,2.41,0,0,1,83.7,136C84.86,136.53,84.92,137.7,85,139Z"/><path class="cls-7" d="M92.87,141.22a7.16,7.16,0,0,1-.66,2.85c-.6,1.41-1.62,2.3-3.23,1.89s-2.19-1.79-2-3.36a5.75,5.75,0,0,1,1.13-2.89c.72-1,1.56-1.84,2.94-1.39A2.68,2.68,0,0,1,92.87,141.22Z"/><path class="cls-7" d="M58.83,147.45a8,8,0,0,1-.82,2.76,2.57,2.57,0,0,1-2.87,1.55A2.54,2.54,0,0,1,53,149.33a5.47,5.47,0,0,1,1.86-4.74,2.11,2.11,0,0,1,2.55-.35C58.56,144.84,58.91,145.94,58.83,147.45Z"/><path class="cls-7" d="M75.8,143.5a12,12,0,0,1-.87,3.51,2.42,2.42,0,0,1-2.8,1.29,2.26,2.26,0,0,1-2-2.32,5.6,5.6,0,0,1,1.5-4.33c.81-.84,1.77-1.49,3-1S75.78,142.32,75.8,143.5Z"/><path class="cls-7" d="M41.78,149.32a24.16,24.16,0,0,1-.75,3.14A2.36,2.36,0,0,1,38,154a2.27,2.27,0,0,1-2-2.52,5.65,5.65,0,0,1,1.71-4.25,2.5,2.5,0,0,1,2.84-.76C41.69,147,41.69,148,41.78,149.32Z"/><path class="cls-7" d="M98,149.5a6.07,6.07,0,0,1-.78,3.36c-.88,1.4-2.11,1.57-3.58,1s-1.44-1.69-1-2.92c.29-.94.56-1.89.93-2.79.44-1.07,1.07-2,2.45-1.83s1.72,1.26,1.94,2.4A6.68,6.68,0,0,1,98,149.5Z"/><path class="cls-7" d="M64,155.28c0,3.66-2,5.48-4.34,4.27-2.66-1.36-.72-3.28-.34-4.92.32-1.43,1-3,2.84-2.52S63.75,154.24,64,155.28Z"/><path class="cls-7" d="M56.06,163.24c-2.1-1-2.49-2.51-1.44-4.61s-.08-4.56-2.27-4.58a19.48,19.48,0,0,1-5.92-1.19c-2-.65-3.13.14-3.41,2.26a2.3,2.3,0,0,1-2.13,2.19,20.22,20.22,0,0,0-2.34.3c-1.17.31-2.24.82-2.27,2.31a7,7,0,0,0,2.48,4.56,2.93,2.93,0,0,0,3.61.29c1-.46,1.67.19,2.21.86a3.08,3.08,0,0,0,3.82,1.12,2.88,2.88,0,0,1,2.47.26c2.82,1.52,3.41,1.38,5.64-1.07C57.54,164.81,57.64,164,56.06,163.24Zm-5.47-2.36a38.83,38.83,0,0,1-4,2.12.65.65,0,0,1-.54-.06c-.72-.46-1.64-4.64-1.21-5.39a1.58,1.58,0,0,1,1.63-.84c.07,0,.43,0,.53.22a2.06,2.06,0,0,0,2.74.88c.6-.18,1.11.24,1.32.91A1.8,1.8,0,0,1,50.59,160.88Z"/><path class="cls-7" d="M89.93,157.43A3,3,0,0,1,88.54,153c.26-.52.45-1.07.56-1.35,0-1.91-1.17-3.44-2.71-3.39A17,17,0,0,1,80.27,147c-1.48-.51-3,.05-3.08,1.5-.17,2.67-1.74,3-3.8,3.18-2.52.26-3.43,1.42-3,3.38.64,2.76,3.25,4.93,5.2,4.16a2.35,2.35,0,0,1,3.11.72,3,3,0,0,0,3.67,1,2.43,2.43,0,0,1,2.44.26c2.62,2,3.51,1,5.52-.91C91.78,159,91.66,158.38,89.93,157.43ZM85,154.53c-1.09,1.07-2.69,1.31-4,2.11a.66.66,0,0,1-.55,0c-.75-.4-1.7-4.78-1.21-5.52a1.73,1.73,0,0,1,1.64-.76c.92,1.12,2.5,1,4,1.39C86,152,86,153.61,85,154.53Z"/></g></g></svg>