<svg xmlns="http://www.w3.org/2000/svg" xmlns:xlink="http://www.w3.org/1999/xlink" viewBox="0 0 651.26 397.52"><defs><style>.cls-1{fill:#d3c27a;}.cls-2{fill:#ceb02d;}.cls-3{font-size:14.48px;}.cls-3,.cls-6{font-family:CenturyGothic-Bold, Century Gothic;}.cls-4,.cls-7{font-weight:700;}.cls-5,.cls-8,.cls-9{font-family:CenturyGothic, Century Gothic;}.cls-6{font-size:12.07px;}.cls-7{letter-spacing:0.37em;}.cls-8{letter-spacing:0.37em;}.cls-9{letter-spacing:0.37em;}.cls-10{font-size:32.35px;font-family:BerlinSansFB-Reg, Berlin Sans FB;}</style></defs><title>Asset 111CI-Filipe-Antes</title><g id="Layer_2" data-name="Layer 2"><g id="Layer_1-2" data-name="Layer 1"><image width="682" height="1023" transform="translate(21 96.11) scale(0.27)" xlink:href="../../caras/depositphotos_84612964-stock-photo-portrait-of-handsome-30-year.jpg"/><path class="cls-1" d="M1.08,79.35V364.62a33,33,0,0,0,33,32.9H618.3a33,33,0,0,0,33-32.9V79.35ZM204.61,348.84H25.85v-228H204.61Z"/><path d="M602.5,179.29c-6.76,0-13.52-.07-20.29,0-1.91,0-2.47-.58-2.36-2.44.15-2.48.09-5,0-7.47,0-1.3.28-1.92,1.77-1.92q21,.08,41.92,0c1.43,0,1.83.55,1.79,1.89-.06,2.58-.12,5.16,0,7.74.11,1.85-.67,2.2-2.32,2.19C616.21,179.24,609.36,179.29,602.5,179.29Z"/><path d="M602.8,328.45c-6.86,0-13.71-.06-20.56,0-1.89,0-2.49-.58-2.39-2.43.14-2.49.08-5,0-7.48,0-1.36.49-1.9,1.87-1.9q21,0,41.94,0c1.32,0,1.68.6,1.66,1.8-.05,2.58-.11,5.17,0,7.74.09,1.76-.51,2.3-2.26,2.27C616.33,328.4,609.57,328.45,602.8,328.45Z"/><path d="M602.64,364.71c-6.77,0-13.53,0-20.29,0-1.74,0-2.5-.29-2.51-2.28,0-6.84-.11-6.84,6.73-6.84,12,0,24,.07,36-.05,2.26,0,2.82.65,2.78,2.83-.11,6.3,0,6.3-6.2,6.31Z"/><path d="M602.8,201.19c-6.86,0-13.72-.07-20.57,0-1.89,0-2.39-.55-2.39-2.4,0-6.65-.05-6.65,6.68-6.65,12.11,0,24.22,0,36.33,0,2,0,2.55.58,2.54,2.56,0,6.49,0,6.49-6.56,6.49Z"/><path d="M610.28,250.47c-9.22,0-18.43,0-27.65,0-2,0-2.83-.33-2.8-2.59.08-6.25,0-6.25,6.29-6.25,12.08,0,24.15.06,36.23,0,2.22,0,3.11.39,3,2.88-.15,6,0,6-6,6Z"/><path d="M602.4,298.35c-6.76,0-13.53-.05-20.29,0-1.77,0-2.25-.55-2.27-2.28,0-5.68-.1-5.68,5.48-5.68,12.46,0,24.92.05,37.38-.05,2.1,0,2.73.55,2.69,2.66-.1,5.3,0,5.3-5.37,5.31Z"/><path d="M602.52,131.61c-6.67,0-13.33-.06-20,0-1.86,0-2.7-.35-2.69-2.47,0-5.47-.05-5.47,5.43-5.47,12.53,0,25.07,0,37.6,0,2,0,2.56.54,2.53,2.54-.09,5.41,0,5.42-5.53,5.42H602.52Z"/><path d="M602.46,267c-6.67,0-13.34-.09-20,.06-2,.05-2.48-.63-2.59-2.44-.34-5.28-.41-5.29,4.27-5.3,12.49,0,25,0,37.48,0,4,0,3.68-.64,3.72,3.69a12.18,12.18,0,0,0,0,1.6c.24,1.84-.45,2.45-2.36,2.42-6.84-.11-13.69-.05-20.53-.05Z"/><path d="M602.53,304.94c6.85,0,13.7,0,20.56,0,1.44,0,2.29.17,2.31,2s-.8,2.17-2.41,2.16q-20.29-.06-40.58,0c-1.71,0-2.6-.29-2.59-2.31,0-2.25,1.43-1.82,2.69-1.82,6.67,0,13.35,0,20,0Z"/><path d="M602.56,278.07h-20.3c-1.27,0-2.48.2-2.43-1.81,0-1.67.46-2.36,2.27-2.36q20.56.09,41.14,0c1.64,0,2.13.53,2.15,2.14s-.74,2.05-2.26,2C616.28,278,609.42,278.07,602.56,278.07Z"/><path d="M602.54,288.26c-6.84,0-13.68,0-20.52,0-1.32,0-2.19-.07-2.18-1.79s.58-2.12,2.17-2.11q20.54.06,41.06,0c1.43,0,2.31.16,2.32,2s-.91,1.94-2.32,1.93C616.23,288.25,609.39,288.27,602.54,288.26Z"/><path d="M602.5,159.64H582.25c-1.3,0-2.39.11-2.42-1.84s1-2,2.5-2q20.25,0,40.5,0c1.38,0,2.59-.15,2.56,2s-1.29,1.91-2.63,1.9Z"/><path d="M602.8,142.42c-6.92,0-13.84,0-20.77,0-1.55,0-2.21-.35-2.19-2.07s.89-1.8,2.18-1.8q20.65,0,41.29,0c1.44,0,2.07.34,2.08,1.91s-.57,2-2,1.95C616.51,142.39,609.66,142.42,602.8,142.42Z"/><path d="M602.25,340.06c-6.73,0-13.46,0-20.19,0-1.52,0-2.28-.3-2.24-2s1-1.44,2.29-1.48c13.58-.39,27.17,0,40.76-.15,1.21,0,2.5-.34,2.51,1.72,0,1.86-.93,1.94-2.33,1.93C616.12,340.05,609.18,340.07,602.25,340.06Z"/><path d="M610.72,152.63q-14.22,0-28.44,0c-1.49,0-2.5-.06-2.46-2.07s1.12-1.83,2.42-1.83c13.66,0,27.31,0,41,0,1.6,0,2.18.42,2.17,2.08s-.79,1.87-2.14,1.85C619.07,152.6,614.89,152.63,610.72,152.63Z"/><path d="M602.54,233.77c-6.86,0-13.72,0-20.58,0-1.34,0-2.15-.14-2.13-1.83s.72-1.88,2.11-1.88c13.27,0,26.53,0,39.79,0a13.54,13.54,0,0,1,2.35.38c1.45.26,1.09,1.42,1.09,2.33,0,1.13-.87.87-1.55.87H602.54Z"/><path d="M602.83,213.41c6.76,0,13.52,0,20.28,0,1.2,0,2.27-.12,2.27,1.69s-1.14,1.67-2.31,1.71c-13.5.5-27,.18-40.51.24-.95,0-2.31.54-2.62-1s-.08-2.67,2.08-2.64C589,213.48,595.89,213.41,602.83,213.41Z"/><path d="M602.81,184.71c-6.76,0-13.52,0-20.27,0-1.08,0-2.63.65-2.68-1.52s1.37-1.65,2.54-1.66q20.26,0,40.54,0c.94,0,2.22-.5,2.4,1.25s-.84,2-2.26,2C616.32,184.69,609.56,184.71,602.81,184.71Z"/><path d="M602.52,366.26h20.55c1.17,0,2.33-.23,2.3,1.64s-1.28,1.58-2.39,1.58H582.15c-1.17,0-2.33.2-2.3-1.66s1.29-1.56,2.39-1.56c6.76,0,13.52,0,20.28,0Z"/><path d="M602.66,344.35h20.53c1.06,0,2.13-.2,2.17,1.51s-.71,1.92-2.1,1.89c-10-.2-20,.13-30.08-.16-3.6-.11-7.25,0-10.88.14-1.25,0-2.49.22-2.45-1.79s1.26-1.57,2.36-1.57c6.82,0,13.64,0,20.45,0Z"/><path d="M602.7,252.08H623c1.12,0,2.38-.31,2.38,1.59s-1.3,1.56-2.38,1.55c-10.67-.15-21.34.22-32-.18-3.09-.12-6.2.09-9.3.19-1.16,0-1.8-.24-1.82-1.61s.7-1.57,1.83-1.57C588.69,252.09,595.69,252.07,602.7,252.08Z"/><path d="M602.64,330.9c6.68,0,13.35,0,20,0,1.08,0,2.66-.65,2.7,1.5,0,2.31-1.64,1.66-2.82,1.66q-19.35,0-38.7,0c-.8,0-1.6-.07-2.39-.11-1-.06-1.62-.43-1.59-1.63s.67-1.47,1.7-1.46c2.67,0,5.34,0,8,0Z"/><path d="M617.72,225.7q-18,.06-35.94.12c-1.29,0-1.94-.27-1.93-1.76s.91-1.63,2.08-1.63c11.45,0,22.9,0,34.35,0,.85,0,1.74-.55,2.57.08A3.71,3.71,0,0,1,617.72,225.7Z"/><path d="M617.72,225.7a4.17,4.17,0,0,1,1.13-3.17c1.59-.14,3.17.12,4.76-.35s2,.43,2.13,1.88-.55,1.81-1.89,1.73C621.81,225.68,619.76,225.72,617.72,225.7Z"/><path class="cls-2" d="M651.26,96V33a33.11,33.11,0,0,0-33-33H33A33.1,33.1,0,0,0,0,33V96Z"/><text class="cls-3" transform="translate(228.83 133.46)"><tspan class="cls-4">Nome: </tspan><tspan class="cls-5" x="50.97" y="0" xml:space="preserve">Filipe dos Santos   </tspan><tspan class="cls-4" x="177.02" y="0" xml:space="preserve">      Apelido: </tspan><tspan class="cls-5" x="264.75" y="0">Amaral </tspan></text><text class="cls-6" transform="translate(273.13 183.34)"><tspan class="cls-4">Nacionalidade: </tspan><tspan class="cls-5" x="94.62" y="0">Portuguesa</tspan></text><text class="cls-6" transform="translate(356 228.23)"><tspan class="cls-4">Data de nascimento: </tspan><tspan class="cls-5" x="126" y="0">01/10/1983</tspan></text><text class="cls-6" transform="translate(452.84 182.93)"><tspan class="cls-4">Sexo:</tspan><tspan class="cls-5" x="31.86" y="0" xml:space="preserve"> Masculino</tspan></text><text class="cls-6" transform="translate(274.54 227.34)"><tspan class="cls-4">Altura: </tspan><tspan class="cls-5" x="41.26" y="0">1,76m</tspan></text><text class="cls-6" transform="translate(275.26 269.37)"><tspan class="cls-4">Morada:</tspan><tspan class="cls-7" x="49.73" y="0"> </tspan><tspan class="cls-5" x="57.56" y="0">Rua</tspan><tspan class="cls-8" x="80.47" y="0"> </tspan><tspan class="cls-5" x="88.23" y="0">dos</tspan><tspan class="cls-9" x="109.08" y="0"> </tspan><tspan class="cls-5" x="116.84" y="0">cravos,</tspan><tspan class="cls-8" x="159.14" y="0"> </tspan><tspan class="cls-5" x="166.89" y="0">lote</tspan><tspan class="cls-9" x="189.15" y="0"> </tspan><tspan class="cls-5" x="196.9" y="0">19,</tspan><tspan class="cls-8" x="213.62" y="0"> </tspan><tspan class="cls-5" x="221.38" y="0">3165-094</tspan></text><text class="cls-6" transform="translate(238.73 369.69)"><tspan class="cls-4">Emprego:</tspan><tspan class="cls-5" x="56.25" y="0" xml:space="preserve"> Revisor de reportagens no diário de Aveiro</tspan></text><text class="cls-6" transform="translate(457.91 311.51)"><tspan class="cls-4">Idade: </tspan><tspan class="cls-5" x="41.76" y="0">28 anos</tspan></text><text class="cls-6" transform="translate(27.04 371.86)"><tspan class="cls-4">Estudo: </tspan><tspan class="cls-5" x="44.89" y="0">Universidade de Aveiro</tspan></text><text class="cls-6" transform="translate(274.45 311.61)"><tspan class="cls-4" xml:space="preserve">Estado civil:  </tspan><tspan class="cls-5" x="75.54" y="0">Solteiro</tspan></text><text class="cls-10" transform="translate(148.66 60.9)">CARTÃO DE IDENTIDADE</text></g></g></svg>