<svg xmlns="http://www.w3.org/2000/svg" viewBox="0 0 235 241"><defs><style>.cls-1{fill:#391014;}.cls-2{font-size:6px;fill:#fff;font-family:NeueMontreal-Medium, Neue Montreal;}.cls-3{letter-spacing:0.01em;}.cls-4{letter-spacing:0em;}.cls-5{letter-spacing:-0.02em;}.cls-6{letter-spacing:-0.02em;}.cls-7{letter-spacing:0.01em;}.cls-8{letter-spacing:-0.02em;}.cls-9{letter-spacing:-0.04em;}.cls-10{letter-spacing:0em;}.cls-11{letter-spacing:-0.01em;}.cls-12{letter-spacing:-0.01em;}.cls-13{letter-spacing:0em;}.cls-14{letter-spacing:-0.01em;}.cls-15{letter-spacing:-0.05em;}.cls-16{letter-spacing:-0.01em;}.cls-17{letter-spacing:-0.01em;}.cls-18{letter-spacing:-0.02em;}.cls-19{letter-spacing:0.01em;}.cls-20{letter-spacing:-0.01em;}.cls-21{letter-spacing:0em;}.cls-22{letter-spacing:-0.02em;}.cls-23{letter-spacing:0em;}.cls-24{letter-spacing:-0.01em;}.cls-25{letter-spacing:0em;}.cls-26{letter-spacing:-0.05em;}.cls-27{letter-spacing:-0.01em;}.cls-28{letter-spacing:-0.02em;}.cls-29{letter-spacing:-0.08em;}.cls-30{letter-spacing:-0.04em;}.cls-31{letter-spacing:-0.03em;}.cls-32{letter-spacing:-0.01em;}.cls-33{letter-spacing:-0.01em;}.cls-34{letter-spacing:-0.06em;}.cls-35{letter-spacing:-0.03em;}.cls-36{letter-spacing:0.01em;}.cls-37{letter-spacing:0.01em;}.cls-38{letter-spacing:-0.02em;}.cls-39{letter-spacing:0.01em;}.cls-40{letter-spacing:-0.01em;}.cls-41{letter-spacing:0em;}.cls-42{fill:#37191b;}.cls-43{fill:#1a0909;}.cls-44{fill:#3a1115;}.cls-45{fill:#fbf9f7;}.cls-46{fill:#3d181d;}.cls-47{fill:#4c282b;}.cls-48{fill:#2d0609;}.cls-49{fill:#461d22;}.cls-50{fill:#230a0d;}.cls-51{fill:#fbf8f6;}.cls-52{fill:#391c1e;}.cls-53{fill:#5f373b;}.cls-54{fill:#372223;}.cls-55{fill:#f6f2f1;}.cls-56{fill:#1c0b0d;}.cls-57{fill:#f4eeed;}.cls-58{fill:#291314;}.cls-59{fill:#5a2f33;}.cls-60{fill:#412427;}.cls-61{fill:#3d2728;}.cls-62{fill:#3c2325;}.cls-63{fill:#41191c;}.cls-64{fill:#2a1b1d;}.cls-65{fill:#2c1d1c;}.cls-66{fill:#170607;}.cls-67{fill:#fcf9f7;}.cls-68{fill:#61393c;}.cls-69{fill:#614242;}.cls-70{fill:#3c2023;}.cls-71{fill:#4a2c2f;}.cls-72{fill:#533035;}.cls-73{fill:#201111;}.cls-74{fill:#3c292b;}.cls-75{fill:#1b0a0b;}.cls-76{fill:#130504;}.cls-77{fill:#1c1210;}.cls-78{fill:#140b0b;}.cls-79{fill:#5a3a3c;}.cls-80{fill:#180f0f;}.cls-81{fill:#271c1e;}.cls-82{fill:#321e22;}.cls-83{fill:#472629;}.cls-84{fill:#2a070b;}.cls-85{fill:#543538;}.cls-86{fill:#6d4144;}.cls-87{fill:#4e2a2d;}.cls-88{fill:#734a4d;}.cls-89{fill:#462627;}.cls-90{fill:#76454b;}.cls-91{fill:#381d1c;}.cls-92{fill:#633338;}.cls-93{fill:#7a464a;}.cls-94{fill:#563031;}.cls-95{fill:#4d2a2e;}.cls-96{fill:#4d3236;}.cls-97{fill:#2a1516;}.cls-98{fill:#1c0609;}.cls-99{fill:#87595c;}.cls-100{fill:#fcf8f6;}.cls-101{fill:#59373a;}.cls-102{fill:#f3ebeb;}.cls-103{fill:#6f474b;}.cls-104{fill:#5a363b;}.cls-105{fill:#50252c;}.cls-106{fill:#4f2a2c;}.cls-107{fill:#684044;}.cls-108{fill:#653d40;}.cls-109{fill:#735152;}.cls-110{fill:#faf2f0;}.cls-111{fill:#36181b;}.cls-112{fill:#5a2a2e;}.cls-113{fill:#1e0908;}.cls-114{fill:#5f2a31;}.cls-115{fill:#855e61;}.cls-116{fill:#210809;}.cls-117{fill:#7d5156;}.cls-118{fill:#70393e;}.cls-119{fill:#77373d;}.cls-120{fill:#7d4147;}.cls-121{fill:#371d1e;}.cls-122{fill:#41282a;}.cls-123{fill:#603839;}.cls-124{fill:#7b5153;}.cls-125{fill:#3e161b;}.cls-126{fill:#754548;}</style></defs><title>Asset 127expluso-do-bar</title><g id="Layer_2" data-name="Layer 2"><g id="Layer_3" data-name="Layer 3"><rect class="cls-1" width="235" height="241"/><text class="cls-2" transform="translate(21.5 38.79)">Dok<tspan class="cls-3" x="10.58" y="0">k</tspan><tspan x="13.7" y="0">,</tspan><tspan class="cls-4" x="0" y="7.2">L</tspan><tspan x="3.37" y="7.2">a</tspan><tspan class="cls-5" x="6.51" y="7.2">r</tspan><tspan x="8.54" y="7.2">go da P</tspan><tspan class="cls-6" x="27.78" y="7.2">r</tspan><tspan x="29.8" y="7.2">a</tspan><tspan class="cls-7" x="32.95" y="7.2">ç</tspan><tspan x="36.17" y="7.2">a do </tspan><tspan class="cls-8" x="48.33" y="7.2">P</tspan><tspan x="51.94" y="7.2">ei</tspan><tspan class="cls-9" x="56.51" y="7.2">x</tspan><tspan x="59.41" y="7.2">e </tspan><tspan class="cls-10" x="63.81" y="7.2">4</tspan><tspan x="67.29" y="7.2">2, 3</tspan><tspan class="cls-11" x="76.56" y="7.2">8</tspan><tspan x="80.07" y="7.2">0</tspan><tspan class="cls-4" x="83.85" y="7.2">0</tspan><tspan class="cls-12" x="87.66" y="7.2">-</tspan><tspan class="cls-13" x="89.64" y="7.2">2</tspan><tspan class="cls-14" x="93.04" y="7.2">0</tspan><tspan x="96.79" y="7.2">9 </tspan><tspan class="cls-15" x="101.48" y="7.2">A</tspan><tspan class="cls-16" x="105.18" y="7.2">v</tspan><tspan x="107.99" y="7.2">ei</tspan><tspan class="cls-8" x="112.55" y="7.2">r</tspan><tspan x="114.59" y="7.2">o</tspan><tspan class="cls-12" x="0" y="21.6">L</tspan><tspan x="3.29" y="21.6">uciano S</tspan><tspan class="cls-17" x="25.69" y="21.6">i</tspan><tspan x="26.96" y="21.6">l</tspan><tspan class="cls-5" x="28.22" y="21.6">v</tspan><tspan x="31" y="21.6">a </tspan><tspan class="cls-5" x="35.29" y="21.6">P</tspan><tspan x="38.9" y="21.6">e</tspan><tspan class="cls-8" x="42.15" y="21.6">r</tspan><tspan x="44.18" y="21.6">ei</tspan><tspan class="cls-18" x="48.75" y="21.6">r</tspan><tspan class="cls-19" x="50.78" y="21.6">a</tspan><tspan x="54" y="21.6">,</tspan><tspan x="0" y="28.8">Rua Jo</tspan><tspan class="cls-3" x="17.83" y="28.8">s</tspan><tspan x="20.8" y="28.8">é </tspan><tspan class="cls-11" x="25.19" y="28.8">E</tspan><tspan class="cls-20" x="28.89" y="28.8">s</tspan><tspan class="cls-21" x="31.74" y="28.8">t</tspan><tspan class="cls-20" x="33.63" y="28.8">ê</tspan><tspan class="cls-5" x="36.81" y="28.8">v</tspan><tspan x="39.59" y="28.8">ã</tspan><tspan class="cls-22" x="42.74" y="28.8">o</tspan><tspan x="45.96" y="28.8">, l</tspan><tspan class="cls-12" x="49.64" y="28.8">o</tspan><tspan class="cls-14" x="52.94" y="28.8">t</tspan><tspan x="54.83" y="28.8">e 3, 3</tspan><tspan class="cls-11" x="68.58" y="28.8">8</tspan><tspan x="72.08" y="28.8">0</tspan><tspan class="cls-23" x="75.87" y="28.8">0</tspan><tspan class="cls-24" x="79.67" y="28.8">-</tspan><tspan class="cls-25" x="81.66" y="28.8">2</tspan><tspan class="cls-20" x="85.05" y="28.8">0</tspan><tspan x="88.77" y="28.8">1</tspan><tspan class="cls-26" x="0" y="43.2">A</tspan><tspan class="cls-27" x="3.7" y="43.2">v</tspan><tspan x="6.51" y="43.2">ei</tspan><tspan class="cls-8" x="11.08" y="43.2">r</tspan><tspan class="cls-28" x="13.11" y="43.2">o</tspan><tspan x="16.34" y="43.2">, 2</tspan><tspan class="cls-29" x="22.14" y="43.2">7</tspan><tspan class="cls-30" x="24.8" y="43.2">/</tspan><tspan x="27.01" y="43.2">0</tspan><tspan class="cls-10" x="30.8" y="43.2">3</tspan><tspan class="cls-31" x="34.25" y="43.2">/</tspan><tspan class="cls-13" x="36.5" y="43.2">2</tspan><tspan class="cls-20" x="39.9" y="43.2">0</tspan><tspan x="43.61" y="43.2">19</tspan><tspan class="cls-32" x="0" y="50.4">A</tspan><tspan class="cls-13" x="3.94" y="50.4">s</tspan><tspan x="6.87" y="50.4">su</tspan><tspan class="cls-12" x="13.04" y="50.4">n</tspan><tspan class="cls-14" x="16.22" y="50.4">t</tspan><tspan x="18.11" y="50.4">o: </tspan><tspan class="cls-11" x="23.91" y="50.4">E</tspan><tspan class="cls-20" x="27.61" y="50.4">s</tspan><tspan class="cls-23" x="30.46" y="50.4">t</tspan><tspan x="32.39" y="50.4">á banido do no</tspan><tspan class="cls-13" x="70.14" y="50.4">s</tspan><tspan class="cls-3" x="73.07" y="50.4">s</tspan><tspan x="76.04" y="50.4">o e</tspan><tspan class="cls-33" x="83.79" y="50.4">s</tspan><tspan class="cls-4" x="86.64" y="50.4">t</tspan><tspan x="88.58" y="50.4">abelecime</tspan><tspan class="cls-12" x="115.5" y="50.4">n</tspan><tspan class="cls-14" x="118.68" y="50.4">t</tspan><tspan x="120.57" y="50.4">o</tspan><tspan x="0" y="72">Exm</tspan><tspan class="cls-28" x="11.77" y="72">o</tspan><tspan x="15" y="72">. S</tspan><tspan class="cls-34" x="21.2" y="72">r</tspan><tspan x="22.96" y="72">. </tspan><tspan class="cls-12" x="25.36" y="72">L</tspan><tspan x="28.65" y="72">uciano</tspan><tspan class="cls-35" x="0" y="86.4">A</tspan><tspan class="cls-14" x="3.81" y="86.4">t</tspan><tspan x="5.7" y="86.4">é </tspan><tspan class="cls-36" x="10.09" y="86.4">s</tspan><tspan x="13.04" y="86.4">aldar a </tspan><tspan class="cls-11" x="31.53" y="86.4">d</tspan><tspan x="34.87" y="86.4">ívida que </tspan><tspan class="cls-14" x="58.78" y="86.4">t</tspan><tspan x="60.67" y="86.4">em no no</tspan><tspan class="cls-13" x="84.31" y="86.4">s</tspan><tspan class="cls-37" x="87.25" y="86.4">s</tspan><tspan x="90.22" y="86.4">o e</tspan><tspan class="cls-20" x="97.97" y="86.4">s</tspan><tspan class="cls-4" x="100.82" y="86.4">t</tspan><tspan x="102.76" y="86.4">abelecime</tspan><tspan class="cls-12" x="129.67" y="86.4">n</tspan><tspan class="cls-14" x="132.86" y="86.4">t</tspan><tspan class="cls-28" x="134.75" y="86.4">o</tspan><tspan x="137.98" y="86.4">, de inúme</tspan><tspan class="cls-5" x="164.13" y="86.4">r</tspan><tspan x="166.16" y="86.4">os </tspan><tspan x="0" y="93.6">sh</tspan><tspan class="cls-12" x="6.17" y="93.6">o</tspan><tspan class="cls-4" x="9.47" y="93.6">t</tspan><tspan class="cls-13" x="11.41" y="93.6">s</tspan><tspan x="14.34" y="93.6">, gins e ce</tspan><tspan class="cls-36" x="39.53" y="93.6">r</tspan><tspan class="cls-16" x="41.7" y="93.6">v</tspan><tspan x="44.51" y="93.6">eja</tspan><tspan class="cls-13" x="52.19" y="93.6">s</tspan><tspan x="55.12" y="93.6">, que pe</tspan><tspan class="cls-11" x="75.24" y="93.6">d</tspan><tspan x="78.58" y="93.6">iu ao longo do último mê</tspan><tspan class="cls-25" x="140.82" y="93.6">s</tspan><tspan x="143.76" y="93.6">, não i</tspan><tspan class="cls-8" x="158.38" y="93.6">r</tspan><tspan x="160.41" y="93.6">emos </tspan><tspan class="cls-3" x="0" y="100.8">s</tspan><tspan x="2.97" y="100.8">e</tspan><tspan class="cls-36" x="6.22" y="100.8">r</tspan><tspan x="8.39" y="100.8">vi-lo nem acei</tspan><tspan class="cls-4" x="43.8" y="100.8">t</tspan><tspan x="45.74" y="100.8">á-lo no no</tspan><tspan class="cls-13" x="71.04" y="100.8">s</tspan><tspan class="cls-37" x="73.97" y="100.8">s</tspan><tspan x="76.94" y="100.8">o e</tspan><tspan class="cls-20" x="84.69" y="100.8">s</tspan><tspan class="cls-4" x="87.54" y="100.8">t</tspan><tspan x="89.48" y="100.8">abelecime</tspan><tspan class="cls-12" x="116.4" y="100.8">n</tspan><tspan class="cls-14" x="119.58" y="100.8">t</tspan><tspan class="cls-28" x="121.47" y="100.8">o</tspan><tspan x="124.7" y="100.8">, a</tspan><tspan class="cls-13" x="130.26" y="100.8">s</tspan><tspan x="133.2" y="100.8">sim como </tspan><tspan class="cls-21" x="159.39" y="100.8">t</tspan><tspan x="161.28" y="100.8">e</tspan><tspan class="cls-6" x="164.54" y="100.8">r</tspan><tspan x="166.56" y="100.8">á de </tspan><tspan class="cls-35" x="0" y="108">e</tspan><tspan class="cls-38" x="3.08" y="108">x</tspan><tspan x="6.09" y="108">tinguir o </tspan><tspan class="cls-3" x="28.26" y="108">s</tspan><tspan x="31.23" y="108">eu compo</tspan><tspan class="cls-23" x="57.05" y="108">rt</tspan><tspan x="61.15" y="108">ame</tspan><tspan class="cls-12" x="72.44" y="108">n</tspan><tspan class="cls-14" x="75.63" y="108">t</tspan><tspan x="77.52" y="108">o ag</tspan><tspan class="cls-5" x="88.52" y="108">r</tspan><tspan x="90.55" y="108">e</tspan><tspan class="cls-13" x="93.8" y="108">s</tspan><tspan x="96.74" y="108">si</tspan><tspan class="cls-16" x="100.97" y="108">v</tspan><tspan class="cls-28" x="103.78" y="108">o</tspan><tspan x="107.01" y="108">, </tspan><tspan class="cls-14" x="109.43" y="108">t</tspan><tspan x="111.32" y="108">endo já ag</tspan><tspan class="cls-5" x="137.76" y="108">r</tspan><tspan x="139.8" y="108">e</tspan><tspan class="cls-11" x="143.05" y="108">d</tspan><tspan x="146.38" y="108">ido um dos </tspan><tspan x="0" y="115.2">no</tspan><tspan class="cls-13" x="6.61" y="115.2">s</tspan><tspan class="cls-3" x="9.54" y="115.2">s</tspan><tspan x="12.51" y="115.2">os </tspan><tspan class="cls-37" x="19.93" y="115.2">s</tspan><tspan x="22.9" y="115.2">egu</tspan><tspan class="cls-6" x="32.75" y="115.2">r</tspan><tspan x="34.78" y="115.2">an</tspan><tspan class="cls-39" x="41.17" y="115.2">ç</tspan><tspan x="44.39" y="115.2">a</tspan><tspan class="cls-25" x="47.53" y="115.2">s</tspan><tspan x="50.46" y="115.2">. </tspan><tspan class="cls-5" x="0" y="129.6">P</tspan><tspan x="3.61" y="129.6">o</tspan><tspan class="cls-4" x="6.97" y="129.6">rt</tspan><tspan x="11.06" y="129.6">a</tspan><tspan class="cls-12" x="14.21" y="129.6">n</tspan><tspan class="cls-14" x="17.39" y="129.6">t</tspan><tspan class="cls-28" x="19.28" y="129.6">o</tspan><tspan x="22.51" y="129.6">, a pa</tspan><tspan class="cls-23" x="35.76" y="129.6">r</tspan><tspan x="37.92" y="129.6">tir do </tspan><tspan class="cls-17" x="52.31" y="129.6">d</tspan><tspan x="55.65" y="129.6">ia 2</tspan><tspan class="cls-10" x="64.63" y="129.6">8</tspan><tspan class="cls-30" x="68.16" y="129.6">/</tspan><tspan x="70.38" y="129.6">0</tspan><tspan class="cls-10" x="74.16" y="129.6">3</tspan><tspan class="cls-31" x="77.61" y="129.6">/</tspan><tspan class="cls-25" x="79.87" y="129.6">2</tspan><tspan class="cls-20" x="83.26" y="129.6">0</tspan><tspan x="86.98" y="129.6">1</tspan><tspan class="cls-40" x="89.17" y="129.6">9</tspan><tspan x="92.62" y="129.6">, não pode</tspan><tspan class="cls-6" x="119.34" y="129.6">r</tspan><tspan x="121.36" y="129.6">á </tspan><tspan class="cls-16" x="125.65" y="129.6">v</tspan><tspan x="128.45" y="129.6">ol</tspan><tspan class="cls-23" x="133.07" y="129.6">t</tspan><tspan x="135.01" y="129.6">ar a e</tspan><tspan class="cls-24" x="148.97" y="129.6">n</tspan><tspan x="152.15" y="129.6">t</tspan><tspan class="cls-18" x="154.07" y="129.6">r</tspan><tspan x="156.1" y="129.6">ar no </tspan><tspan class="cls-5" x="0" y="136.8">r</tspan><tspan x="2.03" y="136.8">eci</tspan><tspan class="cls-24" x="9.76" y="136.8">n</tspan><tspan class="cls-21" x="12.94" y="136.8">t</tspan><tspan class="cls-41" x="14.83" y="136.8">o do Dok</tspan><tspan class="cls-37" x="37.79" y="136.8">k</tspan><tspan x="40.91" y="136.8">, </tspan><tspan class="cls-24" x="43.33" y="136.8">a</tspan><tspan class="cls-21" x="46.42" y="136.8">t</tspan><tspan x="48.31" y="136.8">é que nos e</tspan><tspan class="cls-24" x="77.66" y="136.8">n</tspan><tspan x="80.85" y="136.8">vie os d</tspan><tspan class="cls-20" x="100.25" y="136.8">e</tspan><tspan x="103.42" y="136.8">vidos pagame</tspan><tspan class="cls-12" x="139.63" y="136.8">n</tspan><tspan class="cls-14" x="142.82" y="136.8">t</tspan><tspan x="144.71" y="136.8">os das suas </tspan><tspan x="0" y="144">despe</tspan><tspan class="cls-36" x="16.22" y="144">s</tspan><tspan x="19.17" y="144">a</tspan><tspan class="cls-13" x="22.31" y="144">s</tspan><tspan x="25.25" y="144">.</tspan><tspan class="cls-35" x="0" y="158.4">A</tspan><tspan class="cls-14" x="3.81" y="158.4">t</tspan><tspan x="5.7" y="158.4">encio</tspan><tspan class="cls-36" x="20.03" y="158.4">s</tspan><tspan x="22.98" y="158.4">ame</tspan><tspan class="cls-12" x="34.28" y="158.4">n</tspan><tspan class="cls-14" x="37.46" y="158.4">t</tspan><tspan class="cls-11" x="39.35" y="158.4">e</tspan><tspan x="42.56" y="158.4">,</tspan><tspan x="0" y="165.6">A ge</tspan><tspan class="cls-5" x="11.72" y="165.6">r</tspan><tspan x="13.76" y="165.6">ência</tspan></text><path class="cls-42" d="M224.35,225.68c.7,1.48,1.64.69,2.75.09v2.4c-1.13.18-2-.47-3-.83a1.22,1.22,0,0,1-.9-1.06.86.86,0,0,0-.69-.73.7.7,0,0,1-.25-1.12c.31-.41.28-.94.56-1.34.57-.47.72,0,.86.4A20.66,20.66,0,0,1,224.35,225.68Z"/><path class="cls-43" d="M222.7,225.35c.72-.35.79.21.8.65a2.57,2.57,0,0,0,.57,1.34c-1.28,2.44-2.25,2.77-5,1.72a1.91,1.91,0,0,0-.54-.05,1.59,1.59,0,0,1-.07-.2.58.58,0,0,1,.25-.31,8.19,8.19,0,0,1,2.15-.28c1.63-.27,2-.73,1.71-2.36A.58.58,0,0,1,222.7,225.35Z"/><path class="cls-44" d="M218.55,229l.55.81h0a.83.83,0,0,1-.59.23c-1-.27-2.2-.05-2.85-1.16a.54.54,0,0,1,.22-.54c1-.13,2.05-.72,2.67.64Z"/><path class="cls-1" d="M171.36,220.44c-.41.52-.29,1.4-1.1,1.66v-5.25a4.28,4.28,0,0,0,2.76-1.1c.41.67-.15,1-.49,1.4a3.35,3.35,0,0,0-.94,2.75A.66.66,0,0,1,171.36,220.44Z"/><path class="cls-45" d="M174.8,207.52l4.24,0a1.76,1.76,0,0,0,1.06.1c2.75-.26,4.44.73,5.49,3.27.23.63.22,1.33.46,2a11,11,0,0,1-.27,3.84,9.51,9.51,0,0,1-.55,1.46A5.11,5.11,0,0,1,184,220a5.37,5.37,0,0,1-3,1.09,28.75,28.75,0,0,1-6,0,.87.87,0,0,1-.6-.45c0-3.95-.17-7.9.08-11.85C174.42,208.32,174.29,207.8,174.8,207.52Z"/><path class="cls-46" d="M171.36,219.89c-.54-1.28.19-2.2.94-3.07.29-.33.7-.56.72-1.07a6.87,6.87,0,0,1,.38-3.07c.29-.56-.22-1-.59-1.41-.66-.73-.16-1.35.14-2s.6-.78,1.17-.42.26,1,.27,1.57c.05,2.36-.06,4.73.06,7.09a3.3,3.3,0,0,1-.06,1.84.3.3,0,0,1-.38-.06c-.72-1.39-1.1-1.41-2-.08C171.83,219.48,171.69,219.77,171.36,219.89Z"/><path class="cls-47" d="M174.12,219.34c.43-.54.2-1.16.2-1.75-.1-3.26-.09-6.52,0-9.77l.49-.3c-.37.49-.22,1.06-.23,1.59,0,3.84-.06,7.67-.09,11.51a.28.28,0,0,1-.31.17C173.42,220.33,173.52,219.84,174.12,219.34Z"/><path class="cls-48" d="M171.31,211.13a3.85,3.85,0,0,1,.85,2.81.74.74,0,0,1-.64.77c-.38,0-.49-.38-.57-.67A3.59,3.59,0,0,1,171.31,211.13Z"/><path class="cls-49" d="M178.81,204.44c.47.91-.39,1.83,0,2.74h-1.11C177.05,205.24,177.24,204.78,178.81,204.44Z"/><path class="cls-50" d="M174.31,207.82c0,3.26,0,6.51,0,9.77-.44-1.84-.1-3.72-.19-5.58,0-1,0-2.1,0-3.16C174.16,208.5,174,208.12,174.31,207.82Z"/><path class="cls-51" d="M222.43,220.44l-.29.31a1.67,1.67,0,0,1-2.56-.54c-.82-1.44-1.75-2.8-2.62-4.2-.36-.33-.42-1.35-1.27-.56a2.24,2.24,0,0,0-.86,1.43,24.6,24.6,0,0,1-.14,3.54,1.19,1.19,0,0,1-1.64.54,1.44,1.44,0,0,1-.77-1.63c.11-1.46,0-2.92.07-4.38,0-2,0-4-.07-6-.09-1.64.75-2.14,2.19-1.41.64,1.16.22,2.43.35,3.63v.42c.12.39-.3.88.2,1.2.66-.59,1.07-1.37,1.7-2a20.82,20.82,0,0,0,2.68-3.17c1.36-.83,2-.81,2.81.1l-.65.82c-.11.8-.87,1.18-1.19,1.84-.38.45-.79.86-1.21,1.28-1.25,1.26-1.25,1.26-.26,2.82s1.91,2.9,2.83,4.37C222,219.34,222.59,219.75,222.43,220.44Z"/><path class="cls-52" d="M220.17,210.08a6.28,6.28,0,0,1,1.39-1.52c.36.23,1.07.37.73.93-.46.76.07,2.16-1.38,2.3-.93.09-1.1.45-.6,1.25a2.36,2.36,0,0,1,.33,1.3,8.22,8.22,0,0,0,1.48,4.45c.32.48,1,1,.31,1.65a69.26,69.26,0,0,1-3.84-5.8c.13-1.33.1-2.7,1.24-3.69A1.4,1.4,0,0,0,220.17,210.08Z"/><path class="cls-53" d="M223,218.8a8.18,8.18,0,0,1-1.9-4.93,1.33,1.33,0,0,1,.89-1.26c.58-.26.89.25,1.19.65.52.68,1.22,1.25,1.22,2.21a1.48,1.48,0,0,1,.12,1c-.28.34-.46.1-.62-.12s-.3-.66-.5-1-.39-.62-.73-.5-.31.61-.23.95a15.91,15.91,0,0,0,.65,1.79,1.31,1.31,0,0,1,.06,1.06Z"/><path class="cls-54" d="M219.74,219.82c.48,1.14,1.52.84,2.4.93,1.29,1.4,2.44,2.86,2.21,4.93a11.47,11.47,0,0,1-1.21-2.49.26.26,0,0,0-.12,0,.32.32,0,0,0-.1.1,6.66,6.66,0,0,0-3.42-1.18c-.82-.67.09-1.38,0-2.07A.43.43,0,0,1,219.74,219.82Z"/><path class="cls-55" d="M219.44,221.87c1.27.2,2.8-.21,3.48,1.43a2,2,0,0,1-.47,1.49c-.29.33,0,.44.25.56,1,1.79.38,3.05-1.63,3.24-.81.08-1.64,0-2.47,0-.68-.66-.51-1.52-.56-2.33,0-1.05.15-2.09.11-3.14a1.67,1.67,0,0,1,.2-1C218.62,221.75,219.08,222,219.44,221.87Z"/><path class="cls-56" d="M218.5,222.94l.1,5.67,0,.39c-.71-.78-1.67-.26-2.49-.52a9.33,9.33,0,0,0,1-5.34,1.6,1.6,0,0,1,.2-.91.51.51,0,0,1,.32-.22c.39.08.47.4.48.71S218.37,222.82,218.5,222.94Z"/><path class="cls-57" d="M215.74,228.61l-1.05.12a1.16,1.16,0,0,1-1.19,0,2.48,2.48,0,0,1-1.36-2.1,21.53,21.53,0,0,1,0-3.85c0-.69.32-1.27,1.21-1.06.66.79.29,1.73.38,2.61a12.82,12.82,0,0,0,.08,1.75c.14.87.62,1.28,1.52,1.09.42-.07.54-.4.64-.75a2.79,2.79,0,0,1,.17-.81c.2-.91,0-1.84.13-2.75.09-.63.27-1.23,1.14-.78,0,1.24,0,2.47,0,3.7,0,1.07-.17,2.12-1.29,2.67Z"/><path class="cls-58" d="M181.85,221.55c-1.51-.52-2.95.18-4.42.27l-1.1.28-.82-.28c-.53-.18-.89-.44-.55-1.06,1.28,0,2.57-.1,3.85,0a9.23,9.23,0,0,0,5.22-1.21c.52.61.2,1.09-.3,1.46a3.75,3.75,0,0,1-1.24.75A.74.74,0,0,1,181.85,221.55Z"/><path class="cls-59" d="M183.55,212.38a6.41,6.41,0,0,1-.71,5.34,9.72,9.72,0,0,1-4.51.28c-1.1-.17-1.55-1.2-1.47-2.69a14.24,14.24,0,0,1,3-3.82c.9-.92,1.87,0,2.79.21a.73.73,0,0,1,.35.7c-1.05.47-2.35.26-3.22,1.24-.48.52-1.41,1-1,1.73s1.16,0,1.75,0a2.64,2.64,0,0,0,2.5-2.63A.69.69,0,0,1,183.55,212.38Z"/><path class="cls-60" d="M177.16,215.2c.05,2.21.84,3,2.93,2.39,1-.28,1.83.28,2.75.13a2.76,2.76,0,0,1-2.39,1.29,13,13,0,0,0-3.84,0c-.45-.16-.25-.53-.25-.81,0-2.65,0-5.29,0-7.94,0-.89.2-1.26,1.12-1.15a8.43,8.43,0,0,1,2.3.2c-.31.53-.86.48-1.34.44-1.05-.08-1.53.32-1.4,1.41a9.93,9.93,0,0,1,0,1.22,5.81,5.81,0,0,0,.22,2.45A.28.28,0,0,1,177.16,215.2Z"/><path class="cls-61" d="M185.22,211.06c1.47.65,1.65,2.12,2.11,3.39.12.32,0,.73.25,1a.72.72,0,0,1,.38.67c0,.13,0,.36-.08.37-1.24.23-1.61,1.41-2.4,2.12-.45,0-.49-.36-.57-.67l.49-1.18c.72-1.23.35-2.59.45-3.89a.47.47,0,0,0,0-.13c-.07-.12-.13-.11-.18,0Z"/><path class="cls-62" d="M183.55,212.38l-.32.33a.3.3,0,0,1-.28-.27l-.28-.55a5.22,5.22,0,0,0-2-.87c-.34-.12-.73-.06-1-.2-.79-.32-1.25,0-1.62.67-.17.33-.27,1-.94.59-.25-2,.17-2.5,2.09-2.55.92,0,1.82.2,2.73.21A3.21,3.21,0,0,1,183.55,212.38Z"/><path class="cls-63" d="M184.91,218l.53.54a.57.57,0,0,1,0,.82c-.82,2-1.54,2.57-3,2.21.38-.8,1.87-.72,1.63-2A3.31,3.31,0,0,1,184.91,218Z"/><path class="cls-64" d="M181.84,209.74c-.38.4-.74.18-1.2.11-2.8-.39-3.19-.46-3.48,2.31a.32.32,0,0,1,.08.33c-.16.21-.33.38-.62.2,0-3.1,0-3.1,3.12-3.34A2.78,2.78,0,0,1,181.84,209.74Z"/><path class="cls-65" d="M185.67,212.79l.11-.52h.13c0,1.39,0,2.77,0,4.15,0,.17,0,.62-.49.38A24.37,24.37,0,0,0,185.67,212.79Z"/><path class="cls-66" d="M176.61,219.05a5.57,5.57,0,0,1,3.84,0A19.71,19.71,0,0,1,176.61,219.05Z"/><path class="cls-67" d="M187.68,216.22l-.1-.74a9.46,9.46,0,0,1,.89-5.24c.12-1.09,1-1.65,1.68-2.31a7.62,7.62,0,0,1,8.28.62,7.06,7.06,0,0,1,1.71,2.3,8.45,8.45,0,0,1,0,6.67,5.21,5.21,0,0,1-1.24,1.77,7.5,7.5,0,0,1-3.06,1.84,7.09,7.09,0,0,1-4.13-.07,3.55,3.55,0,0,1-.78-.32,9.54,9.54,0,0,1-2.17-1.79A3.62,3.62,0,0,1,187.68,216.22Z"/><path class="cls-68" d="M184.34,207.19h.27a3.4,3.4,0,0,1,1.06.82c1,.79,1.9,1.14,3,.28a1.06,1.06,0,0,1,1.58,0l-1.81,1.91c-1.77,1-2.54-.46-3.49-1.45A2,2,0,0,1,184.34,207.19Z"/><path class="cls-69" d="M174.4,220.72c.22,1-.45,1.35-1.21,1.32a.92.92,0,0,1-.86-1.35,1.38,1.38,0,0,0,.09-.39c0-1.68,0-1.68,1.7-1.23v.27C174.08,219.82,173.61,220.4,174.4,220.72Z"/><path class="cls-70" d="M213.13,221.84c-.12.07-.28.11-.35.21-.82,1.1-.26,5.53.8,6.38a.61.61,0,0,0,.26.08c-.8.63-.9.62-2.35-.3-.86-.3-1.86.07-2.67-.5-.55-.85-.29-1.78-.28-2.68,0-.32.14-.71.52-.7s.39.35.45.63,0,.65.12.95c.29,1.05,1,1.25,2.06.57a27.06,27.06,0,0,0,0-3.12c-.24-1-1.22-1-1.84-1.48-.43-.38-.76-.78-.19-1.31.79-.23,1-.56.46-1.34s-1.51-1.51-1.26-2.72a.67.67,0,0,1,.55-.1c.6.21.84.81,1.27,1.2s.57.51,1,.4.37-.56.41-.91,0-.9,0-1.36a1.34,1.34,0,0,1,.24-.76.27.27,0,0,1,.37,0c0,1.59,0,3.18.07,4.77,0,.34-.28.92.35,1,.47,0,1.15.33,1.31-.52a.36.36,0,0,1,.4,0c.57.54.24,1.11,0,1.65a6.26,6.26,0,0,0-.58,2.38,2.67,2.67,0,0,0,1,2.55c.26.17.49.44.23.81-.93.27-1.83.48-2-.93a33.48,33.48,0,0,1-.11-3.75C213.41,222.52,213.67,222.05,213.13,221.84Z"/><path class="cls-71" d="M212.71,214.93h-.22a.86.86,0,0,1-.37-.6c-.27-1.2,0-2.43-.08-3.64-.27-1.43-1.18-.64-1.83-.46-.44.13-.78.64-1.33.33-.18-.9.49-1.43,1-1.92.66-.63.27-.87-.22-1.19,0-.43.29-.6.61-.76a2,2,0,0,1,1.06-.07c.26,0,.53.19.79.08,1.8-.76,2.9.26,3.93,1.5.44,1.39.18,1.82-1.31,2.12-.47-.81.11-1.75-.32-2.57-1.15-.47-1.74-.28-1.68,1.16C212.82,210.91,212.73,212.92,212.71,214.93Z"/><path class="cls-72" d="M214.7,210.23c.73-.43,1.78-.69,1.09-1.93a4.49,4.49,0,0,1,3.57-.29l.06.06c-.46,1.3-1.59,2.05-2.47,3-.76.32-1.46,1-2.39.39C214.6,211.05,214.42,210.62,214.7,210.23Z"/><path class="cls-54" d="M214.45,216.31c.14-.53.59-.8,1-1.14.89-.73,1.23.23,1.78.57a32.47,32.47,0,0,1,2.56,4.08l-.09.07c-.87.18-1.16-.46-1.54-1-.72-1.09-1.47-1.34-2.42-.88-.29.27-.29.67-.45,1s-.27.66-.67.24A21.64,21.64,0,0,0,214.45,216.31Z"/><path class="cls-73" d="M220.17,210.08c.05.22.21.55.13.64-1.09,1.09-1,2.69-1.71,3.92-1.25-1.62-1.25-1.62.15-3.11C219.21,211,219.69,210.56,220.17,210.08Z"/><path class="cls-74" d="M214.7,211.61a6.23,6.23,0,0,1,2.25-.53,11.84,11.84,0,0,1-2,2.2c-.64-.28-.17-1-.54-1.39v-.28C214.53,211.47,214.62,211.47,214.7,211.61Z"/><path class="cls-75" d="M214.7,211.61h-.26l0-3.86c.65.76.23,1.65.28,2.48Z"/><path class="cls-76" d="M214.45,216.31c.51,1,.1,2,.25,3a.57.57,0,0,1,0,.83h-.25Z"/><path class="cls-77" d="M217.18,215.74c-.73.23-.94-1.14-1.78-.57l.79-.89A4.21,4.21,0,0,1,217.18,215.74Z"/><path class="cls-78" d="M214.43,211.89c.57.32.25,1,.54,1.39-.13.17-.24.44-.4.47s-.19-.24-.18-.4C214.4,212.86,214.42,212.38,214.43,211.89Z"/><path class="cls-79" d="M215.51,217.68c.05-.64.4-.77.94-.55.79.34,1.64.66,2,1.53a2.9,2.9,0,0,0,1.22,1.23c.33.7-.05,1.33-.21,2l-.9.23a.6.6,0,0,1-.83,0h-.32c-.64-.23-.89,0-.91.67a12.48,12.48,0,0,1-.11,3.23c-.8-.87-.23-2-.51-2.93a8.76,8.76,0,0,1-.62-4.5A2.35,2.35,0,0,1,215.51,217.68Z"/><path class="cls-80" d="M220.42,227.72c-.78.17-1-.2-1-1-.06-1,.43-1.1,1.22-1.07s1.7,0,1.64,1.09S221.28,227.71,220.42,227.72Z"/><path class="cls-81" d="M220.5,222.89c.73,0,1.48-.09,1.51.83s-.82,1-1.56,1.05-1-.12-1.06-1C219.35,222.8,219.9,222.83,220.5,222.89Z"/><path class="cls-82" d="M217.71,222.11h.83l0,.84-.49,1.39A4.85,4.85,0,0,1,217.71,222.11Z"/><path class="cls-83" d="M215.51,217.68c.13,1.54-.41,3.18.74,4.57.13.15,0,.52,0,.79a21.11,21.11,0,0,0,0,3.73c0,.5-.25.79-.78.78-2-2-2.21-3.3-1-6.15.19-.43.47-.78.15-1.23,0-.28,0-.56,0-.83C215.2,218.9,214.7,218,215.51,217.68Z"/><path class="cls-83" d="M213.13,221.84c.69.29.44.91.45,1.41,0,1.12,0,2.25,0,3.37a14.46,14.46,0,0,1-.16-3.35C213.35,222.78,213.51,222.26,213.13,221.84Z"/><path class="cls-84" d="M216.29,226.77a7,7,0,0,1,0-3.73l.12,3Z"/><path class="cls-85" d="M186,219.06l-.27.55-.28-.28v-.82a8.6,8.6,0,0,0,.46-1c.24-.78.53-1.39,1.54-.95.26.12.15-.25.24-.37a12.76,12.76,0,0,0,1.33,2.6c.06.77-.12,1.15-.89.52a1.84,1.84,0,0,1-.17-.22C187,218,187,218,186,219.06Z"/><path class="cls-86" d="M183,212.44l.28.27a2.24,2.24,0,0,1-1.56,2.76,14.85,14.85,0,0,1-2,.5c-.45.1-1,.54-1.35-.11a1.26,1.26,0,0,1,.25-1.63C179.8,213.07,181,211.74,183,212.44Z"/><path class="cls-87" d="M180.75,210.78a1.82,1.82,0,0,1,1.92,1.11c-2.06-1-3.15.29-4.17,1.79a13.75,13.75,0,0,1-1.34,1.52c0-.09,0-.19,0-.28a.75.75,0,0,1-.21-.59,6.75,6.75,0,0,1,.61-2.16C178.34,210.84,179.28,210.33,180.75,210.78Z"/><path class="cls-62" d="M177.16,214.37c0,.19,0,.37,0,.55-.45.18-.56,0-.55-.45,0-.59,0-1.18,0-1.78l.53-.26A3,3,0,0,1,177.16,214.37Z"/><path class="cls-60" d="M177.16,214.37c0-.64,0-1.29,0-1.94a2.44,2.44,0,0,0,0-.27s.08,0,.1-.09c1-2.18,1.08-2.19,3.49-1.29-1.3-.12-2.07.58-2.9,1.51C177.24,213,177.78,213.83,177.16,214.37Z"/><path class="cls-88" d="M190.28,208.33c-1-.28-1.76.44-2.46.9-.54.36-.74.31-1.11,0-.69-.67-1.89-.8-2.1-2,1.08-.56.12-1.8.83-2.49a15,15,0,0,0,1.93.83l-.28.55c-.36,1.67-.15,1.88,1.48,1.44a20.87,20.87,0,0,0,2.21-.67,6,6,0,0,1,2-.36c2-.37,3.82-.49,5.54.95,1,.83,2.14.33,3.08-.47a40.72,40.72,0,0,1,4-1.95,3.2,3.2,0,0,1,.25-.27,1.16,1.16,0,0,1,.6-.42.39.39,0,0,1,.32.19,1.11,1.11,0,0,1-.18,1.12,2.74,2.74,0,0,1-.39.45c-.87,1.07-2.32.92-3.38,1.6a2.28,2.28,0,0,0-.73,1,1.49,1.49,0,0,1-.41.38,2.24,2.24,0,0,1-3.15-.16A7.51,7.51,0,0,0,190.28,208.33Z"/><path class="cls-89" d="M191.22,210a4.39,4.39,0,0,1,6.74,1.58,1.69,1.69,0,0,1,.12,1.45c-.57.12-.77-.34-1-.7a2.13,2.13,0,0,0-1-1,1.54,1.54,0,0,1-.29-.23c-.7-.64-1.62-.48-2.43-.52s-.87.74-1,1.37a1.71,1.71,0,0,1-.13.38,4.25,4.25,0,0,0-1,3.4c.09.74,0,1.64-1.18,1.45a2.18,2.18,0,0,1-.45-1.43,9,9,0,0,0,0-3,2.2,2.2,0,0,1,.48-1.44A2.59,2.59,0,0,0,191.22,210Z"/><path class="cls-90" d="M186,219.06c0-.62.11-1.25.77-1.44.82-.23,1,.61,1.36,1.06s.4,1.29.89.14l2,1.58a2.77,2.77,0,0,1-2.56,2.21c-1.06-.05-1.49-.88-1.65-1.85A3.06,3.06,0,0,0,186,219.06Z"/><path class="cls-91" d="M201.46,217.65H199.7a9.29,9.29,0,0,0,.05-6.82c.73-.77,1.11-.78,2-.05a54.71,54.71,0,0,1,.09,5.87A1.31,1.31,0,0,1,201.46,217.65Z"/><path class="cls-92" d="M190.06,217.17c1-.23.95-1.07.8-1.71a3,3,0,0,1,1.19-3.31,1.51,1.51,0,0,1,.63,2.12,9,9,0,0,0-.52,2.7,7.69,7.69,0,0,0,0,1.44c0,.23,0,.57-.41.4A2.92,2.92,0,0,1,190.06,217.17Z"/><path class="cls-93" d="M191.74,218.81c.41-.54-.56-1.13,0-1.68,1.6-1.54,2.61-1.31,3.15.76.09.31.2.6.3.9a.59.59,0,0,1-.12.4A3.66,3.66,0,0,1,191.74,218.81Z"/><path class="cls-92" d="M195.12,219.19l0-.41a1,1,0,0,1,.61-.84,2.73,2.73,0,0,0,1.54-3,15.21,15.21,0,0,0-1-2.78c-.16-.34-.49-.63-.29-1.06,1.42-.14,1.33,1.4,2.16,1.92C199.09,214.9,198.18,218.62,195.12,219.19Z"/><path class="cls-94" d="M201.42,210.49l-1.67.35-1.43-2a3.47,3.47,0,0,0,3.11,0A1.09,1.09,0,0,1,201.42,210.49Z"/><path class="cls-95" d="M198.67,219.05c.23,1.62-.11,2.06-1.52,1.95-.31,0-.63,0-.94,0s-.32,0-.29-.27A8.31,8.31,0,0,0,198.67,219.05Z"/><path class="cls-96" d="M195.92,220.74l.29.27c0,.18,0,.36,0,.53-.82.81-1.65.29-2.47,0-.35-.39-.83-.26-1.26-.27s-.92,0-.92-.67A8.56,8.56,0,0,0,195.92,220.74Z"/><path class="cls-97" d="M191.22,210c.31,1-.31,1.26-1.13,1.33A2.2,2.2,0,0,1,191.22,210Z"/><path class="cls-98" d="M189.61,212.72a4,4,0,0,1,0,3A7.68,7.68,0,0,1,189.61,212.72Z"/><path class="cls-99" d="M190.68,207.2c-.75.59-1.73.52-2.57.89-.65.28-1.22.32-1.62-.44s0-1.2.6-1.56c1.12-.27,2.08-1.06,3.41-.72.56.14.83-1,1.55-1.21h0a1,1,0,0,1,.31,1,1,1,0,0,1-.15.38C191.55,205.94,191.35,206.79,190.68,207.2Z"/><path class="cls-100" d="M201.72,220.44l0-2.76a72.39,72.39,0,0,1,0-9.08c.11-.41,0-.94.56-1.1a.89.89,0,0,1,1.34.34,1.28,1.28,0,0,1,.13.39c.12,1.28.05,2.57.06,3.86,0,.83.3.56.65.2a43.57,43.57,0,0,0,3.67-4.24c.43-.48.84-1,1.6-.56l1.47.1c-.59,1.17-1.71,1.85-2.35,2.9-.05.79-.76,1.11-1.16,1.65a1.18,1.18,0,0,0-.17,1.81c.3.41.58.84.85,1.26s.61.81.55,1.37l2.57,4.07-1.75.11c-.7.11-1-.42-1.24-.88-.52-.86-1.09-1.7-1.66-2.52a2.9,2.9,0,0,1-.2-.33,5.17,5.17,0,0,0-.83-1.24c-.76-.67-1.48-.46-1.84.59a9,9,0,0,0-.17,2.43c0,.71.16,1.48-.44,2.07a1.53,1.53,0,0,1-1.07.18C202,221,201.66,220.86,201.72,220.44Z"/><path class="cls-101" d="M208.9,216.58l-.77-1.12c-.09-1.21-.5-2.37-.62-3.58a5.13,5.13,0,0,1,1.32-1.39c.94-.07,1.46-1.18,2.56-1,.55.09,1,.11,1.08.72-.89.55-2.07.45-2.83,1.37-.36.44-.6.76-.29,1.28a2.7,2.7,0,0,1,.14.56,14.16,14.16,0,0,0,.35,1.72,1,1,0,0,0,1,.78c.53,0,.65-.35.75-.79s.24-.92.88-.78c0,.18,0,.37,0,.56s0,.54,0,.82c-.47,1.74-1.14,1.93-3,.83Z"/><path class="cls-102" d="M212,227.89l-.06.72c-1.25.52-2.55.13-3.82.24-1.09-.51-.72-1.49-.78-2.34.09-1,0-2,0-3a2.65,2.65,0,0,1,.4-1.69.8.8,0,0,1,1-.08,2.22,2.22,0,0,1,.31,2.09,8.57,8.57,0,0,0-.1,3.77C209.89,228,211,227.43,212,227.89Z"/><path class="cls-103" d="M212.17,222.94v3.81c-.93.41-1.77.47-2.39-.51s-.59-2.83,0-3.38A1.62,1.62,0,0,1,212.17,222.94Z"/><path class="cls-104" d="M212.17,222.94c-.74-.37-1.54-.57-2.11.13a2.49,2.49,0,0,0-.14,2.58c.28.7.71,1.43,1.74.95.12,0,.33.1.51.15-.44.92-1.28.68-1.91.49-1.28-.38-1.07-1.61-1.37-2.6v3c-.48-1.22-.06-2.48-.18-3.71-.07-.67-.08-1.35-.12-2,.42-1,.92-.44,1.41-.07A2.91,2.91,0,0,1,212.17,222.94Z"/><path class="cls-105" d="M209.45,216.58a4,4,0,0,1,.78.13,1.53,1.53,0,0,0,2.24-1c0,.4,0,.81,0,1.22s.3,1.35-.44,1.55a1.75,1.75,0,0,1-1.83-.81C209.94,217.34,209.7,217,209.45,216.58Z"/><path class="cls-106" d="M210,221.82c-.48-.09-1-.45-1.41.07h-.71a.91.91,0,0,1-.16-.11,3.74,3.74,0,0,0-.56-3.06c-.28-.51-.82-1.06-.16-1.69,1.09,1.11,1.5,2.71,2.72,3.73C209.38,221.23,210.09,221.42,210,221.82Z"/><path class="cls-107" d="M209.17,213c-.74-.43-.61-.9-.08-1.41a3.67,3.67,0,0,1,3.38-1.35v4.14a.84.84,0,0,0-.52.74c0,.82-.37,1.39-1.17,1.34a1.62,1.62,0,0,1-1.46-1.55c0-.44-.33-.89-.14-1.36.72-.13.75.52,1,.9.13.18.28.42.54.34a.48.48,0,0,0,.28-.68c-.39-.87,0-1.69.24-2.58a1.34,1.34,0,0,0-1.38.86C209.74,212.69,209.71,213.14,209.17,213Z"/><path class="cls-108" d="M206.68,204.43c.31.26.73.46.9.79.57,1.13,1.68,1.33,2.69,1.71l-.56.56a2.43,2.43,0,0,0-1.33.81c-.71.19-1-.3-1.13-.82a4.72,4.72,0,0,0-1.12-1.94,2,2,0,0,0,.28-1.1A.16.16,0,0,1,206.68,204.43Z"/><path class="cls-109" d="M218.12,219.9c-.06.62-.33,1.19-1,1.28s-.92-.55-.93-1a1.29,1.29,0,0,1,1.12-1.36C218.12,218.72,217.94,219.44,218.12,219.9Z"/><path class="cls-110" d="M203.12,228.6l-1.62-1c-1.76-1.56-.6-5.89,2.32-6.13,2,.13,2.93.87,3,2.43-.54.67-1,.28-1.52-.07-1.14-.79-1.93-.77-2.51,0a2.65,2.65,0,0,0,.3,3.18A1.5,1.5,0,0,0,205,227c.42-.36.65-1,1.35-.91.73.79.74,1.67-.15,2.21A3,3,0,0,1,203.12,228.6Z"/><path class="cls-111" d="M203.12,228.6c1.39.19,2.65,0,3.43-1.32.28-.49.38-1-.41-1.07.08-.69.62-.65,1.09-.62s.31.62.51.92c.24.71-.25,1.53.32,2.19.16.09.16.19,0,.29C206.35,229.71,204.75,229,203.12,228.6Z"/><path class="cls-112" d="M202.82,230.37a4.39,4.39,0,0,1-1.65-1.94c.22-.21.44-.07.6.06,1.84,1.49,4.11,1.55,6.29,1.89l-.55.55a.82.82,0,0,1-1.24.76C205.22,230.89,204,230.84,202.82,230.37Z"/><path class="cls-113" d="M208.07,229v-.29l3.85-.09C210.7,229.43,209.34,228.82,208.07,229Z"/><path class="cls-114" d="M206.13,205.54a1.21,1.21,0,0,1,1.38,1.4,1.33,1.33,0,0,0,.87,1.36,31.7,31.7,0,0,1-3.6,4.16c-.82-.2-.74-.83-.62-1.41a3,3,0,0,0-.73-2.75V208c.7-.85,1.92-1.13,2.43-2.2Z"/><path class="cls-115" d="M201.72,207.2a1.3,1.3,0,0,1,1.14-1.44l3-.77C204.72,206.17,203,206.3,201.72,207.2Z"/><path class="cls-108" d="M205.85,205.82a3.06,3.06,0,0,1-2.43,2.2c-.23-.52-.76-.37-1.16-.52C203.29,206.58,204.89,206.89,205.85,205.82Z"/><path class="cls-116" d="M201.7,208.6v9.08h-.12l-.12,0q0-3.57,0-7.16c0-.55,0-1.1,0-1.65Z"/><path class="cls-117" d="M192.05,205.55c0,.62.61.87.85,1.35l-2.22.3C191.08,206.6,190.76,205.4,192.05,205.55Z"/><path class="cls-118" d="M202.27,220.76l-.56.51a1,1,0,0,0-.65.43c-.68.74-1.21.28-1.44-.37-.35-1,.35-1.94.46-2.93,0-.24.39-.33.7-.23s.63.26.66.72-.19,1.1.28,1.55Z"/><path class="cls-119" d="M195.92,211.06l.55.83c-.62.55-1.31.08-2,.11s-1.25-.08-1.19.73.68.35,1.08.32a1.1,1.1,0,0,1,1.29.94c.07.27.08.54.13.81s.06.93.51,1,.52-.43.78-.67a1,1,0,0,1,.47-.25c.18,1.74-.27,2.72-1.69,3.28-.36.14-.34.69-.8.58-.67-.08-.52-.64-.58-1.05-.18-1.18-.74-1.54-1.83-.91a5.2,5.2,0,0,1-.89.31,4.93,4.93,0,0,1,.54-3c.45-.69-.06-1.3-.28-1.93,0-.09,0-.17,0-.26a2.59,2.59,0,0,1,3.87-.83Z"/><path class="cls-92" d="M195.93,211.06a3.8,3.8,0,0,0-3.87.83c.14-1.62.52-1.92,2.12-1.57C194.8,210.45,195.78,209.8,195.93,211.06Z"/><path class="cls-120" d="M197.58,214.92c-.45.58-.45,1.83-1.34,1.65s-.82-1.31-.87-2.13-.3-1.5-1.33-.84c-.33.21-.76.37-1,0a2.07,2.07,0,0,1-.29-1.29.92.92,0,0,1,1-.78c.91.09,1.81.23,2.71.36A7.81,7.81,0,0,1,197.58,214.92Z"/><path class="cls-106" d="M207.74,226.51c-.38-.92-1-.69-1.6-.3-.46.22-.33.91-.85,1.09a1.89,1.89,0,0,1-1.24-2.24c.18-1,1.13-1,2-.91.19,0,.45.12.57-.17-.07-1.74-1.39-1.92-2.68-2.14a1.51,1.51,0,0,0-.6-1.14,22.61,22.61,0,0,0,0-2.85,3.42,3.42,0,0,1,1.14-2.88c.74-.77,1.1-.77,1.4.26a1.76,1.76,0,0,0,.29.44.25.25,0,0,1,0,.36c-1.69,1-1.78,1.27-1.12,3.23a2.66,2.66,0,0,0,2.15,2.06.74.74,0,0,1,.61.49l.1.08Z"/><path class="cls-121" d="M203.43,208.3c1.8.44,1.22,1.88,1.08,3a1.87,1.87,0,0,0,.27,1.2L203.43,214Z"/><path class="cls-122" d="M207.51,211.88a3.47,3.47,0,0,1,.62,3.58,10.54,10.54,0,0,0-.95-1.32C206.34,213.22,206.48,212.5,207.51,211.88Z"/><path class="cls-123" d="M206.94,216.86l-.26.55c-1.16-.28-1.57.51-1.92,1.37v.56c-.9-1-.27-2-.25-3.08,0-.47.46-.34.72-.42s.71.31,1-.17Z"/><path class="cls-124" d="M208.34,204.44c.85.06.35,1.48,1.38,1.37C208.35,206.27,208.39,205.31,208.34,204.44Z"/><path class="cls-125" d="M206.61,224c-.33.66-1,.41-1.53.57-.85.25-1.11.62-.53,1.34.34.43.25,1.08.74,1.41a1.76,1.76,0,0,1-2.38.14,2.63,2.63,0,0,1-.88-2.73,1.91,1.91,0,0,1,1.4-1.85,1.69,1.69,0,0,1,2.16.7C205.85,224.07,206.21,224,206.61,224Z"/><path class="cls-126" d="M204.76,218.78a.57.57,0,0,1,0-.13c.12-2,.13-2,1.92-1.24-.09.59.27,1.29-.46,1.73S205.21,219,204.76,218.78Z"/></g></g></svg>