<svg xmlns="http://www.w3.org/2000/svg" viewBox="0 0 72.06 62.97"><defs><style>.cls-1{fill:#030303;}.cls-2{fill:#fff;}.cls-3{fill:#ccc;}</style></defs><title>Asset 16</title><g id="Layer_2" data-name="Layer 2"><g id="Layer_1-2" data-name="Layer 1"><path d="M48.63.26c4.93,1.41,6.89,5.29,4.86,10.12a5.42,5.42,0,0,0,.12,5.17c2.44,4.83,2,10,.34,14.9-1.87,5.54-2.19,10.86-.24,16.36a13.31,13.31,0,0,1,.38,2.71,12.81,12.81,0,0,0,0,3.76c-.63,5.47-5.27,9.37-11.56,9.66a30.33,30.33,0,0,1-13-2.68c-8-3.28-15.55-7.32-22-13.21-3.17-2.9-5.78-6.22-6.43-10.67a12.54,12.54,0,0,0,0-3.77C1.43,29,3.63,26.73,6.54,25a36.64,36.64,0,0,1,8.21-3.42,11.52,11.52,0,0,0,5.71-3.89,45.5,45.5,0,0,1,7.26-7.55A18.87,18.87,0,0,1,34,6.63a4.87,4.87,0,0,1,2.76-.3c1.51.4,2.39-.61,3.16-1.74,1.34-2,2.82-3.77,5.31-4.33A30,30,0,0,0,48.63.26Z"/><path d="M69.12,40.14a16.54,16.54,0,0,0-4.55-11.81c-1-1-.58-1.86.15-2.66s1.53-.37,2.14.36c4,4.81,5.9,10.25,5,16.55-.12.86-.4,1.48-1.37,1.34s-1.67-.49-1.51-1.66C69,41.63,69.05,41,69.12,40.14Z"/><path d="M1.9,16.51c-1.54,0-2.24-.72-1.74-2C2.44,9,6.22,5.05,12,3.17c1-.34,1.79-.28,2.19.87S13.91,5.59,12.94,6a16,16,0,0,0-9.78,9.52C2.9,16.14,2.61,16.6,1.9,16.51Z"/><path d="M62.05,38.13a14.13,14.13,0,0,1-.84-2c-.3-1.14.56-1.65,1.38-2s1.24.17,1.55.86a11.9,11.9,0,0,1-.33,10.58c-.41.86-1.1.74-1.74.48s-1.27-.69-1-1.56.63-1.69,1-2.53A6.63,6.63,0,0,0,62.05,38.13Z"/><path d="M19.27,10.05c-.09.86-.34,1.48-1.41,1.59a9,9,0,0,0-6.59,3.58c-.77,1-1.62.47-2.38-.08s-.55-1.23,0-1.9A11.82,11.82,0,0,1,17.93,8.7C19,8.63,19.18,9.24,19.27,10.05Z"/><path class="cls-1" d="M48.63.26a4.55,4.55,0,0,1-3.42,0A5.78,5.78,0,0,1,48.63.26Z"/><path d="M1.11,32.61a5.38,5.38,0,0,1,0,3.77A10.85,10.85,0,0,1,1.11,32.61Z"/><path d="M62.05,38.13a3.91,3.91,0,0,1,0,3.77Z"/><path d="M54.1,53.28a5.4,5.4,0,0,1,0-3.76A14.34,14.34,0,0,1,54.1,53.28Z"/><path class="cls-2" d="M51.9,29.1c1-4.43,1.71-9-.74-13.07a5.26,5.26,0,0,1-.11-5.89A6.35,6.35,0,0,0,51.49,9c.86-2.57.23-4.52-1.88-5.83a4.66,4.66,0,0,0-6.34,1c-.92,1-1.7,2.16-2.57,3.23a2.26,2.26,0,0,1-1.91,1C34.47,8.21,31.09,10.25,28,13a65,65,0,0,0-6.41,7,10.76,10.76,0,0,1-4.87,3.39c-2.64.92-5.29,1.85-7.86,3C2,29.53,2.5,36,5,40.23a23.68,23.68,0,0,0,5.43,6.2A75.71,75.71,0,0,0,30.75,58.18a28.47,28.47,0,0,0,10.33,2.33c.63,0,1.27,0,1.89,0,5.67-.4,9-4.09,8.81-9.74a28.28,28.28,0,0,0-1.33-7.25,14.53,14.53,0,0,1,.14-9.61A35.82,35.82,0,0,0,51.9,29.1ZM42.17,54.73a7.2,7.2,0,0,1-3.91-.12C28,52.23,18.84,47.78,11.56,40a14,14,0,0,1-1.5-2.09,1.88,1.88,0,0,1-.27-2.1,2,2,0,0,1,2-.63,36.51,36.51,0,0,1,9.76,2.6c1.56.61.67,1.84.91,2.78a1.86,1.86,0,0,1,.4,1.11c1,5,5.54,7,10,4.52.62-.35,1.14-1,2-.84,2.21.22,8.28,5.79,8.55,7.86C43.52,54.11,43,54.48,42.17,54.73Z"/><path class="cls-3" d="M34.85,45.31c-.82.51-1.61,1.1-2.47,1.53a6.63,6.63,0,0,1-9.88-6.32c.62-2.08.64-2.11,2.75-1q4.09,2.17,8.14,4.44C34,44.29,34.68,44.52,34.85,45.31Z"/></g></g></svg>