<svg xmlns="http://www.w3.org/2000/svg" viewBox="0 0 90.7 181.92"><defs><style>.cls-1{fill:none;stroke:red;stroke-miterlimit:10;stroke-width:3px;}.cls-2{fill:red;}</style></defs><title>bateria-morta</title><g id="Layer_2" data-name="Layer 2"><g id="Layer_1-2" data-name="Layer 1"><rect class="cls-1" x="1.5" y="27.56" width="87.7" height="152.86"/><rect class="cls-2" x="26.56" width="35.08" height="20.05" rx="2.4" ry="2.4"/><path class="cls-2" d="M56.09,62.64c-.43,8.16-.86,16.08-1.29,24-.52,9.58-1,19.16-1.57,28.74a8.39,8.39,0,0,1-5.14,7.73A8.34,8.34,0,0,1,39,122.06a9.26,9.26,0,0,1-3.15-6.93q-.9-15.55-1.74-31.1-.52-9.59-1-19.17c-.07-1.2-.1-2.41-.22-3.61C32.4,56.76,34.48,53.49,38,51c5.56-4,12.55-2.39,16.41,3.52A11.5,11.5,0,0,1,56.09,62.64Z"/><path class="cls-2" d="M33.39,145.65a10.84,10.84,0,0,1,11.06-11,11.06,11.06,0,0,1,11.2,11.05,11.23,11.23,0,0,1-11.37,11.25C38,156.91,33.37,152.1,33.39,145.65Z"/></g></g></svg>