<svg xmlns="http://www.w3.org/2000/svg" viewBox="0 0 39.19 79.15"><defs><style>.cls-1{fill:gray;}</style></defs><title>Asset 46</title><g id="Layer_2" data-name="Layer 2"><g id="Layer_1-2" data-name="Layer 1"><path class="cls-1" d="M38.82,55.65c-5-5.27-10-10.57-15.06-15.82-.68-.7-.56-1,0-1.69,5-5.61,10-11.27,15-16.89.48-.54.62-.82,0-1.41q-9.54-9.46-19-19c-.24-.24-.49-.47-.91-.86V33.93l-.93-.8-13.28-12c-.71-.64-1.44-1.75-2.17-1.75s-1.31,1.33-2.06,2-.53.84.07,1.38c5.58,5,11.12,10.05,16.7,15.05.63.56.66.82,0,1.4C11.9,43.87,6.64,48.6,1.37,53.3c-1.73,1.55-1.73,1.54-.21,3.23a5.07,5.07,0,0,1,.48.56c.43.67.77.65,1.38.1,5-4.55,10.1-9.06,15.16-13.57.19-.17.32-.49.71-.38V79l.22.13c.13-.17.24-.34.37-.5q9.7-10.92,19.41-21.81C39.36,56.32,39.23,56.08,38.82,55.65Zm-16-45.86c.26-.11.36.14.5.27l10,10c.29.29.68.51.22,1C30.08,25,26.58,29,22.85,33.22ZM33.57,56.86c-3.44,3.82-6.85,7.68-10.27,11.52-.1.13-.19.31-.42.27v-24l3.52,3.69c2.35,2.47,4.68,4.95,7,7.41C33.77,56.11,34,56.35,33.57,56.86Z"/></g></g></svg>