<svg xmlns="http://www.w3.org/2000/svg" viewBox="0 0 200.45 235.51"><defs><style>.cls-1{fill:#ceb12d;}.cls-2{fill:#ceb02d;}.cls-3,.cls-5{fill:#fff;}.cls-3,.cls-4{stroke:#fff;stroke-miterlimit:10;}.cls-3{stroke-width:2px;}</style></defs><title>email-open</title><g id="Layer_2" data-name="Layer 2"><g id="Layer_1-2" data-name="Layer 1"><path class="cls-1" d="M100.34,231.37h73.4c13.09,0,22.61-9.41,22.63-22.49q0-47.65,0-95.32a22.14,22.14,0,0,0-5.5-15c-.72-.84-1.59-1.71-.66-2.81s2.26-.65,3.33,0A5.71,5.71,0,0,1,195,97.18,25.35,25.35,0,0,1,200.45,113q0,48.12,0,96.24a25.9,25.9,0,0,1-26,26.2q-74.21.12-148.4,0c-14.72,0-26-11.64-26.06-26.37V113.3A26,26,0,0,1,26.16,87q71.67-.09,143.32,0c1.48,0,3.22-.08,3.25,2,0,2.22-1.74,2.13-3.33,2.13-47.47,0-94.94.1-142.4-.07A22.65,22.65,0,0,0,4,114c.26,31.46.08,62.93.09,94.39,0,13.7,9.34,23,23.1,23Z"/><path class="cls-2" d="M18.42,113.5c4.91,3.7,9.44,7.1,13.95,10.52q33.38,25.24,66.71,50.55c1.51,1.15,2.4,1.11,3.9,0q38.83-27.72,77.77-55.34c.25-.17.52-.3.78-.46.84.49.48,1.26.48,1.88q0,43.95,0,87.91c0,5.6-2.93,8.46-8.6,8.46H27.14c-5.78,0-8.71-2.89-8.71-8.6q0-46.14,0-92.29Z"/><path class="cls-1" d="M32.28,105.53H174.67c.21.6-.25.72-.53.92q-35.64,25.3-71.25,50.61c-1,.72-1.71,1.1-3,.15q-33.33-25.32-66.74-50.53C32.84,106.42,32.34,106.26,32.28,105.53Z"/><path class="cls-3" d="M157.81,52.69c-15,0-27.13-13.53-27.13-30.21A33.33,33.33,0,0,1,132.05,13H52.82c-6.85,0-12.4,6.19-12.4,13.82l-3.11,81.21L41,110.53l59.62,46.38,60.4-43,1.09-.85V52.3A24.84,24.84,0,0,1,157.81,52.69Zm-30.23,45H75a3.71,3.71,0,0,1,0-7.38h52.59a3.71,3.71,0,0,1,0,7.38Zm0-16.14H75a3.71,3.71,0,0,1,0-7.38h52.59a3.71,3.71,0,0,1,0,7.38Zm0-14.76H75a3.71,3.71,0,0,1,0-7.38h52.59a3.71,3.71,0,0,1,0,7.38Zm0-16.15H75a3.71,3.71,0,0,1,0-7.38h52.59a3.71,3.71,0,0,1,0,7.38Z"/><circle class="cls-4" cx="155.38" cy="27.42" r="26.92"/></g><g id="Layer_3" data-name="Layer 3"><path class="cls-5" d="M152.39,12.16h5.21V31.6h-5.21Zm0,22.47h5.21v5.22h-5.21Z"/></g></g></svg>