<svg xmlns="http://www.w3.org/2000/svg" viewBox="0 0 31.47 30.18"><defs><style>.cls-1{fill:#ceb02d;}.cls-2{fill:#fff;}.cls-3{fill:none;stroke:#000;stroke-miterlimit:10;stroke-width:0.5px;}</style></defs><title>Asset 15</title><g id="Layer_2" data-name="Layer 2"><g id="Layer_1-2" data-name="Layer 1"><path class="cls-1" d="M24.24,29.73a2.27,2.27,0,0,1-1.65-.23c-2-1.9-3.95-3.92-5.93-5.87-1.18-1.16-1.83-1.17-3,0-1.81,1.79-3.57,3-5.38,4.79a19.33,19.33,0,0,1-1.5,1.27,2.29,2.29,0,0,1-2.46-.78C3.18,27.68,2,26.53.78,25.34a1.92,1.92,0,0,1,0-3q3.33-3.36,6.71-6.7c.44-.44.47-.7,0-1.15C5.29,12.29,3.12,10.1,1,7.92-.28,6.69-.28,5.75.94,4.53S3.26,2.27,4.37,1.08A2.15,2.15,0,0,1,6.91.43a2.48,2.48,0,0,1,1.66.91C10.3,3,12.05,4.74,13.72,6.5a1.78,1.78,0,0,0,2.9,0c1.94-2,3.91-4,6-5.94A2.32,2.32,0,0,1,24.24.3a1.14,1.14,0,0,1,1.1.38C26.72,2,28.09,3.35,29.4,4.75a2.39,2.39,0,0,1-.21,3.3c-.92,1-1.93,2-2.9,2.94s-2.08,2-3.09,3.1c-.71.74-.72,1.13,0,1.85,1.85,1.89,3.74,3.75,5.61,5.62a3.69,3.69,0,0,1,1,1.38,2.22,2.22,0,0,1-.43,2.41q-2,2-4,3.95A1.19,1.19,0,0,1,24.24,29.73Z"/><path class="cls-2" d="M24.24,29.73a3.44,3.44,0,0,0,1-.73c1.2-1.21,2.42-2.41,3.62-3.61a3.22,3.22,0,0,0,0-3.17c-2.15-2.17-4.29-4.34-6.49-6.47-.59-.57-.59-.89,0-1.47,2.16-2.08,4.26-4.23,6.38-6.35,1.23-1.23,1.23-2.18,0-3.4S26.33,2.17,25.15,1A3.79,3.79,0,0,0,24.24.3a2.39,2.39,0,0,1,2.84.39c1.25,1.19,2.49,2.4,3.66,3.67a2.68,2.68,0,0,1-.19,3.86c-1.61,1.64-3.24,3.26-4.87,4.88-.17.18-.35.34-.51.52-1,1.08-1,1.74,0,2.79,1.45,1.49,2.94,2.95,4.41,4.42.36.37.74.72,1.09,1.1a2.72,2.72,0,0,1,0,3.81c-1.15,1.21-2.34,2.4-3.55,3.56A2.42,2.42,0,0,1,24.24,29.73Z"/><path class="cls-2" d="M6.78,29.69c2.16-1.84,4-4,6.09-5.94.46-.45.94-.89,1.36-1.38s.72-.47,1.17,0c2.09,2.11,4.21,4.2,6.32,6.29.28.29.58.57.87.85-.38-.06-.58-.37-.83-.62l-5.15-5.13c-.74-.75-.82-.75-1.55,0C13.3,25.48,11.55,27.24,9.79,29a2.9,2.9,0,0,1-2.21,1A1.07,1.07,0,0,1,6.78,29.69Z"/><path class="cls-2" d="M22.59.54c-2.36,2.34-4.74,4.67-7.07,7-.56.57-.87.53-1.41,0-2-2-4-4-6-6C7.72,1.15,7.3.79,6.91.43A2,2,0,0,1,9.51,1c1.59,1.57,3.16,3.16,4.75,4.74.19.19.37.39.57.57.83.77,1,.77,1.78,0l5.15-5.14C22,.91,22.21.6,22.59.54Z"/><path class="cls-3" d="M28.66,25.5q-1.89,2-3.83,3.94a1.13,1.13,0,0,1-1.12.43c-.56.12-1.38-.71-1.88-1-2-1.89-4.37-4.37-5.25-5.24-1.38-1.39-.87-2.63-3.49,0-.57.56-3.88,3.2-5.24,5.24-.32.48,0,0-1.06,1a2.16,2.16,0,0,1-2.38-.78C3.3,27.83,2.12,26.68,1,25.49a2,2,0,0,1,0-3c2.15-2.24,4.31-4.48,6.5-6.69.43-.44.46-.7,0-1.15C5.35,12.47,3.25,10.28,1.14,8.1,0,6.88,0,5.94,1.13,4.72S3.39,2.46,4.45,1.28A2,2,0,0,1,6.91.63a2.42,2.42,0,0,1,1.62.9c1.67,1.71,3.36,3.4,5,5.16.86.94,1.32,2.07,2.8,0A43.82,43.82,0,0,1,22.11.74,2.18,2.18,0,0,1,23.71.5a1.08,1.08,0,0,1,1.06.38c1.34,1.33,2.66,2.67,3.93,4.06a2.44,2.44,0,0,1-.2,3.3c-.89,1-1.87,1.95-2.81,2.93s-2,2.05-3,3.09c-.69.74-.87.62,0,1.85A35.45,35.45,0,0,0,27.07,21c.39.41,1.75,1.75,1.75,1.75A1.94,1.94,0,0,1,28.66,25.5Z"/></g></g></svg>