<svg xmlns="http://www.w3.org/2000/svg" viewBox="0 0 152.03 124.04"><defs><style>.cls-1{fill:#1f212b;}.cls-2{fill:#cdcbbd;}.cls-3{fill:#d5b145;}.cls-4{fill:#b1bccd;}.cls-5{fill:#22242e;}.cls-6{fill:#282932;}.cls-7{fill:#232530;}.cls-8{fill:#d3def1;}.cls-9{fill:#01030c;}.cls-10{fill:#262835;}.cls-11{fill:#252835;}.cls-12{fill:#f6f6f6;}</style></defs><title>Asset 3</title><g id="Layer_2" data-name="Layer 2"><g id="Layer_1-2" data-name="Layer 1"><path class="cls-1" d="M76.13,124q-30.72,0-61.45,0C4.51,124,0,119.58,0,109.52Q0,71.3,0,33.08c0-9.75,2.46-13,12.15-14.94,2.48-.51,1.77-1.92,1.82-3.21C14.39,6,14.37,6,23.12,6c4.17,0,8.34.14,12.49,0,3.14-.14,4.82.79,4.41,4.2a6.46,6.46,0,0,0,0,2.48c.53,1.79-1.61,4.94,1.64,5.2,3,.25,7.15,2,8.55-3.19.61-2.21,1.89-4.23,2.8-6.38C55.44,2.59,59.7-.1,65.92,0,72.74.12,79.57.09,86.4,0c6-.06,10.76,2.46,12.37,8.14,2.41,8.53,7.35,11,15.9,10.07,8.06-.88,16.3-.27,24.45-.17,7.93.1,12.83,4.89,12.85,12.77q.12,40.23,0,80.44c0,8-5,12.73-13.39,12.75C117.77,124.06,97,124,76.13,124Z"/><path class="cls-2" d="M115.81,45.92C116,43.8,114.46,44,113.15,44q-5,0-10,0c-6,0-11.75-.09-17.57-2.43-7.17-2.88-14.79-2.1-21.95.85a20.74,20.74,0,0,1-8.2,1.61c-15.66-.07-31.33-.12-47,0-3.33,0-4.95-.57-4.49-4.27A67,67,0,0,0,4,32.33c0-7.56,2.7-10.28,10.17-10.29,20.17,0,40.33,0,60.5,0,1.68,0,3.5.41,5-1.71H52.07c2.11-4.67,3.67-8.5,5.56-12.16a7.43,7.43,0,0,1,7-4.09c7.5,0,15,0,22.5,0,4,0,7.1,1.89,8,5.6,2.56,11,9.38,13.91,20,12.58,7.71-1,15.64-.24,23.48-.17,6.53.05,9.41,2.94,9.47,9.48,0,4.83-.1,9.66-.15,14.49-1.75,1.58-3.72,1.38-5.75.74a21.43,21.43,0,0,0-16.67.18C122.12,47.5,118.78,48.42,115.81,45.92Z"/><path class="cls-3" d="M56,46C39.47,60.28,35.6,83.28,55.7,102c-16.68,0-32.92,0-49.15,0-2,0-2.57-.75-2.57-2.64Q4.06,74,4,48.51C4,46,5.42,46,7.19,46,23.16,46,39.12,46,56,46Z"/><path class="cls-3" d="M115.81,45.92h10.38a29.41,29.41,0,0,1,15.63,0l6,.1v56c-2,1.72-4,1.4-6,.1H96.05c19.76-18,17.1-41.28-.16-56.22Z"/><path class="cls-2" d="M141.81,102.14l6-.1c.82,15.76.29,18.26-16.82,18.1-38.64-.35-77.28-.11-115.93-.11C6,120,1.71,114.28,4,105.63c.53-2,1.85-1.58,3-1.58,17.16,0,34.32,0,51.47,0,1.78,0,3.18.85,4.71,1.46a32.27,32.27,0,0,0,24.82.26A24.79,24.79,0,0,1,97.67,104c13.33.07,26.65.08,40,0C139.08,104,141.6,105.38,141.81,102.14Z"/><path class="cls-4" d="M76.45,44A30,30,0,1,1,46,73.33,30.06,30.06,0,0,1,76.45,44Z"/><path class="cls-4" d="M19,10.24a8.17,8.17,0,0,1,.05,7.6A8.44,8.44,0,0,1,19,10.24Z"/><path class="cls-4" d="M23,10.23c1.42,2.47.91,5,1,8.94C21.1,15.53,22.21,12.84,23,10.23Z"/><path class="cls-4" d="M26.84,10.26c1.41,2.51,1.46,5,.43,8.46C25.3,15.41,26.24,12.81,26.84,10.26Z"/><path class="cls-4" d="M31,10.24a8.17,8.17,0,0,1,.05,7.6A8.44,8.44,0,0,1,31,10.24Z"/><path class="cls-4" d="M34.93,10.22c1.57,2.5.91,5,.51,7.61C33.2,15.46,34.11,12.82,34.93,10.22Z"/><path class="cls-1" d="M121.57,38a29.23,29.23,0,0,0-4.49,0c-4.23.64-5.2-1.17-5.23-5.22s1.24-5.27,5.1-4.88a89.58,89.58,0,0,0,9,.06c6,0,7.54,2.23,6.1,8.19-.45,1.89-1.64,1.79-3,1.8C126.57,38,124.07,38,121.57,38Z"/><path class="cls-5" d="M141.82,45.92H126.19c0-.84,0-1.8,1.13-1.81q6.68-.09,13.37,0C141.78,44.12,141.81,45.08,141.82,45.92Z"/><path class="cls-6" d="M93.1,21.05A13.68,13.68,0,0,1,82.9,21,13.88,13.88,0,0,1,93.1,21.05Z"/><path class="cls-7" d="M98,74.07A22,22,0,1,1,76.17,52,22.13,22.13,0,0,1,98,74.07Z"/><path class="cls-8" d="M121.59,36c-1.49,0-3-.11-4.47,0-2.23.21-3.25-.4-3.2-2.94,0-2.29.55-3.27,3-3.13a94,94,0,0,0,9.93,0c2.24-.1,3.25.42,3.2,3-.05,2.29-.55,3.36-3,3.11C125.25,35.88,123.41,36,121.59,36Z"/><path class="cls-9" d="M75.92,94A20,20,0,1,1,96,74.08,20.44,20.44,0,0,1,75.92,94Z"/><path class="cls-10" d="M80,72c-2.84-2.65-2.72-5.32-.06-8,.91-.47,1.27.13,1.57.82,0,2.1-.07,4.2,0,6.3C81.28,71.82,81,72.45,80,72Z"/><path class="cls-10" d="M81,65.1,80,64c2.68-2.7,5.37-2.72,8.07,0,.47.91-.12,1.26-.82,1.56C85.15,65.5,83.06,65.7,81,65.1Z"/><path class="cls-10" d="M80,72l1-1c2-.7,4.07-.38,6.11-.53.69.28,1.3.61.87,1.52Q84,76.22,80,72Z"/><path class="cls-11" d="M88,72l-1-1a10.24,10.24,0,0,1,0-6L88,64C90.7,66.67,90.84,69.35,88,72Z"/><path class="cls-12" d="M87,65.05a5.25,5.25,0,0,1,0,6,5.38,5.38,0,0,1-6,0,5.18,5.18,0,0,1,0-5.91A5,5,0,0,1,87,65.05Z"/></g></g></svg>