<svg xmlns="http://www.w3.org/2000/svg" viewBox="0 0 51.82 42.46"><defs><style>.cls-1{fill:#fff;}.cls-2{fill:#999;}</style></defs><title>Asset 8</title><g id="Layer_2" data-name="Layer 2"><g id="Layer_1-2" data-name="Layer 1"><path d="M23.88.21c3.37-.82,5.82.8,6.24,4.32a3.69,3.69,0,0,0,1.8,3c3,2,4.52,5.24,5.18,8.65a16.28,16.28,0,0,0,5.33,9.71,9,9,0,0,1,1.13,1.46,8.58,8.58,0,0,0,1.27,2.22c1.45,3.42,0,7.27-3.58,9.55a20.63,20.63,0,0,1-8.56,2.78,49.52,49.52,0,0,1-17.34-.43c-2.84-.65-5.48-1.73-7.35-4.14a8.69,8.69,0,0,0-1.27-2.21c-1-2.23-.49-4.31.64-6.32a24.67,24.67,0,0,1,3.69-4.76,7.69,7.69,0,0,0,2-4.19A31.36,31.36,0,0,1,14.86,13a13,13,0,0,1,2.53-4.14,3.28,3.28,0,0,1,1.52-1.1c1-.27,1.2-1.16,1.28-2.08a6,6,0,0,1,1.68-4.32A22.09,22.09,0,0,0,23.88.21Z"/><path class="cls-1" d="M49.27,16.82a11.2,11.2,0,0,0-6.63-5.43c-1-.27-1-.89-.8-1.61s.78-.73,1.38-.5a13.72,13.72,0,0,1,8.46,8.07c.21.55.26,1-.36,1.25s-1.15.27-1.45-.47C49.71,17.73,49.52,17.35,49.27,16.82Z"/><path class="cls-1" d="M1.81,25.39c-.89.54-1.56.33-1.67-.57A12.63,12.63,0,0,1,3.32,14.15c.49-.54.95-.76,1.57-.21s.34,1-.11,1.55a10.82,10.82,0,0,0-2.57,8.87C2.28,24.84,2.26,25.21,1.81,25.39Z"/><path class="cls-1" d="M44.43,18a13.06,13.06,0,0,1-1.17-.91c-.55-.57-.22-1.16.14-1.67s.79-.31,1.2,0a8.1,8.1,0,0,1,3.34,6.34c0,.64-.4.8-.87.86s-1,0-1.1-.58-.19-1.21-.28-1.81A4.46,4.46,0,0,0,44.43,18Z"/><path class="cls-1" d="M9.87,15.78a1,1,0,0,1-.29,1.41A6.06,6.06,0,0,0,6.9,21.5c-.11.86-.8.82-1.43.75s-.74-.54-.66-1.11a8,8,0,0,1,3.82-5.7C9.23,15,9.55,15.34,9.87,15.78Z"/><path class="cls-1" d="M44.43,18a2.65,2.65,0,0,1,1.26,2.22Z"/><path class="cls-1" d="M35.44,16.08c-.88-2.95-2-5.84-4.8-7.44a3.54,3.54,0,0,1-2-3.43,5.66,5.66,0,0,0-.12-.81,3,3,0,0,0-3-2.8A3.16,3.16,0,0,0,22,4.29c-.2.91-.28,1.84-.43,2.76a1.56,1.56,0,0,1-.79,1.22C18.2,9.62,16.9,12,16,14.6a44.43,44.43,0,0,0-1.44,6.24,7.37,7.37,0,0,1-1.73,3.62c-1.25,1.43-2.5,2.86-3.62,4.4-3,4.16-.54,7.8,2.35,9.46a16.07,16.07,0,0,0,5.26,1.83,51.63,51.63,0,0,0,15.89.12,19.52,19.52,0,0,0,6.86-2.09c.37-.21.76-.4,1.11-.63,3.2-2.14,3.92-5.41,1.93-8.68a19.31,19.31,0,0,0-3.21-3.82,9.79,9.79,0,0,1-3.13-5.7A24.9,24.9,0,0,0,35.44,16.08Zm2.85,18.34a5,5,0,0,1-2.35,1.23c-6.83,2-13.71,2.47-20.61.31a9.41,9.41,0,0,1-1.58-.73c-.45-.24-.9-.59-.86-1.15s.54-.84,1-1a24.79,24.79,0,0,1,6.61-1.73c1.12-.16,1,.86,1.47,1.34.29.06.43.31.6.51a4.34,4.34,0,0,0,7.38-.66c.25-.42.34-1,.89-1.17,1.37-.61,6.81.64,7.66,1.77C38.87,33.6,38.68,34,38.29,34.42Z"/><path class="cls-2" d="M30.83,31.32c-.31.58-.58,1.18-.94,1.73A4.49,4.49,0,0,1,22,32.64c-.33-1.44-.33-1.46,1.29-1.51Q26.39,31,29.52,31C30,31,30.47,30.91,30.83,31.32Z"/></g></g></svg>