<svg xmlns="http://www.w3.org/2000/svg" viewBox="0 0 256.26 294.03"><defs><style>.cls-1{fill:#c6cbce;}.cls-2{fill:#e1e3e4;}.cls-3{fill:#cbccce;}.cls-4{fill:#eee;}.cls-5{fill:#d7d7d7;}.cls-6{fill:#a2a2a2;}.cls-7{fill:#848484;}.cls-8{fill:#ededec;}.cls-9{fill:#efeeec;}.cls-10{fill:#a5a5a5;}.cls-11{fill:#adadad;}.cls-12{fill:#a9a9a9;}.cls-13{fill:#d6d9db;}.cls-14{fill:#dce1e3;}.cls-15{fill:#ebeff1;}.cls-16{fill:#f5f7f8;}.cls-17{fill:#888;}.cls-18{fill:#8c8c8d;}.cls-19{fill:#f4f4f5;}.cls-20{fill:#e0e7eb;}.cls-21{fill:#f5f6f7;}.cls-22{fill:#dde1e3;}.cls-23{fill:#e4e7e8;}.cls-24{fill:#bbc0c4;}.cls-25{fill:#adb1b5;}.cls-26{fill:#bcc1c6;}.cls-27{fill:#bac0c4;}.cls-28{fill:#b2b9bd;}.cls-29{fill:#b1b7bb;}.cls-30{fill:#b3babe;}.cls-31{fill:#afb5b9;}.cls-32{fill:#b1b8bc;}.cls-33{fill:#babfc3;}.cls-34{fill:#f4f5f6;}.cls-35{fill:#e6e7e8;}.cls-36{fill:#dcdfe2;}.cls-37{fill:#e5e6e8;}.cls-38{fill:#e5e5e6;}.cls-39{fill:#d5b145;}.cls-40{fill:#e1e4e7;}.cls-41{fill:#e3e5e7;}.cls-42{fill:#f5f6f6;}.cls-43{fill:#d9dde0;}.cls-44{fill:#dddfe1;}.cls-45{fill:#f2f2f3;}.cls-46{fill:#e0e4e7;}.cls-47{fill:#cfd2d5;}.cls-48{fill:#e4e6e9;}.cls-49{fill:#d8dbdd;}.cls-50{fill:#d0d4d6;}.cls-51{fill:#d3d7d9;}.cls-52{fill:#dbdde0;}.cls-53{fill:#d5dadb;}.cls-54{fill:#dadfe1;}.cls-55{fill:#b0b7b8;}.cls-56{fill:#bdc6c7;}.cls-57{fill:#b7c0c0;}.cls-58{fill:#d9dee0;}.cls-59{fill:#e2e8ec;}.cls-60{fill:#969696;}.cls-61{fill:#d8dcde;}.cls-62{fill:#f1f3f3;}.cls-63{fill:#eef1f3;}.cls-64{fill:#f4f2f0;}.cls-65{fill:#aaafb0;}.cls-66{fill:#ebeae9;}.cls-67{fill:#d3d7d8;}.cls-68{fill:#eaeae9;}.cls-69{fill:#d2d5d6;}.cls-70{fill:#bbc5c6;}.cls-71{fill:#bfc5ca;}.cls-72{fill:#c2c8cb;}.cls-73{fill:#bdc2c7;}.cls-74{fill:#b4bbbf;}.cls-75{fill:#c3c8cc;}.cls-76{fill:#b3b9bd;}.cls-77{fill:#c1c7cb;}.cls-78{fill:#b0b7bb;}.cls-79{fill:#f6f7f7;}.cls-80{fill:#c2c8cc;}.cls-81{fill:#c3c7cb;}.cls-82{fill:#bfc5c9;}.cls-83{fill:#ad8b38;}.cls-84{fill:#e2e5e8;}.cls-85{fill:#dfe3e6;}.cls-86{fill:#e3e4e5;}.cls-87{fill:#dddfe2;}.cls-88{fill:#dbdddf;}.cls-89{fill:#d2d7d9;}.cls-90{fill:#e3e6e9;}.cls-91{fill:#d7dbdd;}.cls-92{fill:#eaeff1;}.cls-93{fill:#c2c6c9;}.cls-94{fill:#cbcfd2;}.cls-95{fill:#dadcde;}.cls-96{fill:#d3d8da;}.cls-97{fill:#b4b9bd;}.cls-98{fill:#e1e4e6;}.cls-99{fill:#d3d6d7;}.cls-100{fill:#b1b9ba;}.cls-101{fill:#abb1b2;}.cls-102{fill:#b7bfbf;}.cls-103{fill:#d0d2d3;}.cls-104{fill:#f1f0ee;}.cls-105{fill:#dee5e9;}.cls-106{fill:#ecf0f2;}.cls-107{fill:#e6ebee;}.cls-108{fill:#bcc5c6;}.cls-109{fill:#bbc3c4;}.cls-110{fill:#d4d7d9;}.cls-111{fill:#e5e9eb;}.cls-112{fill:#d6dadc;}.cls-113{fill:#dde3e6;}.cls-114{fill:#abb2b3;}.cls-115{fill:#b0b9ba;}.cls-116{fill:#b6c0c0;}.cls-117{fill:#c0c6cb;}.cls-118{fill:#bac0c3;}.cls-119{fill:#f8f9f9;}.cls-120{fill:#b6bebf;}.cls-121{fill:#b2b8bc;}.cls-122{fill:#d7dce0;}.cls-123{fill:#f2f1f0;}.cls-124{fill:#cfd4d7;}.cls-125{fill:#f6f6f6;}.cls-126{fill:#e3e6e8;}.cls-127{fill:#d2d8da;}.cls-128{fill:#ccd1d5;}.cls-129{fill:#d5dce1;}.cls-130{fill:#cbcfd3;}.cls-131{fill:#c9ccce;}.cls-132{fill:#d7dadc;}.cls-133{fill:#c4cccd;}.cls-134{fill:#f1f3f5;}.cls-135{fill:#d3d6d8;}.cls-136{fill:#a9afb0;}.cls-137{fill:#a3a8a9;}.cls-138{fill:#e7e9e9;}.cls-139{fill:#ced0d3;}.cls-140{fill:#e1e7eb;}.cls-141{fill:#eae9e7;}.cls-142{fill:#e6e9e9;}.cls-143{fill:#d2d6d8;}.cls-144{fill:#e3e4e6;}.cls-145{fill:#d0d1d2;}.cls-146{fill:#bdc5c6;}</style></defs><title>reciclagem-full</title><g id="Layer_2" data-name="Layer 2"><g id="Layer_1-2" data-name="Layer 1"><path class="cls-1" d="M253.81,58.33c3.66,3.53,2.31,8,1.67,11.93-9.5,57.49-19.24,114.94-28.79,172.42-.68,4.11-.32,8.4-.44,12.6,2.27,3.52,3,7-.09,10.5l-1.7.28c-2.47-1.56-2.59-4.19-3.08-6.64-1.1-7.31-9-5.68-12.67-9.55-5.64-8,1.79-11.77,5.34-16.82a122.05,122.05,0,0,0,8.31-10.67c3-4.07,3-7.64-1.85-10.31A61.72,61.72,0,0,1,202,194.16c-5.78-8.23-5.17-9.52,5.09-11.5,1.36-.26,2.68-.66,4-.95,5.5-1.39,11.17-2.15,16.36-4.51,1-4.93-3.78-6-5.93-8.62-4-4.89-8.62-9.24-7.42-16.39a29.13,29.13,0,0,1,2-5.47c3.12-4.82,7.07-9,10.87-13.24,2.2-5.31,12.19-8.49,4.39-16.45-8.06-4.28-15.72-9-19-18.18-.9-5.42,2.91-8.95,5.36-13,3.32-5.42,6-10.88,3.68-17.46a5.55,5.55,0,0,1,2.89-3.53C234,62.32,242.76,55.11,253.81,58.33Z"/><path class="cls-2" d="M27.54,242.68q-4.29-30-8.56-60Q11.78,131.43,4.67,80.18C3,68.1,1.55,56,0,43.88c3.61-2.93,7-.49,10.52.32,6,3,12.45,4.85,18.94,6.52,2.43,1.06,4.56,2.47,5.6,5.06,1.28,6.29-3.72,9.3-6.94,13.24-5.29,6.46-8,13.2-2.32,20.87-.4,8.19-7.19,11-11.74,15.14-2.25-.12-.06,1.67-.12.26a8.57,8.57,0,0,1,1-.06c1,0,2.09,0,3.16,0,8.11-.43,10,4.43,10,11.3,0,5.88-2.85,11.59-1,17.54,6.85,4,14.39,1,21.5,2.17,2.68.39,5.35.8,6.73,3.58-1.76,5-6.29,3.05-9.73,3.95-3,.8-7.05-2.33-9.11,2.25,1.43,4-.2,7.17-2.63,10.13-5.4,10.19-2.65,21.66-4.59,32.27,2.1-.37,4.52-2.43,7.36-.83,4.58,3.25,3,7.84,3,12.32,0,9.2-4.46,18.29-.66,27.55a7.64,7.64,0,0,1,2.36,5.41c-1.23,3-2.13,6.13-4,8.84C34.19,243.26,31.08,245.21,27.54,242.68Z"/><path class="cls-3" d="M27.54,242.68,38,240.44c6.9-2.06,11.94,2.82,17.78,4.73,3.8,2.5,7.92,1.85,12.08,1.35,7.53-.9,14.34,2,21.25,4.27,5.95,3.09,12.8,3.85,18.66,7.17,4.35,1.67,2.06,7.91,6.57,9.46,3.34.12,6.67,0,9.93.78,7.48,3,11.31,1.1,10.55-7.55a15.45,15.45,0,0,1,1.24-8.18,4.6,4.6,0,0,1,4.2-2.37,3.91,3.91,0,0,1,2.82,2.07c2.51,6.85,2,13.85.68,20.76-.93,5-3,9.5-9.07,10.1-10.78-1.69-21.46-3.84-31.51-8.33-7.9-4.88-17.37-5.16-25.74-8.65-8.44-3-17.5-4.11-25.43-8.6-7.67-4.56-17.3-4.58-24.38-10.49C27.61,245.53,27.57,244.11,27.54,242.68Z"/><path class="cls-4" d="M186,29c22.06,7.18,43.07,17.35,65.58,23.25.86,5.09-3.59,5.72-6.45,6.56-5.55,1.63-10.66,5.05-16.75,4.68-2.09-12.67-12.72-7.26-19.83-9.31a29,29,0,0,1-5.3-2.15,68.81,68.81,0,0,0-6.51-2.58A15.43,15.43,0,0,1,192,46.58a10,10,0,0,1-1.44-2.33c-.58-3.74-3.45-5.93-5.81-8.49C183.88,33.26,183.92,30.94,186,29Z"/><path class="cls-5" d="M4.31,39.63C26,34.39,46.48,25.39,67.61,18.38c5.9-1.93,5.8,1,3,4.35C67,27,62.39,30.31,58.41,34.26c-2.7,2.32-6,3.37-9.23,4.75C43.66,42.62,35,41.26,32.54,49.74a3.59,3.59,0,0,1-2.39,1.52C22.93,50.7,16.38,48.05,10,44.91,6.76,44.58,3.52,44.26,4.31,39.63Z"/><path class="cls-6" d="M103.6,272.2l29.55,8.51c3.39,2.56,6.71-.06,10.07-.15a8.41,8.41,0,0,1,4.13,1.09c2.66,1.92.66,6.12,3.83,7.81a5.26,5.26,0,0,1,1.45,2.06c-5.47,3.52-11.76,2.74-17.12,1.25-12.27-3.4-24.17-8.15-36.22-12.35-2.76-1.55-4.44-3.77-2.87-6.88S100.85,270.79,103.6,272.2Z"/><path class="cls-7" d="M224,257.57l.45,8.49c-12.32,8.62-27.17,10.18-41,14.72-1.95.64-3.87,1.38-5.8,2.08-5.56-.7-4.07-4.59-3.64-8,9-9.33,21.81-10.51,33.07-14.87C212.35,258,217.76,253.79,224,257.57Z"/><path class="cls-8" d="M116.23,5.76c5.84,1.59,11.85,2.72,17,6.29,1.23,2.47.19,4.72-.64,7s-1.94,4.27-2.49,7c3.45-1.31,4.43-4.29,6.77-5.77,2.21-1,4,0,5.64,1.33a7.69,7.69,0,0,1,2.52,5.6c-.94,4.59-4.08,7.33-7.91,9.53a16.08,16.08,0,0,1-4.68,1.12c-4.21.13-8.45.57-12.47-1.22-4-2.9-.34-6.23-.55-9.35-.88-4.45-6-6-7-10.38C111.34,12.42,111.59,8.32,116.23,5.76Z"/><path class="cls-9" d="M57,33.22A37,37,0,0,1,68.84,21.86c3-1.87,1.5-3.12-1.23-3.48l12.63-6.31c1.8-2.63,4.38-4.86,4.32-8.45.38-2.68.78-5.32,4.22-2.22,2,2.15,2.35,4.71,1.82,7.48a55.39,55.39,0,0,1-2.42,7.49,24.68,24.68,0,0,1-7.52,9.9c-4.38,2.81-8.57,5.89-12.87,8.82-3.33,2.27-6.91,3.25-10.7.92A1.84,1.84,0,0,1,57,33.22Z"/><path class="cls-10" d="M103.6,272.2c-7.2-.28-7.13,3.25-4.31,8.22L75.94,272.8c-1.27-2.43-6.83-2.11-4.56-6.71,1.37-2.77,3.62-4.31,6.83-2.34C86.47,267.18,96.05,266.63,103.6,272.2Z"/><path class="cls-11" d="M27.64,247a73.62,73.62,0,0,1,25.19,8.32,9.46,9.46,0,0,1-4.22,8.2c-4-1.15-7.87-2.66-11.91-3.37C29,258.76,26.05,254.52,27.64,247Z"/><path class="cls-12" d="M48.61,263.48c.39-3.25,1.52-6.13,4.22-8.2l25.38,8.47c-8.64,1-5.21,5.1-2.27,9.05C66.63,270.27,57.27,267.9,48.61,263.48Z"/><path class="cls-13" d="M186,29l.09,8.4-1.46.46c-8.38-4.68-18.29-5.65-26.49-10.84a3,3,0,0,1,.51-3,51.91,51.91,0,0,1,16.82-5.69c3.78-.49,6.62.86,8.41,4.28C184.61,24.77,185.32,26.9,186,29Z"/><path class="cls-14" d="M88.75,10l0-8.55c8.69,4.32,18,4.81,27.45,4.36-2.49,3.92-2.14,8.31-2.08,12.65-6.28,2.23-6.84-7.1-10.09-6.2C98.14,13.83,93.49,13.2,88.75,10Z"/><path class="cls-15" d="M158.63,24.81c0,.68-.08,1.35-.14,2a4.63,4.63,0,0,1-2,1.58,31.81,31.81,0,0,1-3.72,1,24.11,24.11,0,0,1-3.82.91c-2.6.16-4.21-1.2-5.24-3.44l-2.12-4.23c-1.5-4.26,2.1-6,4.21-8.41l12.7,2.08C161.3,19.12,158.17,22,158.63,24.81Z"/><path class="cls-16" d="M158.63,24.81c-7.42-2.76,2.63-5.69-.08-8.5,7.29-.2,14.69,1,21.53-3.14,2.62-1.58,3.53.91,3.83,3.18-2.18,2.7-6.13,1.77-8.47,4.15C169.68,21.32,164.91,26,158.63,24.81Z"/><path class="cls-17" d="M175.48,274.33c.29,3-1,6.32,2.23,8.53-4.63,2.68-9.47,4.57-15,3.84-4.18-1.85-4.4-4.93-2.68-8.63C164.66,274.6,169.09,270.42,175.48,274.33Z"/><path class="cls-18" d="M160.69,278.63a12.52,12.52,0,0,0,2.05,8.07l-10.11,4.82-2.43-.42c-2.52-2.36-1.75-5.14-1-7.91C151.79,278.54,155.6,277,160.69,278.63Z"/><path class="cls-19" d="M228.33,62.81c8-3,17.43-2.79,23.27-10.54,2.46,1.4,2.06,3.83,2.21,6.06l-29.69,8.43a2.86,2.86,0,0,1-1-2.39A3.63,3.63,0,0,1,226,61.73,3.13,3.13,0,0,1,228.33,62.81Z"/><path class="cls-20" d="M145.85,14.23c.33,3.67-3,5.49-4.21,8.41l-4.23-2.11c-2.82,1.4-4.71,0-6.33-2.13.7-2.11,1.41-4.23,2.11-6.35C137.09,14.63,141.52,14.17,145.85,14.23Z"/><path class="cls-21" d="M4.31,39.63c1,2.9,3.26,4.11,6.18,4.34.63.42.85.85.64,1.28s-.41.65-.61.65L0,43.88C0,41,1.45,39.6,4.31,39.63Z"/><path class="cls-22" d="M175.44,20.5c1.69-3.71,4.8-4.5,8.47-4.15q0,3.15,0,6.3A14.32,14.32,0,0,0,175.44,20.5Z"/><path class="cls-23" d="M84.56,3.62c4.08,5.64-2.1,6-4.32,8.45C80.68,8.75,81.79,5.76,84.56,3.62Z"/><path class="cls-24" d="M211.46,183.4c-2.86,3.77-7.4.93-11.27,3,5.27,10,13.2,17.55,21.86,24.45-1.46,1.74-3.4,1.87-5.44,1.66-6.53-1.28-12.1-5.14-18.45-6.92-2.33-.76-3.79-2.65-5.56-4.16-5.14-3.09-7-9.43-12.2-12.4-6.14-3.65-13.17.87-19.38-2.09-3.84-1.88-7.34-4.72-9.19-8.21-3.21-6.06-3.56,2.54-5.58.67-2.22-5.88.37-17.89,4.76-20.25,5.88-3.16,10.85-.47,15.05,3.59,5.48,5.27,12.25,7.78,19.26,9.9,1.22.56,2.93,1.11,3.17,2.33,1.73,8.92,7.71,7.4,13.79,5.81C205.61,180.73,209,180.62,211.46,183.4Z"/><path class="cls-25" d="M160.69,278.63l-10.57,4.2q-1.08,1.47-2.13,0l-4.25-.05c-1.52-5.81-.72-10.72,5.25-13.63,1.57-1.32,3,2.78,4.24.4,3.41-6.28,9.8-6.52,15.53-8.21,10.71-.38,15.46-9.5,22.48-15.29,5.18-2.33,7.7,6.75,13.21,3,1.6-1.26,3.23-1.71,4.89-.14,5.22,2.32,12.74.74,14.67,8.64-16.62,4.31-32.52,10.7-48.53,16.76C169.9,273.54,165.89,278.13,160.69,278.63Z"/><path class="cls-26" d="M221.88,69.1c5.65.85,3.58,4.13,2.91,7.7-1.61,8.52-9.36,13.73-11.24,22-5.5,4.19-10.5,2.39-15.36-1.27-4-5.76-4.94-12.13-3.69-18.93,1.9-5.72,7.49-6.37,11.89-8.67a33.61,33.61,0,0,1,6.33-1.62C215.85,67.66,219,66.45,221.88,69.1Z"/><path class="cls-27" d="M215.68,151.67c-.18,10.73,8.48,15.62,14.85,21.82,2.62,2.56,4.14,3.77-.06,5.66-10.18-1.91-19.93-5.43-30-7.84-4.58-2.43-9.78-1.92-14.64-3.09a6.16,6.16,0,0,1-2.45-1.8,4.75,4.75,0,0,1,.15-3c6.76-8.22,16.91-10.66,25.89-15.13C212.32,147.93,214.62,148.67,215.68,151.67Z"/><path class="cls-28" d="M209.34,248.93c-1.74.07-3.34.44-4.26,2.15-7.2-1.93-6.07-8.25-7.1-13.44,1.22-11-2.33-22.14.77-33.11,6.69-.69,11.4,3.91,16.93,6.34a77.25,77.25,0,0,1,0,23.27C213.72,239.14,205.88,241.62,209.34,248.93Z"/><path class="cls-29" d="M200.87,168.58c9.73,3.9,21.09,3.24,29.6,10.57-6.11,2.42-12.35,4.31-19,4.25l-10.58,0C197.28,178.44,196.94,173.51,200.87,168.58Z"/><path class="cls-30" d="M215.68,151.67l-6.29-2.16a5,5,0,0,1-1.47-4.15,20.92,20.92,0,0,0-.62-11.83,55.79,55.79,0,0,1-.89-9.65c.62-5.55-2.71-11.16.22-16.68,6.59-2,11.26.12,13.88,6.57-3.74,11-.73,22.52-2.74,33.65C217.75,149.17,217.36,150.74,215.68,151.67Z"/><path class="cls-31" d="M215.66,234.14a27.6,27.6,0,0,1,0-23.27l6.37,0c7.33,1.2,7.41,5.64,4.07,10.54C223,225.9,220.4,230.92,215.66,234.14Z"/><path class="cls-31" d="M232.62,115.65c5.89.75,7.19,3.93,4,8.61-2.49,3.66-4,8.21-8.27,10.48-10.18-.89-12.4-9.38-5.28-20.16C226.42,113.45,229.55,114.3,232.62,115.65Z"/><path class="cls-32" d="M224.13,115.7c-2.2,7.15-6.69,14.81,4.23,19l-10.59,12.68c-4.06-10.47-1.89-21.21-1.24-31.86.05-.73,2.2-1.32,3.37-2C222.34,112.24,224.29,111.86,224.13,115.7Z"/><path class="cls-33" d="M224.13,115.7c-.91-1.7-2.49-2.07-4.23-2.11l-12.69-6.35a2.87,2.87,0,0,1-3,.59c-4.09-2.61-9.41-4.62-5.44-11.16,4.86,1.22,9.67,2.78,14.79,2.11,4.92,7.25,11.82,12.26,19.07,16.87Z"/><path class="cls-34" d="M221.88,69.1l-8.19,2c.66-7.07,2-7.85,10.46-6.08l0,1.7Z"/><path class="cls-35" d="M54.83,141.35c-1.31-2.8-3.9-2.28-6.24-2.42-5-5.59-10.21-8.91-17.52-3.41a8.8,8.8,0,0,1-7.86,1.33c-1.09-6.78,1.41-13.18,2.22-19.75.86-7-1.29-10.41-8.57-9.86C18,96.48,27.78,92.13,33.55,84.79,41.32,82.61,46.35,74.3,55.41,75c6.92,9.31,6.38,10-8.85,13.18,9.32,1.5,21.14,6.59,27.52-7.81C84.82,76.47,84.93,76.56,88.61,92c1.12,1.84,2.64,3.44,3.28,5.55.29,3.44-1.8,4.83-4.72,5.52-18.26-4-35.93,2.12-53.89,3.26a7.46,7.46,0,0,1-3.08-.12c-.14,0,.38.55.61.71a59.87,59.87,0,0,1,10.5,10.24c2.06,3.71,6.53,4.88,8.85,8.33,2.07,6.06,9.12,7.75,11.73,13.35.11,3.06-2,4.18-4.42,5C55.78,143.87,54.68,143.28,54.83,141.35Z"/><path class="cls-36" d="M38,229.91c-6.87-1.77-4.71-7.38-3.53-11,2.64-8.05,0-16.59,3.19-24.54.71-1.74-1.12-4.5-1.78-6.79l.87-1.25a7,7,0,0,1,4.1-1.82,5.72,5.72,0,0,1,2.78,1c1.09.83,2,1.9,3.12,2.71,11.74,8.58,14.45,7.48,16.43-6.63a8.52,8.52,0,0,1,2-4.71c6.73-.28,2.9,5.25,4.28,8-.47,1.14,1.52-.5.13-.29,2.58-8.81,7.34-6.78,12.56-2.55.87,5.85-6.71,11.21-1,17.34-.78,2.49.15,3.87,2.77,4.16,4.63,2.37,7.16,6.29,8.31,11.22a6,6,0,0,1-.89,2.81c-1.94,1.71-4.37,2.35-6.72,3.18a19.05,19.05,0,0,1-4.37.82c-5.12.38-9.6-.94-12.56-5.4-3.9-5.88-7.78-4-11.75-.2C49,219.54,45.35,227.1,38,229.91Z"/><path class="cls-37" d="M54.92,215.1c4.73-8.79,9.84-9.12,14.61-.24,2.56,4.75,6.56,4.52,10.78,4.48-1.92,10.38-6,19.58-14.84,25.91-3,2.17-6.65,3.85-10.6,1.62L38,240.44c-1.7-2.9-1.24-5.09,2.11-6.3C47.84,230,52.42,223.34,54.92,215.1Z"/><path class="cls-38" d="M54.93,75.52c-7.61,2.4-12.3,10.63-21.14,10.57-3.05,1-4.32,5.48-8.47,4.24C17.84,84.92,17.68,77,24.69,68.7c3.29-3.87,8.65-6.25,9.1-12.24,10.11-5.37,17.66,3.08,26.44,4.85A3.91,3.91,0,0,1,62,63.72C59.86,67.78,55.52,70.53,54.93,75.52Z"/><path class="cls-39" d="M42.2,185.55a9.52,9.52,0,0,0-1.71-.8c-8-2.63-7.12-10.39-9.52-16.28.21-4.87-1.91-9.93,1.12-14.59,3-2.34,4.26-5,1.62-8.44,3.47-6.92,8.7-3,12.89-1.56,3.88,1.31,7.07,4.41,10.61,6.66a22,22,0,0,1,5.62,16c-1.39,4.47-7.77,2.66-9.09,7.24C49.67,177.5,48.12,183.68,42.2,185.55Z"/><path class="cls-40" d="M54.92,215.1c1.94,11.69-3.32,17.78-14.8,19,0-1.74-.41-3.32-2.11-4.23C42.93,224.16,46.93,217.35,54.92,215.1Z"/><path class="cls-41" d="M23.21,136.85c2.8-1.4,5.6-2.82,8.41-4.21,11.92-5.95,11.92-5.94,17,6.29C40.15,137.92,31.36,141.25,23.21,136.85Z"/><path class="cls-42" d="M61.33,62.91c-9.87.79-17.58-7.63-27.54-6.45l-4.26-4.2c.16-1.26,1.45-1.38,2.14-2.09l0-.06c3.7-5.29,6.7-1,9.91.68,5.76,5.81,12.73-.45,18.85,1.88C62.76,55.9,64.29,59.21,61.33,62.91Z"/><path class="cls-43" d="M32.09,153.88c-2,5.18.37,9.89,1.59,14.73-2.65,6.73.06,12.83,2.21,19h0L26.1,192.8C29.37,179.56,24.38,165.84,32.09,153.88Z"/><path class="cls-39" d="M57.26,151.66c-4.75.68-7.73-2.13-10.75-5.16-3.87-3.88-8.17-5.13-12.8-1.06-1.9-1.65-6-3.92.4-4.29,6.88-.41,13.81.09,20.72.2l1.86,2.59C59.43,146.32,59.27,148.92,57.26,151.66Z"/><path class="cls-44" d="M25.32,90.33c2.93-1.2,4.78-4.55,8.47-4.24C29.06,93.88,20,98.17,16.86,107.24c-1.46-1-7.91,2.11-3.44-3.76C17,98.79,21.32,94.69,25.32,90.33Z"/><path class="cls-45" d="M31.67,50.17l-2.14,2.09c-7,0-13.59-1.51-19-6.36l0-1.93C17.5,46.2,24.15,49.69,31.67,50.17Z"/><path class="cls-46" d="M54.87,246.87c9.38-1.6,15.27-7.1,18.73-15.89,1.62-4.12,4.43-7.77,6.71-11.64h4.25c8,.47,8.16,6.81,9.4,12.37-3.74,6.66-1.39,14.81-5.19,21.46-8.83-2.1-17.3-6.63-26.91-2.91C59.39,251.21,56.67,249.15,54.87,246.87Z"/><path class="cls-24" d="M150.1,270.09c-5.89,2.33-3.2,9-6.36,12.66-3.59-.36-7.59,1.38-10.59-2,7.85.35,7.69-6,8.26-10.81.75-6.19.22-12.54.24-18.83.44-2.14,1.93-3.56,3.4-5,7.1-11.85,10.29-12.52,22.13-4.64a5.37,5.37,0,0,1,.73,3C161.93,252.91,155.23,261,150.1,270.09Z"/><path class="cls-47" d="M145.82,248.93l-4.17,2.14-2.14,0c-.79-7-6.73-2-9.64-4.09a13.94,13.94,0,0,1-5.14-9.88c-.07-2.55.27-5.58,2.48-6.59,10.63-4.89,9.55-14.23,9.5-23.31,0-3.49-.22-7,1.57-10.27a2.92,2.92,0,0,1,2.74-1.45c7.46,5.38,11,12.5,9.75,21.8a29.06,29.06,0,0,1-.8,8,8.55,8.55,0,0,1-2.56,3.85c-3.12,2.25-7.09,4.09-2.1,8.57C149.07,241,148.41,245.05,145.82,248.93Z"/><path class="cls-48" d="M88.77,253.16c.21-7.28-3-15.23,4.2-21.12,6.42,3.33,9,10.14,13.52,15.13a50.33,50.33,0,0,0,9.67,7.62c1.24,1.44,3.53,2.94,1.59,4.92-3.15,3.23-6.67,1.83-10-.13C101.33,257.74,94.56,256.89,88.77,253.16Z"/><path class="cls-49" d="M107.77,259.58c2.86-.54,6,1,8.55-1.18.08-.08-1.42-2-2.18-3.07a9.65,9.65,0,0,1-2.58-6,22.29,22.29,0,0,1,1-9.49c2.87-3.88,7-3.16,11-2.93a3.67,3.67,0,0,1,2,1.85c2,5.78-4.38,9.91-3.07,15.55a14.76,14.76,0,0,1,1,4c-1.51,6.14-6.6,8.81-11.41,11.77C106.18,268.38,112.1,261.9,107.77,259.58Z"/><path class="cls-50" d="M137.4,253.16c0,3.15,0,6.31,0,9.46,0,12.72,0,12.72-12.69,7.48-1-5.74.74-10.86,3.57-15.75C131,251.69,134,250.44,137.4,253.16Z"/><path class="cls-51" d="M129,255.3c-.44,5.22-1.38,10.28-4.24,14.8H112q5.3-6.34,10.58-12.68C124.22,255.18,126.19,254.05,129,255.3Z"/><path class="cls-52" d="M129,255.3l-6.35,2.11-2.12-2.11c1.71-5.1,5.17-8,10.58-8.47,4.88-2.73,9.69-5.32,8.44,4.22l-2.11,2.11A14.42,14.42,0,0,0,129,255.3Z"/><path class="cls-53" d="M192.37,43.81c0,.66.07,1.31.11,2,1,4,3.08,8.39-3,10.42-6.86-.61-14.38.64-18.85-6.69-.24-2.49,1.42-3.84,3.1-5.18,3.92-1.95,7.23-5.3,12-5.41A26.33,26.33,0,0,1,192.37,43.81Z"/><path class="cls-54" d="M228.33,62.81c-.69,0-1.39,0-2.08,0-1.57-1.38-3.7-.29-5.39-1.17-4.47-2.72-10.64-1.94-14.07-6.82a2.79,2.79,0,0,1,.62-2.69c3.52,0,7.27.88,10.49-.08C228.75,48.87,229.16,55.07,228.33,62.81Z"/><path class="cls-55" d="M207.41,52.17c0,.65-.09,1.29-.12,1.94,1.24,3.47,4.56,6,4.59,10-3.09,4-6.88,3.48-10.88,1.68A7.1,7.1,0,0,1,199,62.9c-1.06-4.27-1.3-8.48,1-12.47a2.09,2.09,0,0,1,3.16-.37Z"/><path class="cls-56" d="M200.86,62.83c0,.67,0,1.33.07,2a6.69,6.69,0,0,1-4,2.61c-3.66.89-6.57,0-8.3-3.57-1.13-3.45-.91-6.67,1.66-9.47,4.1-2-2.12-6.63,2.16-8.61L196.67,48c1,3.93-.3,8.15,1.52,12A27.73,27.73,0,0,0,200.86,62.83Z"/><path class="cls-57" d="M196.63,62.83c-3.32-4.95-3.35-9.9,0-14.83,2.34.08,4.8-.18,6.45,2.06l-2.21.12C196.88,53.51,200.52,59.44,196.63,62.83Z"/><path class="cls-14" d="M192.37,43.81c-3.06,0-6.13,0-6.33-4.25q-.93-.7-.63-1.41c.21-.47.41-.71.62-.71l.08,0C192.65,35.19,191.18,40.8,192.37,43.81Z"/><path class="cls-58" d="M57,33.22c0,.7.05,1.4.06,2.11,7,.71,14,3.39,20.84-.43,2.15-.62,3.78.37,5.32,1.68,3.89,6.34,11.12,7,17,10a5,5,0,0,1,2.31,3.81,4.56,4.56,0,0,1-1.31,2.76c-2.25,1.49-4.81,1.65-7.38,1.76-6.43.1-13.27,2.18-18.55-3.62-6.5-2.34-12.51-6.16-19.69-6.39a5.79,5.79,0,0,1-3.76-1.56c-1.53-1.71-3-3.47-3.27-5.88Z"/><path class="cls-59" d="M48.57,37.43a7.15,7.15,0,0,1,4.21,4.28c-3,4.94-3.71,12.7-12.65,10.54-2.71-1.18-4.81-4.79-8.49-2.14-2.27-5.34,1-7.4,5.25-8.86C40.76,39.91,44.68,38.7,48.57,37.43Z"/><path class="cls-60" d="M148,282.8l2.13,0c0,2.75,0,5.51.07,8.27C142.94,290.06,147,286,148,282.8Z"/><path class="cls-61" d="M88.75,10c9.4,0,18.91-.29,25.4,8.46,3,2.61,7.83,3.46,8.46,8.47a9.15,9.15,0,0,1-8,2.11c-9.24-4.42-20-5.6-28-12.72C86.71,14,86.33,11.47,88.75,10Z"/><path class="cls-62" d="M133.18,35.34h4.22a4.76,4.76,0,0,1,3.43,2.45,39.53,39.53,0,0,1,2.53,7,10.22,10.22,0,0,1-.44,6.23,6.67,6.67,0,0,1-3.76,3.12c-5.92,1.16-11.41.88-15.25-4.7C122.68,41.92,127.74,38.5,133.18,35.34Z"/><path class="cls-63" d="M133.18,35.34,124.72,48c-2.91,2.55-5.78.8-8.67,0a9,9,0,0,1-2.54-1.76,6.88,6.88,0,0,1-1-4.46,8.94,8.94,0,0,1,4.26-6.19l1.47-.45Z"/><path class="cls-64" d="M131.08,18.4l6.33,2.13c-1.22,5.63-5.57,11.8-9.94,9.46S129.39,22.37,131.08,18.4Z"/><path class="cls-65" d="M114.22,26.93l8.39-.05c.55,3.82-3,5.47-4.39,8.26h0a2.89,2.89,0,0,1-2.6,1.08c-3-.36-6.09-.59-8.48-2.84a4.68,4.68,0,0,1,0-4.42C109,26.47,112.05,28.25,114.22,26.93Z"/><path class="cls-66" d="M139.48,37.47c-.69-.71-1.38-1.42-2.08-2.12l6.36-8.48L150.09,29C149.92,36,144.64,36.66,139.48,37.47Z"/><path class="cls-67" d="M114.22,26.93c-1.62,2.29-4.12,1.87-6.42,2.07a10.31,10.31,0,0,1-6.27,2.67c-3.94.24-7.89.09-11.83.15-3.83-.21-7.69,1-11.5-.27-2.32-3.17-.4-5.06,2-6.8l6.36-8.48A93.08,93.08,0,0,1,114.22,26.93Z"/><path class="cls-68" d="M80.24,24.75l-2.07,6.34a2.74,2.74,0,0,1,.11,4.15c-.43,2.81.43,7.38-4.78,5s-11.54-1.42-16.43-5C67.25,37.17,71.41,25.84,80.24,24.75Z"/><path class="cls-69" d="M186,37.44c0,.71,0,1.41,0,2.12l-10.56,6.35C171,42.5,167.73,37.6,162.7,34.78c-2.26-1.71-4.71-3.16-6.62-5.3a2.11,2.11,0,0,1,.33-2.55c.69-.06,1.39-.09,2.09-.09C168.43,28.4,178.24,30.3,186,37.44Z"/><path class="cls-58" d="M139.48,37.47c2.68-3.9,8.76-3.54,10.61-8.48l2.34-1.89c3.55,4.71,1.06,9.35-.16,14-2.45,5.21-6.31,4.88-10.64,2.7C139.2,42.28,139.63,39.77,139.48,37.47Z"/><path class="cls-70" d="M150.16,41.63q1.14-7.27,2.27-14.54l4-.16q.06,1,.06,2c3.74,4.9,3.36,10.2,1.51,15.64C153.46,48.72,152,44.64,150.16,41.63Z"/><path class="cls-61" d="M196.66,65l4.27-.14c3.62-.29,7.59,1.36,10.69-1.89,2.94-3.29,6.39-4.18,10.44-2.21,1.74,0,3.3.41,4.19,2.12l-2.1,2.21c-3.9,1.33-9.17.28-10.46,6.08l-6.26.16c-3.93-.13-7.73,6.62-11.77.22C196.66,69.45,195.92,67.1,196.66,65Z"/><path class="cls-71" d="M198.75,204.53c3.68,11.1,1.55,22.55,2.1,33.84-8.54-2.17-1.78-10.7-6.28-14.82-5.7,1.73-6.73,8.78-12,11a4,4,0,0,1-4.1-1.23,20.08,20.08,0,0,1-3.12-5.2c-6.89-12.36-6.9-12.38,5.4-19.86,3-1.81,5.33-4.38,8.13-6.39a9.43,9.43,0,0,1,5.67-1.57Z"/><path class="cls-72" d="M160.68,185.5c6.87,2.43,14.74-5,21.15,2.11-1.4,5-4.21,9.23-6.9,13.55-5.42.73-9.61,3.71-13.6,7.22-3.14,2.77-6.42,5.69-11.15,3.18-1.19-1.72-.43-3.26.61-4.62,6.78-8.91,6.8-8.9-2.5-13.64a8.72,8.72,0,0,1-2-2.35c-.95-3.78-4.47-7.94,1.58-10.67C152.87,180.28,156.48,183.61,160.68,185.5Z"/><path class="cls-73" d="M148,181.25c-3.82,3.53,1.46,7.07,0,10.59a3.65,3.65,0,0,1-5-.16c-3.5-6.65-3.07-13.9-1-20.48,1.76-5.7,2.87-11.46,4.21-17.2,1.95-4,5-2.39,8-1.66a77.06,77.06,0,0,1,29.7,14.12h0c3.47,2.13,5,4.74,2.11,8.45-7.8-.76-15-2.93-20.52-8.9-3.67-4-9.8-9.15-12.86-4.76s-9.83,10.36-4.7,17.9a1.31,1.31,0,0,1,.49,1.39C148.32,181,148.17,181.25,148,181.25Z"/><path class="cls-74" d="M186.06,174.92a14.28,14.28,0,0,0-2.11-8.45c5.69.32,11.6-1.16,16.92,2.11q0,7.39,0,14.78c-1.63.48-3.43.67-4.87,1.49-5.22,3-8.43,2.79-7.87-4.44C188.3,178.33,188,176.27,186.06,174.92Z"/><path class="cls-75" d="M175.48,200.3c-2.17-6.37,2.61-9.27,6.35-12.69,6.77,1.7,7,10,12.69,12.7-.91,1.7-2.49,2.07-4.23,2.11C184.88,205,180,203.79,175.48,200.3Z"/><path class="cls-76" d="M148,181.25l0-2.09c1-1.43-2.1-7.79,3.65-3.49,3.51,2.62,6.06,6.51,9.05,9.83C155.67,186.44,151.76,184.08,148,181.25Z"/><path class="cls-77" d="M181.82,234.16a5.16,5.16,0,0,1,.47-.94c4.26-5.43,7.59-15.38,13.87-14.23,6.08,1.11,1,11.09,2.93,16.84a11.14,11.14,0,0,0,1.76,2.54c.21,4.63,1.15,9,4.23,12.71-.22,4.15-2.64,3.11-4.71,1.76-2.78-1.81-5.33-4-8-6-3-1.58-5.5,5.36-8.69.62C180.94,243.37,178.21,239.19,181.82,234.16Z"/><path class="cls-78" d="M181.82,234.16c.32,6.89,1.12,13.39,10.56,12.69-3.9,2.5-.56,5.65-.71,9-2.53.83-7.26-8.11-8.38,2.16-.68,6.25-9,4.6-14.15,5.79-3.77-6-4.69-12.32-2.12-19,0-.7,0-1.41,0-2.11,2.62-5.45,5.45-10.64,12.68-10.56Z"/><path class="cls-76" d="M167,244.72c2.11,6.19,2.44,12.57,2.12,19-5.41,2.12-12.18,1.39-15.32,8.28-.74,1.61-2.21-1.66-3.72-1.94C151.47,258.78,158.39,251.18,167,244.72Z"/><path class="cls-75" d="M198.76,96.67c-1.47,5.67,4.81,6.7,6.33,10.57-10.18,1.06-20.63.71-29.42,7.66-2,1.56-5.44.79-8.19-.07-5.26-3.44-8.26-9-12.46-13.4-2.29-8.3,3.35-6.26,7.67-5.81,5.42.56,11.17,4.44,16.73-1.53-7.23-4-15.27,3.57-21.23-3.15a4.14,4.14,0,0,1,0-3c1.86-2,4.43-2.73,6.77-3.87,9.56-2.87,18.78-7,28.85-8.12a5.32,5.32,0,0,1,2.8,1.51C195.66,84.06,198.21,90.26,198.76,96.67Z"/><path class="cls-79" d="M196.58,77.48l-2.15-.11c-3.56-1.48-2.55-5.46-4.32-7.94,2.1-1.94,4.24-2,6.41-.15,2.32,7.79,7.59-.36,10.91,2C205,75.36,199.56,74.3,196.58,77.48Z"/><path class="cls-80" d="M209.32,124.17v10.56a12.48,12.48,0,0,1,0,10.6l.06,4.18-25.45,14.84c-5.19,2.68-5.94-1.56-6.63-4.7-1.54-7-2.88-14.09-1.31-21.3,5.49-5.72,11-11.49,20.09-9.93C201.22,129.3,203.93,122.55,209.32,124.17Z"/><path class="cls-81" d="M177.6,136.85c.71,7.18,1.52,14.35,2.07,21.54.23,3,.51,5.64,4.27,6,0,.7,0,1.41,0,2.11-.64.25-1.57.91-1.89.69-10.43-7.2-22.95-9.8-34-15.49l-.59-1.29a9,9,0,0,1,1-4.09c1.71-3.38,4.53-5.87,7-8.66,3.89-5.19,8.29-10,12.19-15.15,1.3-2.21,1.67-4.94,3.76-6.71C180.62,119.52,182.48,125.76,177.6,136.85Z"/><path class="cls-82" d="M177.6,136.85c0-15.65,0-15.65-6.35-19-3.49.66-4.74-.9-4.22-4.24,6-.72,11.29-1.53,16.45-6.15,6.11-5.47,14.32-1.83,21.61-.19h2.12c.1,5.72,3.19,11.06,2.11,16.93-5.67,3.41-9.59,10.38-18.69,6.1C188.18,129.12,183.2,136.63,177.6,136.85Z"/><path class="cls-81" d="M209.33,145.33v-10.6Q214,140,209.33,145.33Z"/><path class="cls-43" d="M57.26,151.66l-.57-7.72,4.56-4.65c7.51.76,10-6.73,15.45-9.39,9,5.81,6.27,15.12,7,23.41-2.55,8.88-9,14.21-16.69,18.54-2.47.33-5.2,1.15-5.5-2.79C62.28,162.72,57.9,157.65,57.26,151.66Z"/><path class="cls-83" d="M76.3,131.11c-1.11,1.68-2.61,3.22-3.25,5.06-2.46,7-6.63,6.79-11.8,3.12-3.52-4.9-11.43-5.48-12.53-12.76,1-2.8.88-6,3-8.35,3-4.86,7.08-7.6,13-6.78a13.5,13.5,0,0,1,3.13.76,13.7,13.7,0,0,1,5.35,3.66C75.84,120.6,79.29,125.21,76.3,131.11Z"/><path class="cls-84" d="M54.93,75.52C50.5,68,55.14,66,61.32,64.91c1.42-2.44,3.24-4,6.3-2.92a14.11,14.11,0,0,1,5.8,6.82c1,4.32-.61,8.75.55,13.06-5.89,13.8-6.54,14.31-19.92,9.88-3.92-1.3-8-1-12.48-2,2.91-3.47,6.33-5.4,9.53-5.38C60.38,84.47,57.38,80.06,54.93,75.52Z"/><path class="cls-85" d="M71.79,116.45l-4.7-2.54c4.72-7,13.21-8.42,19.56-13q4.13-.11,4.23-4.23c3.69-.61,5,2.32,6.75,4.55,3.49,7.86,3.35,15.87,1,24C88.05,127.26,80,121.78,71.79,116.45Z"/><path class="cls-86" d="M86.65,100.9c-4.44,7.46-12.35,9.7-19.56,13l-.86.07-.74-.45c-10.8-2.84-21.53-6-32.68-7.21-.39-.39-.77-.79-1.15-1.19,7.29-2,14.38-5.47,22.27-2.4,1.16.44,3.25.33,4-.43C67.19,93.47,77,99.92,86.65,100.9Z"/><path class="cls-87" d="M74,81.87c-9-2.85.19-8.74-2.12-12.7a6.19,6.19,0,0,1,4.29-1.92A8.79,8.79,0,0,1,82,69.59c5.29,4.46,11.93,7.2,16.29,12.87,2.3,3,5.6,5.51,3.85,10C97.48,97.05,91.29,90,86.65,94.55a5.38,5.38,0,0,1-2.06-5.42C85.94,79.45,81,79.25,74,81.87Z"/><path class="cls-88" d="M86.65,94.55c.33-2.93-.6-7.23,4.88-4.86,3.2,1.38,6.25,3.16,9.93,2.75,4.47-.88,5.31,3.6,8,5.38,1.83,3.59,8.76,4.29,6,10.51-8.83,3.13-14.24-3.07-20.34-7.43l-4.25-4.23C89.15,96.62,87.56,96.26,86.65,94.55Z"/><path class="cls-40" d="M40.12,117.82c-3.55-3.25-7.36-6.27-10.58-9.84-2-2.19.4-2.61,2.12-2.85h0C37.88,108,48,104.43,49,115.69,46.51,118.26,43.63,119.34,40.12,117.82Z"/><path class="cls-41" d="M40.12,117.82a14.39,14.39,0,0,1,8.48-2.13c4.17-1.45,6.08-.61,4.17,4.11l-4.05,6.73C46.35,123.14,39.61,124.06,40.12,117.82Z"/><path class="cls-46" d="M61.5,169.06c1.61,2.16,4,1.5,6.12,1.63,10.62.73,20.73-2.8,31.14-3.74,8.46-.67,11.4-4.66,7.64-12.7-1.44-4,1.23-8.31-.78-12.32-1-4.21,1.12-6.53,4.75-8,10.28,2.24,16.78,10.22,23.34,17.14,6,6.34-3.24,6-5.77,8.63a16.18,16.18,0,0,0-1.69,2.1c-1.54,3-1,6.4-1.84,9.51-1,2.87-2.1,5.69-5.56,6.44a10.17,10.17,0,0,1-2-.37c-13.74-3.88-15.35-2.76-15.08,10.55-2.68,2-6.21,2-7.54-.49-2.91-5.4-7.74-3.11-11.74-4.08-4.77-.91-10.29-6.48-13.14,2.83-3.18-2.77-.06-7.46-4-9.1-5.18,1.39-9.33-.35-12.76-4.24C53,165.6,56.33,165.22,61.5,169.06Z"/><path class="cls-39" d="M82.45,183.39l10-5.24c.44,5.66,1.66,10.71,8.8,9.19,6.61.69,12.64,3.35,18.81,5.55a4,4,0,0,1,1.4,2.6c-1.32,6.12-5.43,10.73-8.57,15.87a10.83,10.83,0,0,1-5.36,2.68c-5.62-.82-11.21-1.08-16.62,1.15l-8.27-11c-2.12-.44-3.22-1.61-2.77-3.88C73.32,193.54,74,187.86,82.45,183.39Z"/><path class="cls-83" d="M52.53,172.88l12.76,4.24c.14,1.74.62,3.54.35,5.22C64.78,187.5,68.26,197,63.47,197c-7.64.06-17.93-.86-21.27-11.46C45.59,181.28,47.31,175.65,52.53,172.88Z"/><path class="cls-50" d="M90.86,215.19c4.28-10.37,11-3.49,16.92-2.42-1.29,8.49,2.67,15.15,7.48,21.53a4,4,0,0,1-1.09,4.06l0,10.58a4,4,0,0,1-6.34-1c-6.27-9.92-14.71-18.68-17-30.8C90.79,216.49,90.81,215.84,90.86,215.19Z"/><path class="cls-89" d="M90.79,217.15c5.64,8.7,11.57,17.23,16.74,26.2,1.72,3,2.91,5.46,6.61,5.59v6.39C103,251.3,99.08,240.66,93,232c-2.7-4.31-3.31-10-8.41-12.71C86,216.86,88.52,217.32,90.79,217.15Z"/><path class="cls-2" d="M35.89,187.61c-10.26-5.22-6-12.14-2.21-19,2.83,5.14,2.43,11.65,6.81,16.14C39.65,186.82,38,187.53,35.89,187.61Z"/><path class="cls-90" d="M79.82,200.34c.92,1.29,1.85,2.58,2.77,3.88-1.82,2.8-3.81,2.29-5.28-.11C75.72,201.52,77.74,200.78,79.82,200.34Z"/><path class="cls-91" d="M67.56,62.79l-6.24,2.12c0-.66,0-1.33,0-2q-1.12-5.29-2.24-10.6c-3.34-1.87-5.65-4.25-4.17-8.49,8.73-3.5,14.5,2.89,21.16,6.32,1.48,4.56-2.76,6.21-4.59,9.09C70.32,60.57,69.26,62,67.56,62.79Z"/><path class="cls-92" d="M54.92,43.82l4.17,8.49c-6.34,5-12.66,6.33-19-.06,7-.1,6.8-9,12.65-10.54Z"/><path class="cls-73" d="M179.71,232.05,167,242.61c-9.76-6.93-16.44-3.51-21.21,6.32-1.08-3.57,2.44-7.81-4.52-10.67-4.29-1.76-2.55-9.13,4.56-10.48,3,.21,3,.21,3.25-4.79,3.88-6.83,13.81-7.8,22.11-2.12a23.73,23.73,0,0,1,6.38,6.93C178.3,229.22,179,230.63,179.71,232.05Z"/><path class="cls-93" d="M177.6,227.8c-5.48-6.16-13.27-6.74-20.58-8.29-4.71-1-7.33,1.09-6.92,6.19-.71,1-1.41,1-2.1,0,0-2.82,0-5.64,0-8.47,2.07-1.66.12-4.65,2.11-6.34,4.83.71,7.59-2.5,10.75-5.33,4.08-3.67,8.29-7.61,14.63-5.25,5.13-.66,10,.91,14.81,2.12-2.45,4.31-5.8,8-10.54,9.31-8.74,2.34-10,5.93-3.31,12.23C177.28,224.76,177.23,226.5,177.6,227.8Z"/><path class="cls-94" d="M143.77,191.83H148c.15,4.81-3.31,4.2-6.34,4.23h-2.1a7.52,7.52,0,0,1-2.45-4.49c-.42-4-.62-8.09-2-12-1.09-6.28.1-12,2.22-18.16,3.55-10.23.18-21.3,2-31.88,2.61-9.2,1.73-18.48.62-27.77a9.08,9.08,0,0,1,.79-3.55c7.67-5.88,8.17-5.61,10.15,5.46,0,7.78.43,15.58-.65,23.33-1.63,4.4-1.46,9.06-1.9,13.63a18.62,18.62,0,0,1-.65,3.39C147.6,160.08,139.62,175.45,143.77,191.83Z"/><path class="cls-95" d="M139.51,191.86l0,4.21c0,6.68,0,13.35,0,20s1.33,13.73-8.9,14.54c-3.74.29-3.82,4.48-3.81,7.73-.7,1-1.4,1-2.1,0v0c-4.86-7.6-3.4-15.18,0-22.75,9.57-5,9.58-14.74,11.81-23.41A2,2,0,0,1,139.51,191.86Z"/><path class="cls-75" d="M141.64,196.08l6.34-4.23a5.67,5.67,0,0,1,2,.31c3.94,2.27,11.07,1,11.57,6.55.39,4.24-5.15,6.65-8.94,9-1.08.67-1.7,2.08-2.53,3.15-.07,2.33.38,4.82-2.11,6.34-.71-5.45,2.88-12.49-5.79-15.15C141.47,201.84,141.8,198.16,141.64,196.08Z"/><path class="cls-96" d="M124.73,238.38h2.1l4.24,8.46-10.58,8.47C116.69,248.35,125.31,244.52,124.73,238.38Z"/><path class="cls-97" d="M148,225.69h2.1a20.89,20.89,0,0,1-1,4c-.71,1.5-1.58,4.14-3.32,3.37-2.9-1.29-.16-3.49.13-5.3Z"/><path class="cls-98" d="M126.85,215.11c-2.84,7.56-2.06,15.44-2.13,23.25-3.52-.67-7,2.36-10.55,0,0-1.41,0-2.81,0-4.22-4.55-7.43-3.06-15.6-2.91-23.61L120.3,196c3.66-4.6,7.1-9.52,14-9.17C138,197.9,133.6,206.82,126.85,215.11Z"/><path class="cls-99" d="M190.32,54.39q0,5.28,0,10.56c-11.27-1-22.29-2.6-28.47-14,.85-2.3,2.76-3.31,4.91-4a4.7,4.7,0,0,1,4.52,1.22C176.16,54.62,183.94,52.37,190.32,54.39Z"/><path class="cls-100" d="M171.27,48.11l-4.21-.06c-8-1.77-8.88-4.78-4.25-15,6.5,2,10.94,6.08,12.67,12.82Z"/><path class="cls-101" d="M222.06,60.73l-10.44,2.21c-5.82-.8-4.1-5.29-4.33-8.83C211.7,57.46,218.47,55.55,222.06,60.73Z"/><path class="cls-102" d="M196.63,62.83c1.47-4.2-3.49-10.58,4.28-12.65q0,6.33,0,12.65Z"/><path class="cls-103" d="M162.81,50.24c6.7,9.52,18.71,9.09,27.5,14.71a5.73,5.73,0,0,0,6.35,0c.2,1.44,2.31,3-.14,4.31-2.33,0-4.79-.48-6.38,1.94-4,2.91-8.17.39-12.27.23-8.88-1.45-17.43-4.72-26.53-5a11.89,11.89,0,0,1-3,0,4.91,4.91,0,0,1-3.46-2.52,9.85,9.85,0,0,1-.54-2.85c.06-3.33-1.13-6.73.44-10,3.55-4.68,8.18-1.62,12.37-1.76C159.11,49.26,161.1,48.92,162.81,50.24Z"/><path class="cls-104" d="M114.15,41.69v4.19c-.9,1.91-2.55,3.07-4.22,4.21-2.79,1.63-5.6,2.64-8.42,0L99.3,48c-3-3.31-9.24-3.9-8.71-10.24,3.49-3.9,8-3,12.37-2.59C107.32,36.27,111.37,37.88,114.15,41.69Z"/><path class="cls-105" d="M69.74,58.61q3.17-4.23,6.34-8.47A24.86,24.86,0,0,0,93,52.26c-1.27,6-6,8.18-11,10.19C77.53,62.44,73.18,62,69.74,58.61Z"/><path class="cls-106" d="M101.51,50.14c3.1.34,5.84-.73,8.49-2.13,2.29-.79,2.37.69,2.36,2.28a131.4,131.4,0,0,1-13.42,17.5c-4.13.18-8.27.4-10.68-4,2.69-5.8,8.25-8.32,13.2-11.53C101.48,51.55,101.49,50.85,101.51,50.14Z"/><path class="cls-107" d="M101.46,52.26c-3.41,4.5-6.36,9.57-12.69,10.57a5.06,5.06,0,0,1-2.68,1.45c-2.15-.24-4.26-.51-3.67-3.56L93,52.26Z"/><path class="cls-108" d="M78.28,35.24c0-1.39-.07-2.77-.11-4.15A17.33,17.33,0,0,1,88.77,29c2.16,3.15,7.13,1,9,4.74-3.11,4.28-8.49,2.64-12.42,4.8a4.27,4.27,0,0,1-3-1.07Z"/><path class="cls-109" d="M82.36,37.47l2.26,0c3-2.1,4.72-.1,6.34,2.08,3.43,2.21,6.49,4.77,8.34,8.52C93.06,45.46,84.49,46.64,82.36,37.47Z"/><path class="cls-110" d="M158.65,52.22c-4.26,1.62-8.54-4.77-12.78,0-2.36,1.2-3.22-.48-4.09-2.13l-.15-6.32c2.39-2.5,6.61,2.17,8.53-2.18L156.4,46C158.72,47.5,159.58,49.54,158.65,52.22Z"/><path class="cls-111" d="M116.24,45.94l8.48,2.1c4,4.85,9.5,4.2,14.83,4.27.21,4.56-3.81,4.39-6.44,5.79a13,13,0,0,1-8-.16C120.82,55,115.73,52.52,116.24,45.94Z"/><path class="cls-54" d="M133.18,56.48l6.37-4.17,2.23-2.18,4.09,2.13c-1,2.82,2.15,5.64,0,8.46C140.26,63.46,136.86,59.56,133.18,56.48Z"/><path class="cls-112" d="M116.24,45.94l8.5,10.52a2.06,2.06,0,0,1,0,2.71c-3.62,2.18-6.85.84-10-1.12A7.58,7.58,0,0,1,112,51.56c0-.48,0-1,0-1.43L110,48c.86-1.74,2.45-2,4.15-2.13C114.84,45.91,115.54,45.93,116.24,45.94Z"/><path class="cls-111" d="M114.15,41.69l-10.58-4.25c3.28-6.64,8.45-2.11,12.84-2.18a14.52,14.52,0,0,1,1.86-.12Z"/><path class="cls-113" d="M116.41,35.26c-4.26.85-9.09-1.69-12.84,2.18-4.2.7-8.91-1.72-12.61,2.06l-6.34-2.08c3.2-4.53,9.44.23,12.69-4.15a5.58,5.58,0,0,1,4.34-2,8.27,8.27,0,0,1,6.16,1.8C110.74,33.57,114,32.59,116.41,35.26Z"/><path class="cls-114" d="M107.81,33.06l-6.32,0a2.66,2.66,0,0,1,0-4.05h6.34C107.81,30.35,107.81,31.7,107.81,33.06Z"/><path class="cls-115" d="M101.46,29l0,4.05-4.18.23C94,32.74,89.47,34.72,88.77,29Z"/><path class="cls-116" d="M158.65,52.22,156.4,46q0-8.54.07-17.08a6.71,6.71,0,0,1,6.34,4.19c1.37,5-3.55,11.78,4.25,14.95-.94,1.66-2.53,2-4.25,2.19Z"/><path class="cls-72" d="M143.77,191.83c-3.25-2.7-2-6.43-2.08-9.77-.22-13.12,2.75-25.92,4.18-38.87,3.23,2.19.66,5.84,2.12,8.47h0C149.43,165.35,140.68,178,143.77,191.83Z"/><path class="cls-117" d="M148,103c.33-5.08.32-9.64-6.35-4.24-4.13-4.73-4-6.16.68-8.17,2.91-1.25,6.2-.78,9.17-1.8,2.68-1.28,5.23-1.88,7,1.42,5.36,3.54,10.76-1.39,16.1.09,2.94.81,6-3.33,8.61-.06,1.44,1.83-.38,3.8-1.48,5.59-2.17,3.53-4.85,6-9.3,4.88s-8.66-2.33-13-3.55c-4-1.13-4.13.78-3,3.73,2.16,2.77.82,4.8-1.41,6.64C150.82,108.94,149.87,105.26,148,103Z"/><path class="cls-63" d="M150.27,64.85c9.67-2.07,18.3,2.39,27.33,4.36.14,8.83-7.51,12-12.45,17.1-1.74,2.27-4.36,1.9-6.73,2.27-1.54-5.12-2.53-10.47-5.84-14.89-.69-1.63-1.26-3.31-1.84-5A8.2,8.2,0,0,1,150.27,64.85Z"/><path class="cls-118" d="M154.33,107.25c.71-2.12,1.41-4.23,2.12-6.34,5.21,2.82,8.28,7.43,10.58,12.68a7.28,7.28,0,0,0,4.22,4.23c-.07,2.33.37,4.82-2.11,6.35-6.35-.49-10.76,3.23-15.18,7a3,3,0,0,1-2.79-1.22,6.77,6.77,0,0,1-.95-3.15C150.56,120.05,148.35,112.78,154.33,107.25Z"/><path class="cls-119" d="M165.15,86.31l12.45-17.1c4.42-.83,8.35,1.42,12.54,2,4.86-.34,2.38,4.44,4.3,6.15Z"/><path class="cls-120" d="M154.2,71.36c2,5.59,8.74,10,4.22,17.21a15.39,15.39,0,0,1,0,1.66c-1.38-.2-2.79-2.27-4.12.06a3.87,3.87,0,0,1-4.08.68,4.54,4.54,0,0,1-1.46-2.36c-.2-2.65.21-5.39-1.11-7.9a4.66,4.66,0,0,1-.24-2.61,11.39,11.39,0,0,1,1.24-2.34C150.43,74.18,150.49,70.47,154.2,71.36Z"/><path class="cls-121" d="M154.33,130.51c2.25-8.4,7.07-10.79,14.81-6.34L156.45,139C150.81,137.39,152.37,134,154.33,130.51Z"/><path class="cls-74" d="M154.33,130.51c.3,2.92-1,6.24,2.12,8.46l-6.36,8.44c-4.59.3-2.55-3.28-3.13-5.33,0-1.53,0-3.06.12-4.59,1-2.83,1.53-6.05,5.14-7Z"/><path class="cls-73" d="M148,141.08c.09,2.31-.38,4.82,2.11,6.33l-2.1,4.25c-3.1-2.22-1.81-5.55-2.12-8.47v-2.11C146.57,140.12,147.28,140.12,148,141.08Z"/><path class="cls-39" d="M108.17,141.33c4.75,4.38-1.81,8.16-.65,12.36-1.13,13.79-3.58,14.64-19.12,6.62-3-1.5-5.21-3.68-5.63-7.22-1.3-1.51-3.85-4.23-3.73-4.35,7-7.2-.78-12-2.74-17.63q-2.25-7.34-4.51-14.66c8.62,3,18,4,25.23,10.42C102.89,130,100.29,139.72,108.17,141.33Z"/><path class="cls-51" d="M82.77,153.09l6,5c.57,6.51,6.56,7.52,10.64,10.47-10.59.59-20.63,9.49-31.75,2.09Z"/><path class="cls-122" d="M52.77,119.8c-.1-2.68-1.48-4-4.17-4.11-3.11-7.57-11.35-6.92-16.92-10.55,12.35-1.56,23.73.79,33.81,8.39C59.33,111.74,55.73,115.13,52.77,119.8Z"/><path class="cls-123" d="M82.42,60.72c.91,1.7,2.49,2.07,4.23,2.11,1.14,2.58.23,4.66-1.54,6.55-3,2-5.93-3.4-9-.22H71.85c-1.32-2.21-4.59-3.1-4.29-6.38.11-1.72.49-3.29,2.18-4.18C74.21,57.86,78.2,60,82.42,60.72Z"/><path class="cls-124" d="M108.17,141.33c-3.94,3.1-5.55.38-6.81-2.82-1.53-3.85-2.9-7.75-4.34-11.64-.37-8.67,2-17.55-1.89-26,7.39,1,13,7.78,21.13,6.35,2.07-.37,2.69.54,2.2,2.46-8.46,5-5.55,13-5.35,20.32a4.93,4.93,0,0,1-3.18,4.73C110.13,137.16,104.67,138,108.17,141.33Z"/><path class="cls-98" d="M107.8,98.79l-6.34-6.35c-3-11.1-13.91-14.28-21.15-21.15,12.58-1.91,23.23,3.7,34,8.75C120.77,89.28,113,93.6,107.8,98.79Z"/><path class="cls-125" d="M114.15,81.91,80.31,71.29c-.92-1.68-2.5-2-4.22-2.13,2.82-3.86,5.64-1,8.46,0,4.84-3.1,9,.59,13.4,1.39,4.32,1.53,8.64,3,13,4.37,4.69,2,10.2,2.36,13.68,6.78.65,1.93-.41,2.91-2,3.6C118.94,86.37,116.83,83.42,114.15,81.91Z"/><path class="cls-126" d="M114.15,81.91,122.62,84a6.44,6.44,0,0,1,3.94,3.68c1.41,7.38,2.47,14.73-1.23,21.83-2.36,1.65-4.66,1.73-6.91-.22l-2.16-2.08c-2.53-3.11-7-4.29-8.46-8.46C107.49,92.25,118.12,89.82,114.15,81.91Z"/><path class="cls-127" d="M133.17,187.6c-4.39,2.66-7.64,7.05-12.87,8.43a12.51,12.51,0,0,0-.12-2c-.19-5.7-4.53-11-1.72-17l4.15-6.34c2.6-3.15-.37-7.4,2.1-10.58,0-.7,0-1.4,0-2.1a5.38,5.38,0,0,1,5-.82c5.82,1.59,6.85-.75,5.5-6a29.46,29.46,0,0,1,.18-14.6c.87-3.43.86-8,6.26-8.23,2,17.89-2.52,35.27-4.23,52.86-.07.43-.15.86-.22,1.3C136.56,184.8,134.92,186.24,133.17,187.6Z"/><path class="cls-95" d="M141.65,128.4c-7.56,9.71-2.41,21.41-4.87,32.08l-12-2.47c2-3.74,6.71-.51,9.72-4.33l-24.52-18.92,2.1-4.25c-.79-2.17.67-2.66,2.26-3.08a18.07,18.07,0,0,1,2.08,0c19.93,1,21.5-.72,19.83-21.06a8.78,8.78,0,0,1,.3-3.1c1.15-2,2.65-3.29,5.15-2.41C144.64,110.05,145.39,119.23,141.65,128.4Z"/><path class="cls-83" d="M118.46,177c-.14,5.73,7.62,10.66,1.72,17-7.06-.14-13.65-1.61-19-6.66-.37-4.3-7.67-9.19-2-12.23S112.83,169,118.46,177Z"/><path class="cls-128" d="M99.37,168.6c-6.62-.37-15.88,1.94-10.64-10.47,1,.09,2.39-.2,2.94.35,8.35,8.35,12.86,4.36,15.85-4.79C114.31,165.66,113.24,167.64,99.37,168.6Z"/><path class="cls-129" d="M124.71,160.11c-.49,3.57,1.43,7.62-2.1,10.58C123.11,167.13,121.21,163.08,124.71,160.11Z"/><path class="cls-130" d="M111.24,210.53c5.93,7.26,1.65,15.78,2.91,23.61-6.71-5.76-13.43-11.51-6.37-21.37C108.94,212,110.09,211.28,111.24,210.53Z"/><path class="cls-75" d="M154.33,107.25c-1.08,7-2.94,13.94-2.12,21.14a2.75,2.75,0,0,1-3.32.86l-.91-.86q0-12.69,0-25.37Z"/><path class="cls-131" d="M141.65,100.88,137.41,103c-3.63-4.27-3.27-8.68-.48-13.18,4.53-3,8.95-2.8,13.25.49l4.16,0c-2.62,3.31-6.34,1.82-9.62,2.17-4.46.48-6.84,1.88-3.08,6.32C141.64,99.48,141.64,100.18,141.65,100.88Z"/><path class="cls-75" d="M148,141.08h-2.11c.68-4.23-1.71-9,2.11-12.69h0c2.08,2.82,1.48,5.64,0,8.46Z"/><path class="cls-127" d="M139.51,191.86l-2.09,0c-1.78-3.52-2.32-7,0-10.55l0,0C140.93,184.24,139,188.28,139.51,191.86Z"/><path class="cls-87" d="M137.4,181.29c0,3.51,0,7,0,10.55a48.83,48.83,0,0,0,.05,7.36c1.36,8.66-1.75,14.17-10.62,15.91,1.86-9.23,9-17.24,6.32-27.51A6.39,6.39,0,0,1,137.4,181.29Z"/><path class="cls-112" d="M145.87,62.83,147.94,65a3.62,3.62,0,0,1,.21,4.72C137.86,71,129.58,66.59,126.71,58.3,134,56,139.66,60.56,145.87,62.83Z"/><path class="cls-132" d="M145.87,62.83l-19-4.22a1.38,1.38,0,0,1-2.11,0c0-.71,0-1.43,0-2.14l8.44,0c5.13-1.28,8,4.19,12.7,4.24C145.88,61.42,145.88,62.13,145.87,62.83Z"/><path class="cls-133" d="M148,69.17c0-1.41,0-2.82,0-4.22l2.33-.1,1.86,2.29c-1.42,3.35,0,7.26-2.07,10.48l-2.12.1c-.33-.33-.65-.65-1-1a8.25,8.25,0,0,1-.82-2.62A5.69,5.69,0,0,1,148,69.17Z"/><path class="cls-134" d="M99.35,67.05c1.19-7.92,6.62-12.66,12.7-16.92h0c1.47,4.08,1.12,8.76,4.06,12.36,1.31,1.59,2.66,3.15,3,5.28a3.15,3.15,0,0,1-1.57,2.63c-3.1,1.56-6.31,1.29-9.56.6C105,70,101.59,69.8,99.35,67.05Z"/><path class="cls-9" d="M99.35,67.05c2.92.31,6.23-1,8.46,2.12-2.58,3.76-7.62,1.33-10.55,4.21L84.55,69.15l2.1-6.32h2.12C91.52,66.19,96.32,64.4,99.35,67.05Z"/><path class="cls-135" d="M148,69.17c0,2.11,0,4.23,0,6.34a6.42,6.42,0,0,1-8.76.23c-7.61-6.51-17.39-9.07-25.45-14.66-.69-1.61-.84-3.17.44-4.58l10.52,2.1h2.11C132.34,65.21,140.28,66.92,148,69.17Z"/><path class="cls-111" d="M114.2,56.5c0,1.41,0,2.82,0,4.24a2.83,2.83,0,0,1,0,4.15c-4.21-4.41-1.36-9.86-2.16-14.77C114.53,51.66,114.06,54.18,114.2,56.5Z"/><path class="cls-116" d="M150.06,77.62c.59-3.52-1.36-7.53,2.07-10.48l2.07,4.22Z"/><path class="cls-73" d="M148,136.86q0-4.23,0-8.46h4.22c0,.71,0,1.42,0,2.13Z"/><path class="cls-136" d="M147.94,77.72c0,.66.07,1.32.1,2-2.14,2.54-3.06,5.63-3.87,8.77-2.87,1.5-5.85-.27-8.76.3a5.32,5.32,0,0,1-1.92-2.58c-.79-4.26-.71-8.16,4.09-10.15,3.54.06,7.09.09,10.42,1.55Z"/><path class="cls-137" d="M143.79,87.9c-3.14-5.09-2.8-8.39,4.25-8.19,7.2,1.41,2.94,5.47,2,8.75C147.88,89.36,145.72,90,143.79,87.9Z"/><path class="cls-138" d="M143.79,87.9l6.27.56a10.62,10.62,0,0,0,.12,1.87l-12.77,0a1.36,1.36,0,0,1-.57-1.49c.16-.5.34-.76.51-.76C139.43,86.05,141.68,88.83,143.79,87.9Z"/><path class="cls-139" d="M114.19,128.42,112,130.51c-5-13.69-3.1-19.89,6.39-21.17l6.31,0a5.49,5.49,0,0,1,1.66,4.39C124,120,123.41,127.82,114.19,128.42Z"/><path class="cls-140" d="M118.36,69.15c0-.66,0-1.33,0-2,2.39-1.12,3.9.24,5.31,1.88,1.58,3.81,3,7.66,2,11.91l-1.08,1.1L109.93,77.6C108.67,70.72,115.08,71.49,118.36,69.15Z"/><path class="cls-141" d="M118.36,69.15c-2.49,3.13-7,4.29-8.43,8.45L97.25,73.38c2.12-4.93,6.5-4.16,10.56-4.21Z"/><path class="cls-142" d="M124.8,86.14,122.62,84l1.88-2,.22-.18a3.68,3.68,0,0,1,3-.91c3.78,1.14,7.74,2.15,5.75,7.64C129.74,90.71,127.23,88.57,124.8,86.14Z"/><path class="cls-143" d="M124.8,86.14l8.43,2.06c.61-1,1.32-1.1,2.15-.24.65.08,1.31.13,2,.16l.06,2.24V103c0,.71,0,1.41,0,2.12,1.11,4-1.9,6.54-3.67,9.42-3.49,5.69-6.48,4.08-9-.92,0-1.43,0-2.85,0-4.27Q124.76,97.76,124.8,86.14Z"/><path class="cls-144" d="M124.74,113.64c2.48.59,5.39,6.22,7.17-1.08.67-2.75,3.61-5,5.51-7.42,3.61,8.06,4.55,17.13-1.94,23-5.55,5-14.09,3.66-21.29.33C120.3,125.34,121.7,118.9,124.74,113.64Z"/><path class="cls-145" d="M122.57,69.18l-4.25-2-4.09-2.27c0-1.38,0-2.77,0-4.15,8.34,2.38,16.89,4.05,23.15,11.12,2.52,2.84,6.52,4,10.6,3.65l0,2.09-10.53,0c-3-1.22-6.77,1-9.41-2C125.72,73.87,124.28,71.41,122.57,69.18Z"/><path class="cls-100" d="M128.91,73.47l8.56,4.08c-3.53,2.9-1.72,6.88-2.09,10.41l-2.15.24c.27-4.65-4.78-3.62-6.54-6.11C126,78.85,123,75,128.91,73.47Z"/><path class="cls-146" d="M128.91,73.47c-3.14,2.25-1.67,5.69-2.22,8.62l-2-.22q-1.06-6.34-2.15-12.69Z"/></g></g></svg>