<svg xmlns="http://www.w3.org/2000/svg" viewBox="0 0 398 86.54"><defs><style>.cls-1{fill:#fdfdfd;}.cls-2{fill:#ceb02d;}</style></defs><title>skype-controls</title><g id="Layer_2" data-name="Layer 2"><g id="akype"><path class="cls-1" d="M355.23,85.78A42.84,42.84,0,1,1,397.94,43,42.88,42.88,0,0,1,355.23,85.78Zm-8.85-45.87c5,0,9.2-.12,13.37,0a6,6,0,0,1,6,6.12c0,3.32-2.5,5.82-6.14,6-1.78.11-3.57,0-5.35,0-1.1,0-2.15.29-2.08,1.63.06,1.08,1,1.39,1.94,1.39,1.53,0,3.06,0,4.59,0,5.93-.07,10.09-3.83,10.11-9.14s-4.12-9.15-10-9.21c-3.89,0-7.79,0-12.39,0,1.49-1.63,2.5-2.69,3.47-3.8a1.35,1.35,0,0,0,.12-2A1.43,1.43,0,0,0,348,30.9c-2.2,2.1-4.36,4.27-6.46,6.48a1.54,1.54,0,0,0,.08,2.12c2,2.12,4.07,4.21,6.19,6.22a1.54,1.54,0,0,0,2.38-.1c.59-.72.22-1.44-.33-2C348.88,42.56,347.92,41.56,346.38,39.91Z"/><path class="cls-1" d="M238.83,1.65,249.53,0C273.08,0,287.32,15.31,292,30.33c9.34,30-16.37,59.75-47.39,55-5.34-.82-10-3.19-14.92-4.81a49.39,49.39,0,0,1-18.12-20.66c-2.25-4.92-2.86-10.11-3.47-15.35,0-9.59,2.32-18.51,8-26.32A41.49,41.49,0,0,1,237.89,2.28,3.78,3.78,0,0,0,238.83,1.65ZM250.78,50.4c4.72,0,9.43,0,14.15,0,2.81,0,4.32-1.07,4.29-4q-.06-6.49,0-13c0-2.68-1.21-4-3.93-4q-14.15,0-28.3,0c-2.63,0-4.1,1.08-4.09,3.84,0,4.46,0,8.92,0,13.38,0,2.77,1.48,3.84,4.11,3.81C241.6,50.37,246.19,50.4,250.78,50.4Zm.26,9.18h5.74c.75,0,1.56,0,1.67-1.09s-.56-1.58-1.61-1.53c-1.66.08-2.84-.1-3.16-2.27-.18-1.19-5-1.23-5.23,0-.34,2.11-1.43,2.41-3.13,2.31-1-.05-1.75.25-1.65,1.5.09,1.08.87,1.11,1.64,1.12C247.22,59.59,249.13,59.57,251,59.58Z"/><path class="cls-1" d="M190,45.28c-2.54,24.31-20.83,40.94-44.34,40.53-18.22-.31-35.23-13.7-39.94-31.2-.16-.6-.41-1.19-.62-1.78-.85-6.71-1.32-13.38.37-20.09A42.62,42.62,0,0,1,171.76,8.12c11.57,8.28,17.57,19.81,18,34.12C189.84,43.25,189.9,44.26,190,45.28ZM148.9,51.62c-.2.13-.38.35-.59.38a8.82,8.82,0,0,1-9.18-4.09c-.84-1.29-1.88-2.64-3.22-1.7s.06,2.46.7,3.48a10.74,10.74,0,0,0,5.85,4.66c1.8.58,3.36,1.06,3,3.49a1.41,1.41,0,0,0,1.46,1.8c1.09,0,1.48-.92,1.5-1.87,0-1.44,0-2.67,1.85-3.21s2.86.4,3.93,1.55c.69.74,1.44,1.43,2.16,2.15s1.27,1.26,2.25.42c1.13-1,.57-1.71-.23-2.5Q146.75,44.6,135.16,33c-.79-.78-1.5-1.37-2.5-.24s-.3,1.78.44,2.21c6.34,3.7,7,13,15,15.11A1.3,1.3,0,0,1,148.9,51.62ZM153,38.82c0-1.84,0-3.36,0-4.88a5.85,5.85,0,0,0-1.17-3.54,5.75,5.75,0,0,0-5.9-2.64,6.14,6.14,0,0,0-4.83,3.85c-1.15,2.54.91,3.65,2.25,5.06a43.79,43.79,0,0,0,4.05,4c1.67,1.38,2.88,4.65,4.92,3.84C154.06,43.85,152.72,40.59,153,38.82Zm5.49,7.52c-1.59-.38-3-.84-3.62,1a1.62,1.62,0,0,0,1.24,2C158.26,49.49,157.68,47.43,158.52,46.34Z"/><path class="cls-1" d="M84.9,52.85c-4.63,15.8-14.42,26.84-30.44,31.34C27.08,91.87,1,72,0,43,1,24.8,9.3,11.31,26.1,3.61,50.81-7.71,81,8.9,85.16,35.78,86.05,41.57,85.45,47.17,84.9,52.85Z"/><path class="cls-2" d="M26.13,43.67c0,2.36,0,4.27,0,6.18,0,3.22,1.7,5.1,4.86,5.2,5.08.15,10.19.22,15.26-.11,1.8-.11,3.1-.23,4.3,1.27.64.79,1.42,2.07,2.74.66s0-2-.78-2.78Q41.34,42.86,30.1,31.69c-.62-.62-1.13-2-2.44-1.05s-1,1.83,0,2.78c.37.33.64.76.14,1.25C25,37.42,26.6,41,26.13,43.67Z"/><path class="cls-2" d="M50.46,47.08c.72-13.4-1.77-15.78-12.7-12.86Z"/><path class="cls-2" d="M59.79,44.32c0-1.14,0-2.28,0-3.42-.11-3.37-.87-3.78-3.85-2.4-4.15,1.93-1.72,5.54-2.21,8.36-.52,3,2.21,3.55,4.14,3.74,2.62.26,1.74-2.15,1.91-3.62A21.45,21.45,0,0,0,59.79,44.32Z"/><path class="cls-2" d="M250.78,50.4c-4.59,0-9.18,0-13.77,0-2.63,0-4.11-1-4.11-3.81,0-4.46,0-8.92,0-13.38,0-2.76,1.46-3.84,4.09-3.84q14.16.06,28.3,0c2.72,0,3.95,1.32,3.93,4q-.06,6.49,0,13c0,3-1.48,4.07-4.29,4C260.21,50.35,255.5,50.4,250.78,50.4Z"/><path class="cls-2" d="M251,59.58c-1.91,0-3.82,0-5.73,0-.77,0-1.55,0-1.64-1.12-.1-1.25.63-1.55,1.65-1.5,1.7.1,2.79-.2,3.13-2.31.19-1.19,5.05-1.15,5.23,0,.32,2.17,1.5,2.35,3.16,2.27,1.05-.05,1.72.31,1.61,1.53s-.92,1-1.67,1.09H251Z"/><path class="cls-2" d="M148.9,51.62a1.3,1.3,0,0,0-.84-1.55c-7.93-2.13-8.62-11.41-15-15.11-.74-.43-1.33-1.22-.44-2.21s1.71-.54,2.5.24q11.6,11.61,23.2,23.19c.8.79,1.36,1.52.23,2.5-1,.84-1.6.23-2.25-.42s-1.47-1.41-2.16-2.15c-1.07-1.15-2.05-2.1-3.93-1.55s-1.83,1.77-1.85,3.21c0,.95-.41,1.82-1.5,1.87a1.41,1.41,0,0,1-1.46-1.8c.38-2.43-1.18-2.91-3-3.49a10.74,10.74,0,0,1-5.85-4.66c-.64-1-2.17-2.45-.7-3.48s2.38.41,3.22,1.7A8.82,8.82,0,0,0,148.31,52C148.52,52,148.7,51.75,148.9,51.62Z"/><path class="cls-2" d="M153,38.82c-.31,1.77,1,5-.67,5.7-2,.81-3.25-2.46-4.92-3.84a43.79,43.79,0,0,1-4.05-4c-1.34-1.41-3.4-2.52-2.25-5.06A6.14,6.14,0,0,1,146,27.76a5.75,5.75,0,0,1,5.9,2.64A5.85,5.85,0,0,1,153,33.94C153,35.46,153,37,153,38.82Z"/><path class="cls-2" d="M158.52,46.34c-.84,1.09-.26,3.15-2.38,2.95a1.62,1.62,0,0,1-1.24-2C155.52,45.5,156.93,46,158.52,46.34Z"/><path class="cls-2" d="M26.13,43.67c.47-2.71-1.15-6.25,1.67-9,.5-.49.23-.92-.14-1.25-1-1-1.3-1.88,0-2.78s1.82.43,2.44,1.05q11.25,11.16,22.41,22.4c.74.74,2.05,1.42.78,2.78s-2.1.13-2.74-.66c-1.2-1.5-2.5-1.38-4.3-1.27-5.07.33-10.18.26-15.26.11-3.16-.1-4.84-2-4.86-5.2C26.12,47.94,26.13,46,26.13,43.67Z"/><path class="cls-2" d="M50.46,47.08,37.76,34.22C48.69,31.3,51.18,33.68,50.46,47.08Z"/><path class="cls-2" d="M59.8,44.32a23.59,23.59,0,0,1,0,2.66c-.17,1.47.71,3.88-1.91,3.62-1.93-.19-4.66-.7-4.14-3.74.49-2.82-1.94-6.43,2.21-8.36,3-1.38,3.74-1,3.85,2.4C59.83,42,59.79,43.18,59.8,44.32Z"/><circle class="cls-1" cx="355" cy="43.54" r="43"/><path class="cls-2" d="M361.17,61.54a50.52,50.52,0,0,1-6-1.89,36,36,0,0,1-19.6-21,8.65,8.65,0,0,1-.55-5.29,6.13,6.13,0,0,1,1.19-2.31,31.58,31.58,0,0,1,2.93-3,2.53,2.53,0,0,1,3.81,0c1.6,1.52,3.16,3.09,4.68,4.69a2.46,2.46,0,0,1,0,3.72c-.82.9-1.69,1.77-2.6,2.59a1,1,0,0,0-.27,1.51,52.24,52.24,0,0,0,3,4.34,24.6,24.6,0,0,0,7.56,6.26,1.11,1.11,0,0,0,1.58-.27c.77-.85,1.6-1.66,2.44-2.45a2.53,2.53,0,0,1,3.88,0q2.31,2.23,4.54,4.54a2.64,2.64,0,0,1,0,4c-.94,1-1.92,2-2.92,3a4.7,4.7,0,0,1-3.64,1.29Z"/><path class="cls-2" d="M363.71,29.17c1-1.05,1.91-2,2.84-3a2.38,2.38,0,1,1,3.32,3.36c-.91.91-1.84,1.8-2.95,2.88,1.11,1,2.18,2,3.19,3a2.33,2.33,0,0,1-2.25,3.9,3.5,3.5,0,0,1-1.27-.78c-1-.91-1.87-1.87-2.92-2.93-1,1-1.86,1.94-2.79,2.87a2.39,2.39,0,0,1-3.59.23c-1-1-.9-2.41.28-3.6.85-.87,1.72-1.73,2.58-2.6a1.84,1.84,0,0,0,.2-.32c-.94-.9-1.94-1.82-2.89-2.77a2.37,2.37,0,1,1,3.32-3.35C361.74,27.1,362.67,28.09,363.71,29.17Z"/></g></g></svg>