<svg xmlns="http://www.w3.org/2000/svg" viewBox="0 0 37.23 37.15"><defs><style>.cls-1{fill:gray;}.cls-2{fill:#fefefe;}</style></defs><title>Asset 10</title><g id="Layer_2" data-name="Layer 2"><g id="Layer_1-2" data-name="Layer 1"><path class="cls-1" d="M37.11,2.61c-.18.61.43,1.66-.26,2.1s-1.56.16-2.36.23a31.9,31.9,0,0,0-22.57,12A31.49,31.49,0,0,0,5,34.12c-.08.81-.14,1.61-.15,2.41,0,.46-.16.62-.61.61-1.19,0-2.39,0-3.58,0-.57,0-.63-.28-.61-.73Q.8,17,16.82,6.1a36,36,0,0,1,17-6c.86-.09,1.75,0,2.62-.12.49-.09.7.13.67.65S37.11,1.86,37.11,2.61Z"/><path class="cls-2" d="M12.16,37.13h-.31c-2.23,0-2.19,0-2-2.19A27,27,0,0,1,16.62,19.1,26.29,26.29,0,0,1,34.39,10c.87-.08,2-.54,2.53,0s.17,1.65.18,2.52c0,2,0,2-2,2.2a22.5,22.5,0,0,0-20.48,21.6c0,.63-.15.91-.82.85S12.72,37.13,12.16,37.13Z"/><path class="cls-2" d="M21.93,37.13c-2.9-.07-2.63.56-2.12-2.53C21,27.24,25.37,22.49,32.46,20.22a22.44,22.44,0,0,1,3.91-.63c.51-.06.78.09.75.68,0,1.13,0,2.25,0,3.37,0,.56-.13.76-.76.81a12.64,12.64,0,0,0-11.6,9.66,8.1,8.1,0,0,0-.33,2.17c0,.77-.29.9-.93.86S22.45,37.13,21.93,37.13Z"/><path class="cls-2" d="M33.25,29.41a3.86,3.86,0,1,1-3.87,3.85A3.79,3.79,0,0,1,33.25,29.41Z"/></g></g></svg>