<svg xmlns="http://www.w3.org/2000/svg" xmlns:xlink="http://www.w3.org/1999/xlink" viewBox="0 0 629.77 384.4"><defs><style>.cls-1{fill:#d3c27a;}.cls-2{fill:#ceb02d;}.cls-3{font-size:14.01px;}.cls-3,.cls-6{font-family:CenturyGothic-Bold, Century Gothic;}.cls-4,.cls-7{font-weight:700;}.cls-5,.cls-8,.cls-9{font-family:CenturyGothic, Century Gothic;}.cls-6{font-size:11.67px;}.cls-7{letter-spacing:0.29em;}.cls-8{letter-spacing:0.29em;}.cls-9{letter-spacing:0.29em;}.cls-10{font-size:31.28px;font-family:BerlinSansFB-Reg, Berlin Sans FB;}.cls-11{fill:#d7d7d7;}</style></defs><title>Asset 107CI-Luciano-Antes</title><g id="Layer_2" data-name="Layer 2"><g id="Layer_1-2" data-name="Layer 1"><path class="cls-1" d="M1,76.74V352.59A31.93,31.93,0,0,0,32.91,384.4h565a31.93,31.93,0,0,0,31.86-31.81V76.74Zm196.82,260.6H25V116.82H197.86Z"/><path d="M582.63,173.37c-6.54,0-13.08-.06-19.62,0-1.85,0-2.4-.56-2.29-2.35.15-2.4.08-4.82,0-7.23,0-1.26.28-1.86,1.71-1.85q20.26.06,40.54,0c1.39,0,1.77.52,1.73,1.82-.06,2.49-.12,5,0,7.48.11,1.79-.65,2.14-2.24,2.12C595.88,173.33,589.26,173.37,582.63,173.37Z"/><path d="M582.91,317.62c-6.62,0-13.25-.06-19.88,0-1.83,0-2.41-.56-2.31-2.35.14-2.4.08-4.82,0-7.23,0-1.31.47-1.84,1.81-1.84q20.28,0,40.55,0c1.28,0,1.63.58,1.61,1.73,0,2.5-.11,5,0,7.49.09,1.7-.49,2.22-2.19,2.2C596,317.56,589.46,317.61,582.91,317.62Z"/><path d="M582.76,352.68c-6.54,0-13.08-.05-19.62,0-1.68,0-2.42-.28-2.43-2.21,0-6.61-.1-6.61,6.51-6.61,11.62,0,23.23.06,34.85-.05,2.19,0,2.73.62,2.69,2.74-.1,6.09,0,6.09-6,6.1Z"/><path d="M582.91,194.55c-6.63,0-13.26-.06-19.89,0-1.82,0-2.31-.53-2.31-2.32,0-6.43-.05-6.43,6.46-6.43,11.71,0,23.42,0,35.13,0,2,0,2.47.56,2.46,2.48,0,6.27,0,6.27-6.35,6.27Z"/><path d="M590.15,242.21c-8.91,0-17.83-.05-26.74,0-1.9,0-2.73-.32-2.7-2.5.07-6.05,0-6.05,6.08-6.05,11.67,0,23.35.05,35,0,2.15,0,3,.38,2.95,2.79-.15,5.75,0,5.76-5.84,5.76Z"/><path d="M582.53,288.51c-6.54,0-13.08-.05-19.62,0-1.72,0-2.18-.54-2.19-2.21,0-5.49-.1-5.49,5.3-5.49,12,0,24.09,0,36.14-.05,2,0,2.63.53,2.6,2.57-.1,5.13,0,5.13-5.19,5.13Z"/><path d="M582.65,127.27c-6.45,0-12.9-.06-19.35,0-1.8,0-2.61-.34-2.59-2.39,0-5.29-.06-5.29,5.24-5.29,12.12,0,24.24,0,36.37,0,1.93,0,2.47.52,2.44,2.45-.09,5.24,0,5.24-5.35,5.25H582.65Z"/><path d="M582.59,258.17c-6.45,0-12.9-.1-19.35.05-1.94,0-2.39-.6-2.5-2.36-.33-5.11-.39-5.12,4.13-5.12q18.12,0,36.25,0c3.87,0,3.55-.62,3.59,3.57a11.3,11.3,0,0,0,0,1.54c.24,1.78-.44,2.37-2.28,2.34-6.62-.11-13.24,0-19.85,0Z"/><path d="M582.65,294.88c6.63,0,13.26,0,19.88,0,1.4,0,2.22.17,2.24,1.92s-.77,2.09-2.33,2.09q-19.62-.08-39.24,0c-1.66,0-2.52-.28-2.51-2.23,0-2.18,1.38-1.76,2.6-1.76,6.45,0,12.91,0,19.36,0Z"/><path d="M582.69,268.9H563.05c-1.23,0-2.39.2-2.35-1.74,0-1.62.45-2.29,2.2-2.28q19.89.09,39.78,0c1.59,0,2.06.51,2.08,2.08s-.72,2-2.18,2C596,268.87,589.32,268.9,582.69,268.9Z"/><path d="M582.67,278.76c-6.62,0-13.24,0-19.85,0-1.27,0-2.11-.07-2.11-1.73s.56-2.05,2.11-2q19.84.06,39.7,0c1.37,0,2.23.15,2.24,1.91s-.88,1.87-2.24,1.87C595.9,278.74,589.28,278.76,582.67,278.76Z"/><path d="M582.63,154.37c-6.53,0-13.06,0-19.59,0-1.26,0-2.31.1-2.34-1.78s1-2,2.42-2q19.59,0,39.17,0c1.33,0,2.5-.15,2.47,1.9s-1.25,1.85-2.55,1.85Z"/><path d="M582.92,137.72c-6.7,0-13.39,0-20.09,0-1.5,0-2.14-.34-2.12-2s.86-1.74,2.11-1.74q20,0,39.93,0c1.39,0,2,.33,2,1.85s-.55,1.9-2,1.88C596.17,137.69,589.54,137.72,582.92,137.72Z"/><path d="M582.38,328.85c-6.5,0-13,0-19.52,0-1.47,0-2.21-.28-2.16-2s1-1.38,2.2-1.42c13.14-.38,26.28,0,39.42-.15,1.17,0,2.42-.33,2.43,1.66,0,1.81-.9,1.88-2.25,1.87C595.79,328.83,589.09,328.85,582.38,328.85Z"/><path d="M590.57,147.59c-9.17,0-18.33,0-27.5,0-1.44,0-2.41-.06-2.38-2s1.09-1.78,2.34-1.78c13.21,0,26.42,0,39.62,0,1.55,0,2.11.41,2.1,2s-.76,1.8-2.07,1.78C598.65,147.56,594.61,147.6,590.57,147.59Z"/><path d="M582.66,226.06c-6.63,0-13.26,0-19.89,0-1.3,0-2.09-.13-2.07-1.76s.7-1.82,2-1.82c12.83,0,25.66,0,38.48,0a12.64,12.64,0,0,1,2.27.37c1.41.25,1,1.37,1.06,2.25,0,1.09-.85.84-1.5.84H582.66Z"/><path d="M582.94,206.37c6.54,0,13.08,0,19.61,0,1.17,0,2.2-.12,2.2,1.64s-1.1,1.61-2.23,1.65c-13.06.48-26.12.17-39.18.23-.92,0-2.23.52-2.53-1s-.08-2.58,2-2.54C569.53,206.44,576.24,206.37,582.94,206.37Z"/><path d="M582.92,178.62c-6.53,0-13.07,0-19.6,0-1,0-2.54.64-2.59-1.46s1.33-1.6,2.46-1.6q19.6,0,39.2,0c.91,0,2.15-.48,2.32,1.21s-.81,1.91-2.19,1.9C596,178.6,589.46,178.62,582.92,178.62Z"/><path d="M582.65,354.18h19.87c1.13,0,2.25-.22,2.22,1.58s-1.24,1.53-2.31,1.53q-19.74,0-39.49,0c-1.12,0-2.24.19-2.22-1.6s1.25-1.51,2.31-1.51c6.54,0,13.08,0,19.62,0Z"/><path d="M582.78,333h19.85c1,0,2.07-.19,2.1,1.46s-.69,1.86-2,1.83c-9.69-.2-19.39.12-29.08-.16-3.49-.1-7,0-10.52.14-1.22,0-2.41.22-2.38-1.73S561.94,333,563,333c6.59,0,13.18,0,19.77,0Z"/><path d="M582.82,243.76h19.61c1.08,0,2.3-.29,2.3,1.54s-1.26,1.51-2.3,1.5c-10.32-.14-20.64.21-31-.18-3-.11-6,.09-9,.19-1.13,0-1.75-.24-1.77-1.55s.68-1.53,1.77-1.52C569.27,243.77,576,243.76,582.82,243.76Z"/><path d="M582.76,320c6.46,0,12.91,0,19.36,0,1,0,2.57-.64,2.61,1.44,0,2.24-1.59,1.61-2.73,1.61q-18.71,0-37.42,0c-.77,0-1.54-.06-2.31-.11-1-.06-1.57-.42-1.54-1.57s.65-1.42,1.65-1.41c2.58,0,5.16,0,7.74,0Z"/><path d="M597.34,218.26q-17.37,0-34.75.11c-1.25,0-1.88-.26-1.86-1.7s.88-1.58,2-1.58c11.07,0,22.15,0,33.22,0,.82,0,1.68-.53,2.49.08A3.61,3.61,0,0,1,597.34,218.26Z"/><path d="M597.34,218.26a4,4,0,0,1,1.1-3.07c1.53-.14,3.07.11,4.6-.34s2,.41,2.06,1.82-.54,1.75-1.83,1.68C601.3,218.24,599.32,218.28,597.34,218.26Z"/><path class="cls-2" d="M629.77,92.87V31.92A32,32,0,0,0,597.86,0H31.92A32,32,0,0,0,0,31.92v61Z"/><text class="cls-3" transform="translate(221.28 129.05)"><tspan class="cls-4">Nome: </tspan><tspan class="cls-5" x="49.29" y="0" xml:space="preserve">Luciano Silva   </tspan><tspan class="cls-4" x="148.84" y="0" xml:space="preserve">          Apelido: </tspan><tspan class="cls-5" x="249.37" y="0">Pereira</tspan></text><text class="cls-6" transform="translate(264.12 177.29)"><tspan class="cls-4">Nacionalidade: </tspan><tspan class="cls-5" x="91.5" y="0">Portuguesa</tspan></text><text class="cls-6" transform="translate(349.67 220.71)"><tspan class="cls-4">Data de nascimento: </tspan><tspan class="cls-5" x="121.85" y="0">18/06/1984</tspan></text><text class="cls-6" transform="translate(437.9 176.89)"><tspan class="cls-4">Sexo:</tspan><tspan class="cls-5" x="30.81" y="0" xml:space="preserve"> Masculino</tspan></text><text class="cls-6" transform="translate(265.48 219.84)"><tspan class="cls-4">Altura: </tspan><tspan class="cls-5" x="39.9" y="0">1,74m</tspan></text><text class="cls-6" transform="translate(266.18 260.49)"><tspan class="cls-4">Morada:</tspan><tspan class="cls-7" x="48.09" y="0"> </tspan><tspan class="cls-5" x="54.74" y="0">Rua</tspan><tspan class="cls-8" x="76.89" y="0"> </tspan><tspan class="cls-5" x="83.48" y="0">José</tspan><tspan class="cls-8" x="108.86" y="0"> </tspan><tspan class="cls-5" x="115.45" y="0">Estêvão,</tspan><tspan class="cls-8" x="163.09" y="0"> </tspan><tspan class="cls-5" x="169.68" y="0">lote</tspan><tspan class="cls-9" x="191.2" y="0"> </tspan><tspan class="cls-5" x="197.78" y="0">3,</tspan><tspan class="cls-8" x="207.48" y="0"> </tspan><tspan class="cls-5" x="214.07" y="0">3800-201</tspan></text><text class="cls-6" transform="translate(230.85 357.49)"><tspan class="cls-4">Emprego:</tspan><tspan class="cls-5" x="54.39" y="0" xml:space="preserve"> Fotojornalista no diário de Aveiro</tspan></text><text class="cls-6" transform="translate(442.8 301.24)"><tspan class="cls-4">Idade: </tspan><tspan class="cls-5" x="40.38" y="0">28 anos</tspan></text><text class="cls-6" transform="translate(26.14 359.59)"><tspan class="cls-4">Estudo: </tspan><tspan class="cls-5" x="43.41" y="0">Universidade de Aveiro</tspan></text><text class="cls-6" transform="translate(265.4 301.34)"><tspan class="cls-4" xml:space="preserve">Estado civil:  </tspan><tspan class="cls-5" x="73.05" y="0">Casado</tspan></text><text class="cls-10" transform="translate(143.76 58.9)">CARTÃO DE IDENTIDADE</text><rect class="cls-11" x="24.93" y="117.22" width="173" height="220"/><image width="4480" height="6720" transform="translate(25.43 78.72) scale(0.04)" xlink:href="../../fotografias/primo/JRR_4762-1.png"/></g></g></svg>