<svg xmlns="http://www.w3.org/2000/svg" viewBox="0 0 236 366"><defs><style>.cls-1{fill:#fff;stroke:#000;stroke-miterlimit:10;}.cls-2{font-size:6px;font-family:ArialMT, Arial;}.cls-3{letter-spacing:-0.06em;}.cls-4{letter-spacing:-0.02em;}.cls-5{letter-spacing:-0.07em;}.cls-6{letter-spacing:-0.09em;}.cls-7{letter-spacing:-0.04em;}.cls-8{fill:#d50f1a;}.cls-9{fill:#d40e19;}.cls-10{fill:#d30d17;}.cls-11{fill:#fbf6f6;}.cls-12{fill:#d51117;}.cls-13{fill:#fcf7f7;}.cls-14{fill:#d5111b;}.cls-15{fill:#d61520;}.cls-16{fill:#fbfaf9;}.cls-17{fill:#d20003;}.cls-18{fill:#d4111b;}.cls-19{fill:#d5131c;}.cls-20{fill:#cf0105;}.cls-21{fill:#d51019;}.cls-22{fill:#f8e7e8;}.cls-23{fill:#f8eeea;}.cls-170,.cls-24{fill:#f3e4e0;}.cls-25{fill:#d31316;}.cls-26{fill:#d50714;}.cls-27{fill:#f6d5d5;}.cls-28{fill:#f6d3d4;}.cls-29{fill:#d30b13;}.cls-30{fill:#ea8d93;}.cls-31{fill:#fcfafa;}.cls-32{fill:#fafbfb;}.cls-33{fill:#f3c8ca;}.cls-34{fill:#cf0106;}.cls-35{fill:#d0010a;}.cls-36{fill:#f4cccd;}.cls-37{fill:#f7dbdd;}.cls-38{fill:#d60f1b;}.cls-39{fill:#d00203;}.cls-40{fill:#d30413;}.cls-41{fill:#f2c0c3;}.cls-42{fill:#f5d1d2;}.cls-43{fill:#f9e9e8;}.cls-44{fill:#d72129;}.cls-45{fill:#d40309;}.cls-46{fill:#d3010a;}.cls-47{fill:#faf9f7;}.cls-48{fill:#f4c4c6;}.cls-49{fill:#da4644;}.cls-50{fill:#f3cbd1;}.cls-51{fill:#f8e1e2;}.cls-52{fill:#d5030b;}.cls-53{fill:#d0020d;}.cls-54{fill:#f9e5e8;}.cls-55{fill:#d20107;}.cls-56{fill:#f6d6d7;}.cls-57{fill:#d30c14;}.cls-58{fill:#d30c13;}.cls-59{fill:#d5151f;}.cls-60{fill:#cd0507;}.cls-61{fill:#d3101a;}.cls-62{fill:#da202a;}.cls-63{fill:#db3439;}.cls-64{fill:#cf0101;}.cls-65{fill:#de5358;}.cls-66{fill:#e9868c;}.cls-67{fill:#d0050a;}.cls-68{fill:#d40d18;}.cls-69{fill:#d00709;}.cls-70{fill:#f7dbdc;}.cls-71{fill:#e0565c;}.cls-72{fill:#f8e6e6;}.cls-73{fill:#d71f2c;}.cls-74{fill:#d6151f;}.cls-75{fill:#df2f38;}.cls-76{fill:#d00708;}.cls-77{fill:#ed949d;}.cls-78{fill:#d30410;}.cls-79{fill:#fcf4f3;}.cls-80{fill:#d71c26;}.cls-81{fill:#d1020c;}.cls-82{fill:#d6141f;}.cls-83{fill:#de373f;}.cls-84{fill:#de6467;}.cls-85{fill:#d61921;}.cls-86{fill:#d61722;}.cls-87{fill:#cd0104;}.cls-88{fill:#d30a0d;}.cls-89{fill:#d00108;}.cls-90{fill:#cf0201;}.cls-91{fill:#d41119;}.cls-92{fill:#d50f1b;}.cls-93{fill:#d2070f;}.cls-94{fill:#dc474e;}.cls-95{fill:#e36d75;}.cls-96{fill:#d8232a;}.cls-97{fill:#d73f44;}.cls-98{fill:#d30c17;}.cls-99{fill:#d40d19;}.cls-100{fill:#d50c18;}.cls-101{fill:#d30b16;}.cls-102{fill:#d20d16;}.cls-103{fill:#d40915;}.cls-104{fill:#d6141e;}.cls-105{fill:#d20a11;}.cls-106{fill:#d40912;}.cls-107{fill:#e0595d;}.cls-108{fill:#de4650;}.cls-109{fill:#dd363c;}.cls-110{fill:#d61a24;}.cls-111{fill:#d10511;}.cls-112{fill:#d1050d;}.cls-113{fill:#dd2d3a;}.cls-114{fill:#d82532;}.cls-115{fill:#d92129;}.cls-116{fill:#d9272e;}.cls-117{fill:#d8212b;}.cls-118{fill:#e0484c;}.cls-119{fill:#db3d48;}.cls-120{fill:#d72328;}.cls-121{fill:#d3050b;}.cls-122{fill:#d1070e;}.cls-123{fill:#d81c24;}.cls-124{fill:#db3f43;}.cls-125{fill:#db3642;}.cls-126{fill:#ec7982;}.cls-127{fill:#d9242e;}.cls-128{fill:#d4212a;}.cls-129{fill:#da2a31;}.cls-130{fill:#da2d33;}.cls-131{fill:#d30610;}.cls-132{fill:#df4c5a;}.cls-133{fill:#de5357;}.cls-134{fill:#db3f47;}.cls-135{fill:#d8282e;}.cls-136{fill:#db2e32;}.cls-137{fill:#db3c41;}.cls-138{fill:#d31720;}.cls-139{fill:#d70310;}.cls-140{fill:#e56671;}.cls-141{fill:#f0b9b4;}.cls-142{fill:#d92a34;}.cls-143{fill:#d50d18;}.cls-144{fill:#d40814;}.cls-145{fill:#d61521;}.cls-146{fill:#d40511;}.cls-147{fill:#d41c25;}.cls-148{fill:#d30103;}.cls-149{fill:#d7212a;}.cls-150{fill:#d60a11;}.cls-151{fill:#d10710;}.cls-152{fill:#d1040e;}.cls-153{fill:#dc444d;}.cls-154{fill:#d61e2d;}.cls-155{fill:#d9292e;}.cls-156{fill:#d92d36;}.cls-157{fill:#d61f28;}.cls-158{fill:#dc3e45;}.cls-159{fill:#ce0203;}.cls-160{fill:#df5a62;}.cls-161{fill:#d2010b;}.cls-162{fill:#d0070e;}.cls-163{fill:#d82027;}.cls-164{fill:#db595d;}.cls-165{fill:#d5131f;}.cls-166{fill:#d71e29;}.cls-167{fill:#e88086;}.cls-168{fill:#da3a41;}.cls-169{fill:#d5030c;}.cls-170{font-size:15.22px;font-family:DueDate, Due Date;}</style></defs><title>Asset 120email-de-despedimento</title><g id="Layer_2" data-name="Layer 2"><g id="Layer_3" data-name="Layer 3"><rect class="cls-1" x="0.5" y="0.5" width="235" height="365"/><text class="cls-2" transform="translate(22 39.3)">Jornal Diário de<tspan class="cls-3" x="42.02" y="0"> </tspan><tspan class="cls-4" x="43.36" y="0">A</tspan><tspan x="47.25" y="0">veiro,</tspan><tspan class="cls-4" x="0" y="7.2">A</tspan><tspan class="cls-5" x="3.89" y="7.2">v</tspan><tspan x="6.45" y="7.2">. D</tspan><tspan class="cls-3" x="14.12" y="7.2">r</tspan><tspan x="15.78" y="7.2">. Lourenço Peixinho, 3800-164,</tspan><tspan class="cls-3" x="99.18" y="7.2"> </tspan><tspan class="cls-4" x="100.51" y="7.2">A</tspan><tspan x="104.41" y="7.2">veiro</tspan><tspan x="0" y="21.6">Luciano Silva Pereira,</tspan><tspan x="0" y="28.8">Rua José Estêvão, lote 3, 3800-201</tspan><tspan class="cls-4" x="0" y="43.2">A</tspan><tspan x="3.89" y="43.2">veiro, 13/12/2018</tspan><tspan x="0" y="50.4">Assunto: Rescisão do contrato</tspan><tspan x="0" y="72">Exmo. S</tspan><tspan class="cls-3" x="22.67" y="72">r</tspan><tspan x="24.34" y="72">. Luciano</tspan><tspan x="0" y="86.4">Com referência ao contrato de trabalho a termo incerto celebrado </tspan><tspan x="0" y="93.6">entre esta empresa e </tspan><tspan class="cls-6" x="58.37" y="93.6">V</tspan><tspan x="61.82" y="93.6">. Exa., no passado 01/04/20</tspan><tspan class="cls-5" x="136.54" y="93.6">1</tspan><tspan x="139.43" y="93.6">1, vimos por este </tspan><tspan x="0" y="100.8">meio comunicar a nossa vontade de o fazer cessa</tspan><tspan class="cls-3" x="133.74" y="100.8">r</tspan><tspan x="135.41" y="100.8">, com efeitos a </tspan><tspan x="0" y="108">partir de 13/12/2018 nos termos do Código do</tspan><tspan class="cls-4" x="122.41" y="108"> </tspan><tspan class="cls-7" x="123.97" y="108">T</tspan><tspan x="127.42" y="108">rabalho (*), em virtude </tspan><tspan x="0" y="115.2">de inadaptação.</tspan><tspan x="0" y="129.6">Ser-lhe-á atribuída uma compensação correspondente a 3 dias de </tspan><tspan x="0" y="136.8">remuneração de base por cada mês completo de duração do contrato, </tspan><tspan x="0" y="144">para além da retribuição e demais complementos a que tiver direito </tspan><tspan x="0" y="151.2">(**).</tspan><tspan class="cls-3" x="0" y="165.6">A</tspan><tspan x="3.67" y="165.6" xml:space="preserve"> partir do dia 13/12/2018 pode recolher nos Recursos Humanos um </tspan><tspan x="0" y="172.8">Certificado de</tspan><tspan class="cls-4" x="37.02" y="172.8"> </tspan><tspan class="cls-7" x="38.58" y="172.8">T</tspan><tspan x="42.02" y="172.8">rabalho e uma Declaração para acompanhar um </tspan><tspan x="0" y="180">eventual requerimento que </tspan><tspan class="cls-6" x="73.05" y="180">V</tspan><tspan x="76.5" y="180">. Exa. queira apresentar para obter </tspan><tspan x="0" y="187.2">subsídio de desemprego.</tspan><tspan x="0" y="201.6">Atenciosamente,</tspan><tspan x="0" y="208.8">Filipe dos Santos</tspan><tspan class="cls-3" x="46.03" y="208.8"> </tspan><tspan x="47.36" y="208.8">Amaral</tspan><tspan x="0" y="223.2">(*) termos do nº 1 do art. 344º da Lei n.º 7/2009, de 12 de fevereiro </tspan><tspan x="0" y="230.4">para contratos a termo certo ou então art. 345º da mesma lei para os </tspan><tspan x="0" y="237.6">contratos a termo incerto.</tspan><tspan x="0" y="252">(**) nos termos do nº 2 do art. 344º da Lei n.º 7/2009, de 12 de </tspan><tspan x="0" y="259.2">fevereiro no caso de contratos a termo.</tspan></text><path class="cls-8" d="M127.67,73.85l.73-.3c4.06-2.5,8.81-3.65,13.2-5.51,5.46-2.31,11.14-4.22,16.7-6.31,5.81-2.17,11.53-4.65,17.46-6.6a24.91,24.91,0,0,0,7.66-2.79,14.08,14.08,0,0,1,4.35-1.52c2.81-.1,5.28-2.1,8.06-2.36,5.48-1.41,10.34-4.34,15.73-6,1.47-.44,2.88-1.1,4.38-1.44,2.08-.23,3,.47,2.89,1.78-.16,1.52-2.26,1.71-3.66,2.36-5.51,1.6-10.8,3.86-16.21,5.75-1.5.54-3,1.1-4.5,1.6a9.87,9.87,0,0,1-1.89.42,8.45,8.45,0,0,0-2.93.44,182.16,182.16,0,0,1-23.9,8.67c1.74-.39,2.7-1.27,3.48-.6-.94,1.61-3.06,2-4.8,2.65-2.3.91-4.65,1.73-7,2.58a32.66,32.66,0,0,1-3.75,1.19,11.13,11.13,0,0,0-4.4,1.53,14.27,14.27,0,0,1-3.8,1.42c-2.45,0-4.74,1.39-7.13,1.94a4.45,4.45,0,0,0-3.11,1c-2.75,1.58-5.9,2.31-8.81,3.58a8.86,8.86,0,0,0-3.42,2,5.71,5.71,0,0,1-1.94.88,9.29,9.29,0,0,0-3.74,1.37c-1.73,1-.84,1.83-.78,2.71.12.59,0,1.25.13,1.83,1.6,3.66,2.09,7.74,4.47,11.1.65,1.44,2.46,2.58.38,4.71a2.74,2.74,0,0,1-1.17.27c-.8-.15-1.45-.48-2.27-.63-2.41-1.25-2-3.77-3.1-5.6a14.3,14.3,0,0,1-.87-2.21c-.54-1.59-1.07-3.17-2.84-4.17-.53-.42-.13-1.08-.13-1.64.15-.9.08-1.7-1.1-2a.77.77,0,0,1-.29-.87c.92-1,.24-1.47-.63-1.84a.83.83,0,0,1-.22-.62c1.78-2.73,4.86-3.18,8-3.53a9.65,9.65,0,0,0,2.23-1.42c.44-.41.31-.86.72-1.27A18.09,18.09,0,0,1,127.67,73.85Z"/><path class="cls-9" d="M126.55,110.14a.44.44,0,0,0-.49.16c-1.46.62-2.68,1.78-4.43,1.72l-1-.67a22.53,22.53,0,0,1-2.87-5.95,4.82,4.82,0,0,1,.18-.87,4.45,4.45,0,0,1,.9-.74,11.86,11.86,0,0,1,2.19-1,1.61,1.61,0,0,1,1,0c1,.66.16,1.75.09,2.66s.5,1.43,2,1.12c4.18-.84,8-3.17,12.23-3.79.67-.25.8,1.52,1.92-.2a6.82,6.82,0,0,1,2.07-1.46,7.46,7.46,0,0,1,1-.55c1.49-.65,3-1.19,4.55-1.76l2.83-1a21.37,21.37,0,0,1,3.26-1c1-.19,2,.32,3.13-.42a7.7,7.7,0,0,1,.95-.35c1.73-.44,2.15-2,3.81-2.46,3.09-1,6.19-2,9.23-3.18a30.43,30.43,0,0,1,5.22-1.81,10.51,10.51,0,0,1,1.82-.16c1.14.22,3-.05,2.14,1.54-2.07,1.2-4.52,1.7-6.61,2.89-2.42.7-4.49,2.34-7.07,2.61-4.48,1.62-8.93,3.32-13.38,5-1.65.88-3.56,1.34-5.16,2.3C139.62,105.29,132.92,107.31,126.55,110.14Z"/><path class="cls-10" d="M178.56,89.55a5.06,5.06,0,0,0-3-.54c-.62-1.48,1.34-2.11,2.81-2.6,5.24-1.75,10.3-4,15.58-5.66a4.18,4.18,0,0,1,1.26-.07c.64.23.43.58-.17,1-1.51.61-3.05,1.16-4.58,1.72l4.13-1.51c1.27-.39,1.71-1.42,2.86-1.89a9.33,9.33,0,0,1,1.12-.5c1.7-.64,3.42-1.24,5.1-1.9a16.27,16.27,0,0,0,2.09-1,27.52,27.52,0,0,1,3.24-1.4c.54-.21,1.09-.4,1.64-.6,1.07-.37,2.14-.78,3.24-1.08a5.8,5.8,0,0,1,1.07-.17,4.3,4.3,0,0,1,1.76.42,2.71,2.71,0,0,1,1,.6,1,1,0,0,1,.13.69,1.86,1.86,0,0,1-.67.71A19.16,19.16,0,0,0,213,77.38l-.19,0-.17.13a19.67,19.67,0,0,0-2.58.79A34.62,34.62,0,0,0,206,79.87l-2.14,1a.74.74,0,0,1-.47.3c-.18,0-.28,0-.29,0l-2.3.77c-.86,0-1.42.66-2.16.91-2.59,1.26-5.78,1.22-8,3.24-1.83,1.23-4.15,1-6,2.14a11.67,11.67,0,0,1-2.72.88A13.78,13.78,0,0,1,178.56,89.55Z"/><path class="cls-11" d="M180.92,89.17l3-.94c.2.73-.47.87-1.29.91-2.07.75-4.15,1.46-6.19,2.27-.92.36-2.52.48-2.09,1.66.15.42-.51.79-.84.59-2.14-1.25-3.56,0-5.26,1.54-1.1,1-2.28.21-3.46.41-.17-.17-.11-.34.23-.5a44.92,44.92,0,0,0,7.11-2.72A46.1,46.1,0,0,1,180.92,89.17Z"/><path class="cls-12" d="M216,41.38c-4.23,1.56-8.54,3-12.68,4.72-2.39,1-4.48,2.64-7.22,2.58-.31-.06-.34-.22-.15-.45l2.14-1a3.27,3.27,0,0,1,2.23-.81l2.24-.65c2.79-1.65,6.14-2.17,9-3.73a6.22,6.22,0,0,1,1.32-.33c1.75-.45,3.37-1.49,5.2-1.63h0c.39.09.45.3.18.62A3.77,3.77,0,0,1,216,41.38Z"/><path class="cls-13" d="M126.55,110.14c4.86-2.55,10.25-3.9,15.29-6.07,1.52-.65,3.1-1.21,4.65-1.81a21,21,0,0,1,3.54-1.44.89.89,0,0,1,.88,0c-4.66,2.65-10,3.85-14.9,6C133,108.12,129.71,109.05,126.55,110.14Z"/><path class="cls-14" d="M165,95.11a3.71,3.71,0,0,0-.23.5c-3.82,1.78-8.16,2.45-11.73,4.81a6.68,6.68,0,0,1-2.12.43v-.2c-.39,0-.47-.1-.17-.37Z"/><path class="cls-15" d="M224.05,53.85l1.14,3.68c-1.34.44-1.77-.15-2-.7-1-2.47-2.42-4.79-2.39-7.61a1.21,1.21,0,0,1,1-.72Z"/><path class="cls-8" d="M221.82,48.5l-.59.22c-2.23-.65-2.19-2.42-2.44-3.92a41.37,41.37,0,0,1-.68-4.18l0-.51C220.23,42.55,220.64,45.68,221.82,48.5Z"/><path class="cls-16" d="M121.63,112c1.43-.68,2.68-1.79,4.43-1.72C124.31,113.07,123.85,113.25,121.63,112Z"/><path class="cls-17" d="M196,48.23l.15.45c-2.75.77-5.3,2.47-8.21,2.56l1.51-1,1.25-.48c1.1-1.6,3.29-.4,4.51-1.69Z"/><path class="cls-18" d="M112.09,90.84l-.29-1.42c2.15.76,2.38,2.49,3,4a1.56,1.56,0,0,1-.72.54c-.35.09-.58,0-.7-.16Z"/><path class="cls-8" d="M212.42,42.09l-9.83,3.71c2.39-1.62,5.43-2.06,7.95-3.46C211.27,41.71,211.9,41.63,212.42,42.09Z"/><path class="cls-19" d="M192,85.21l-1.5.43c2.61-1.94,5.92-2.45,8.89-3.68-1.9,1.53-4.57,1.77-6.65,3Z"/><path class="cls-20" d="M219.25,75l-1.67.19c-.05-.14-.11-.28-.16-.43a9.07,9.07,0,0,1,3.27-2,3.31,3.31,0,0,1,1.1-.19c.4.22.54.52.19,1l-2.24,1.32A.45.45,0,0,0,219.25,75Z"/><path class="cls-8" d="M218.08,40.11,212.58,42c-.12-.15-.06-.3.18-.47C214.54,41.13,216.23,40.05,218.08,40.11Z"/><path class="cls-19" d="M210.66,77.86l-.31.53L206,79.87C207.26,78.68,209.06,78.46,210.66,77.86Z"/><path class="cls-21" d="M218.11,40.62l3.12,8.1c1.48,2.87,1.42,6.36,4,8.81l2.32,6.36c-.45,1.56-1.69,2.34-3.82,2.24-1.56-.29-1.59-1.27-1.46-2.33.07-.74.75-1.63-.13-2.15a1.29,1.29,0,0,1-.43-1.17c.35-.95,1.37-2,.33-2.74a12.71,12.71,0,0,0-.95-1.27,1.54,1.54,0,0,1,0-1.58,3.45,3.45,0,0,0,.22-1.28c-.09-.23.21-.56,0-.75a1.67,1.67,0,0,1-.58.38,3.47,3.47,0,0,1-2.26.08.72.72,0,0,1-.25-.94c2.62-1.27,1.62-2.31.68-3-.58-.45-1.5-.7-1.93-1.31-.65-.81-.92-1.79-1.49-2.64a.76.76,0,0,1,.12-.71c3.38-1.82,3.46-2.38.49-3.3Z"/><path class="cls-22" d="M215.54,44.68a1.31,1.31,0,0,0,.33.38c.31.33.11.82.28,1.19a3.73,3.73,0,0,0,1.07,2,2.2,2.2,0,0,1,.38.59c1,.94,1.66,2,.89,3.48l.36.89c1.79.28,1.42,1.41,1.12,2.51a2.09,2.09,0,0,1-2.06.87A2.42,2.42,0,0,1,216.55,55c-.62-1.58-1.16-3.2-1.75-4.79-.1-.22-.18-.45-.26-.67-.17-.54-.53-1-.73-1.54s0-1.29-.93-1.49c-2.5.47-4.78,1.63-7.17,2.43-.37.15-.73.28-1.1.41-1.33.45-2.63,1-4,1.39a5.49,5.49,0,0,1-1.76.26c-.4,0-.54-.23-.41-.55,4.9-1.86,9.8-3.69,14.67-5.59A6.2,6.2,0,0,1,215.54,44.68Z"/><path class="cls-23" d="M141.05,101.18l-.67.41a9,9,0,0,1-3.72,1.39c-4.51,1.27-8.7,3.86-13.42,4.28-.55-.25-.59-.74-.72-1.19-.8-.89.64-2.55-1-3.18l0-.15c-.72.05-1.29,0-1.08-.66,1.62-.38,1.31-1,1.07-1.61-.39-1-.76-1.93-1.14-2.9-1.52-2-1.82-4.57-2.82-6.82q-.08-.5.63-.84c1.15-.41,1.62-.06,1.91.51a19.45,19.45,0,0,0,1.65,5.11c.45,1.15.85,2.32,1.29,3.48s.85,2.5,1.29,3.74a4.22,4.22,0,0,1,.26.67c.39.71,0,1.85,1.57,1.93a11.45,11.45,0,0,0,2.12-.63c4-1.31,7.88-3.28,12.06-4.06C140.9,100.65,141.11,100.82,141.05,101.18Z"/><path class="cls-24" d="M120.85,79.86l2-.84a3.33,3.33,0,0,1,1.84-1.1c5.53-1.83,10.86-4.19,16.41-6,2.67-1,5.43-1.64,8.11-2.61.43.11.53.35.31.71-3.56,2.5-7.95,3.38-12,5a59.27,59.27,0,0,0-7.43,3.09,12.73,12.73,0,0,1-2.39.82c-1.54.34-3.14.51-4.46,1.55a4.13,4.13,0,0,1-1.4.72c-1.76.47-3.83.33-4.9,2.08a3.05,3.05,0,0,1-.35.7,1,1,0,0,1-.53.33c-.21.06-.32.07-.33,0-.12-1-2.38-1.93,1.19-3A9.23,9.23,0,0,1,120.85,79.86Z"/><path class="cls-25" d="M141,72.42,122.89,79c.67-2.54,4-2,5.93-3.12s4.34-1.32,6.14-2.7c1,.2,2.08-.9,3.1-.63,2.25-.76,4.34-2.45,6.8-2C143.81,71.53,142.16,71.6,141,72.42Z"/><path class="cls-26" d="M169.3,61.23l-4.73,1.49-.13-.42c7.08-2.6,14.14-5.27,21.26-7.76,2.22-.77,4.23-3.14,6.83-2a2.08,2.08,0,0,1-.74.81,20.94,20.94,0,0,1-3.46,1.51,43.13,43.13,0,0,0-6.64,2.79,75.71,75.71,0,0,0-9,3.17C171.47,61.21,170.27,61.91,169.3,61.23Z"/><path class="cls-27" d="M169.3,61.23c2.66-.17,5-1.69,7.41-2.56,1.46-.53,2.84-.86,4.27-1.23.28.19.25.43-.09.73-2.53,1.74-5.76,2.2-8.44,3.65a8.83,8.83,0,0,1-2.21.86,47.57,47.57,0,0,0-9,3.27,12.56,12.56,0,0,1-4.34,1.32c-.43-.19-.59-.48-.27-.94C160.74,64.38,165.29,63.39,169.3,61.23Z"/><path class="cls-18" d="M109.24,82.64c-.22-1.56,3-4.09,6.19-4.49,1.51-.18,2.92-1,4.34-.9.65,0,.45.25.06.53-.82.65-2.35.86-2.53,1.89C114.42,80.14,111.43,80.29,109.24,82.64Z"/><path class="cls-28" d="M181.09,57.74c0-.1-.08-.2-.11-.3a24.56,24.56,0,0,1,7.27-3.17,9.71,9.71,0,0,0,3.56-1.36l.72-.42,1.55-.42c1.57-.07,3-1.2,4.56-1.28l1.45-.48c.33.18.34.43,0,.75-2.28,1.69-5.17,2.21-7.75,3.31A30.32,30.32,0,0,0,189,55.7a20,20,0,0,1-2.23.72l-1.69.59C183.74,57.44,182.37,58.13,181.09,57.74Z"/><path class="cls-29" d="M113.94,95.32l0-1.56.82-.32a66,66,0,0,1,2.55,6.16,2.45,2.45,0,0,0,1.18,1.72c1,.77,1,1.77.26,3l-.64.24c-1.81-2.79-1.88-6.27-4.11-8.88C113.65,95.68,113.63,95.56,113.94,95.32Z"/><path class="cls-30" d="M118,90.22l2.49,7.35c-2.23-1.16-1.63-3.49-2.51-5.22a51.51,51.51,0,0,1-2.34-6.44C118.78,86.3,118.37,88.26,118,90.22Z"/><path class="cls-31" d="M118,90.22c-1.24-1.24-.31-3.42-2.36-4.31l.22-1.56c.23-.09.46-.18.69-.29,1.65-.46,1.66.47,2.11,1a2.74,2.74,0,0,1,.26.67,4.14,4.14,0,0,1,.16,1.41,20.84,20.84,0,0,0,0,2.09,1.68,1.68,0,0,1-.38.72Z"/><path class="cls-18" d="M116.61,92.43c-.51-1.36-1.86-2.47-1.53-4.17Z"/><path class="cls-32" d="M156.65,66.33l.27.77c.09.32-.15.63-.52.93a3.56,3.56,0,0,1-.9.37,7.55,7.55,0,0,1-2.32.26.69.69,0,0,1-.5-.75c.06-.11.13-.22.2-.33Z"/><path class="cls-33" d="M141,72.42c1-1.06,2.65-1.1,3.84-1.84l4.45-1.68.26.1c.12.15.06.3-.17.46Z"/><path class="cls-34" d="M176.16,55.59c2.4-1,4.68-2.3,7.3-2.75A14.69,14.69,0,0,1,176.16,55.59Z"/><path class="cls-18" d="M118.8,104.3a3.29,3.29,0,0,1-.26-3c1-.35,1.6-.19,1.79.43-.54.75,0,1.41-.63,2.16Z"/><path class="cls-18" d="M111.9,87.9c-1.63-.16-1.28-1.26-1.44-2.11C113.23,85.39,112,86.93,111.9,87.9Z"/><path class="cls-18" d="M110,84.93l-.7-1.8c1.58-.52,1.81.17,2,.86S110.7,84.79,110,84.93Z"/><path class="cls-35" d="M210.08,45.18l3.68-1.53.25.4-3.87,1.55Z"/><path class="cls-36" d="M119.7,103.91c-1-.62-1.12-1.31.63-2.16a.67.67,0,0,0,.18.33l1.08.66Z"/><path class="cls-37" d="M198.64,50.79c-1.51.48-2.94,1.51-4.56,1.28l4.39-1.62A1.54,1.54,0,0,0,198.64,50.79Z"/><path class="cls-38" d="M138.06,72.57c-1,.31-2.09,1-3.1.63C136,72.82,137.06,71.7,138.06,72.57Z"/><path class="cls-39" d="M149.31,68.9a4,4,0,0,1,3.57-1.32l.13,0A4.58,4.58,0,0,1,149.25,69Z"/><path class="cls-40" d="M117.3,79.67c-.2-1.27,1.4-1.44,2.53-1.89Z"/><path class="cls-41" d="M120.85,79.86,117,81.32C118.2,80.64,119.25,79.55,120.85,79.86Z"/><path class="cls-42" d="M194.6,81c-5.62,2.09-11,4.64-16.82,6.38-1,.3-2.47.54-2.23,1.68l-.64-.17a17.79,17.79,0,0,0-6,2.17c-3.22.85-6.15,2.89-9.54,3-1.46.55-1.87,1.91-3.5,2.33-.22.07-.43.12-.65.17a2.36,2.36,0,0,1-2,.15.67.67,0,0,1-.17-1,4,4,0,0,1,.85-.64c3.23-1.86,7.12-2.42,10.36-4.29,2.75-1,5.37-2.31,8.14-3.29a32.69,32.69,0,0,1,4-1.47c2.53-.89,5.06-1.79,7.55-2.81a39.49,39.49,0,0,1,7.59-2.51C192.69,80.6,194,80.13,194.6,81Z"/><path class="cls-43" d="M141.05,101.18c-.05-.13-.09-.25-.13-.37-.23-.16-.25-.36-.08-.62a10.84,10.84,0,0,1,4.84-2.2,3,3,0,0,1,1,.06c.6.38.16.82-.43,1.26Z"/><path class="cls-44" d="M121.56,102.89c1.72.56,1.19,2.15,2,3.14-2.23,1.75-1.59-.42-2.54-.42C121.14,104.71,122.28,103.69,121.56,102.89Z"/><path class="cls-45" d="M180.92,89.17a67.39,67.39,0,0,1-8.82,3.22c1.78-1.6,4.34-1.83,6.46-2.84C179.42,88.85,180.22,88.62,180.92,89.17Z"/><path class="cls-46" d="M125.17,107.73l7.19-2.64.09.22-7,2.59Z"/><path class="cls-47" d="M153.27,95.85l.27.74a.64.64,0,0,1-.64.42l-3.7,1.18c-.44-.51,0-1,.67-1.54C151,96,152.11,95.47,153.27,95.85Z"/><path class="cls-48" d="M155.9,96.37A5.45,5.45,0,0,1,159.4,94C157.49,94.25,159,97.06,155.9,96.37Z"/><path class="cls-14" d="M163.39,94l-3.59,1.57C160.58,94.33,162.08,94.25,163.39,94Z"/><path class="cls-49" d="M136.66,103l3.72-1.39C137.47,103.78,137.47,103.78,136.66,103Z"/><path class="cls-50" d="M149.59,97.22l-.39,1-3,1.12.44-1a2.73,2.73,0,0,1,2.09-1.22A1.27,1.27,0,0,1,149.59,97.22Z"/><path class="cls-51" d="M121,105.61c1.3-.49.7,1.64,2.54.42l-.29,1.23C120.18,108.29,121.8,106.12,121,105.61Z"/><path class="cls-14" d="M168.94,91a11.84,11.84,0,0,1,6-2.17Z"/><path class="cls-52" d="M152.9,97l.64-.42c.59-.07,1.28-.4,1.71,0a1.31,1.31,0,0,1-.95,1.11A1.07,1.07,0,0,1,152.9,97Z"/><path class="cls-53" d="M150.75,100.28c.05.13.11.25.17.37a17.28,17.28,0,0,1-4.43,1.61C147.58,101.09,149.33,100.94,150.75,100.28Z"/><path class="cls-54" d="M194.6,81l-2.42.11c1.76-2.07,4.77-2.32,7.17-3.44a27.35,27.35,0,0,0,4.14-1.72,9.06,9.06,0,0,1,1.76-.65,48.18,48.18,0,0,0,6.38-2.12,41.41,41.41,0,0,0,4.45-1.87A43.31,43.31,0,0,0,221,69.62c2.63-2.33.1-3.32-.48-4.8-1.18-1.38-1.15-3.22-2-4.73a3,3,0,0,1-.29-1.84,2.34,2.34,0,0,1,1.39-1.4,2,2,0,0,1,1.7.38,1.77,1.77,0,0,1,.39.53c.19.79.92,1.41.57,2.37l.13,1.5c.67.44-.24,1.51.81,1.8-.05.87-1,2.07.95,2.17a5.3,5.3,0,0,1,1,3.18,1.86,1.86,0,0,1-.33.83,6.18,6.18,0,0,1-2,1.23c-.54.23-1.11.44-1.67.64A28.49,28.49,0,0,0,217,73.25a4.32,4.32,0,0,1-1.65.39l-.76.12a6.78,6.78,0,0,0-3.69,1.37l-1.49.54c-1.35,0-2.54.75-3.79,1.17a21,21,0,0,1-3.71,1.59,23.68,23.68,0,0,0-3.44,1.76,3,3,0,0,1-.6.21c-.81-.16-1.61.58-2.43.53Z"/><path class="cls-55" d="M198.45,80.19c.21-1,2.15-.92,2.45-1.85,1.17.13,2.69-1.4,3.68-.44Z"/><path class="cls-56" d="M204.58,77.9c-1.05-.7-2.54.71-3.68.44l4.82-1.78c.26.09.28.23,0,.45Z"/><path class="cls-57" d="M217.26,74.32l-.9-.18a6.54,6.54,0,0,1,2.06-1.66,4,4,0,0,1,2.24-.52.48.48,0,0,1,.18.69A4.73,4.73,0,0,1,217.26,74.32Z"/><path class="cls-19" d="M195,82l-5,1.84-.19-.44,5.06-1.86C195.24,81.55,195.29,81.71,195,82Z"/><path class="cls-19" d="M203.12,79.75a9.35,9.35,0,0,1,4.14-1.48A9.35,9.35,0,0,1,203.12,79.75Z"/><path class="cls-19" d="M218.49,73.08l-2.13,1.06a.9.9,0,0,1-1-.5L216.8,73C217.48,72.81,218.24,72.45,218.49,73.08Z"/><path class="cls-19" d="M217.26,74.32a7.7,7.7,0,0,0,3.3-1.74c.48,0,.61.1.4.44-.82,1.07-2.33,1.2-3.54,1.75Z"/><path class="cls-19" d="M205.75,77a.29.29,0,0,1,0-.45c1.23-.26,2.41-1.22,3.67-.89Z"/><path class="cls-58" d="M195,82l-.15-.46.57-.59c.81-.39,1.62-1,2.43-.53Z"/><path class="cls-19" d="M210.88,75.13a5.34,5.34,0,0,1,3.69-1.37Z"/><path class="cls-59" d="M224.76,69c-.46-1-1.46-1.95-.57-3.39,1.74.23,2.42-.89,3.32-1.71L228.73,67c-.34.56.09,1.14-.85,1.69a5.06,5.06,0,0,1-1.48.6C225.64,69.49,225.05,69.42,224.76,69Z"/><path class="cls-60" d="M227.66,68.46,228.73,67c.62,1.2,2.08,2.16.63,4l0-.19C227.36,70.74,227.71,69.5,227.66,68.46Z"/><path class="cls-61" d="M227.66,68.46c1.55.29.61,1.82,1.72,2.35l-.71.44-4.45,1.53c-.66-.74.76-1.45,1-2.18a5.24,5.24,0,0,1,1-1.61Z"/><path class="cls-62" d="M226,70.64l-1.73,2.14-2.24.78-.38-.73a1.45,1.45,0,0,1,.36-1,4.65,4.65,0,0,1,3.14-1.3A1.88,1.88,0,0,1,226,70.64Z"/><path class="cls-63" d="M222.25,72l-.65.85A3.88,3.88,0,0,0,221,73l-.4-.44a1,1,0,0,0,0-.3c-.91-.37-.15-.82.45-1.26l1.39-.57C223.09,70.84,222.45,71.45,222.25,72Z"/><path class="cls-8" d="M218.49,52.29l-1.5-4.1a.45.45,0,0,1,.37-.25c.14,0,.22,0,.23.05.53,1.09,4.18.06,2.88,2.68C219.92,51.77,219.34,51.86,218.49,52.29Z"/><path class="cls-15" d="M219.57,55.42l-.72-2.24,2.23-.3c.36.22.43.65,1.07.64a.93.93,0,0,1-.36,1.16c-.55.22-.9.67-1.5.84A.84.84,0,0,1,219.57,55.42Z"/><path class="cls-15" d="M222.3,60.13c.13-.91-2.42-.75-1-2.18a1.5,1.5,0,0,1,1.44-.55C223.69,58.15,223.7,59,222.3,60.13Z"/><path class="cls-8" d="M218.3,44.92c1,.42,1.23,1,.73,2C217.4,46.56,218.21,45.58,218.3,44.92Z"/><path class="cls-64" d="M217.59,48l-.6.2-.22.13c-.85-.56-.49-1.68-1.42-2.21l.52-1C217.38,45.62,217,47,217.59,48Z"/><path class="cls-65" d="M223.24,63.43c-1.13-.26-1.31-.89-.81-1.8C226.51,60.72,221.85,63.28,223.24,63.43Z"/><path class="cls-66" d="M220.24,55.3c.43-.39.8-.94,1.55-.62l-.39,1.64a.89.89,0,0,1-.29,1.18L220,56.89C219.34,56.47,220.07,55.84,220.24,55.3Z"/><path class="cls-67" d="M221.11,57.5c.09-.39.19-.78.29-1.18,1,0,1.14.56,1.34,1.08L221.3,58Z"/><path class="cls-8" d="M222.15,53.52c-1.28.49-1.27,0-1.07-.64l.28-.64Z"/><path class="cls-68" d="M205.18,75.69l-1.45.5c-2.4,1-5,1.44-7.79,2.63,1.67-.43,2.88-1.52,4.15-1l-7.91,3.22c-2.43,1-5.11,1.26-7.43,2.61a42.37,42.37,0,0,0-8.81,3.19l-3,1.1c-3,.54-5.64,2.21-8.57,3a1.91,1.91,0,0,0-.27.16l.21.16c-3.16,2-6.88,2.79-10.33,4.16-1.3-.73-.49-1.77.45-2.82a3.69,3.69,0,0,1,1.54-.64c.47-.25,1.89,0,1.31-.76-1.77-2.19-3.12-4.6-5.29-6.57a3.4,3.4,0,0,0-2.07-1.31c-1.34-.43-1.55-1.15-.22-2.27a4.8,4.8,0,0,1,.87-.56c1.38-.59,2.93-1,3.4-2.31,0-.33,0-.66,0-1,.07-3.19,5.06-3.07,7.07-5a7,7,0,0,1,2.18-.69c.53-.64,2.56.47,2.21-1.2a1.88,1.88,0,0,1,.4-.65c.49-.51,1.05-1,1.51-1.52a2.63,2.63,0,0,0,.57-1.26,5.47,5.47,0,0,1,.14-.68c-.2-.55,1.35-1.79-.72-1.59-3.94,1.47-3.94,1.47-5.09.57a45.82,45.82,0,0,1,8.16-3A.85.85,0,0,1,171,62c1.32.13,2.54-1,3.85-1-1.13,0-2.27,1.09-3.4.77,2.94-1.92,6.63-2.33,9.67-4l4.43-1.48c.76.48,1.07-.24,1.52-.57l1.56-.24c1.16-.3,2.24-.91,3.43-1.1,3.17-1.34,7-1.32,9.53-4,3.87-1.57,7.88-2.77,11.7-4.45a.8.8,0,0,1,1-.11c-.05.66.68,1.15,0,2-.18.3-.19.61-.51.89s-.39.34-.58.49c-.25.36,0,.43.41.46.64,0,1.29-.25,1.9-.24.67,1.78,1.35,3.56,2,5.35a2.68,2.68,0,0,1-1.92.51,1.29,1.29,0,0,1-.94-.57c-.24-.28-.16-.61.16-1a2.51,2.51,0,0,0,.85-1.19c.2-.39-.83.26-.35,0,.32-.14.3-.09.22.14a3,3,0,0,1-.71,1c-.52.48-1,.95-.14,1.21.45.77,1.49,1.13,2.34,1.62.33.15.61.34,1,.49a1.46,1.46,0,0,1,.81.92c.18.62.37,1.24.55,1.85-.14.73-.74,1.23-1.77,1.54a3.35,3.35,0,0,1-1,.09,3.26,3.26,0,0,1-1.21-.81c-.51-.57-1.92-.41-2.2-1.16-.06-.2,0-.44-.09-.63a2.07,2.07,0,0,0,.08.7c.18.38.61.65.53,1.12-.59,1.11,1.79.15,1.51,1a13.5,13.5,0,0,0,1,1.27,2,2,0,0,1,.35.53c-.15,1,.76,1.65.62,2.65a3.26,3.26,0,0,1-.49.69,5.18,5.18,0,0,1-1.24.87c-1.78-.2-3.24,1.68-5,1.44-1,0-2,.1-2.94.09a2.34,2.34,0,0,1-.81-.22A17.89,17.89,0,0,1,204,67c-.24-.6-.88-.88-1.76-1a.56.56,0,0,1-.35-.58c-.42.29-.18.51-.12.71s.43.49.46.81a4.56,4.56,0,0,1-1,1.23c-.25.25-.77.42-.73.75a1.63,1.63,0,0,1,1-.11c.5,2.2,3.22-.1,4.69.12,1.19.59.11,2.19,1.55,2.66a2.67,2.67,0,0,1,.61,1.1c.76.85,2-.25,2.93-.33,0-.05.81-.1.07-.15-.22,0-.47,0-.69,0a.58.58,0,0,1-.4-.5,9.28,9.28,0,0,1,3.12-2.36l.48-.23a4.42,4.42,0,0,1,1.05-.24c1.14-.07,1.94.17,2.24.89s0,1.21-.93,1.76a7.76,7.76,0,0,1-4.34,2C209.62,74.06,207.53,75.38,205.18,75.69Z"/><path class="cls-69" d="M213.52,45.94c-3.74,2.46-8.24,3.32-12.35,5-.36-.12-.39-.33-.11-.64a36.84,36.84,0,0,0,3.85-1.7l0,0C207.84,48.13,210.52,46.29,213.52,45.94Z"/><path class="cls-70" d="M213.52,45.94c-3,.48-5.62,2.43-8.65,2.69,3.12-1,6-3,9.37-2.84A1.05,1.05,0,0,0,213.52,45.94Z"/><path class="cls-71" d="M216.08,54.76l1.36-.07.81,1.8c.29.36.14.62-.62.74l-1-.19C216.21,56.35,215.22,55.84,216.08,54.76Z"/><path class="cls-72" d="M217.63,57.23l.62-.74c.65-.25,1.18-.56,1.32-1.07l.67-.12c-.09.53-.17,1.06-.26,1.59l-1.26,1C217.93,58,217.86,57.55,217.63,57.23Z"/><path class="cls-73" d="M215.42,49.34c-.61.47-1.14,1.19-2.06.72-.7-.25-1-.67-.5-1.35l.6-.23c.81-.11,1.27.25,1.95.33Z"/><path class="cls-70" d="M204.91,48.6,201,50.55a.64.64,0,0,1-.8.1,3.42,3.42,0,0,0-.13-.34Z"/><path class="cls-70" d="M215.41,48.81c-.69-.05-1.72.34-1.95-.33l.74-.74C214.6,48.1,215,48.46,215.41,48.81Z"/><path class="cls-70" d="M215.35,46.11a3.08,3.08,0,0,1,1.42,2.21C215.47,48,215.64,46.93,215.35,46.11Z"/><path class="cls-68" d="M154.65,92.69c-.23.9-.45,1.8-.68,2.71l-.7.45-3.68,1.37,0-.2a10.81,10.81,0,0,0-3.66,1.33l-5.17,2.09-.47.13a28,28,0,0,0-4.63,1.82,3,3,0,0,1-.95.32,20.39,20.39,0,0,0-6.13,2.26,8.73,8.73,0,0,1-1.3.77l-1.48.56c-1.83-.22-.85-1.9-2-2.46l0-.12a7.88,7.88,0,0,0-1.61-4.43l-1-3.56c-.43-1.7-1-3.37-1.39-5.09-.2-.33-.17-.82-1-.67l-.06-.49c.3-.76-.07-1.34-.14-2l-.38-1.4c.15-.22.12-.37-.13-.46-.71-.39,0-1.55-1.42-1.56l-.14-.46c.54-1.74,2.75-1.69,4.27-2.38,1.37.12,1.49.87,1.34,1.77-1,1,.09,1.72-.23,2.64-.48,1-.32,1.53,1.44.82,2,.09.51,1.16.31,1.87-.4.67-1.14,1.37-.54,2a1.56,1.56,0,0,0,1.52.21c.74-.54.63-1.06.69-1.59a1.68,1.68,0,0,1,.31-.67c.72-.79-.1-1.13-.31-1.66.81-1.19-1-.59-1.39-1-.62-.74-2.08-1-2.1-2.1a1.54,1.54,0,0,0,.18-2.12L122,81l.71-.72c1.51-1.18,2.51-.29,3.76-.4a8,8,0,0,0,1.74-.07c.32,0,.62-.06.92-.07a4.23,4.23,0,0,1,.83.14c1.45.37,3.18.42,4.34,1.11.13-.16.54.53.42-.15,0-.12-.6-.09-.84-.23-.17-2-3.27-.59-4.61-1.22a.91.91,0,0,1-.08-1.41c5.1-3,11-4.31,16.4-6.6,1.3-.55,2.63-1,3.95-1.56a4.66,4.66,0,0,1,2.75-1.24c1,.4,2.31-.48,3.42-.46v0a.43.43,0,0,1,.32.56,3.9,3.9,0,0,1-.6.71,17.51,17.51,0,0,0-5.56,7c2.38-.72,3.45.36,4.94.87l.33.91c-1.53,1-4,1-4.81,2.79h0a3.85,3.85,0,0,1-3,1l-1.09-.35c.24.23.72.28.93.55.76,1.66,0,3.31-2.29,4.94s-2.8,3.25-.57,4.31a4.56,4.56,0,0,1,.55.4c1.14.35,1.24.28,1,.05s-.43-.43-.39-.76a5.54,5.54,0,0,1,3.09-1.92c2.1-.72,2,.06,1.43,1.15a1.47,1.47,0,0,0-.3,1.26c.09.54.86.62,1.23,1C151.69,93.42,153.61,92.23,154.65,92.69Z"/><path class="cls-51" d="M134.82,102.47l.78-.27a21.24,21.24,0,0,1,5.13-2v.2c.07.12.12.24.18.37l-13.66,4.93,1-.87A27,27,0,0,1,134.82,102.47Z"/><path class="cls-74" d="M119.66,90.64a5.16,5.16,0,0,1,1.39,5.09C120.21,94.16,119,92.7,119.66,90.64Z"/><path class="cls-51" d="M123.75,103.84l2,2.46C123.52,106.31,124.3,104.73,123.75,103.84Z"/><path class="cls-75" d="M126.71,80.35l-4-.06A5,5,0,0,1,127,78.8c.77.15,1,.57.73,1.18A1,1,0,0,1,126.71,80.35Z"/><path class="cls-76" d="M121.23,81.33c-1.68.67-3.54,1.06-4.87,2.27,0-1.61,2.6-2.78,5.64-2.59l-.06.06a.54.54,0,0,1-.43.3C121.34,81.39,121.24,81.37,121.23,81.33Z"/><path class="cls-77" d="M152.67,68.88l-3.13,1a22.5,22.5,0,0,1-.29-.79L153,67.63l.31.82C153.25,68.71,153,68.85,152.67,68.88Z"/><path class="cls-78" d="M127.44,80.07,127,78.8l2.23-.81.47,1.26c.43.34.1.55-.52.71h-.08c-.3,0-.5-.3-.94,0A.83.83,0,0,1,127.44,80.07Z"/><path class="cls-79" d="M191.81,52.91a4.51,4.51,0,0,1-3.56,1.36Z"/><path class="cls-80" d="M155.8,68.58l-.09-.49,1.21-1c4.5-1.62,8.72-4,13.47-4.91-2.6,1.34-5.79,1.62-8.07,3.53-.29,1.41-2.06,2-3.5,2.72A5.26,5.26,0,0,1,155.8,68.58Z"/><path class="cls-81" d="M171.42,61.78l3.9-1.26C174,61.45,172.63,62.3,171,62A.5.5,0,0,1,171.42,61.78Z"/><path class="cls-82" d="M200.22,50.65l.8-.1.07.2.08.19c-1.13,1.32-1.71,3-4.7,2.51-1.34-.2-3.09,1.55-4.87,1.46-.37-.21-.54-.47-.19-.9Z"/><path class="cls-83" d="M187,55.69c-.9.76,1.16,1.36-.36,1.88-1.78.6-.76-.86-1.16-1.31Z"/><path class="cls-84" d="M191.41,54c.06.3.13.6.19.9-.95-.48-2.09,1.44-3,.54C189.13,54.46,190.41,54.41,191.41,54Z"/><path class="cls-85" d="M118.43,87.48c.84.47,1.41,1,.14,2C118.38,88.84,117.36,88.42,118.43,87.48Z"/><path class="cls-86" d="M117.92,85.62c.44,0,.46.18.13.46Z"/><path class="cls-87" d="M152.67,68.88l.65-.43c.79-.08,1.72-.89,2.39-.32C154.7,68.45,153.72,69.1,152.67,68.88Z"/><path class="cls-88" d="M164.3,91.24l-1.48.43c3.31-1.44,6.45-3.3,10.11-3.71A49.64,49.64,0,0,1,164.3,91.24Z"/><path class="cls-89" d="M175.94,86.86a21,21,0,0,1,8.81-3.19Z"/><path class="cls-90" d="M145.91,98.35A4.66,4.66,0,0,1,149.57,97l-2.92,1.26Z"/><path class="cls-91" d="M217.22,61l2.05-1.31,2.14,4.9-.18.37a2.21,2.21,0,0,1-2.66.53c-.83-.63-.3-1.85-1.3-2.4l-.28-.19a1.55,1.55,0,0,1-.45-.43,1.07,1.07,0,0,1-.1-.59C216.53,61.58,217,61.32,217.22,61Z"/><path class="cls-92" d="M216.25,71.53c.08-.52.17-1,.25-1.56,1.3-1.18,3.12-1.52,4.75-2.18,2.43.35,2.45.79.11,2.4C219.66,70.73,218,71.57,216.25,71.53Z"/><path class="cls-93" d="M200.09,77.84c-1.48-.07-2.85,1-4.36,1,2.65-.93,5.08-2.53,8-2.62C202.81,77.23,201.34,77.36,200.09,77.84Z"/><path class="cls-56" d="M221.36,70.19c1.53-1.11,2.61-2.1-.34-1.9-.28-.1-.41-.27-.38-.51.37-1.07,0-2,.5-3.11l.27,0c1.61.8,1.36,2.4,1.94,3.64C223.82,69.26,222.73,69.81,221.36,70.19Z"/><path class="cls-94" d="M221.05,71l-.45,1.26-2.11.8c-.59,0-1.3.29-1.69-.06C217.75,71.63,219.55,71.56,221.05,71Z"/><path class="cls-95" d="M222.25,72l.19-1.53,2.19-.94a1,1,0,0,1,.52,1.38C224.21,71.33,223,71.12,222.25,72Z"/><path class="cls-96" d="M205.18,75.69c2.25-.69,4.34-2,6.73-2.15C209.64,74.13,207.62,75.75,205.18,75.69Z"/><path class="cls-97" d="M225.15,70.89c-.65-.28-.68-.8-.52-1.38a.94.94,0,0,1,.13-.52h1.43c.12.52.46,1-.24,1.65Z"/><path class="cls-98" d="M147.24,81.53a7.72,7.72,0,0,0,3.08-.61c-.69.83-1.36,1.66,0,2.08.26.76,1.65.65,2.09,1.26,2.62.29,1.15,3.45,4.58,3.16-1.5,2.13,0,2.83,2,3.37a4.38,4.38,0,0,1-1.31,1.7,1,1,0,0,1-1.55-.34,2.79,2.79,0,0,1-1.53-.89c-.78-.36-1.83.17-2.73.19a6,6,0,0,1-1,0c-.6-.31-2.06.2-2-.74L150.14,89c-1.8,1-3.42,1.14-4.35,2.36a1.54,1.54,0,0,1-1.48.54h0a18.93,18.93,0,0,1-.19-5.06c2.43-1.42,3-2.94,2.52-4.54C146.8,82,146.79,81.72,147.24,81.53Z"/><path class="cls-98" d="M154.81,77.21c-.92,0-2.25.18-2.7-.18-1.59-1.26-2.13.45-3.71,1.58,1.11-3.84,2.58-7,6.81-9.73.81.43,2.24-.81,3-.14,3.43-1.26,6.84-1.19,10.27-2.18.16.51.51,1-.28,1.63-1.42.23-1.36,1-1.77,1.66l-.8.32a1.65,1.65,0,0,1-1.26.65,14.25,14.25,0,0,1-1.48-.17c.36.24,1.06.24,1.08.73a.76.76,0,0,1-.22.51c-3.3.25-5.11,3.37-8.5,3.63C155,75.54,154.65,76.65,154.81,77.21Z"/><path class="cls-99" d="M168.45,66.56c-1.69,1.22-3.34,2.19-5.38,1.49-1.26-.43-2.08.36-3.13,1.19s-2.82,1.66-2.29-.32c.23-.44,1-.53,1.28-.93,1.43-.53,1.81-1.85,3.39-2.27,2.11-.32,3.87-1.61,5.89-2.14.66.84-.09,2,.24,3Z"/><path class="cls-100" d="M204.41,66.68c1.26.47,2.42,1,2.49,2.19a.6.6,0,0,1-.44.3c-.18,0-.28,0-.29,0a2.85,2.85,0,0,0-.73.22c-2.66,1.8-4.05,1.58-4.36-.42-.72-.65.41-1.22.94-1.81-2-.3-.67-1.55-.38-3,.4.83.62,1.27.83,1.72C203.35,65.94,203.7,66.48,204.41,66.68Z"/><path class="cls-101" d="M197.9,71.67c0,1.7-1.74,1.57-2.84,1.44-1.42-.17-.4-1.34.26-1.62,2-.84.74-1.36.57-1.86a1.39,1.39,0,0,1,.62-1.7,1.81,1.81,0,0,1,1.72-.33c1.32.73-1.18.79-1,1.24a15.37,15.37,0,0,0,1.22,2C198.57,71.19,198.18,71.43,197.9,71.67Z"/><path class="cls-102" d="M206.17,69.15l.73-.28.76-.26a4.46,4.46,0,0,0,3.09.31c1,.2,3.29-1.37,3,.51l0,0c-.86.77-2.12.9-3.13,1.44-1.13.3-2.18,1.07-3.38,1C204.53,71.87,206.49,70.08,206.17,69.15Z"/><path class="cls-103" d="M160.81,84.16c2.17-.33,3.64-2,5.14-1.33,1,.5.09,2.22-.59,2.54C163,86.46,162.61,84.79,160.81,84.16Z"/><path class="cls-104" d="M221,68l.09.15,0,.18c-1.37.92-3,1.15-4.52,1.68-.14-.74-1.34-.51-2-.81-.93-.68.55-1.29,1-1.93l.57-.69.83.12a26.73,26.73,0,0,1,3.23.67,2.29,2.29,0,0,1,.66.35C220.85,67.77,220.9,67.87,221,68Z"/><path class="cls-105" d="M217.15,62.54c3.07-.17,1.08,2,1.85,2.91a2.3,2.3,0,0,1-1.75.89l-.44-.08c-.33-.91-1.26-1.6-1-2.74A2.35,2.35,0,0,1,217.15,62.54Z"/><path class="cls-106" d="M155.41,90.31c.24.62.47,1.23.71,1.84l-1.47.54c-1.5.23-3.7,2.08-4.18,0a1.65,1.65,0,0,1,1.22-1.15C153,91.42,154.14,90.63,155.41,90.31Z"/><path class="cls-99" d="M163.72,71.89a2.46,2.46,0,0,0-.83-.59c-.85-.24-2.42-.35-1.39-1.29,1.6-1.48,1.6.13,2.37.34a5.88,5.88,0,0,0,1.73-.18c.33.34,1.86-.07,1,1C165.65,72.46,164.66,71.24,163.72,71.89Z"/><path class="cls-98" d="M150.33,80.91c-.43-3,2.76-2.3,4.81-2.79A6.09,6.09,0,0,1,150.33,80.91Z"/><path class="cls-92" d="M210.44,71.68l4.49-.1c-2.8,1-4.54,1.69-6.29,2.29-1.29.45-1-.26-1-.72A2.51,2.51,0,0,1,210.44,71.68Z"/><path class="cls-107" d="M215.5,67.23l-1,1.93a4.66,4.66,0,0,1-.74.27c-.42-1.37-2.57.27-3.48-.25-.29-.07-.33-.22-.09-.45C212,68.62,213.65,67.11,215.5,67.23Z"/><path class="cls-108" d="M210.44,71.68a8.21,8.21,0,0,0-2.76,1.47c-.15-.41-.29-.82-.44-1.24,1.17-.51,2.09-1.64,3.59-1.36.65.34-.09.75-.4,1.14Z"/><path class="cls-109" d="M206.94,62.21c.47.49,1.92.5,1.21,1.56a1.78,1.78,0,0,1-.93.56c-1.34.19-1.26-.62-1.55-1.17C205.79,62.66,206,62.24,206.94,62.21Z"/><path class="cls-110" d="M181.84,82.19l-3.24,1.92C178.83,82.23,178.94,82.15,181.84,82.19Z"/><path class="cls-111" d="M216.07,59.81l.53,1.36a1.46,1.46,0,0,1-.52.57,3.7,3.7,0,0,1-.86.32,2.39,2.39,0,0,1-.81-.05c.22-.73-1.68-.25-1.14-1.17A3.65,3.65,0,0,1,216.07,59.81Z"/><path class="cls-80" d="M168.45,66.55c-1.16-.72-.52-1.89-.24-3C170.79,63.94,168.69,65.48,168.45,66.55Z"/><path class="cls-18" d="M212.75,59.6a2.37,2.37,0,0,0-.43-.57c-.56-.41-.56-.93,0-1.56a1.15,1.15,0,0,1,.63-.26c.85.18.79.77.68,1.36a7.32,7.32,0,0,1-.23.76.49.49,0,0,1-.38.3C212.86,59.65,212.76,59.64,212.75,59.6Z"/><path class="cls-112" d="M216.08,54.76l.51,2.28c-1.06-.54-2.52-.86-2.29-2.17a.58.58,0,0,1,.43-.3c.18,0,.28,0,.29,0Z"/><path class="cls-103" d="M167.57,86.91c-1.47,0-3.34.79-4.66-.13,1.58-.63,2.93.14,4.31-.76C167.73,86.16,167.9,86.45,167.57,86.91Z"/><path class="cls-113" d="M169.59,82.28c1,.74.95,1.48,0,2.45C168.87,84.14,168.5,83.51,169.59,82.28Z"/><path class="cls-114" d="M177.17,75.15c-.14-.44.4-.69.83-.71a2.73,2.73,0,0,1,1.47.24c.32.23-.11.64-.62.82A1.39,1.39,0,0,1,177.17,75.15Z"/><path class="cls-110" d="M181.17,80.35A3.85,3.85,0,0,1,183.46,79c.14,0,.41.36.31.52C183.26,80.31,182.44,80.57,181.17,80.35Z"/><path class="cls-115" d="M161.69,76.49c.89.1,2.05-.27,2.35.43,0,.09-.52.55-.74.57C162.27,77.59,161.65,77.31,161.69,76.49Z"/><path class="cls-116" d="M193.87,76.58c1.48-.89,2.13-.56,3.25-.49A3,3,0,0,1,193.87,76.58Z"/><path class="cls-117" d="M204.41,66.68c-1.51.53-1.72-.14-1.94-.79C204.17,65.18,205.09,65.2,204.41,66.68Z"/><path class="cls-118" d="M190.64,61c.81-.23,1.56-.34,1.59.34a1.06,1.06,0,0,1-.54.68c-.94.49-1.35.17-1.61-.29C190.22,61.46,190.2,61.18,190.64,61Z"/><path class="cls-119" d="M212.75,59.6a3.81,3.81,0,0,1,.66-.27c.76.34,2.1-.11,2.66.48l-2.8,1C213.09,60.43,212.92,60,212.75,59.6Z"/><path class="cls-120" d="M215,54.59l-.72.28c-.75-.06-2.25.38-2.11-.26.22-1,1.69-.42,2.49-.91h0Z"/><path class="cls-92" d="M210.43,71.69l.4-1.14c.78-.87,2-.53,2.92-1.09A10.63,10.63,0,0,1,210.43,71.69Z"/><path class="cls-121" d="M152.36,84.26c-.84-.31-2.53,0-2.09-1.26C152.3,82.42,152,83.61,152.36,84.26Z"/><path class="cls-122" d="M212.86,48.71c.17.45.34.9.5,1.35-.77,0-2,.38-2.14-.27S212.23,49,212.86,48.71Z"/><path class="cls-123" d="M191.82,64.17c.61.5.48,1,.1,1.61a1.86,1.86,0,0,1-.85-.06C190.38,65.21,191.21,64.75,191.82,64.17Z"/><path class="cls-124" d="M197.11,56.79c.38.75-.23,1.26-1.19,2.06C195.31,57.94,196,57.44,197.11,56.79Z"/><path class="cls-125" d="M174.67,78.17c.73-.19,1.36-.33,1.6.08,0,.07-.41.44-.68.53-.54.19-1.27.54-1.43,0C174.12,78.63,174.52,78.34,174.67,78.17Z"/><path class="cls-126" d="M183.55,80.41c.95.49,1.22.92.39,1.69C183.17,81.83,183.11,81.36,183.55,80.41Z"/><path class="cls-127" d="M206.94,62.21l-1.27.95c-.66,0-1.78.13-1.21-.58C205.16,61.69,206.15,62,206.94,62.21Z"/><path class="cls-128" d="M210.22,68.73a3.58,3.58,0,0,1,.09.45c-1.6.69-2.47.48-2.65-.57Z"/><path class="cls-129" d="M207.12,58.88c-1.63.51-2.34.2-3-.33A3.22,3.22,0,0,1,207.12,58.88Z"/><path class="cls-130" d="M167.57,86.91c-.12-.3-.23-.6-.35-.89.31-.47.82-.87,1.29-.5C169.13,86,168.49,86.52,167.57,86.91Z"/><path class="cls-131" d="M214.68,53.7l.49-2.64c.57,1,1.45,1.68-.48,2.64Z"/><path class="cls-132" d="M171.75,78.55c.62.84-.18,1.29-1.23,1.78C170.37,79.61,171.3,79.19,171.75,78.55Z"/><path class="cls-133" d="M197.9,71.67l.55-.78c2-.4.78.83,1.16,1.42Z"/><path class="cls-134" d="M202,67.14,201.08,69c-.45.11-1.19.41-1.05-.09A2.62,2.62,0,0,1,202,67.14Z"/><path class="cls-135" d="M198.42,55.13c.37.11.74.12.82.26a.58.58,0,0,1-.13.66c-.5.33-.9.19-1-.13S198.27,55.49,198.42,55.13Z"/><path class="cls-136" d="M181.81,68.1c-.72.63-1.68.76-1.88.42-.39-.67.59-.47,1-.53A3.08,3.08,0,0,1,181.81,68.1Z"/><path class="cls-103" d="M159.17,85.24l.74-.17a3.54,3.54,0,0,1-.39.93c-.16.22-.72.45-.79.18S159,85.54,159.17,85.24Z"/><path class="cls-137" d="M166.4,69.85c-.13-.84-.3-1.69,1.77-1.66Z"/><path class="cls-138" d="M190.64,61l-.56.73c-.25-.34-1.35-.45-.58-1.06C190.11,60.17,190.42,60.68,190.64,61Z"/><path class="cls-139" d="M214.41,62l.79-.27a.88.88,0,0,1,.75.51,1,1,0,0,1-.09.58l-.31.28C214.63,63.06,214.62,62.48,214.41,62Z"/><path class="cls-140" d="M216,61.47a5.12,5.12,0,0,0,.57-.3l.62-.14-.41.66C216.24,62,215.78,62.1,216,61.47Z"/><path class="cls-141" d="M217.15,62.54c0,.61-.63.81-1.33,1l-.27-.41h.2a1,1,0,0,1,1.25-.45Z"/><path class="cls-142" d="M216.24,67c-.06-.16-.11-.31-.17-.46l.74-.28h0C217.14,66.61,217,66.86,216.24,67Z"/><path class="cls-143" d="M144.12,86.79c.68,1.54,2.19,2.89.19,5.06C141,90.72,140.94,90,144.12,86.79Z"/><path class="cls-144" d="M129.14,80l.52-.71c2.31-.34,5.16-1.28,4.69,1.37.31.35.13.59-.58.72C132.51,80.57,129.93,81.23,129.14,80Z"/><path class="cls-86" d="M122,83.17c.41,1,2.46.89,2.39,2.14a1.59,1.59,0,0,1-1.26,1.12c-.87.09-1.57,0-1.9-.5,0-.92-1.48-1.64.59-2.79Z"/><path class="cls-145" d="M123.11,86.29l1.25-1c.67.22,1.82.15,1.22,1.13-.18.71,1.39,1.06,0,2v0a1.59,1.59,0,0,1-.85.48c-.79,0-1.8.26-1.7-.6-.59-.44,1-1.21.25-1.63C122.91,86.69,122.87,86.53,123.11,86.29Z"/><path class="cls-74" d="M123,88.38l1.83.38c.62.6-.06,1.15-.9,1.69a4,4,0,0,1-1.64.32C120.88,90.1,122,89.24,123,88.38Z"/><path class="cls-146" d="M143,78.49c-.63-1.25.27-1.95,1.25-2.63.07,0,.51,0,.55.12C145.12,76.85,144.09,77.5,143,78.49Z"/><path class="cls-85" d="M123.11,86.29a3.43,3.43,0,0,0,.11.46c-.92.14-1.51,1.45-2.43,1-.64-.33-.67-1.09.41-1.79Z"/><path class="cls-147" d="M133.77,81.34l.58-.72c.73-.15,1.65-1,2,0,.26.61-.17,1-.89,1.33C134.3,82.44,134.09,81.8,133.77,81.34Z"/><path class="cls-148" d="M134.82,102.47a29.33,29.33,0,0,1-6.58,2.4A10.4,10.4,0,0,1,134.82,102.47Z"/><path class="cls-149" d="M121.23,81.33c.23-.1.47-.18.71-.26,2.55.13,1.3,1.11,0,2.1l-.18,0C121.65,82.52,120.69,82.18,121.23,81.33Z"/><path class="cls-150" d="M123.61,90.22a2.53,2.53,0,0,0,1.19-1.46,6.93,6.93,0,0,1,.72-.26c1,.83.41,1.79-.81,2.8C124.14,91.06,123.41,90.91,123.61,90.22Z"/><path class="cls-151" d="M144.31,91.86l1.48-.54c.23.29,1.39,0,1,.54a2.58,2.58,0,0,1-2.06,1.2C144,93,144.61,92.21,144.31,91.86Z"/><path class="cls-152" d="M138.82,94.16l.45,2.55C138.33,96.12,137.72,95.41,138.82,94.16Z"/><path class="cls-153" d="M158.93,68a2,2,0,0,1-1.28.93c-.75-.15-2.23,1.22-2.44,0a6.54,6.54,0,0,0,.59-.3Z"/><path class="cls-154" d="M151.76,91.69l-1.29,1c-.58-.26-1.84-.11-1.23-1.11a2.88,2.88,0,0,1,2.2-.81l.17.46Q152.07,91.33,151.76,91.69Z"/><path class="cls-155" d="M147.24,81.53l-.6.72c-.53-.59-2.19-.23-2.48-1.29C145.74,80.56,146.34,81.26,147.24,81.53Z"/><path class="cls-156" d="M125.53,88.47c.8-.84-1-1.13,0-2C126.31,87,129.28,87,125.53,88.47Z"/><path class="cls-157" d="M126.83,91.68a5.72,5.72,0,0,1-1,.71c-.5.22-1.11.22-1-.22.08-.24.73-.54,1.16-.75S126.74,91.21,126.83,91.68Z"/><path class="cls-158" d="M138.29,76.62c.58.39,1,.85.43,1.67C137.06,78.25,138.43,77.17,138.29,76.62Z"/><path class="cls-159" d="M140.73,100.24a21.4,21.4,0,0,1-5.13,2A8.41,8.41,0,0,1,140.73,100.24Z"/><path class="cls-160" d="M123.61,90.22l1.1,1.08c-1.34.48-1.7-.27-2.45-.53Z"/><path class="cls-161" d="M136,75.61a6,6,0,0,1-3.23,1.24A6.18,6.18,0,0,1,136,75.61Z"/><path class="cls-162" d="M151.44,90.78l-2.2.81c-.86,0-1-.32-.34-.9Z"/><path class="cls-163" d="M127.44,80.07l.63-.26c.44,0,.52.14.28.44a2.12,2.12,0,0,1-1.64.1C127,80.25,127.19,80.15,127.44,80.07Z"/><path class="cls-164" d="M128.35,80.25l-.27-.44c1-.91.75,0,1,.16C128.83,80.07,128.59,80.17,128.35,80.25Z"/><path class="cls-165" d="M216.24,67l.58-.74,2.18-.81a2.86,2.86,0,0,0,2.14-.78c0,1.07,2.43,1.7-.19,3.29l-.29-.09c-.29,0-.31-.4-.81-.15C218.63,67.5,217.09,67.68,216.24,67Z"/><path class="cls-166" d="M216,61.47l.78.22c0,.17.07.34.1.52a1.78,1.78,0,0,1-1.4.45c-.1-.3-.21-.61-.31-.92Z"/><path class="cls-167" d="M215.51,62.66l1.4-.46.09.21v.24l-1.25.45Z"/><path class="cls-168" d="M151.76,91.69a4,4,0,0,0-.15-.45c1.26-.37,2.49-1.28,3.8-.93C154.36,91.18,153.3,92.05,151.76,91.69Z"/><path class="cls-169" d="M219.85,67.72l.46-.34.35.49Z"/><text class="cls-170" transform="translate(126.8 100.52) rotate(-20.16)">DESPEDIDO</text></g></g></svg>