<svg xmlns="http://www.w3.org/2000/svg" viewBox="0 0 123.12 106.25"><defs><style>.cls-1{fill:#fff;}</style></defs><title>Asset 45</title><g id="Layer_2" data-name="Layer 2"><g id="Layer_1-2" data-name="Layer 1"><path class="cls-1" d="M68.87,53.53c0,15,.07,30-.07,45.06,0,2.55,1.57,6.21-1.45,7.44-2.79,1.13-4.48-2.45-6.58-4A68.77,68.77,0,0,1,52,94.73C41.05,83.5,28.76,76.47,12.28,79.45c-6.57,1.18-9.22-3.91-10.4-9.19a79.06,79.06,0,0,1,0-34.13c1.34-6.25,4.8-10.47,12-9.37,13.93,2.13,25.37-2,34.91-12.51,4-4.39,9.16-7.73,13.82-11.52C64,1.57,65.28-.64,67.31.17,69.92,1.22,68.82,4,68.83,6,68.9,21.86,68.87,37.69,68.87,53.53Z"/><path class="cls-1" d="M123.12,65.26c-3.46,5.83-7.26,7.25-11.36,1.06-5.16-7.79-9.63-5.92-14.4.51-2.13,2.89-4.67,6.44-8.62,1.23-1.72-2.27-2-3.56.21-5.25a4.46,4.46,0,0,0,.58-.57c8.13-9.12,8.31-9.29,0-17.88-2.86-3-2.55-4.47.17-7.09,2.38-2.29,3.82-2.22,5.83.18,1.74,2.08,4,3.71,5.68,5.86,2.76,3.67,4.93,3,7.47-.2,1.7-2.11,4-3.73,5.7-5.85,2.75-3.46,4.25-1,6.36.78,2.38,2.05,2.29,3.2.11,5.59-9.11,10-9,10.08.89,20.1C122.17,64.11,122.5,64.55,123.12,65.26Z"/></g></g></svg>