<svg xmlns="http://www.w3.org/2000/svg" viewBox="0 0 1924.18 1918.66"><defs><style>.cls-1{fill:#fe7db8;}.cls-2{fill:#e2e2e2;}.cls-3{opacity:0.53;}.cls-4{fill:#e1e0e1;}.cls-5{fill:#e5bacc;}.cls-6{fill:#e1b4c9;}</style></defs><title>Asset 47</title><g id="Layer_2" data-name="Layer 2"><g id="Layer_1-2" data-name="Layer 1"><path class="cls-1" d="M749.71,291.72l660.67-.37a38.11,38.11,0,0,1,32.75-5.78c75.51,53.34,134.42,124.45,198.43,189.74,40.54,41.35,71.07,47,107.76-1,15.8-20.66,39.24-34.85,55.88-55.23,42.13-51.62,68-37.71,83.83,20.33,6.18,451.59,2.07,903,2,1354.34,0,77.27-22.36,99-99.55,99.28-461.91,1.41-923.83.7-1385.74.65-39.84,0-76.54-12.77-113.35-25.61L289.2,734.6c.89-3.56,1.78-7.13,2.59-10.72C362,628.66,455.17,555.64,537,471.65,597.14,409.92,659.15,350,718.09,287.05,729.45,283,740.13,283.65,749.71,291.72Z"/><path class="cls-2" d="M749.71,291.72l-31,3.32c-68.6,40.5-143.91,20-216.08,21.5C293,321,317.82,296.17,315.46,501.65c-.9,78.58,3.46,157.76-22.61,233.94l-3.64-1c-62.1,69.67-108.32,67-158.78-18.92-22.54-38.38-78.61-54.79-108.66-97.57-25-35.55-34.48-50.07,4.52-87.66C188,374.61,343.52,212.28,500.77,51.81,568.05-16.84,574-9.94,654.23,48c39.86,28.78,69.64,66.95,108.53,96.24C817.19,185.21,802.33,246.28,749.71,291.72Z"/><path class="cls-3" d="M292.44,1868.11c506.24,1,1012.47,1.28,1518.69,4.1,61.39.34,58.2-33.83,58.14-75.56q-1.07-696.44-.92-1392.87c-5.57-5.22-7.46-11.44-5.23-18.86,13.46-28.25,12.23-66.8,52.9-76.13,19.49,42.82-2.11,85.43-1.88,128.29,2.41,456.25,1.57,912.53,1.38,1368.8,0,101.3-10.74,111.66-114.06,111.69-453.65.12-907.3-.81-1360.94,1.09C383,1918.9,333.5,1909.46,292.44,1868.11Z"/><path class="cls-4" d="M1916,308.79c-28.23,19-13.5,62.74-45.64,79.53-36.89-68.49-97.09-74.54-167.9-74-86.7.69-176.43,21.05-260.4-19.93l-31.7-3.05c-48.12-63.58-19-107.51,34.71-148.75,47.33-36.39,79.8-89.13,131.53-121.91,14.78-9.38,23.73-33.08,43.42-12.6C1717.54,109.48,1827.11,199,1916,308.79Z"/><path class="cls-5" d="M292.85,735.59c-14.35-137.71,4-275.37,1.52-413.14-.66-37.56,38-28.34,62.27-28.43,120.7-.42,241.4.53,362.11,1C673.14,382.58,591.52,437.68,525.85,507,451,585.87,370.76,659.6,292.85,735.59Z"/><path class="cls-6" d="M1442.08,294.41c104.53-.29,209.39,4.44,313.46-2.55,76.19-5.11,123.11,8.54,114.81,96.46q-.93,7.74-2,15.46c-61,13.8-88.58,69.13-126.95,108.55-30.59,31.43-48.59,41.57-80.85,7.58C1588.5,444,1515,369.49,1442.08,294.41Z"/></g></g></svg>