<svg xmlns="http://www.w3.org/2000/svg" viewBox="0 0 117.47 93.91"><defs><style>.cls-1{fill:#fff;}.cls-2{fill:gray;}</style></defs><title>Asset 43</title><g id="Layer_2" data-name="Layer 2"><g id="Layer_1-2" data-name="Layer 1"><path class="cls-1" d="M60.32,46.86c0,13.74,0,27.48,0,41.22,0,1.81,1,4.34-.86,5.33C57,94.65,55.64,92,54,90.72c-4.13-3.31-8.57-6.37-12.15-10.21-8-8.56-17.35-11.72-29-10.48-8,.86-10.85-2-12-10A87.61,87.61,0,0,1,1.08,33.4C1.81,29,3.42,22.88,9,23.93c17.54,3.32,29-6.34,40.49-16.83C52.31,4.49,55.51-.83,59,.81s1.18,7.41,1.26,11.33C60.46,23.71,60.32,35.29,60.32,46.86Z"/><path class="cls-2" d="M102.89,0c19.35,20.57,19.46,71.66.19,93.91-5.28-2.48-4.74-5.08-2.19-10.22,12.16-24.46,12.26-49.44-.21-73.82C98.09,4.8,98.36,2.46,102.89,0Z"/><path class="cls-2" d="M101.47,47c-.22,11.17-1.54,22.09-7.94,31.68-1,1.47-1.81,4.86-4.63,1.9-1.55-1.63-4.06-2.46-2.05-6.23,9.74-18.24,9.77-36.83-.09-55-2.06-3.8.69-4.72,2.29-6.21,2.81-2.61,3.59.74,4.58,2.21C100,25,101.26,35.88,101.47,47Z"/><path class="cls-1" d="M78.47,24.27c9.52,13.45,9.31,33.21-.18,45.27C74.1,67,73,64.43,75.41,59.25a28.94,28.94,0,0,0,0-24.51C73.1,29.61,74,27,78.47,24.27Z"/></g></g></svg>